<svg width="960" height="671" viewBox="0 0 960 671" fill="none" xmlns="http://www.w3.org/2000/svg">
<path d="M7.27148 602.063C7.27145 584.167 39.1361 560.443 47.328 552.38C47.462 552.248 47.544 552.144 47.6239 551.974C55.5176 535.16 69.497 391.588 93.0153 281.836C116.639 171.594 129.763 174.218 145.512 174.218C157.587 174.218 165.269 193.509 167.941 204.356C168.137 205.152 168.813 205.716 169.633 205.716H318.727C319.312 205.716 319.82 205.426 320.134 204.932C326.807 194.452 330.661 179.468 351.997 179.468C373.87 179.468 377.37 217.965 381.745 240.714C386.119 266.087 405.368 397.327 422.867 443.699C440.365 490.071 440.829 577.58 390.494 618.686C337.998 661.558 256.629 676.367 256.629 652.809C256.629 636.287 286.014 636.186 272.629 630.172C272.474 630.102 272.301 630.051 272.133 630.031C229.221 624.778 130.439 613.128 75.8718 608.219C75.632 608.197 75.3923 608.229 75.1639 608.304C28.1655 623.914 7.27152 619.518 7.27148 602.063Z" fill="#FEFBEC" stroke="#F5DEB6" stroke-width="13.999" stroke-linecap="round"/>
<path d="M205.479 389.664C272.009 397.505 294.491 502.123 268.919 621.493C268.414 623.851 266.126 625.415 263.738 625.071C190.016 614.463 157.505 610.869 102.661 604.337C100.208 604.044 98.4055 601.924 98.5989 599.462C103.34 539.102 120.273 379.623 205.479 389.664Z" fill="#F9EBCF"/>
<path d="M164.534 260.573C162.544 260.556 160.594 261.128 158.931 262.218C157.268 263.308 155.966 264.866 155.191 266.695C154.416 268.524 154.202 270.542 154.577 272.492C154.951 274.443 155.897 276.238 157.295 277.652C158.693 279.065 160.479 280.032 162.428 280.431C164.377 280.83 166.401 280.642 168.243 279.892C170.085 279.141 171.663 277.862 172.776 276.216C173.889 274.57 174.487 272.631 174.495 270.645C174.513 269.328 174.268 268.021 173.776 266.799C173.283 265.578 172.552 264.466 171.625 263.529C170.698 262.592 169.594 261.848 168.377 261.34C167.159 260.833 165.853 260.572 164.534 260.573ZM301.584 261.773C299.594 261.746 297.642 262.309 295.974 263.391C294.305 264.473 292.996 266.025 292.212 267.851C291.429 269.676 291.205 271.693 291.57 273.645C291.936 275.597 292.873 277.397 294.264 278.817C295.656 280.237 297.438 281.213 299.385 281.621C301.332 282.029 303.356 281.851 305.202 281.109C307.048 280.367 308.631 279.095 309.752 277.454C310.872 275.813 311.48 273.877 311.497 271.891C311.528 270.566 311.295 269.249 310.812 268.014C310.329 266.779 309.606 265.652 308.684 264.698C307.762 263.744 306.66 262.982 305.442 262.456C304.223 261.929 302.913 261.649 301.585 261.632L301.584 261.773Z" fill="#B8965F"/>
<path d="M324.772 310.551C323.31 313.802 321.323 316.792 318.891 319.401C316.481 321.849 313.691 323.892 310.628 325.451C305.659 327.889 300.129 328.962 294.607 328.56C263.986 328.622 225.475 329.109 205.331 328.933C187.592 328.777 174.934 326.631 171.022 326.173C167.346 325.863 163.732 325.039 160.286 323.724C155.699 322.055 151.547 319.379 148.135 315.894C145.361 313.021 143.164 309.645 141.664 305.947C141.223 305.075 141.407 306.161 141.354 305.186C141.3 304.212 141.01 301.197 141.354 300.283C141.697 299.369 142.226 298.536 142.908 297.836C143.59 297.136 144.41 296.585 145.316 296.218C146.222 295.85 147.194 295.674 148.172 295.7C149.15 295.727 150.111 295.955 150.996 296.371C151.881 296.787 152.669 297.382 153.313 298.117C153.956 298.853 154.439 299.714 154.732 300.645C155.577 302.682 156.792 304.545 158.317 306.14C160.307 308.143 162.731 309.662 165.402 310.582C167.587 311.38 169.866 311.891 172.183 312.101C178.104 312.639 194.508 314.943 226.637 314.943L226.781 298.554C225.07 297.66 223.655 296.29 222.707 294.61C221.758 292.93 221.318 291.012 221.438 289.088C223.416 284.113 241.438 284.271 243.423 289.28C244.344 291.785 241.894 296.85 237.344 299.165L237.206 314.941C250.793 315.06 276.752 314.943 294.826 314.339L295.156 314.342C298.212 314.566 301.274 313.993 304.04 312.677C305.656 311.842 307.131 310.758 308.409 309.466C309.726 308.109 310.779 306.522 311.517 304.783C312.283 303.029 313.716 301.65 315.501 300.95C317.285 300.25 319.275 300.287 321.033 301.051C322.791 301.816 324.172 303.247 324.873 305.028C325.574 306.81 325.538 308.796 324.772 310.551Z" fill="#B8965F"/>
<path d="M436.865 312.453C442.115 330.535 464.863 365.824 500.736 365.824C549.989 365.824 575.105 365.824 578.605 383.323C585.64 418.499 509.812 420.449 515.61 386.823C519.984 361.449 571.606 329.077 631.976 336.076" stroke="#CBCBCB" stroke-width="8.74937" stroke-linecap="round"/>
<path d="M394.601 282.421C388.903 289.599 382.523 294.879 376.967 297.698C371.071 300.689 367.569 300.273 366.079 299.09C364.59 297.908 363.39 294.591 364.966 288.17C366.451 282.12 370.148 274.709 375.846 267.531C381.544 260.354 387.923 255.074 393.479 252.255C399.376 249.264 402.878 249.68 404.368 250.862C405.857 252.045 407.056 255.362 405.48 261.783C403.995 267.833 400.299 275.244 394.601 282.421Z" fill="#A6CFEF" stroke="#C1E0F9" stroke-width="7.98244"/>
<path d="M446.85 288.44C439.278 280.911 403.269 250.032 403.892 250.949C405.76 253.699 410.443 259.01 401.033 274.759C389.891 293.403 379.476 302.391 366.435 299.548C366.355 299.531 366.224 299.497 366.279 299.557C367.659 301.033 409.877 331.373 422.86 330.739C429.071 330.436 436.649 323.45 442.099 315.078C448.495 305.254 451.96 293.521 446.85 288.44Z" fill="#CCE6FC" stroke="#C1E0F9" stroke-width="9.12279" stroke-linecap="round"/>
<path d="M674.913 306.122C679.84 312.815 685.448 317.813 690.391 320.551C695.637 323.457 698.825 323.196 700.214 322.173C701.603 321.151 702.8 318.184 701.584 312.312C700.438 306.779 697.332 299.939 692.405 293.246C687.478 286.552 681.87 281.555 676.927 278.816C671.681 275.91 668.493 276.171 667.104 277.194C665.715 278.217 664.518 281.183 665.734 287.055C666.88 292.589 669.986 299.428 674.913 306.122Z" fill="#A6CFEF" stroke="#C1E0F9" stroke-width="7.24003"/>
<path d="M627.356 309.85C634.468 303.276 668.127 276.477 667.532 277.288C665.748 279.719 661.327 284.378 669.337 298.964C678.819 316.231 687.962 324.722 699.877 322.577C699.949 322.564 700.07 322.537 700.017 322.589C698.717 323.882 659.449 349.986 647.702 348.983C642.082 348.502 635.445 341.92 630.782 334.151C625.309 325.035 622.556 314.286 627.356 309.85Z" fill="#CCE6FC" stroke="#C1E0F9" stroke-width="8.27432" stroke-linecap="round"/>
<path d="M443.981 302.962C429.558 296.026 406.095 324.756 398.944 332.81C398.58 333.22 398.428 333.768 398.529 334.307L405.812 373.149C406.027 374.297 407.294 374.912 408.326 374.364C449.816 352.352 470.548 315.739 443.981 302.962Z" fill="#FEFBEC" stroke="#F5DEB6" stroke-width="13.999" stroke-linecap="round"/>
<path d="M672.224 345.701C673.82 356.079 693.222 393.528 704.596 404.319C701.971 404.319 704.115 404.319 698.472 404.319C684.473 404.319 652.975 373.696 646.85 363.197C638.976 349.697 648.13 316.984 652.975 330.827C659.1 348.327 670.474 334.326 672.224 345.701Z" fill="#FFD850" stroke="#FFD12E" stroke-width="13.999"/>
<rect x="178.758" y="0.975586" width="293.979" height="125.294" rx="20.8174" fill="#FFB648"/>
<path d="M249.449 144.31C245.159 145.09 235.636 131.147 230.68 123.103H268.463C263.913 130.497 253.74 143.53 249.449 144.31Z" fill="#FFB648"/>
<circle cx="273.308" cy="72.0508" r="15.5976" fill="white"/>
<circle cx="330.434" cy="51.9999" r="15.5976" fill="white"/>
<circle cx="387.562" cy="72.692" r="15.5976" fill="white"/>
<path d="M714.585 263.201C661.306 327.136 714.584 377.754 714.584 388.41C714.584 392.494 709.693 396.945 704.597 401.352C699.056 406.145 693.273 410.886 693.273 415.049H871.76C858.44 415.049 850.448 412.386 845.12 388.41C863.768 356.442 863.101 292.505 839.792 265.866C807.159 228.57 754.545 223.241 714.585 263.201Z" fill="#FFD850" stroke="#FFD12E" stroke-width="13.999"/>
<ellipse cx="660.001" cy="608.443" rx="29.3039" ry="21.3119" fill="#C6C6C6"/>
<ellipse cx="883.776" cy="608.443" rx="29.3039" ry="21.3119" fill="#C6C6C6"/>
<rect x="614.714" y="411.309" width="330.334" height="191.807" rx="8.46073" fill="#DCE8E6" stroke="#E3F5EF" stroke-width="10.6559"/>
<rect x="598.729" y="490.94" width="360.474" height="43.7468" rx="10.6559" fill="#C6C6C6"/>
<circle cx="744.185" cy="288.765" r="5.32797" fill="#986400"/>
<circle cx="786.81" cy="288.765" r="5.32797" fill="#986400"/>
<path d="M802.793 318.069C802.793 321.011 786.095 320.733 765.497 320.733C744.899 320.733 728.201 321.011 728.201 318.069C728.201 315.126 744.899 310.077 765.497 310.077C786.095 310.077 802.793 315.126 802.793 318.069Z" fill="#DA831D"/>
<path d="M803.549 324.122C803.549 321.451 787.565 324.128 766.253 324.122C742.277 324.115 728.957 321.181 728.957 324.122C728.957 327.063 745.655 334.771 766.253 334.771C786.851 334.771 803.549 327.063 803.549 324.122Z" fill="#ECA859"/>
<rect width="87.4937" height="75.2446" rx="12.6391" transform="matrix(-1 0 0 1 815.713 114.717)" fill="#FFC9C9"/>
<path d="M772.794 201.742C775.399 202.216 781.181 193.75 784.19 188.866H761.251C764.013 193.356 770.19 201.269 772.794 201.742Z" fill="#FFC9C9"/>
<circle cx="771.966" cy="168.963" r="5.24962" fill="white"/>
<path d="M785.287 137.431C784.853 136.41 784.227 135.486 783.443 134.708C782.659 133.929 781.735 133.309 780.721 132.884C779.669 132.44 778.541 132.213 777.402 132.216C775.805 132.216 774.246 132.66 772.891 133.498C772.567 133.699 772.259 133.919 771.967 134.159C771.676 133.919 771.368 133.699 771.044 133.498C769.689 132.66 768.13 132.216 766.532 132.216C765.382 132.216 764.267 132.44 763.214 132.884C762.196 133.311 761.279 133.926 760.491 134.708C759.707 135.485 759.081 136.41 758.647 137.431C758.197 138.493 757.967 139.621 757.967 140.781C757.967 141.876 758.187 143.017 758.625 144.178C758.991 145.148 759.516 146.154 760.187 147.17C761.25 148.778 762.711 150.454 764.526 152.154C767.534 154.972 770.512 156.919 770.639 156.998L771.407 157.497C771.747 157.718 772.185 157.718 772.525 157.497L773.293 156.998C773.419 156.915 776.394 154.972 779.405 152.154C781.22 150.454 782.682 148.778 783.745 147.17C784.416 146.154 784.944 145.148 785.307 144.178C785.744 143.017 785.965 141.876 785.965 140.781C785.968 139.621 785.738 138.493 785.287 137.431Z" fill="white"/>
</svg>
