<svg width="1920" height="437" viewBox="0 0 1920 437" fill="none" xmlns="http://www.w3.org/2000/svg">
<g clip-path="url(#clip0_133_16547)">
<path d="M307.2 -80.1105C337.398 -18.3142 355.18 111.813 184.726 137.95C14.2718 164.088 -39.6823 365.7 -45.3526 463.239" stroke="#FF527D" stroke-width="3" stroke-linecap="round"/>
<path d="M384.684 -80.6152C401.855 -14.0132 393.14 117.034 220.91 108.405C48.6795 99.7765 -44.6664 286.445 -69.8106 380.858" stroke="#F0E33C" stroke-width="3" stroke-linecap="round"/>
<path d="M442.998 3.96313C440.949 72.7126 396.096 196.153 233.077 139.917C70.0575 83.6812 -71.5659 236.983 -122 320.664" stroke="#FFAB37" stroke-width="3" stroke-linecap="round"/>
<path d="M1935.03 112.476C1934.46 181.254 1892.27 305.63 1728.08 252.911C1563.89 200.192 1460 315.5 1447 465" stroke="#62F1EF" stroke-width="3" stroke-linecap="round"/>
<path d="M1952.5 139C1847.5 139 1799.06 190.417 1751 314C1681 494 1488 327 1389 463.5" stroke="#5A5995" stroke-width="3" stroke-linecap="round"/>
<path d="M2037.07 118.262C1986.9 165.309 1946.2 264.313 1802.78 210.544C1538.11 111.322 1521.11 450.848 1426.23 474.134" stroke="#B8E070" stroke-width="3" stroke-linecap="round"/>
<path d="M888 272.966C888 265.266 894.281 259 902 259C909.719 259 916 265.266 916 272.966" stroke="#FF527D" stroke-width="2.80082" stroke-miterlimit="10" stroke-linecap="round"/>
<path d="M892.891 272.965C892.891 267.954 896.978 263.872 902.002 263.872C907.025 263.872 911.117 267.95 911.117 272.965" stroke="#FFAB37" stroke-width="2.80082" stroke-miterlimit="10" stroke-linecap="round"/>
<path d="M897.777 272.967C897.777 270.64 899.668 268.751 902.004 268.751C904.339 268.751 906.23 270.637 906.23 272.967" stroke="#5A5995" stroke-width="2.80082" stroke-miterlimit="10" stroke-linecap="round"/>
<mask id="mask0_133_16547" style="mask-type:alpha" maskUnits="userSpaceOnUse" x="802" y="279" width="319" height="61">
<path d="M802.11 321.602V313.638H807.869V287.687H802.11V279.724H820.952C826.592 279.724 830.906 280.719 833.892 282.71C836.878 284.653 838.371 287.45 838.371 291.1C838.371 293.233 837.874 295.081 836.878 296.645C835.93 298.21 834.556 299.442 832.754 300.343C834.982 300.959 836.689 302.096 837.874 303.755C839.059 305.414 839.651 307.524 839.651 310.083C839.651 313.781 838.419 316.625 835.954 318.615C833.536 320.606 830.005 321.602 825.36 321.602H802.11ZM817.041 313.638H823.725C825.81 313.638 827.398 313.235 828.488 312.43C829.626 311.624 830.195 310.439 830.195 308.875C830.195 307.358 829.673 306.22 828.631 305.462C827.588 304.656 826.095 304.253 824.151 304.253H817.041V313.638ZM817.041 297.072H824.222C825.739 297.072 826.877 296.669 827.635 295.863C828.441 295.058 828.844 293.92 828.844 292.451C828.844 289.275 826.474 287.687 821.734 287.687H817.041V297.072ZM852.765 339.305C851.722 339.305 850.632 339.163 849.494 338.879C848.357 338.642 847.172 338.263 845.939 337.741L847.646 330.702C848.594 331.082 849.423 331.366 850.134 331.556C850.893 331.745 851.722 331.84 852.623 331.84C853.713 331.84 854.637 331.532 855.396 330.916C856.154 330.347 856.913 329.351 857.671 327.929C858.429 326.507 859.306 324.588 860.302 322.17L871.038 296.503H867.483L867.909 289.322H885.542V296.503H879.925L866.345 326.65C864.307 331.2 862.221 334.447 860.088 336.39C858.003 338.334 855.562 339.305 852.765 339.305ZM861.795 326.223L847.859 296.503H842.598V289.322H860.87V296.503H857.031L866.061 318.26L861.795 326.223ZM918.244 317.62C916.063 319.469 913.788 320.819 911.418 321.673C909.096 322.573 906.797 323.024 904.521 323.024C900.824 323.024 897.601 322.289 894.852 320.819C892.103 319.303 889.97 317.241 888.453 314.634C886.983 311.979 886.249 308.969 886.249 305.604C886.249 302.049 886.96 298.944 888.382 296.29C889.804 293.636 891.771 291.574 894.283 290.104C896.795 288.635 899.71 287.9 903.028 287.9C906.489 287.9 909.475 288.587 911.987 289.962C914.547 291.337 916.514 293.256 917.888 295.721C919.31 298.139 920.021 301.006 920.021 304.324C920.021 304.94 919.974 305.651 919.879 306.457C919.832 307.263 919.737 308.021 919.595 308.732H894.852C895.041 310.344 895.587 311.695 896.487 312.785C897.388 313.875 898.525 314.681 899.9 315.203C901.322 315.724 902.862 315.985 904.521 315.985C906.512 315.985 908.432 315.653 910.281 314.989C912.129 314.326 913.812 313.401 915.329 312.216L918.244 317.62ZM911.063 302.76C911.063 300.532 910.375 298.731 909.001 297.356C907.626 295.934 905.73 295.223 903.313 295.223C901.132 295.223 899.236 295.934 897.625 297.356C896.013 298.731 895.16 300.532 895.065 302.76H911.063ZM924.943 302.191H948.762V309.372H924.943V302.191ZM954.449 279.724H973.788L987.866 308.661V287.687H982.605V279.724H1002.44V287.687H995.901V321.602H985.378L968.243 287.616V313.638H974.215V321.602H954.378V313.638H960.279V287.687H954.449V279.724ZM1031.38 320.393C1027.97 322.147 1024.56 323.024 1021.14 323.024C1016.55 323.024 1013.06 322.17 1010.69 320.464C1008.32 318.71 1007.14 316.174 1007.14 312.856C1007.14 306.078 1011.64 302.689 1020.65 302.689H1028.11C1028.11 299.94 1027.52 297.925 1026.33 296.645C1025.2 295.318 1023.78 294.655 1022.07 294.655C1021.03 294.655 1020.05 294.726 1019.15 294.868C1018.3 295.01 1017.45 295.223 1016.59 295.508L1015.95 298.85L1008.49 297.925L1009.84 289.962C1011.78 289.298 1013.77 288.801 1015.81 288.469C1017.9 288.09 1020.1 287.9 1022.42 287.9C1027.16 287.9 1030.79 289.156 1033.3 291.668C1035.86 294.133 1037.14 297.783 1037.14 302.618V314.207L1042.9 316.056L1040.41 323.45L1031.38 320.393ZM1020.86 308.306C1019.39 308.306 1018.25 308.709 1017.45 309.515C1016.69 310.273 1016.31 311.339 1016.31 312.714C1016.31 315.226 1018.02 316.482 1021.43 316.482C1023.8 316.482 1026.03 315.866 1028.11 314.634V308.306H1020.86ZM1057.78 292.166C1059.87 290.792 1061.81 289.772 1063.61 289.109C1065.41 288.445 1067.19 288.113 1068.94 288.113C1070.75 288.113 1072.71 288.516 1074.85 289.322L1076.05 298.636L1068.59 300.2L1067.88 296.361C1066.27 296.551 1064.82 296.882 1063.54 297.356C1062.26 297.783 1061.22 298.328 1060.41 298.992L1060.34 314.42H1067.31V321.602H1045.41V314.42H1051.38V298.139L1044.56 295.863L1046.9 288.611L1057.78 292.166ZM1087.73 339.305C1086.69 339.305 1085.6 339.163 1084.46 338.879C1083.32 338.642 1082.14 338.263 1080.9 337.741L1082.61 330.702C1083.56 331.082 1084.39 331.366 1085.1 331.556C1085.86 331.745 1086.69 331.84 1087.59 331.84C1088.68 331.84 1089.6 331.532 1090.36 330.916C1091.12 330.347 1091.88 329.351 1092.63 327.929C1093.39 326.507 1094.27 324.588 1095.26 322.17L1106 296.503H1102.45L1102.87 289.322H1120.51V296.503H1114.89L1101.31 326.65C1099.27 331.2 1097.18 334.447 1095.05 336.39C1092.97 338.334 1090.52 339.305 1087.73 339.305ZM1096.76 326.223L1082.82 296.503H1077.56V289.322H1095.83V296.503H1091.99L1101.02 318.26L1096.76 326.223Z" fill="white"/>
</mask>
<g mask="url(#mask0_133_16547)">
<rect x="565" y="279.602" width="701" height="10.8333" fill="#FF527D"/>
<rect x="565" y="290.435" width="701" height="10.8333" fill="#FFAB37"/>
<rect x="565" y="301.269" width="701" height="10.8333" fill="#F0E33C"/>
<rect x="565" y="312.102" width="701" height="10.8333" fill="#B8E070"/>
<rect x="565" y="322.935" width="701" height="10.8333" fill="#62F1EF"/>
<rect x="565" y="333.769" width="701" height="10.8333" fill="#5A5995"/>
</g>
</g>
<defs>
<clipPath id="clip0_133_16547">
<rect width="1920" height="437" fill="white"/>
</clipPath>
</defs>
</svg>
