<svg width="822" height="206" viewBox="0 0 822 206" fill="none" xmlns="http://www.w3.org/2000/svg">
<g filter="url(#filter0_f_127_16496)">
<path d="M442.834 102.267C448.091 106.171 448.691 114.581 446.439 117.285M362.489 89.0507C361.587 100.164 362.488 140.412 376.755 162.038C401.209 199.105 433.723 132.002 435.626 105.721C454.75 204.814 678 270.458 819.5 89.0507M362.489 89.0507C363.289 86.6478 363.69 80.7608 358.884 76.4356M362.489 89.0507C366.093 101.666 391.773 141.463 414.15 135.006C432.052 129.839 434.024 97.3105 432.772 81.6919M362.489 89.0507C356.581 100.514 339.751 119.267 319.687 102.567C318.436 108.223 311.998 117.044 296.259 107.072M440.732 83.1937C441.583 87.4988 441.753 96.6197 435.626 98.6621M435.626 81.6919C438.479 84.9958 443.495 92.8051 440.732 97.6109M442.834 83.1937C445.536 85.2961 450.43 91.1229 448.391 97.6109M347.32 78.5381C351.025 76.736 359.185 73.6122 362.188 75.5345M345.068 67.7253C353.828 68.0257 371.559 71.4197 372.4 82.593M346.72 63.0697C351.425 61.4678 362.398 60.4566 368.646 69.2271M376.005 38.29C378.758 42.0445 383.243 50.5447 379.158 54.5094M365.943 40.6929C368.946 40.8931 375.164 43.9367 376.005 54.5094M315.633 85.7467C313.029 81.2914 306.124 73.1372 296.259 83.9445C286.395 94.7519 171.5 217 2.5 75.5345" stroke="#FFE70C" stroke-width="2.44541" stroke-linecap="round"/>
</g>
<mask id="mask0_127_16496" style="mask-type:alpha" maskUnits="userSpaceOnUse" x="263" y="0" width="226" height="138">
<path d="M348.31 81.3288C347.876 79.3366 345.45 71.0143 345.274 67.826C345.24 67.2218 345.276 66.6328 345.369 66.0544M348.31 81.3288C349.602 80.2198 359.926 74.0612 362.315 75.1091C362.833 75.1084 361.878 70.2383 361.659 68.2457C363.278 66.7119 365.68 64.423 367.924 62.2584M348.31 81.3288C348.31 81.3288 347.018 82.2163 345.943 84.6536C344.805 87.2335 344.626 88.6617 345.089 89.5325M395.061 56.463C390.029 55.5106 379.319 53.6066 376.732 53.6103C373.931 55.3856 375.009 54.9413 373.717 56.4931C373.15 57.1745 370.654 59.6244 367.924 62.2584M395.061 56.463C393.913 57.5717 392.657 64.3492 396.821 82.589M395.061 56.463C395.639 58.6765 398.921 64.0864 401.764 71.0678C407.172 84.3458 408.039 87.8875 408.692 92.3151C409.556 93.9377 411.933 97.5805 414.522 99.1712C417.759 101.159 423.792 98.9367 426.811 99.1538M395.061 56.463C402.895 57.19 419.298 59.086 422.232 60.8533M396.821 82.589C394.028 90.3429 391.671 101.196 391.46 104.297C391.268 107.105 395.864 116.994 396.736 123.11M396.821 82.589C397.476 88.9357 399.089 101.983 400.298 103.398C401.507 104.814 406.413 108.409 408.715 110.029M408.715 110.029C410.278 117.644 409.956 124.125 409.6 126.414C408.31 129.516 405.43 135.941 404.224 136.828C403.631 137.264 402.737 137.362 401.853 137.306M408.715 110.029C407.677 109.27 422.342 115.291 432.658 118.407M453.134 114.617C450.549 115.654 444.731 118.171 442.146 119.946C441.136 120.64 437.346 119.824 432.658 118.407M453.134 114.617C453.809 114.162 454.621 113.639 455.504 113.083M453.134 114.617C451.052 116.317 446.2 120.472 443.444 123.487C440.689 126.503 435.038 124.606 433.958 123.058C433.958 123.058 432.662 121.51 432.658 118.407M455.504 113.083C459.501 110.566 464.942 107.38 465.629 106.849C466.49 106.184 467.925 104.558 468.427 103.524C466.486 103.231 461.829 103.4 458.729 106.416C455.628 109.432 455.287 112.117 455.504 113.083ZM468.642 103.302C467.417 100.72 463.329 95.8695 456.776 97.1188C448.586 98.6803 438.46 104.23 436.737 105.783M436.737 105.783C436.739 107.023 437.459 108.513 437.82 109.103M436.737 105.783C434.435 103.645 429.226 99.3276 426.811 99.1538M426.811 99.1538L433.925 98.4862M458.699 84.2732C457.323 86.9323 451.238 93.9528 448.368 97.1306L433.925 98.4862M458.699 84.2732C460.42 80.9494 468.171 73.1885 466.876 72.0832M458.699 84.2732C457.621 83.6843 455.721 81.8417 456.752 79.1831C459.762 73.2003 465.581 70.9779 466.876 72.0832M466.876 72.0832C465.868 70.756 462.645 68.1477 457.816 68.3317C452.986 68.5156 445.324 77.8707 442.096 82.5252M442.096 82.5252C438.07 81.4237 428.898 79.8867 424.417 82.5501M442.096 82.5252C442.74 80.1624 443.379 74.7734 440.789 72.1199C438.198 69.4664 428.85 70.513 424.971 71.2565M424.417 82.5501C422.052 87.6463 421.406 87.8686 418.608 91.4154M424.417 82.5501C425.201 77.2347 425.86 65.4538 422.232 60.8533M422.232 60.8533C456.049 68.9541 480.192 49.6035 487.868 39.4808M458.716 96.9178C461.725 90.0141 463.874 77.4017 475.064 69.1931C484.017 62.6262 487.111 51.5357 487.539 46.8113L487.868 39.4808M487.868 39.4808L487.817 1.27481C481.159 -0.222025 466.484 4.63677 453.213 12.0954C439.942 19.5541 423.261 24.39 416.58 25.8756C412.197 26.8413 402.7 29.2609 399.771 31.2136C396.841 33.1663 384.181 34.9998 378.217 35.6725C374.48 35.973 365.93 37.5941 361.624 41.6744C356.241 46.7749 352.583 52.5371 350.217 56.5262C348.21 59.9105 345.891 62.8171 345.369 66.0544M433.925 98.4862C433.71 99.5176 433.283 101.979 433.283 102.688M367.924 62.2584C367.992 64.2511 368.819 69.6085 371.586 75.096C374.353 80.5835 372.029 83.8787 370.521 84.8404C367.769 86.4157 363.641 88.1788 359.747 89.5118M345.369 66.0544C343.176 62.6623 337.025 58.6262 329.969 69.619M329.969 69.619C329.399 70.5055 328.671 66.5208 328.66 58.328M329.969 69.619C330.694 74.7846 331.801 85.6478 330.424 87.7754C328.703 90.435 324.831 96.8619 323.539 98.4137C323.093 98.9498 322.595 99.5654 322.02 100.187M314.492 104.058C314.492 104.058 314.923 104.404 317.725 103.293C319.558 102.566 320.929 101.365 322.02 100.187M314.492 104.058C314.492 104.058 311.178 103.386 309.974 111.497C309.547 114.376 304.377 117.483 301.796 122.801C300.248 125.815 295.979 125.245 294.037 124.584M314.492 104.058C307.808 104.067 315.983 90.6743 315.545 85.3607C315.194 81.1098 310.923 68.5387 308.831 62.7845M294.037 124.584C293.821 123.772 293.775 121.573 295.324 119.268C297.26 116.386 303.297 116.087 304.593 118.299M294.037 124.584C293.389 123.699 291.92 121.398 291.228 119.273M291.228 119.273C295.108 118.825 295.963 113.51 296.176 111.516C296.389 109.523 296.166 104.431 296.161 100.224C296.156 96.858 297.013 92.4725 297.442 90.7005C297.817 89.1499 298.469 85.3405 292.232 63.915M291.228 119.273C290.796 119.274 290.243 119.535 289.095 118.612M288.32 40.6706C287.154 38.7469 284.902 37.4073 282.277 36.4925M282.277 36.4925C277.9 34.9664 272.483 33.9578 269.338 34.0545C256.624 53.7795 269.414 90.74 269.414 90.74C271.786 91.1795 278.463 86.2987 279.11 86.2977C279.757 86.2968 280.19 88.0676 280.192 89.3962C280.194 90.7248 280.198 93.6033 280.633 96.7027C281.931 99.5794 281.08 108.216 282.808 110.65C284.536 113.083 283.456 111.534 286.696 115.958C287.638 117.246 288.438 118.084 289.095 118.612M282.277 36.4925C284.431 34.785 288.952 30.0412 289.814 29.1543C291.516 27.4013 306.2 29.7954 307.715 34.0004C314.713 32.2878 322.089 31.3505 328.08 39.286M331.013 44.1533C330.081 42.2468 329.101 40.6377 328.08 39.286M328.08 39.286C327.762 39.4341 328.42 40.2598 333.597 42.3782C340.069 45.0262 351.932 48.7738 352.368 52.7589M295.747 113.289C295.745 111.517 295.222 107.842 293.152 107.314C290.564 106.653 288.409 107.763 287.333 109.093C286.257 110.423 286.746 117.508 289.095 118.612M359.747 89.5118C355.411 90.9962 351.366 91.9473 349.833 91.5123C347.583 90.874 345.726 90.7323 345.089 89.5325M359.747 89.5118C359.126 87.9621 355.325 85.7966 345.089 89.5325M322.02 100.187C322.338 97.1052 320.437 92.832 315.038 95.6137C313.84 97.0024 311.704 102.542 313.098 103.3M396.736 123.11C396.826 123.746 396.877 124.34 396.877 124.882C396.883 129.487 398.615 134.77 399.48 136.835C400.029 137.022 400.936 137.247 401.853 137.306M396.736 123.11C399.224 122.052 403.731 123.41 401.853 137.306" stroke="black" stroke-width="1.35374" stroke-linecap="round" stroke-linejoin="bevel"/>
</mask>
<g mask="url(#mask0_127_16496)">
<path d="M416.928 233.006C270.711 404.038 286.537 502.481 312.728 530.324L274.001 530.359C190.727 332.8 394.49 238.986 441.115 122.875C470.359 50.0504 399.134 -10.7603 395.785 -10.7572L488.519 -10.8415L488.676 171.504C488.676 171.504 469.491 171.521 416.928 233.006Z" fill="black"/>
<path d="M311.616 530.655L339.813 530.63C310.97 407.503 328.99 338.756 413.466 202.341C480.511 98.483 446.767 18.8894 421.514 -7.92519L367.278 -7.87593C387.751 4.77614 431.875 85.5465 372.16 177.972C286.197 311.022 290.819 507.53 311.616 530.655Z" fill="black"/>
<path d="M282.262 530.599L318.23 530.566C294.588 493.277 297.133 315.978 387.103 200.657C456.116 96.2837 421.384 16.2969 395.392 -10.6499L339.566 -10.5992C360.639 2.11502 406.055 83.2841 344.588 176.168C256.103 309.879 260.856 507.36 282.262 530.599Z" fill="black"/>
<path d="M233.738 530.599L269.707 530.566C246.064 493.277 248.61 315.978 338.58 200.657C407.592 96.2837 372.861 16.2969 346.869 -10.6499L291.043 -10.5992C312.116 2.11502 357.531 83.2841 296.064 176.168C207.58 309.879 212.332 507.36 233.738 530.599Z" fill="black"/>
<path d="M206.093 536.808L237.185 536.779C216.743 499.487 218.923 322.189 296.683 206.879C356.328 102.514 326.296 22.5231 303.824 -4.42684L255.566 -4.38301C273.784 8.33385 313.052 89.5085 259.928 182.385C183.454 316.085 187.585 513.566 206.093 536.808Z" fill="black"/>
<path d="M137.354 544.491L173.387 545.766C150.979 507.823 286.897 126.956 290.594 123.744C323.575 80.3314 303.388 60.4752 278.273 32.7321L213.286 8.36359C233.961 21.7739 276.678 104.146 211.923 194.283C118.705 324.038 116.706 520.602 137.354 544.491Z" fill="black"/>
</g>
<defs>
<filter id="filter0_f_127_16496" x="0.309888" y="36.0999" width="821.38" height="169.448" filterUnits="userSpaceOnUse" color-interpolation-filters="sRGB">
<feFlood flood-opacity="0" result="BackgroundImageFix"/>
<feBlend mode="normal" in="SourceGraphic" in2="BackgroundImageFix" result="shape"/>
<feGaussianBlur stdDeviation="0.483728" result="effect1_foregroundBlur_127_16496"/>
</filter>
</defs>
</svg>
