<svg width="929" height="196" viewBox="0 0 929 196" fill="none" xmlns="http://www.w3.org/2000/svg">
<g filter="url(#filter0_f_127_16496)">
<path d="M461.834 102.267C467.091 106.171 467.691 114.581 465.439 117.285M381.489 89.0507C380.587 100.164 381.488 140.412 395.755 162.038C420.209 199.105 452.723 132.002 454.626 105.721C473.75 204.814 828 251 926 69.2271M381.489 89.0507C382.289 86.6478 382.69 80.7608 377.884 76.4356M381.489 89.0507C385.093 101.666 410.773 141.463 433.15 135.006C451.052 129.839 453.024 97.3105 451.772 81.6919M381.489 89.0507C375.581 100.514 358.751 119.267 338.687 102.567C337.436 108.223 330.998 117.044 315.259 107.072M459.732 83.1937C460.583 87.4988 460.753 96.6197 454.626 98.6621M454.626 81.6919C457.479 84.9958 462.495 92.8051 459.732 97.6109M461.834 83.1937C464.536 85.2961 469.43 91.1229 467.391 97.6109M366.32 78.5381C370.025 76.736 378.185 73.6122 381.188 75.5345M364.068 67.7253C372.828 68.0257 390.559 71.4197 391.4 82.593M365.72 63.0697C370.425 61.4678 381.398 60.4566 387.646 69.2271M395.005 38.29C397.758 42.0445 402.243 50.5447 398.158 54.5094M384.943 40.6929C387.946 40.8931 394.164 43.9367 395.005 54.5094M334.633 85.7467C332.029 81.2914 325.124 73.1372 315.259 83.9445C305.395 94.7519 172 217 3 75.5345" stroke="#FF527D" stroke-width="2.44541" stroke-linecap="round"/>
</g>
<mask id="mask0_127_16496" style="mask-type:alpha" maskUnits="userSpaceOnUse" x="282" y="0" width="226" height="138">
<path d="M367.31 81.3288C366.876 79.3366 364.45 71.0143 364.274 67.826C364.24 67.2218 364.276 66.6328 364.369 66.0544M367.31 81.3288C368.602 80.2198 378.926 74.0612 381.315 75.1091C381.833 75.1084 380.878 70.2383 380.659 68.2457C382.278 66.7119 384.68 64.423 386.924 62.2584M367.31 81.3288C367.31 81.3288 366.018 82.2163 364.943 84.6536C363.805 87.2335 363.626 88.6617 364.089 89.5325M414.061 56.463C409.029 55.5106 398.319 53.6066 395.732 53.6103C392.931 55.3856 394.009 54.9413 392.717 56.4931C392.15 57.1745 389.654 59.6244 386.924 62.2584M414.061 56.463C412.913 57.5717 411.657 64.3492 415.821 82.589M414.061 56.463C414.639 58.6765 417.921 64.0864 420.764 71.0678C426.172 84.3458 427.039 87.8875 427.692 92.3151C428.556 93.9377 430.933 97.5805 433.522 99.1712C436.759 101.159 442.792 98.9367 445.811 99.1538M414.061 56.463C421.895 57.19 438.298 59.086 441.232 60.8533M415.821 82.589C413.028 90.3429 410.671 101.196 410.46 104.297C410.268 107.105 414.864 116.994 415.736 123.11M415.821 82.589C416.476 88.9357 418.089 101.983 419.298 103.398C420.507 104.814 425.413 108.409 427.715 110.029M427.715 110.029C429.278 117.644 428.956 124.125 428.6 126.414C427.31 129.516 424.43 135.941 423.224 136.828C422.631 137.264 421.737 137.362 420.853 137.306M427.715 110.029C426.677 109.27 441.342 115.291 451.658 118.407M472.134 114.617C469.549 115.654 463.731 118.171 461.146 119.946C460.136 120.64 456.346 119.824 451.658 118.407M472.134 114.617C472.809 114.162 473.621 113.639 474.504 113.083M472.134 114.617C470.052 116.317 465.2 120.472 462.444 123.487C459.689 126.503 454.038 124.606 452.958 123.058C452.958 123.058 451.662 121.51 451.658 118.407M474.504 113.083C478.501 110.566 483.942 107.38 484.629 106.849C485.49 106.184 486.925 104.558 487.427 103.524C485.486 103.231 480.829 103.4 477.729 106.416C474.628 109.432 474.287 112.117 474.504 113.083ZM487.642 103.302C486.417 100.72 482.329 95.8695 475.776 97.1188C467.586 98.6803 457.46 104.23 455.737 105.783M455.737 105.783C455.739 107.023 456.459 108.513 456.82 109.103M455.737 105.783C453.435 103.645 448.226 99.3276 445.811 99.1538M445.811 99.1538L452.925 98.4862M477.699 84.2732C476.323 86.9323 470.238 93.9528 467.368 97.1306L452.925 98.4862M477.699 84.2732C479.42 80.9494 487.171 73.1885 485.876 72.0832M477.699 84.2732C476.621 83.6843 474.721 81.8417 475.752 79.1831C478.762 73.2003 484.581 70.9779 485.876 72.0832M485.876 72.0832C484.868 70.756 481.645 68.1477 476.816 68.3317C471.986 68.5156 464.324 77.8707 461.096 82.5252M461.096 82.5252C457.07 81.4237 447.898 79.8867 443.417 82.5501M461.096 82.5252C461.74 80.1624 462.379 74.7734 459.789 72.1199C457.198 69.4664 447.85 70.513 443.971 71.2565M443.417 82.5501C441.052 87.6463 440.406 87.8686 437.608 91.4154M443.417 82.5501C444.201 77.2347 444.86 65.4538 441.232 60.8533M441.232 60.8533C475.049 68.9541 499.192 49.6035 506.868 39.4808M477.716 96.9178C480.725 90.0141 482.874 77.4017 494.064 69.1931C503.017 62.6262 506.111 51.5357 506.539 46.8113L506.868 39.4808M506.868 39.4808L506.817 1.27481C500.159 -0.222025 485.484 4.63677 472.213 12.0954C458.942 19.5541 442.261 24.39 435.58 25.8756C431.197 26.8413 421.7 29.2609 418.771 31.2136C415.841 33.1663 403.181 34.9998 397.217 35.6725C393.48 35.973 384.93 37.5941 380.624 41.6744C375.241 46.7749 371.583 52.5371 369.217 56.5262C367.21 59.9105 364.891 62.8171 364.369 66.0544M452.925 98.4862C452.71 99.5176 452.283 101.979 452.283 102.688M386.924 62.2584C386.992 64.2511 387.819 69.6085 390.586 75.096C393.353 80.5835 391.029 83.8787 389.521 84.8404C386.769 86.4157 382.641 88.1788 378.747 89.5118M364.369 66.0544C362.176 62.6623 356.025 58.6262 348.969 69.619M348.969 69.619C348.399 70.5055 347.671 66.5208 347.66 58.328M348.969 69.619C349.694 74.7846 350.801 85.6478 349.424 87.7754C347.703 90.435 343.831 96.8619 342.539 98.4137C342.093 98.9498 341.595 99.5654 341.02 100.187M333.492 104.058C333.492 104.058 333.923 104.404 336.725 103.293C338.558 102.566 339.929 101.365 341.02 100.187M333.492 104.058C333.492 104.058 330.178 103.386 328.974 111.497C328.547 114.376 323.377 117.483 320.796 122.801C319.248 125.815 314.979 125.245 313.037 124.584M333.492 104.058C326.808 104.067 334.983 90.6743 334.545 85.3607C334.194 81.1098 329.923 68.5387 327.831 62.7845M313.037 124.584C312.821 123.772 312.775 121.573 314.324 119.268C316.26 116.386 322.297 116.087 323.593 118.299M313.037 124.584C312.389 123.699 310.92 121.398 310.228 119.273M310.228 119.273C314.108 118.825 314.963 113.51 315.176 111.516C315.389 109.523 315.166 104.431 315.161 100.224C315.156 96.858 316.013 92.4725 316.442 90.7005C316.817 89.1499 317.469 85.3405 311.232 63.915M310.228 119.273C309.796 119.274 309.243 119.535 308.095 118.612M307.32 40.6706C306.154 38.7469 303.902 37.4073 301.277 36.4925M301.277 36.4925C296.9 34.9664 291.483 33.9578 288.338 34.0545C275.624 53.7795 288.414 90.74 288.414 90.74C290.786 91.1795 297.463 86.2987 298.11 86.2977C298.757 86.2968 299.19 88.0676 299.192 89.3962C299.194 90.7248 299.198 93.6033 299.633 96.7027C300.931 99.5794 300.08 108.216 301.808 110.65C303.536 113.083 302.456 111.534 305.696 115.958C306.638 117.246 307.438 118.084 308.095 118.612M301.277 36.4925C303.431 34.785 307.952 30.0412 308.814 29.1543C310.516 27.4013 325.2 29.7954 326.715 34.0004C333.713 32.2878 341.089 31.3505 347.08 39.286M350.013 44.1533C349.081 42.2468 348.101 40.6377 347.08 39.286M347.08 39.286C346.762 39.4341 347.42 40.2598 352.597 42.3782C359.069 45.0262 370.932 48.7738 371.368 52.7589M314.747 113.289C314.745 111.517 314.222 107.842 312.152 107.314C309.564 106.653 307.409 107.763 306.333 109.093C305.257 110.423 305.746 117.508 308.095 118.612M378.747 89.5118C374.411 90.9962 370.366 91.9473 368.833 91.5123C366.583 90.874 364.726 90.7323 364.089 89.5325M378.747 89.5118C378.126 87.9621 374.325 85.7966 364.089 89.5325M341.02 100.187C341.338 97.1052 339.437 92.832 334.038 95.6137C332.84 97.0024 330.704 102.542 332.098 103.3M415.736 123.11C415.826 123.746 415.877 124.34 415.877 124.882C415.883 129.487 417.615 134.77 418.48 136.835C419.029 137.022 419.936 137.247 420.853 137.306M415.736 123.11C418.224 122.052 422.731 123.41 420.853 137.306" stroke="black" stroke-width="1.35374" stroke-linecap="round" stroke-linejoin="bevel"/>
</mask>
<g mask="url(#mask0_127_16496)">
<path d="M435.928 233.006C289.711 404.038 305.537 502.481 331.728 530.324L293.001 530.359C209.727 332.8 413.49 238.986 460.115 122.875C489.359 50.0504 418.134 -10.7603 414.785 -10.7572L507.519 -10.8415L507.676 171.504C507.676 171.504 488.491 171.521 435.928 233.006Z" fill="black"/>
<path d="M330.616 530.655L358.813 530.63C329.97 407.503 347.99 338.756 432.466 202.341C499.511 98.483 465.767 18.8894 440.514 -7.92519L386.278 -7.87593C406.751 4.77614 450.875 85.5465 391.16 177.972C305.197 311.022 309.819 507.53 330.616 530.655Z" fill="black"/>
<path d="M301.262 530.599L337.23 530.566C313.588 493.277 316.133 315.978 406.103 200.657C475.116 96.2837 440.384 16.2969 414.392 -10.6499L358.566 -10.5992C379.639 2.11502 425.055 83.2841 363.588 176.168C275.103 309.879 279.856 507.36 301.262 530.599Z" fill="black"/>
<path d="M252.738 530.599L288.707 530.566C265.064 493.277 267.61 315.978 357.58 200.657C426.592 96.2837 391.861 16.2969 365.869 -10.6499L310.043 -10.5992C331.116 2.11502 376.531 83.2841 315.064 176.168C226.58 309.879 231.332 507.36 252.738 530.599Z" fill="black"/>
<path d="M225.093 536.808L256.185 536.779C235.743 499.487 237.923 322.189 315.683 206.879C375.328 102.514 345.296 22.5231 322.824 -4.42684L274.566 -4.38301C292.784 8.33385 332.052 89.5085 278.928 182.385C202.454 316.085 206.585 513.566 225.093 536.808Z" fill="black"/>
<path d="M156.354 544.491L192.387 545.766C169.979 507.823 305.897 126.956 309.594 123.744C342.575 80.3314 322.388 60.4752 297.273 32.7321L232.286 8.36359C252.961 21.7739 295.678 104.146 230.923 194.283C137.705 324.038 135.706 520.602 156.354 544.491Z" fill="black"/>
</g>
<defs>
<filter id="filter0_f_127_16496" x="0.809888" y="36.0999" width="927.38" height="158.92" filterUnits="userSpaceOnUse" color-interpolation-filters="sRGB">
<feFlood flood-opacity="0" result="BackgroundImageFix"/>
<feBlend mode="normal" in="SourceGraphic" in2="BackgroundImageFix" result="shape"/>
<feGaussianBlur stdDeviation="0.483728" result="effect1_foregroundBlur_127_16496"/>
</filter>
</defs>
</svg>
