<svg width="322" height="80" viewBox="0 0 322 80" fill="none" xmlns="http://www.w3.org/2000/svg">
<path d="M89 16.1897C89 8.36641 95.2813 2 103 2C110.719 2 117 8.36641 117 16.1897" stroke="#FF527D" stroke-width="2.80082" stroke-miterlimit="10" stroke-linecap="round"/>
<path d="M93.8906 16.1877C93.8906 11.0961 97.9783 6.94922 103.002 6.94922C108.025 6.94922 112.117 11.0923 112.117 16.1877" stroke="#FFAB37" stroke-width="2.80082" stroke-miterlimit="10" stroke-linecap="round"/>
<path d="M98.7773 16.1897C98.7773 13.826 100.668 11.9062 103.004 11.9062C105.339 11.9062 107.23 13.8222 107.23 16.1897" stroke="#5A5995" stroke-width="2.80082" stroke-miterlimit="10" stroke-linecap="round"/>
<mask id="mask0_132_16541" style="mask-type:alpha" maskUnits="userSpaceOnUse" x="3" y="20" width="319" height="60">
<path d="M3.11022 62V54.0368H8.86932V28.0853H3.11022V20.1221H21.9517C27.5923 20.1221 31.9057 21.1175 34.8919 23.1083C37.8781 25.0517 39.3712 27.8483 39.3712 31.4981C39.3712 33.6311 38.8735 35.4797 37.8781 37.0439C36.9301 38.6081 35.5555 39.8405 33.7543 40.7411C35.9821 41.3573 37.6885 42.4949 38.8735 44.1539C40.0585 45.8129 40.651 47.9222 40.651 50.4818C40.651 54.179 39.4186 57.023 36.9538 59.0138C34.5364 61.0046 31.0051 62 26.3599 62H3.11022ZM18.0412 54.0368H24.7246C26.8102 54.0368 28.3981 53.6339 29.4883 52.8281C30.6259 52.0223 31.1947 50.8373 31.1947 49.2731C31.1947 47.7563 30.6733 46.6187 29.6305 45.8603C28.5877 45.0545 27.0946 44.6516 25.1512 44.6516H18.0412V54.0368ZM18.0412 37.4705H25.2223C26.7391 37.4705 27.8767 37.0676 28.6351 36.2618C29.4409 35.456 29.8438 34.3184 29.8438 32.849C29.8438 29.6732 27.4738 28.0853 22.7338 28.0853H18.0412V37.4705ZM53.7651 79.7039C52.7223 79.7039 51.6321 79.5617 50.4945 79.2773C49.3569 79.0403 48.1719 78.6611 46.9395 78.1397L48.6459 71.1008C49.5939 71.48 50.4234 71.7644 51.1344 71.954C51.8928 72.1436 52.7223 72.2384 53.6229 72.2384C54.7131 72.2384 55.6374 71.9303 56.3958 71.3141C57.1542 70.7453 57.9126 69.7499 58.671 68.3279C59.4294 66.9059 60.3063 64.9862 61.3017 62.5688L72.0378 36.9017H68.4828L68.9094 29.7206H86.5422V36.9017H80.9253L67.3452 67.0481C65.307 71.5985 63.2214 74.8454 61.0884 76.7888C59.0028 78.7322 56.5617 79.7039 53.7651 79.7039ZM62.7948 66.6215L48.8592 36.9017H43.5978V29.7206H61.8705V36.9017H58.0311L67.0608 58.6583L62.7948 66.6215ZM119.244 58.0184C117.063 59.867 114.788 61.2179 112.418 62.0711C110.096 62.9717 107.797 63.422 105.521 63.422C101.824 63.422 98.601 62.6873 95.8518 61.2179C93.1026 59.7011 90.9696 57.6392 89.4528 55.0322C87.9834 52.3778 87.2487 49.3679 87.2487 46.0025C87.2487 42.4475 87.9597 39.3428 89.3817 36.6884C90.8037 34.034 92.7708 31.9721 95.283 30.5027C97.7952 29.0333 100.71 28.2986 104.028 28.2986C107.489 28.2986 110.475 28.9859 112.987 30.3605C115.547 31.7351 117.514 33.6548 118.888 36.1196C120.31 38.537 121.021 41.4047 121.021 44.7227C121.021 45.3389 120.974 46.0499 120.879 46.8557C120.832 47.6615 120.737 48.4199 120.595 49.1309H95.8518C96.0414 50.7425 96.5865 52.0934 97.4871 53.1836C98.3877 54.2738 99.5253 55.0796 100.9 55.601C102.322 56.1224 103.862 56.3831 105.521 56.3831C107.512 56.3831 109.432 56.0513 111.281 55.3877C113.129 54.7241 114.812 53.7998 116.329 52.6148L119.244 58.0184ZM112.063 43.1585C112.063 40.9307 111.375 39.1295 110.001 37.7549C108.626 36.3329 106.73 35.6219 104.313 35.6219C102.132 35.6219 100.236 36.3329 98.6247 37.7549C97.0131 39.1295 96.1599 40.9307 96.0651 43.1585H112.063ZM125.943 42.5897H149.762V49.7708H125.943V42.5897ZM155.449 20.1221H174.788L188.866 49.0598V28.0853H183.605V20.1221H203.442V28.0853H196.901V62H186.378L169.243 28.0142V54.0368H175.215V62H155.378V54.0368H161.279V28.0853H155.449V20.1221ZM232.383 60.7913C228.97 62.5451 225.557 63.422 222.144 63.422C217.547 63.422 214.063 62.5688 211.693 60.8624C209.323 59.1086 208.138 56.5727 208.138 53.2547C208.138 46.4765 212.641 43.0874 221.647 43.0874H229.112C229.112 40.3382 228.52 38.3237 227.335 37.0439C226.197 35.7167 224.775 35.0531 223.069 35.0531C222.026 35.0531 221.054 35.1242 220.154 35.2664C219.3 35.4086 218.447 35.6219 217.594 35.9063L216.954 39.248L209.489 38.3237L210.839 30.3605C212.783 29.6969 214.774 29.1992 216.812 28.8674C218.897 28.4882 221.102 28.2986 223.424 28.2986C228.164 28.2986 231.79 29.5547 234.302 32.0669C236.862 34.5317 238.142 38.1815 238.142 43.0163V54.6056L243.901 56.4542L241.412 63.8486L232.383 60.7913ZM221.86 48.7043C220.391 48.7043 219.253 49.1072 218.447 49.913C217.689 50.6714 217.31 51.7379 217.31 53.1125C217.31 55.6247 219.016 56.8808 222.429 56.8808C224.799 56.8808 227.027 56.2646 229.112 55.0322V48.7043H221.86ZM258.782 32.5646C260.868 31.19 262.811 30.1709 264.612 29.5073C266.413 28.8437 268.191 28.5119 269.945 28.5119C271.746 28.5119 273.713 28.9148 275.846 29.7206L277.055 39.0347L269.589 40.5989L268.878 36.7595C267.267 36.9491 265.821 37.2809 264.541 37.7549C263.261 38.1815 262.218 38.7266 261.413 39.3902L261.342 54.8189H268.309V62H246.411V54.8189H252.383V38.537L245.557 36.2618L247.904 29.0096L258.782 32.5646ZM288.728 79.7039C287.686 79.7039 286.595 79.5617 285.458 79.2773C284.32 79.0403 283.135 78.6611 281.903 78.1397L283.609 71.1008C284.557 71.48 285.387 71.7644 286.098 71.954C286.856 72.1436 287.686 72.2384 288.586 72.2384C289.676 72.2384 290.601 71.9303 291.359 71.3141C292.117 70.7453 292.876 69.7499 293.634 68.3279C294.393 66.9059 295.27 64.9862 296.265 62.5688L307.001 36.9017H303.446L303.873 29.7206H321.505V36.9017H315.889L302.308 67.0481C300.27 71.5985 298.185 74.8454 296.052 76.7888C293.966 78.7322 291.525 79.7039 288.728 79.7039ZM297.758 66.6215L283.822 36.9017H278.561V29.7206H296.834V36.9017H292.994L302.024 58.6583L297.758 66.6215Z" fill="white"/>
</mask>
<g mask="url(#mask0_132_16541)">
<rect x="-234" y="20" width="701" height="10.8333" fill="#FF527D"/>
<rect x="-234" y="30.832" width="701" height="10.8333" fill="#FFAB37"/>
<rect x="-234" y="41.668" width="701" height="10.8333" fill="#F0E33C"/>
<rect x="-234" y="52.5" width="701" height="10.8333" fill="#B8E070"/>
<rect x="-234" y="63.332" width="701" height="10.8333" fill="#62F1EF"/>
<rect x="-234" y="74.168" width="701" height="10.8333" fill="#5A5995"/>
</g>
</svg>
