<svg fill="none" height="882" viewBox="0 0 1920 882" width="1920" xmlns="http://www.w3.org/2000/svg" xmlns:xlink="http://www.w3.org/1999/xlink"><filter id="a" color-interpolation-filters="sRGB" filterUnits="userSpaceOnUse" height="810" width="1952" x="-16" y="-178"><feFlood flood-opacity="0" result="BackgroundImageFix"/><feColorMatrix in="SourceAlpha" result="hardAlpha" type="matrix" values="0 0 0 0 0 0 0 0 0 0 0 0 0 0 0 0 0 0 127 0"/><feOffset dy="-13"/><feGaussianBlur stdDeviation="8"/><feComposite in2="hardAlpha" operator="out"/><feColorMatrix type="matrix" values="0 0 0 0 0.404167 0 0 0 0 0.404167 0 0 0 0 0.404167 0 0 0 0.25 0"/><feBlend in2="BackgroundImageFix" mode="normal" result="effect1_dropShadow_121_16343"/><feColorMatrix in="SourceAlpha" result="hardAlpha" type="matrix" values="0 0 0 0 0 0 0 0 0 0 0 0 0 0 0 0 0 0 127 0"/><feOffset dy="4"/><feGaussianBlur stdDeviation="2"/><feComposite in2="hardAlpha" operator="out"/><feColorMatrix type="matrix" values="0 0 0 0 0 0 0 0 0 0 0 0 0 0 0 0 0 0 0.25 0"/><feBlend in2="effect1_dropShadow_121_16343" mode="normal" result="effect2_dropShadow_121_16343"/><feBlend in="SourceGraphic" in2="effect2_dropShadow_121_16343" mode="normal" result="shape"/></filter><filter id="b" color-interpolation-filters="sRGB" filterUnits="userSpaceOnUse" height="685" width="1952" x="-16" y="5"><feFlood flood-opacity="0" result="BackgroundImageFix"/><feColorMatrix in="SourceAlpha" result="hardAlpha" type="matrix" values="0 0 0 0 0 0 0 0 0 0 0 0 0 0 0 0 0 0 127 0"/><feOffset dy="-13"/><feGaussianBlur stdDeviation="8"/><feComposite in2="hardAlpha" operator="out"/><feColorMatrix type="matrix" values="0 0 0 0 0.404167 0 0 0 0 0.404167 0 0 0 0 0.404167 0 0 0 0.25 0"/><feBlend in2="BackgroundImageFix" mode="normal" result="effect1_dropShadow_121_16343"/><feColorMatrix in="SourceAlpha" result="hardAlpha" type="matrix" values="0 0 0 0 0 0 0 0 0 0 0 0 0 0 0 0 0 0 127 0"/><feOffset dy="4"/><feGaussianBlur stdDeviation="2"/><feComposite in2="hardAlpha" operator="out"/><feColorMatrix type="matrix" values="0 0 0 0 0 0 0 0 0 0 0 0 0 0 0 0 0 0 0.25 0"/><feBlend in2="effect1_dropShadow_121_16343" mode="normal" result="effect2_dropShadow_121_16343"/><feBlend in="SourceGraphic" in2="effect2_dropShadow_121_16343" mode="normal" result="shape"/></filter><filter id="c" color-interpolation-filters="sRGB" filterUnits="userSpaceOnUse" height="674" width="1952" x="-16" y="132"><feFlood flood-opacity="0" result="BackgroundImageFix"/><feColorMatrix in="SourceAlpha" result="hardAlpha" type="matrix" values="0 0 0 0 0 0 0 0 0 0 0 0 0 0 0 0 0 0 127 0"/><feOffset dy="-13"/><feGaussianBlur stdDeviation="8"/><feComposite in2="hardAlpha" operator="out"/><feColorMatrix type="matrix" values="0 0 0 0 0.404167 0 0 0 0 0.404167 0 0 0 0 0.404167 0 0 0 0.25 0"/><feBlend in2="BackgroundImageFix" mode="normal" result="effect1_dropShadow_121_16343"/><feColorMatrix in="SourceAlpha" result="hardAlpha" type="matrix" values="0 0 0 0 0 0 0 0 0 0 0 0 0 0 0 0 0 0 127 0"/><feOffset dy="4"/><feGaussianBlur stdDeviation="2"/><feComposite in2="hardAlpha" operator="out"/><feColorMatrix type="matrix" values="0 0 0 0 0 0 0 0 0 0 0 0 0 0 0 0 0 0 0.25 0"/><feBlend in2="effect1_dropShadow_121_16343" mode="normal" result="effect2_dropShadow_121_16343"/><feBlend in="SourceGraphic" in2="effect2_dropShadow_121_16343" mode="normal" result="shape"/></filter><filter id="d" color-interpolation-filters="sRGB" filterUnits="userSpaceOnUse" height="579" width="1952" x="-16" y="292"><feFlood flood-opacity="0" result="BackgroundImageFix"/><feColorMatrix in="SourceAlpha" result="hardAlpha" type="matrix" values="0 0 0 0 0 0 0 0 0 0 0 0 0 0 0 0 0 0 127 0"/><feOffset dy="-13"/><feGaussianBlur stdDeviation="8"/><feComposite in2="hardAlpha" operator="out"/><feColorMatrix type="matrix" values="0 0 0 0 0.404167 0 0 0 0 0.404167 0 0 0 0 0.404167 0 0 0 0.25 0"/><feBlend in2="BackgroundImageFix" mode="normal" result="effect1_dropShadow_121_16343"/><feColorMatrix in="SourceAlpha" result="hardAlpha" type="matrix" values="0 0 0 0 0 0 0 0 0 0 0 0 0 0 0 0 0 0 127 0"/><feOffset dy="4"/><feGaussianBlur stdDeviation="2"/><feComposite in2="hardAlpha" operator="out"/><feColorMatrix type="matrix" values="0 0 0 0 0 0 0 0 0 0 0 0 0 0 0 0 0 0 0.25 0"/><feBlend in2="effect1_dropShadow_121_16343" mode="normal" result="effect2_dropShadow_121_16343"/><feBlend in="SourceGraphic" in2="effect2_dropShadow_121_16343" mode="normal" result="shape"/></filter><filter id="e" color-interpolation-filters="sRGB" filterUnits="userSpaceOnUse" height="454" width="1952" x="-16" y="436"><feFlood flood-opacity="0" result="BackgroundImageFix"/><feColorMatrix in="SourceAlpha" result="hardAlpha" type="matrix" values="0 0 0 0 0 0 0 0 0 0 0 0 0 0 0 0 0 0 127 0"/><feOffset dy="-13"/><feGaussianBlur stdDeviation="8"/><feComposite in2="hardAlpha" operator="out"/><feColorMatrix type="matrix" values="0 0 0 0 0.404167 0 0 0 0 0.404167 0 0 0 0 0.404167 0 0 0 0.25 0"/><feBlend in2="BackgroundImageFix" mode="normal" result="effect1_dropShadow_121_16343"/><feColorMatrix in="SourceAlpha" result="hardAlpha" type="matrix" values="0 0 0 0 0 0 0 0 0 0 0 0 0 0 0 0 0 0 127 0"/><feOffset dy="4"/><feGaussianBlur stdDeviation="2"/><feComposite in2="hardAlpha" operator="out"/><feColorMatrix type="matrix" values="0 0 0 0 0 0 0 0 0 0 0 0 0 0 0 0 0 0 0.25 0"/><feBlend in2="effect1_dropShadow_121_16343" mode="normal" result="effect2_dropShadow_121_16343"/><feBlend in="SourceGraphic" in2="effect2_dropShadow_121_16343" mode="normal" result="shape"/></filter><filter id="f" color-interpolation-filters="sRGB" filterUnits="userSpaceOnUse" height="325" width="1952" x="-16" y="565"><feFlood flood-opacity="0" result="BackgroundImageFix"/><feColorMatrix in="SourceAlpha" result="hardAlpha" type="matrix" values="0 0 0 0 0 0 0 0 0 0 0 0 0 0 0 0 0 0 127 0"/><feOffset dy="-13"/><feGaussianBlur stdDeviation="8"/><feComposite in2="hardAlpha" operator="out"/><feColorMatrix type="matrix" values="0 0 0 0 0.404167 0 0 0 0 0.404167 0 0 0 0 0.404167 0 0 0 0.25 0"/><feBlend in2="BackgroundImageFix" mode="normal" result="effect1_dropShadow_121_16343"/><feColorMatrix in="SourceAlpha" result="hardAlpha" type="matrix" values="0 0 0 0 0 0 0 0 0 0 0 0 0 0 0 0 0 0 127 0"/><feOffset dy="4"/><feGaussianBlur stdDeviation="2"/><feComposite in2="hardAlpha" operator="out"/><feColorMatrix type="matrix" values="0 0 0 0 0 0 0 0 0 0 0 0 0 0 0 0 0 0 0.25 0"/><feBlend in2="effect1_dropShadow_121_16343" mode="normal" result="effect2_dropShadow_121_16343"/><feBlend in="SourceGraphic" in2="effect2_dropShadow_121_16343" mode="normal" result="shape"/></filter><clipPath id="g"><path d="m0 0h1920v882h-1920z"/></clipPath><g clip-path="url(#g)"><g filter="url(#a)"><path d="m351.45 34.074c-119.475-134.992-162.029-183.073-351.45-183.074v773h1920v-155.831c-211.5 77.678-311 25.754-467.5-94.998-138.45-106.825-259.75-101.147-366-87.967-259 32.127-421.5 103.124-733-248.8136z" fill="#ff527d"/></g><g filter="url(#b)"><path d="m351.45 204.089c-119.475-125.4173-162.029-170.0879-351.45-170.089v602.086l1920 45.914v-155.07c-107 62.12-308 88.617-471.5-28.588-138.45-99.248-187-121.342-335-121.342-217.003 0-448.5 156.216-760-170.759z" fill="#ffab37"/></g><g filter="url(#c)"><path d="m351.45 311.864c-119.475-111.241-162.029-150.863-351.45-150.864v637h1920v-208.433l-.02.006c-70.01 31.079-250.99 111.42-452.98 16.427-192.68-90.619-216.05-143-391-143-217.003 0-411 140.792-722.5-149.227z" fill="#f0e33c"/></g><g filter="url(#d)"><path d="m354 448.476c-132.771-113.06-288.5-127.476-354-127.476v542h1920v-195.5c-76.5 39.458-246.5 119.5-495 19.5-156.33-62.908-184-125-352-125-217.003 0-414.5 145.771-719-113.524z" fill="#b8e070"/></g><g filter="url(#e)"><path d="m351.45 563.76c-119.475-72.822-162.029-98.759-351.45-98.76v417h1920v-154.788c-122 55.939-320 87.029-480.5 32.715-149.1-50.457-191.5-104.494-399-104.494-217.003 0-375.5 99.432-687-90.423z" fill="#37f8f4"/></g><g filter="url(#f)"><path d="m383.5 695.135c-159-71.972-192.846-103.288-383.5-101.02v287.885h1920v-97c-140.5 47.386-286.5 77.878-455.33 39.643-149.17-33.784-193.17-84.417-410.17-84.417-217.003 0-362.067 94.749-671-45.091z" fill="#5a5995"/></g></g></svg>