<svg width="1920" height="882" viewBox="0 0 1920 882" fill="none" xmlns="http://www.w3.org/2000/svg">
<g clip-path="url(#clip0_119_16597)">
<g filter="url(#filter0_dd_119_16597)">
<path d="M351.45 34.074C231.975 -100.918 189.421 -148.999 0 -149V624H1920V468.169C1708.5 545.847 1609 493.923 1452.5 373.171C1314.05 266.346 1192.75 272.024 1086.5 285.204C827.5 317.331 665 388.328 353.5 36.3904L351.45 34.074Z" fill="#FF527D"/>
</g>
<g filter="url(#filter1_dd_119_16597)">
<path d="M351.45 204.089C231.975 78.6717 189.421 34.0011 0 34V636.086L1920 682V526.93C1813 589.05 1612 615.547 1448.5 498.342C1310.05 399.094 1261.5 377 1113.5 377C896.497 377 665 533.216 353.5 206.241L351.45 204.089Z" fill="#FFAB37"/>
</g>
<g filter="url(#filter2_dd_119_16597)">
<path d="M351.45 311.864C231.975 200.623 189.421 161.001 0 161V798H1920V589.567L1919.98 589.573C1849.97 620.652 1668.99 700.993 1467 606C1274.32 515.381 1250.95 463 1076 463C858.997 463 665 603.792 353.5 313.773L351.45 311.864Z" fill="#F0E33C"/>
</g>
<g filter="url(#filter3_dd_119_16597)">
<path d="M354 448.476C221.229 335.416 65.5 321 0 321V863H1920V667.5C1843.5 706.958 1673.5 787 1425 687C1268.67 624.092 1241 562 1073 562C855.997 562 658.5 707.771 354 448.476Z" fill="#B8E070"/>
</g>
<g filter="url(#filter4_dd_119_16597)">
<path d="M351.45 563.76C231.975 490.938 189.421 465.001 0 465V882H1920V727.212C1798 783.151 1600 814.241 1439.5 759.927C1290.4 709.47 1248 655.433 1040.5 655.433C823.497 655.433 665 754.865 353.5 565.01L351.45 563.76Z" fill="#37F8F4"/>
</g>
<g filter="url(#filter5_dd_119_16597)">
<path d="M383.5 695.135C224.5 623.163 190.654 591.847 0 594.115V882H1920V785C1779.5 832.386 1633.5 862.878 1464.67 824.643C1315.5 790.859 1271.5 740.226 1054.5 740.226C837.497 740.226 692.433 834.975 383.5 695.135Z" fill="#5A5995"/>
</g>
<g opacity="0.7">
<path d="M1294.66 469.236C1294.66 471.315 1294.14 473 1293.49 473C1292.84 473 1292.32 471.315 1292.32 469.236C1292.32 467.158 1293.49 465.473 1293.49 465.473C1293.49 465.473 1294.66 467.158 1294.66 469.236Z" fill="#5A5995"/>
<path d="M1292.32 459.764C1292.32 457.685 1292.85 456 1293.49 456C1294.14 456 1294.66 457.685 1294.66 459.764C1294.66 461.842 1293.49 463.527 1293.49 463.527C1293.49 463.527 1292.32 461.842 1292.32 459.764Z" fill="#5A5995"/>
<path d="M1288.76 465.682C1286.68 465.682 1285 465.158 1285 464.511C1285 463.864 1286.68 463.34 1288.76 463.34C1290.84 463.34 1292.53 464.511 1292.53 464.511C1292.53 464.511 1290.84 465.682 1288.76 465.682Z" fill="#5A5995"/>
<path d="M1298.24 463.342C1300.32 463.342 1302 463.866 1302 464.513C1302 465.159 1300.32 465.684 1298.24 465.684C1296.16 465.684 1294.47 464.513 1294.47 464.513C1294.47 464.513 1296.16 463.342 1298.24 463.342Z" fill="#5A5995"/>
</g>
<g opacity="0.7">
<path d="M1621.89 620.253C1621.89 624.533 1620.81 628.002 1619.48 628.002C1618.15 628.002 1617.07 624.533 1617.07 620.253C1617.07 615.973 1619.48 612.504 1619.48 612.504C1619.48 612.504 1621.89 615.973 1621.89 620.253Z" fill="#5A5995"/>
<path d="M1617.07 600.751C1617.07 596.471 1618.15 593.002 1619.48 593.002C1620.82 593.002 1621.89 596.471 1621.89 600.751C1621.89 605.031 1619.48 608.5 1619.48 608.5C1619.48 608.5 1617.07 605.031 1617.07 600.751Z" fill="#5A5995"/>
<path d="M1609.75 612.931C1605.47 612.931 1602 611.852 1602 610.52C1602 609.189 1605.47 608.109 1609.75 608.109C1614.03 608.109 1617.5 610.52 1617.5 610.52C1617.5 610.52 1614.03 612.931 1609.75 612.931Z" fill="#5A5995"/>
<path d="M1629.25 608.112C1633.53 608.112 1637 609.191 1637 610.523C1637 611.854 1633.53 612.934 1629.25 612.934C1624.97 612.934 1621.5 610.523 1621.5 610.523C1621.5 610.523 1624.97 608.112 1629.25 608.112Z" fill="#5A5995"/>
</g>
<g opacity="0.7">
<path d="M916.892 175.253C916.892 179.533 915.813 183.002 914.481 183.002C913.15 183.002 912.07 179.533 912.07 175.253C912.07 170.973 914.481 167.504 914.481 167.504C914.481 167.504 916.892 170.973 916.892 175.253Z" fill="#5A5995"/>
<path d="M912.073 155.751C912.073 151.471 913.152 148.002 914.484 148.002C915.815 148.002 916.895 151.471 916.895 155.751C916.895 160.031 914.484 163.5 914.484 163.5C914.484 163.5 912.073 160.031 912.073 155.751Z" fill="#5A5995"/>
<path d="M904.751 167.931C900.471 167.931 897.002 166.852 897.002 165.52C897.002 164.189 900.471 163.109 904.751 163.109C909.031 163.109 912.5 165.52 912.5 165.52C912.5 165.52 909.031 167.931 904.751 167.931Z" fill="#5A5995"/>
<path d="M924.253 163.112C928.533 163.112 932.002 164.191 932.002 165.523C932.002 166.854 928.533 167.934 924.253 167.934C919.973 167.934 916.504 165.523 916.504 165.523C916.504 165.523 919.973 163.112 924.253 163.112Z" fill="#5A5995"/>
</g>
<g opacity="0.7">
<path d="M836.892 651.253C836.892 655.533 835.813 659.002 834.481 659.002C833.15 659.002 832.07 655.533 832.07 651.253C832.07 646.973 834.481 643.504 834.481 643.504C834.481 643.504 836.892 646.973 836.892 651.253Z" fill="#5A5995"/>
<path d="M832.073 631.751C832.073 627.471 833.152 624.002 834.484 624.002C835.815 624.002 836.895 627.471 836.895 631.751C836.895 636.031 834.484 639.5 834.484 639.5C834.484 639.5 832.073 636.031 832.073 631.751Z" fill="#5A5995"/>
<path d="M824.751 643.931C820.471 643.931 817.002 642.852 817.002 641.52C817.002 640.189 820.471 639.109 824.751 639.109C829.031 639.109 832.5 641.52 832.5 641.52C832.5 641.52 829.031 643.931 824.751 643.931Z" fill="#5A5995"/>
<path d="M844.253 639.112C848.533 639.112 852.002 640.191 852.002 641.523C852.002 642.854 848.533 643.934 844.253 643.934C839.973 643.934 836.504 641.523 836.504 641.523C836.504 641.523 839.973 639.112 844.253 639.112Z" fill="#5A5995"/>
</g>
<g opacity="0.7">
<path d="M1284.66 224.236C1284.66 226.315 1284.14 228 1283.49 228C1282.84 228 1282.32 226.315 1282.32 224.236C1282.32 222.158 1283.49 220.473 1283.49 220.473C1283.49 220.473 1284.66 222.158 1284.66 224.236Z" fill="#5A5995"/>
<path d="M1282.32 214.764C1282.32 212.685 1282.85 211 1283.49 211C1284.14 211 1284.66 212.685 1284.66 214.764C1284.66 216.842 1283.49 218.527 1283.49 218.527C1283.49 218.527 1282.32 216.842 1282.32 214.764Z" fill="#5A5995"/>
<path d="M1278.76 220.682C1276.68 220.682 1275 220.158 1275 219.511C1275 218.864 1276.68 218.34 1278.76 218.34C1280.84 218.34 1282.53 219.511 1282.53 219.511C1282.53 219.511 1280.84 220.682 1278.76 220.682Z" fill="#5A5995"/>
<path d="M1288.24 218.342C1290.32 218.342 1292 218.866 1292 219.513C1292 220.159 1290.32 220.684 1288.24 220.684C1286.16 220.684 1284.47 219.513 1284.47 219.513C1284.47 219.513 1286.16 218.342 1288.24 218.342Z" fill="#5A5995"/>
</g>
<g opacity="0.7">
<path d="M158.662 123.236C158.662 125.315 158.138 127 157.491 127C156.845 127 156.32 125.315 156.32 123.236C156.32 121.158 157.491 119.473 157.491 119.473C157.491 119.473 158.662 121.158 158.662 123.236Z" fill="#5A5995"/>
<path d="M156.322 113.764C156.322 111.685 156.846 110 157.493 110C158.14 110 158.664 111.685 158.664 113.764C158.664 115.842 157.493 117.527 157.493 117.527C157.493 117.527 156.322 115.842 156.322 113.764Z" fill="#5A5995"/>
<path d="M152.764 119.682C150.685 119.682 149 119.158 149 118.511C149 117.864 150.685 117.34 152.764 117.34C154.842 117.34 156.527 118.511 156.527 118.511C156.527 118.511 154.842 119.682 152.764 119.682Z" fill="#5A5995"/>
<path d="M162.236 117.342C164.315 117.342 166 117.866 166 118.513C166 119.159 164.315 119.684 162.236 119.684C160.158 119.684 158.473 118.513 158.473 118.513C158.473 118.513 160.158 117.342 162.236 117.342Z" fill="#5A5995"/>
</g>
<g opacity="0.7">
<path d="M79.6623 228.236C79.6623 230.315 79.138 232 78.4913 232C77.8446 232 77.3203 230.315 77.3203 228.236C77.3203 226.158 78.4913 224.473 78.4913 224.473C78.4913 224.473 79.6623 226.158 79.6623 228.236Z" fill="#5A5995"/>
<path d="M77.3221 218.764C77.3221 216.685 77.8464 215 78.4931 215C79.1398 215 79.6641 216.685 79.6641 218.764C79.6641 220.842 78.4931 222.527 78.4931 222.527C78.4931 222.527 77.3221 220.842 77.3221 218.764Z" fill="#5A5995"/>
<path d="M73.7635 224.682C71.6848 224.682 69.9997 224.158 69.9997 223.511C69.9997 222.864 71.6848 222.34 73.7635 222.34C75.8422 222.34 77.5273 223.511 77.5273 223.511C77.5273 223.511 75.8422 224.682 73.7635 224.682Z" fill="#5A5995"/>
<path d="M83.2365 222.342C85.3152 222.342 87.0003 222.866 87.0003 223.513C87.0003 224.159 85.3152 224.684 83.2365 224.684C81.1578 224.684 79.4727 223.513 79.4727 223.513C79.4727 223.513 81.1578 222.342 83.2365 222.342Z" fill="#5A5995"/>
</g>
<g opacity="0.7">
<path d="M906.662 362.236C906.662 364.315 906.138 366 905.491 366C904.845 366 904.32 364.315 904.32 362.236C904.32 360.158 905.491 358.473 905.491 358.473C905.491 358.473 906.662 360.158 906.662 362.236Z" fill="#5A5995"/>
<path d="M904.322 352.764C904.322 350.685 904.846 349 905.493 349C906.14 349 906.664 350.685 906.664 352.764C906.664 354.842 905.493 356.527 905.493 356.527C905.493 356.527 904.322 354.842 904.322 352.764Z" fill="#5A5995"/>
<path d="M900.764 358.682C898.685 358.682 897 358.158 897 357.511C897 356.864 898.685 356.34 900.764 356.34C902.842 356.34 904.527 357.511 904.527 357.511C904.527 357.511 902.842 358.682 900.764 358.682Z" fill="#5A5995"/>
<path d="M910.236 356.342C912.315 356.342 914 356.866 914 357.513C914 358.159 912.315 358.684 910.236 358.684C908.158 358.684 906.473 357.513 906.473 357.513C906.473 357.513 908.158 356.342 910.236 356.342Z" fill="#5A5995"/>
</g>
<g opacity="0.7">
<path d="M476.503 78.1287C476.503 80.8188 475.825 82.9995 474.988 82.9995C474.151 82.9995 473.473 80.8188 473.473 78.1287C473.473 75.4386 474.988 73.2578 474.988 73.2578C474.988 73.2578 476.503 75.4386 476.503 78.1287Z" fill="#5A5995"/>
<path d="M473.473 65.8713C473.473 63.1812 474.152 61.0005 474.989 61.0005C475.825 61.0005 476.504 63.1812 476.504 65.8713C476.504 68.5614 474.989 70.7422 474.989 70.7422C474.989 70.7422 473.473 68.5614 473.473 65.8713Z" fill="#5A5995"/>
<path d="M468.871 73.5268C466.181 73.5268 464 72.8484 464 72.0115C464 71.1746 466.181 70.4961 468.871 70.4961C471.561 70.4961 473.742 72.0115 473.742 72.0115C473.742 72.0115 471.561 73.5268 468.871 73.5268Z" fill="#5A5995"/>
<path d="M481.129 70.4966C483.819 70.4966 486 71.175 486 72.012C486 72.8489 483.819 73.5273 481.129 73.5273C478.439 73.5273 476.258 72.012 476.258 72.012C476.258 72.012 478.439 70.4966 481.129 70.4966Z" fill="#5A5995"/>
</g>
<g opacity="0.7">
<path d="M1717.69 185.788C1717.69 187.011 1717.38 188.002 1717 188.002C1716.62 188.002 1716.31 187.011 1716.31 185.788C1716.31 184.565 1717 183.574 1717 183.574C1717 183.574 1717.69 184.565 1717.69 185.788Z" fill="#5A5995"/>
<path d="M1716.31 180.216C1716.31 178.993 1716.62 178.002 1717 178.002C1717.38 178.002 1717.69 178.993 1717.69 180.216C1717.69 181.438 1717 182.43 1717 182.43C1717 182.43 1716.31 181.438 1716.31 180.216Z" fill="#5A5995"/>
<path d="M1714.22 183.698C1712.99 183.698 1712 183.39 1712 183.009C1712 182.629 1712.99 182.32 1714.22 182.32C1715.44 182.32 1716.43 183.009 1716.43 183.009C1716.43 183.009 1715.44 183.698 1714.22 183.698Z" fill="#5A5995"/>
<path d="M1719.79 182.322C1721.01 182.322 1722 182.63 1722 183.01C1722 183.391 1721.01 183.699 1719.79 183.699C1718.57 183.699 1717.57 183.01 1717.57 183.01C1717.57 183.01 1718.57 182.322 1719.79 182.322Z" fill="#5A5995"/>
</g>
<g opacity="0.7">
<path d="M486.686 503.788C486.686 505.011 486.378 506.002 485.997 506.002C485.617 506.002 485.309 505.011 485.309 503.788C485.309 502.565 485.997 501.574 485.997 501.574C485.997 501.574 486.686 502.565 486.686 503.788Z" fill="#5A5995"/>
<path d="M485.31 498.216C485.31 496.993 485.618 496.002 485.999 496.002C486.379 496.002 486.688 496.993 486.688 498.216C486.688 499.438 485.999 500.43 485.999 500.43C485.999 500.43 485.31 499.438 485.31 498.216Z" fill="#5A5995"/>
<path d="M483.216 501.698C481.993 501.698 481.002 501.39 481.002 501.009C481.002 500.629 481.993 500.32 483.216 500.32C484.438 500.32 485.43 501.009 485.43 501.009C485.43 501.009 484.438 501.698 483.216 501.698Z" fill="#5A5995"/>
<path d="M488.788 500.322C490.011 500.322 491.002 500.63 491.002 501.01C491.002 501.391 490.011 501.699 488.788 501.699C487.565 501.699 486.574 501.01 486.574 501.01C486.574 501.01 487.565 500.322 488.788 500.322Z" fill="#5A5995"/>
</g>
<g opacity="0.7">
<path d="M465.686 462.788C465.686 464.011 465.378 465.002 464.997 465.002C464.617 465.002 464.309 464.011 464.309 462.788C464.309 461.565 464.997 460.574 464.997 460.574C464.997 460.574 465.686 461.565 465.686 462.788Z" fill="#5A5995"/>
<path d="M464.31 457.216C464.31 455.993 464.618 455.002 464.999 455.002C465.379 455.002 465.688 455.993 465.688 457.216C465.688 458.438 464.999 459.43 464.999 459.43C464.999 459.43 464.31 458.438 464.31 457.216Z" fill="#5A5995"/>
<path d="M462.216 460.698C460.993 460.698 460.002 460.39 460.002 460.009C460.002 459.629 460.993 459.32 462.216 459.32C463.438 459.32 464.43 460.009 464.43 460.009C464.43 460.009 463.438 460.698 462.216 460.698Z" fill="#5A5995"/>
<path d="M467.788 459.322C469.011 459.322 470.002 459.63 470.002 460.01C470.002 460.391 469.011 460.699 467.788 460.699C466.565 460.699 465.574 460.01 465.574 460.01C465.574 460.01 466.565 459.322 467.788 459.322Z" fill="#5A5995"/>
</g>
<g opacity="0.7">
<path d="M873.115 626.008C873.115 627.109 872.837 628.001 872.495 628.001C872.153 628.001 871.875 627.109 871.875 626.008C871.875 624.908 872.495 624.016 872.495 624.016C872.495 624.016 873.115 624.908 873.115 626.008Z" fill="#5A5995"/>
<path d="M871.877 620.992C871.877 619.891 872.155 618.999 872.497 618.999C872.84 618.999 873.117 619.891 873.117 620.992C873.117 622.092 872.497 622.984 872.497 622.984C872.497 622.984 871.877 622.092 871.877 620.992Z" fill="#5A5995"/>
<path d="M869.992 624.127C868.891 624.127 867.999 623.849 867.999 623.507C867.999 623.164 868.891 622.887 869.992 622.887C871.092 622.887 871.984 623.507 871.984 623.507C871.984 623.507 871.092 624.127 869.992 624.127Z" fill="#5A5995"/>
<path d="M875.008 622.889C876.109 622.889 877.001 623.167 877.001 623.509C877.001 623.851 876.109 624.129 875.008 624.129C873.908 624.129 873.016 623.509 873.016 623.509C873.016 623.509 873.908 622.889 875.008 622.889Z" fill="#5A5995"/>
</g>
<g opacity="0.8">
<rect width="13" height="13" transform="translate(1499 202.461) rotate(-20.0748)" fill="white"/>
<path fill-rule="evenodd" clip-rule="evenodd" d="M1505.11 200.23C1504.41 200.483 1504.06 201.248 1504.31 201.94L1505.63 205.54L1502.03 206.856C1501.33 207.109 1500.98 207.874 1501.23 208.566C1501.48 209.258 1502.25 209.613 1502.94 209.361L1506.54 208.045L1507.86 211.645C1508.11 212.337 1508.88 212.693 1509.57 212.44C1510.26 212.187 1510.61 211.422 1510.36 210.73L1509.05 207.129L1512.65 205.814C1513.34 205.561 1513.69 204.795 1513.44 204.104C1513.19 203.412 1512.42 203.056 1511.73 203.309L1508.13 204.625L1506.82 201.024C1506.56 200.333 1505.8 199.977 1505.11 200.23Z" fill="#5A5995"/>
</g>
<g opacity="0.8">
<rect width="13" height="13" transform="translate(1258 69.4609) rotate(-20.0748)" fill="white"/>
<path fill-rule="evenodd" clip-rule="evenodd" d="M1264.11 67.2298C1263.41 67.4826 1263.06 68.2482 1263.31 68.9398L1264.63 72.5402L1261.03 73.8559C1260.33 74.1087 1259.98 74.8743 1260.23 75.5659C1260.48 76.2576 1261.25 76.6133 1261.94 76.3606L1265.54 75.0448L1266.86 78.6454C1267.11 79.337 1267.88 79.6928 1268.57 79.44C1269.26 79.1873 1269.61 78.4217 1269.36 77.73L1268.05 74.1295L1271.65 72.8137C1272.34 72.5609 1272.69 71.7954 1272.44 71.1037C1272.19 70.4121 1271.42 70.0563 1270.73 70.3091L1267.13 71.6248L1265.82 68.0245C1265.56 67.3329 1264.8 66.9771 1264.11 67.2298Z" fill="#5A5995"/>
</g>
<g opacity="0.8">
<path fill-rule="evenodd" clip-rule="evenodd" d="M1816.11 360.23C1815.41 360.483 1815.06 361.248 1815.31 361.94L1816.63 365.54L1813.03 366.856C1812.33 367.109 1811.98 367.874 1812.23 368.566C1812.48 369.258 1813.25 369.613 1813.94 369.361L1817.54 368.045L1818.86 371.645C1819.11 372.337 1819.88 372.693 1820.57 372.44C1821.26 372.187 1821.61 371.422 1821.36 370.73L1820.05 367.129L1823.65 365.814C1824.34 365.561 1824.69 364.795 1824.44 364.104C1824.19 363.412 1823.42 363.056 1822.73 363.309L1819.13 364.625L1817.82 361.024C1817.56 360.333 1816.8 359.977 1816.11 360.23Z" fill="#5A5995"/>
</g>
<g opacity="0.8">
<rect width="6.22623" height="6.22623" transform="translate(1602 276.137) rotate(-20.0748)" fill="white"/>
<path fill-rule="evenodd" clip-rule="evenodd" d="M1604.92 275.068C1604.59 275.19 1604.42 275.556 1604.54 275.887L1605.17 277.612L1603.45 278.242C1603.12 278.363 1602.95 278.73 1603.07 279.061C1603.19 279.392 1603.56 279.563 1603.89 279.442L1605.61 278.812L1606.24 280.536C1606.36 280.867 1606.73 281.037 1607.06 280.916C1607.39 280.795 1607.56 280.429 1607.44 280.097L1606.81 278.373L1608.54 277.743C1608.87 277.622 1609.04 277.255 1608.92 276.924C1608.8 276.593 1608.43 276.422 1608.1 276.543L1606.37 277.174L1605.74 275.449C1605.62 275.118 1605.25 274.947 1604.92 275.068Z" fill="#5A5995"/>
</g>
<g opacity="0.8">
<path fill-rule="evenodd" clip-rule="evenodd" d="M662.105 218.23C661.413 218.483 661.058 219.248 661.31 219.94L662.626 223.54L659.026 224.856C658.334 225.109 657.978 225.874 658.231 226.566C658.484 227.258 659.249 227.613 659.941 227.361L663.541 226.045L664.857 229.645C665.11 230.337 665.876 230.693 666.567 230.44C667.259 230.187 667.615 229.422 667.362 228.73L666.046 225.129L669.647 223.814C670.338 223.561 670.694 222.795 670.441 222.104C670.188 221.412 669.423 221.056 668.731 221.309L665.131 222.625L663.815 219.024C663.562 218.333 662.797 217.977 662.105 218.23Z" fill="#5A5995"/>
</g>
<g opacity="0.8">
<path fill-rule="evenodd" clip-rule="evenodd" d="M762.105 449.23C761.413 449.483 761.058 450.248 761.31 450.94L762.626 454.54L759.026 455.856C758.334 456.109 757.978 456.874 758.231 457.566C758.484 458.258 759.249 458.613 759.941 458.361L763.541 457.045L764.857 460.645C765.11 461.337 765.876 461.693 766.567 461.44C767.259 461.187 767.615 460.422 767.362 459.73L766.046 456.129L769.647 454.814C770.338 454.561 770.694 453.795 770.441 453.104C770.188 452.412 769.423 452.056 768.731 452.309L765.131 453.625L763.815 450.024C763.562 449.333 762.797 448.977 762.105 449.23Z" fill="#5A5995"/>
</g>
</g>
<defs>
<filter id="filter0_dd_119_16597" x="-16" y="-178" width="1952" height="810" filterUnits="userSpaceOnUse" color-interpolation-filters="sRGB">
<feFlood flood-opacity="0" result="BackgroundImageFix"/>
<feColorMatrix in="SourceAlpha" type="matrix" values="0 0 0 0 0 0 0 0 0 0 0 0 0 0 0 0 0 0 127 0" result="hardAlpha"/>
<feOffset dy="-13"/>
<feGaussianBlur stdDeviation="8"/>
<feComposite in2="hardAlpha" operator="out"/>
<feColorMatrix type="matrix" values="0 0 0 0 0.404167 0 0 0 0 0.404167 0 0 0 0 0.404167 0 0 0 0.25 0"/>
<feBlend mode="normal" in2="BackgroundImageFix" result="effect1_dropShadow_119_16597"/>
<feColorMatrix in="SourceAlpha" type="matrix" values="0 0 0 0 0 0 0 0 0 0 0 0 0 0 0 0 0 0 127 0" result="hardAlpha"/>
<feOffset dy="4"/>
<feGaussianBlur stdDeviation="2"/>
<feComposite in2="hardAlpha" operator="out"/>
<feColorMatrix type="matrix" values="0 0 0 0 0 0 0 0 0 0 0 0 0 0 0 0 0 0 0.25 0"/>
<feBlend mode="normal" in2="effect1_dropShadow_119_16597" result="effect2_dropShadow_119_16597"/>
<feBlend mode="normal" in="SourceGraphic" in2="effect2_dropShadow_119_16597" result="shape"/>
</filter>
<filter id="filter1_dd_119_16597" x="-16" y="5" width="1952" height="685" filterUnits="userSpaceOnUse" color-interpolation-filters="sRGB">
<feFlood flood-opacity="0" result="BackgroundImageFix"/>
<feColorMatrix in="SourceAlpha" type="matrix" values="0 0 0 0 0 0 0 0 0 0 0 0 0 0 0 0 0 0 127 0" result="hardAlpha"/>
<feOffset dy="-13"/>
<feGaussianBlur stdDeviation="8"/>
<feComposite in2="hardAlpha" operator="out"/>
<feColorMatrix type="matrix" values="0 0 0 0 0.404167 0 0 0 0 0.404167 0 0 0 0 0.404167 0 0 0 0.25 0"/>
<feBlend mode="normal" in2="BackgroundImageFix" result="effect1_dropShadow_119_16597"/>
<feColorMatrix in="SourceAlpha" type="matrix" values="0 0 0 0 0 0 0 0 0 0 0 0 0 0 0 0 0 0 127 0" result="hardAlpha"/>
<feOffset dy="4"/>
<feGaussianBlur stdDeviation="2"/>
<feComposite in2="hardAlpha" operator="out"/>
<feColorMatrix type="matrix" values="0 0 0 0 0 0 0 0 0 0 0 0 0 0 0 0 0 0 0.25 0"/>
<feBlend mode="normal" in2="effect1_dropShadow_119_16597" result="effect2_dropShadow_119_16597"/>
<feBlend mode="normal" in="SourceGraphic" in2="effect2_dropShadow_119_16597" result="shape"/>
</filter>
<filter id="filter2_dd_119_16597" x="-16" y="132" width="1952" height="674" filterUnits="userSpaceOnUse" color-interpolation-filters="sRGB">
<feFlood flood-opacity="0" result="BackgroundImageFix"/>
<feColorMatrix in="SourceAlpha" type="matrix" values="0 0 0 0 0 0 0 0 0 0 0 0 0 0 0 0 0 0 127 0" result="hardAlpha"/>
<feOffset dy="-13"/>
<feGaussianBlur stdDeviation="8"/>
<feComposite in2="hardAlpha" operator="out"/>
<feColorMatrix type="matrix" values="0 0 0 0 0.404167 0 0 0 0 0.404167 0 0 0 0 0.404167 0 0 0 0.25 0"/>
<feBlend mode="normal" in2="BackgroundImageFix" result="effect1_dropShadow_119_16597"/>
<feColorMatrix in="SourceAlpha" type="matrix" values="0 0 0 0 0 0 0 0 0 0 0 0 0 0 0 0 0 0 127 0" result="hardAlpha"/>
<feOffset dy="4"/>
<feGaussianBlur stdDeviation="2"/>
<feComposite in2="hardAlpha" operator="out"/>
<feColorMatrix type="matrix" values="0 0 0 0 0 0 0 0 0 0 0 0 0 0 0 0 0 0 0.25 0"/>
<feBlend mode="normal" in2="effect1_dropShadow_119_16597" result="effect2_dropShadow_119_16597"/>
<feBlend mode="normal" in="SourceGraphic" in2="effect2_dropShadow_119_16597" result="shape"/>
</filter>
<filter id="filter3_dd_119_16597" x="-16" y="292" width="1952" height="579" filterUnits="userSpaceOnUse" color-interpolation-filters="sRGB">
<feFlood flood-opacity="0" result="BackgroundImageFix"/>
<feColorMatrix in="SourceAlpha" type="matrix" values="0 0 0 0 0 0 0 0 0 0 0 0 0 0 0 0 0 0 127 0" result="hardAlpha"/>
<feOffset dy="-13"/>
<feGaussianBlur stdDeviation="8"/>
<feComposite in2="hardAlpha" operator="out"/>
<feColorMatrix type="matrix" values="0 0 0 0 0.404167 0 0 0 0 0.404167 0 0 0 0 0.404167 0 0 0 0.25 0"/>
<feBlend mode="normal" in2="BackgroundImageFix" result="effect1_dropShadow_119_16597"/>
<feColorMatrix in="SourceAlpha" type="matrix" values="0 0 0 0 0 0 0 0 0 0 0 0 0 0 0 0 0 0 127 0" result="hardAlpha"/>
<feOffset dy="4"/>
<feGaussianBlur stdDeviation="2"/>
<feComposite in2="hardAlpha" operator="out"/>
<feColorMatrix type="matrix" values="0 0 0 0 0 0 0 0 0 0 0 0 0 0 0 0 0 0 0.25 0"/>
<feBlend mode="normal" in2="effect1_dropShadow_119_16597" result="effect2_dropShadow_119_16597"/>
<feBlend mode="normal" in="SourceGraphic" in2="effect2_dropShadow_119_16597" result="shape"/>
</filter>
<filter id="filter4_dd_119_16597" x="-16" y="436" width="1952" height="454" filterUnits="userSpaceOnUse" color-interpolation-filters="sRGB">
<feFlood flood-opacity="0" result="BackgroundImageFix"/>
<feColorMatrix in="SourceAlpha" type="matrix" values="0 0 0 0 0 0 0 0 0 0 0 0 0 0 0 0 0 0 127 0" result="hardAlpha"/>
<feOffset dy="-13"/>
<feGaussianBlur stdDeviation="8"/>
<feComposite in2="hardAlpha" operator="out"/>
<feColorMatrix type="matrix" values="0 0 0 0 0.404167 0 0 0 0 0.404167 0 0 0 0 0.404167 0 0 0 0.25 0"/>
<feBlend mode="normal" in2="BackgroundImageFix" result="effect1_dropShadow_119_16597"/>
<feColorMatrix in="SourceAlpha" type="matrix" values="0 0 0 0 0 0 0 0 0 0 0 0 0 0 0 0 0 0 127 0" result="hardAlpha"/>
<feOffset dy="4"/>
<feGaussianBlur stdDeviation="2"/>
<feComposite in2="hardAlpha" operator="out"/>
<feColorMatrix type="matrix" values="0 0 0 0 0 0 0 0 0 0 0 0 0 0 0 0 0 0 0.25 0"/>
<feBlend mode="normal" in2="effect1_dropShadow_119_16597" result="effect2_dropShadow_119_16597"/>
<feBlend mode="normal" in="SourceGraphic" in2="effect2_dropShadow_119_16597" result="shape"/>
</filter>
<filter id="filter5_dd_119_16597" x="-16" y="565" width="1952" height="325" filterUnits="userSpaceOnUse" color-interpolation-filters="sRGB">
<feFlood flood-opacity="0" result="BackgroundImageFix"/>
<feColorMatrix in="SourceAlpha" type="matrix" values="0 0 0 0 0 0 0 0 0 0 0 0 0 0 0 0 0 0 127 0" result="hardAlpha"/>
<feOffset dy="-13"/>
<feGaussianBlur stdDeviation="8"/>
<feComposite in2="hardAlpha" operator="out"/>
<feColorMatrix type="matrix" values="0 0 0 0 0.404167 0 0 0 0 0.404167 0 0 0 0 0.404167 0 0 0 0.25 0"/>
<feBlend mode="normal" in2="BackgroundImageFix" result="effect1_dropShadow_119_16597"/>
<feColorMatrix in="SourceAlpha" type="matrix" values="0 0 0 0 0 0 0 0 0 0 0 0 0 0 0 0 0 0 127 0" result="hardAlpha"/>
<feOffset dy="4"/>
<feGaussianBlur stdDeviation="2"/>
<feComposite in2="hardAlpha" operator="out"/>
<feColorMatrix type="matrix" values="0 0 0 0 0 0 0 0 0 0 0 0 0 0 0 0 0 0 0.25 0"/>
<feBlend mode="normal" in2="effect1_dropShadow_119_16597" result="effect2_dropShadow_119_16597"/>
<feBlend mode="normal" in="SourceGraphic" in2="effect2_dropShadow_119_16597" result="shape"/>
</filter>
<clipPath id="clip0_119_16597">
<rect width="1920" height="882" fill="white"/>
</clipPath>
</defs>
</svg>
