<svg width="1920" height="200" viewBox="0 0 1920 200" fill="none" xmlns="http://www.w3.org/2000/svg">
<g filter="url(#filter0_d_217_608)">
<path d="M1803.24 151.202C1762.27 147.339 1756.6 80.6986 1758.66 47.8842C1758.66 47.0908 1759.3 47.0908 1760.63 47.0908C1762.43 47.0908 1767.03 47.0908 1769.34 47.9304C1771.65 48.77 1769.97 58.7456 1771.35 73.2714C1772.94 89.9318 1776.71 109.634 1785.63 126.426C1794.56 143.218 1808.64 140.971 1811.82 139.913C1821.34 136.739 1829.27 126.426 1838 103.419C1844.7 85.7445 1844.19 61.3777 1845.14 51.0576C1845.14 50.5059 1845.82 49.6053 1846.72 49.4709C1849.15 49.1082 1853.58 49.695 1854.66 49.9245C1856.24 50.2642 1856.19 51.0594 1856.24 51.8509C1858.62 85.965 1844.21 155.064 1803.24 151.202Z" fill="#FFC13C"/>
<g filter="url(#filter1_i_217_608)">
<path d="M1759.43 79.8233C1761.82 80.3876 1768.03 80.0208 1768.03 86.4543C1768.03 94.4962 1763.09 99.9985 1768.03 104.231C1772.97 108.464 1770.99 107.053 1775.37 112.132C1779.74 117.211 1776.5 127.087 1781.86 128.498C1787.22 129.909 1789.62 127.933 1790.89 130.332C1792.16 132.73 1789.05 136.258 1793.14 137.668C1797.24 139.079 1793.71 143.312 1804.29 137.668C1814.87 132.025 1816.71 141.619 1823.62 135.975C1830.53 130.332 1827.57 131.602 1828.56 125.535C1829.54 119.468 1830.67 113.966 1837.45 112.132C1844.22 110.298 1847.46 104.654 1846.05 100.563C1844.64 96.4714 1844.92 95.0605 1847.6 91.6745C1850.28 88.2884 1852.54 85.89 1851.41 82.2218C1850.28 78.5535 1852.68 73.3334 1854.52 72.6279C1855.43 72.2781 1855.8 72.127 1855.93 72.074C1855.93 72.0705 1855.93 72.067 1855.93 72.0636C1855.98 72.0457 1856 72.0414 1855.93 72.074C1855.6 79.5574 1853.87 97.1535 1849.58 107.758C1844.22 121.02 1837.87 133.295 1835.19 135.975C1832.51 138.656 1822.07 151.213 1813.18 151.636C1804.29 152.059 1795.68 152.906 1785.53 145.287C1775.37 137.668 1775.69 135.181 1768.88 122.572C1763.23 112.132 1759.98 86.0848 1759.43 82.2218C1759.14 80.2465 1758.86 79.6822 1759.43 79.8233Z" fill="#865822"/>
</g>
<path d="M1812.76 138.515L1814.4 140.977" stroke="#BC893D" stroke-width="1.17254" stroke-linecap="round"/>
<path d="M1820.66 143.735L1822.3 146.198" stroke="#BC893D" stroke-width="1.17254" stroke-linecap="round"/>
<path d="M1850.85 91.9561L1852.49 94.4184" stroke="#BC893D" stroke-width="1.17254" stroke-linecap="round"/>
<path d="M1771.56 121.251L1773.2 123.713" stroke="#BC893D" stroke-width="1.17254" stroke-linecap="round"/>
<path d="M1825.35 139.631L1826.99 142.093" stroke="#BC893D" stroke-width="1.17254" stroke-linecap="round"/>
<path d="M1830.81 122.431L1831.38 123.559" stroke="#BC893D" stroke-width="1.17254" stroke-linecap="round"/>
<path d="M1830.25 132.024L1830.81 133.153" stroke="#BC893D" stroke-width="1.17254" stroke-linecap="round"/>
<path d="M1785.67 131.46L1787.31 133.922" stroke="#BC893D" stroke-width="1.17254" stroke-linecap="round"/>
<path d="M1804.29 146.133L1805.93 148.595" stroke="#BC893D" stroke-width="1.17254" stroke-linecap="round"/>
<path d="M1829.1 135.41L1830.74 137.872" stroke="#BC893D" stroke-width="1.17254" stroke-linecap="round"/>
<path d="M1847.75 97.3174L1849.39 99.7797" stroke="#BC893D" stroke-width="1.17254" stroke-linecap="round"/>
<path d="M1767.89 114.812L1769.53 117.275" stroke="#BC893D" stroke-width="1.17254" stroke-linecap="round"/>
<path d="M1780.59 131.46L1782.23 133.922" stroke="#BC893D" stroke-width="1.17254" stroke-linecap="round"/>
<path d="M1796.95 143.593L1798.6 146.055" stroke="#BC893D" stroke-width="1.17254" stroke-linecap="round"/>
<path d="M1772.38 126.175L1774.02 128.637" stroke="#BC893D" stroke-width="1.17254" stroke-linecap="round"/>
<path d="M1776.6 130.279L1778.24 132.742" stroke="#BC893D" stroke-width="1.17254" stroke-linecap="round"/>
<path d="M1841.54 113.683L1843.18 116.145" stroke="#BC893D" stroke-width="1.17254" stroke-linecap="round"/>
<path d="M1845.77 108.604L1846.9 110.297" stroke="#BC893D" stroke-width="1.17254" stroke-linecap="round"/>
<path d="M1840.69 119.044L1842.33 121.506" stroke="#BC893D" stroke-width="1.17254" stroke-linecap="round"/>
<path d="M1836.18 119.892L1837.3 121.585" stroke="#BC893D" stroke-width="1.17254" stroke-linecap="round"/>
<path d="M1834.48 126.945L1835.61 128.638" stroke="#BC893D" stroke-width="1.17254" stroke-linecap="round"/>
<path d="M1765.07 83.7734L1766.23 85.5194" stroke="#BC893D" stroke-width="0.831398" stroke-linecap="round"/>
<path d="M1761.4 91.4521L1762.56 93.1981" stroke="#BC893D" stroke-width="0.831398" stroke-linecap="round"/>
<path d="M1761.4 83.4902L1762.56 85.2362" stroke="#BC893D" stroke-width="0.831398" stroke-linecap="round"/>
<path d="M1812.76 144.723L1814.4 147.185" stroke="#BC893D" stroke-width="1.17254" stroke-linecap="round"/>
<path d="M1816.99 139.643L1818.12 141.336" stroke="#BC893D" stroke-width="1.17254" stroke-linecap="round"/>
<path d="M1815.86 145.004L1817.5 147.466" stroke="#BC893D" stroke-width="1.17254" stroke-linecap="round"/>
<path d="M1835.05 130.332L1836.18 132.025" stroke="#BC893D" stroke-width="1.17254" stroke-linecap="round"/>
<path d="M1804.29 140.207L1805.42 141.9" stroke="#BC893D" stroke-width="1.17254" stroke-linecap="round"/>
<path d="M1790.18 142.465L1791.35 144.211" stroke="#BC893D" stroke-width="0.831398" stroke-linecap="round"/>
<path d="M1808.81 147.826L1809.97 149.572" stroke="#BC893D" stroke-width="0.831398" stroke-linecap="round"/>
<path d="M1786.51 142.183L1787.68 143.929" stroke="#BC893D" stroke-width="0.831398" stroke-linecap="round"/>
<path d="M1765.63 104.371L1766.8 106.117" stroke="#BC893D" stroke-width="0.831398" stroke-linecap="round"/>
<path d="M1808.52 142.465L1810.16 144.927" stroke="#BC893D" stroke-width="1.17254" stroke-linecap="round"/>
<path d="M1783.97 136.639L1785.62 139.101" stroke="#BC893D" stroke-width="1.17254" stroke-linecap="round"/>
<path d="M1764.79 91.9561L1765.95 93.702" stroke="#BC893D" stroke-width="0.831398" stroke-linecap="round"/>
<path d="M1770.99 110.861L1772.16 112.607" stroke="#BC893D" stroke-width="0.831398" stroke-linecap="round"/>
<path d="M1763.09 97.5986L1764.26 99.3446" stroke="#BC893D" stroke-width="0.831398" stroke-linecap="round"/>
<path d="M1789.62 138.231L1791.26 140.694" stroke="#BC893D" stroke-width="1.17254" stroke-linecap="round"/>
<path d="M1793.85 146.133L1795.49 148.595" stroke="#BC893D" stroke-width="1.17254" stroke-linecap="round"/>
<path d="M1772.97 116.223L1774.13 117.969" stroke="#BC893D" stroke-width="0.831398" stroke-linecap="round"/>
</g>
<g filter="url(#filter2_d_217_608)">
<path d="M1753.25 151.301C1711.6 147.374 1705.83 79.623 1707.93 46.2617C1707.93 45.4551 1708.58 45.4551 1709.93 45.4551C1711.76 45.4551 1716.44 45.4551 1718.79 46.3087C1721.14 47.1623 1719.43 57.3041 1720.84 72.072C1722.45 89.01 1726.29 109.04 1735.36 126.112C1744.43 143.184 1758.75 140.9 1761.97 139.824C1771.65 136.598 1779.72 126.112 1788.59 102.722C1795.41 84.7529 1794.89 59.9801 1795.85 49.4879C1795.85 48.9271 1796.55 48.0114 1797.46 47.8748C1799.93 47.506 1804.44 48.1027 1805.53 48.336C1807.14 48.6814 1807.08 49.4898 1807.14 50.2945C1809.56 84.9772 1794.91 155.228 1753.25 151.301Z" fill="#FFD16D"/>
<path d="M1708.71 78.7331C1711.15 79.3069 1717.46 78.9339 1717.46 85.4747C1717.46 93.6506 1712.44 99.2446 1717.46 103.548C1722.48 107.851 1720.47 106.416 1724.92 111.58C1729.37 116.744 1726.07 126.785 1731.52 128.219C1736.97 129.653 1739.41 127.645 1740.7 130.084C1741.99 132.522 1738.83 136.108 1742.99 137.542C1747.15 138.977 1743.57 143.28 1754.32 137.542C1765.08 131.805 1766.95 141.559 1773.97 135.821C1781 130.084 1777.99 131.374 1778.99 125.207C1780 119.039 1781.15 113.445 1788.03 111.58C1794.92 109.716 1798.21 103.978 1796.78 99.8184C1795.35 95.6587 1795.63 94.2243 1798.36 90.7818C1801.08 87.3393 1803.38 84.9009 1802.23 81.1716C1801.08 77.4422 1803.52 72.135 1805.39 71.4178C1806.31 71.0621 1806.7 70.9086 1806.82 70.8546C1806.82 70.8511 1806.82 70.8476 1806.82 70.8441C1806.88 70.8259 1806.9 70.8216 1806.82 70.8546C1806.48 78.4628 1804.72 96.3522 1800.37 107.134C1794.92 120.617 1788.46 133.096 1785.74 135.821C1783.01 138.546 1772.4 151.312 1763.36 151.743C1754.32 152.173 1745.57 153.033 1735.25 145.288C1724.92 137.542 1725.25 135.014 1718.32 122.195C1712.58 111.58 1709.27 85.099 1708.71 81.1716C1708.42 79.1634 1708.14 78.5897 1708.71 78.7331Z" fill="#865822"/>
<path d="M1753.25 151.301C1711.6 147.374 1705.83 79.623 1707.93 46.2617C1707.93 45.4551 1708.58 45.4551 1709.93 45.4551C1711.76 45.4551 1716.44 45.4551 1718.79 46.3087C1721.14 47.1623 1719.43 57.3041 1720.84 72.072C1722.45 89.01 1726.29 109.04 1735.36 126.112C1744.43 143.184 1758.75 140.9 1761.97 139.824C1771.65 136.598 1779.72 126.112 1788.59 102.722C1795.41 84.7529 1794.89 59.9801 1795.85 49.4879C1795.85 48.9271 1796.55 48.0114 1797.46 47.8748C1799.93 47.506 1804.44 48.1027 1805.53 48.336C1807.14 48.6814 1807.08 49.4898 1807.14 50.2945C1809.56 84.9772 1794.91 155.228 1753.25 151.301Z" fill="#FFD16D"/>
<g filter="url(#filter3_i_217_608)">
<path d="M1708.71 78.7331C1711.15 79.3069 1717.46 78.9339 1717.46 85.4747C1717.46 93.6506 1712.44 99.2446 1717.46 103.548C1722.48 107.851 1720.47 106.416 1724.92 111.58C1729.37 116.744 1726.07 126.785 1731.52 128.219C1736.97 129.653 1739.41 127.645 1740.7 130.084C1741.99 132.522 1738.83 136.108 1742.99 137.542C1747.15 138.977 1743.57 143.28 1754.32 137.542C1765.08 131.805 1766.95 141.559 1773.97 135.821C1781 130.084 1777.99 131.374 1778.99 125.207C1780 119.039 1781.15 113.445 1788.03 111.58C1794.92 109.716 1798.21 103.978 1796.78 99.8184C1795.35 95.6587 1795.63 94.2243 1798.36 90.7818C1801.08 87.3393 1803.38 84.9009 1802.23 81.1716C1801.08 77.4422 1803.52 72.135 1805.39 71.4178C1806.31 71.0621 1806.7 70.9086 1806.82 70.8546C1806.82 70.8511 1806.82 70.8476 1806.82 70.8441C1806.88 70.8259 1806.9 70.8216 1806.82 70.8546C1806.48 78.4628 1804.72 96.3522 1800.37 107.134C1794.92 120.617 1788.46 133.096 1785.74 135.821C1783.01 138.546 1772.4 151.312 1763.36 151.743C1754.32 152.173 1745.57 153.033 1735.25 145.288C1724.92 137.542 1725.25 135.014 1718.32 122.195C1712.58 111.58 1709.27 85.099 1708.71 81.1716C1708.42 79.1634 1708.14 78.5897 1708.71 78.7331Z" fill="#91B95D"/>
</g>
<path d="M1763.5 138.113L1765.17 140.617" stroke="#1F7600" stroke-opacity="0.66" stroke-width="1.19208" stroke-linecap="round"/>
<path d="M1771.54 143.423L1773.2 145.926" stroke="#1F7600" stroke-opacity="0.66" stroke-width="1.19208" stroke-linecap="round"/>
<path d="M1802.23 90.7793L1803.9 93.2827" stroke="#1F7600" stroke-opacity="0.66" stroke-width="1.19208" stroke-linecap="round"/>
<path d="M1721.62 120.562L1723.29 123.065" stroke="#1F7600" stroke-opacity="0.66" stroke-width="1.19208" stroke-linecap="round"/>
<path d="M1776.3 139.25L1777.97 141.753" stroke="#1F7600" stroke-opacity="0.66" stroke-width="1.19208" stroke-linecap="round"/>
<path d="M1781.86 121.763L1782.44 122.91" stroke="#1F7600" stroke-opacity="0.66" stroke-width="1.19208" stroke-linecap="round"/>
<path d="M1781.29 131.517L1781.86 132.664" stroke="#1F7600" stroke-opacity="0.66" stroke-width="1.19208" stroke-linecap="round"/>
<path d="M1735.96 130.942L1737.63 133.446" stroke="#1F7600" stroke-opacity="0.66" stroke-width="1.19208" stroke-linecap="round"/>
<path d="M1754.9 145.86L1756.57 148.364" stroke="#1F7600" stroke-opacity="0.66" stroke-width="1.19208" stroke-linecap="round"/>
<path d="M1780.12 134.959L1781.79 137.462" stroke="#1F7600" stroke-opacity="0.66" stroke-width="1.19208" stroke-linecap="round"/>
<path d="M1799.08 96.2314L1800.74 98.7349" stroke="#1F7600" stroke-opacity="0.66" stroke-width="1.19208" stroke-linecap="round"/>
<path d="M1717.89 114.017L1719.56 116.52" stroke="#1F7600" stroke-opacity="0.66" stroke-width="1.19208" stroke-linecap="round"/>
<path d="M1730.8 130.942L1732.47 133.446" stroke="#1F7600" stroke-opacity="0.66" stroke-width="1.19208" stroke-linecap="round"/>
<path d="M1747.44 143.277L1749.11 145.781" stroke="#1F7600" stroke-opacity="0.66" stroke-width="1.19208" stroke-linecap="round"/>
<path d="M1722.45 125.57L1724.12 128.074" stroke="#1F7600" stroke-opacity="0.66" stroke-width="1.19208" stroke-linecap="round"/>
<path d="M1726.75 129.742L1728.41 132.246" stroke="#1F7600" stroke-opacity="0.66" stroke-width="1.19208" stroke-linecap="round"/>
<path d="M1792.76 112.869L1794.43 115.373" stroke="#1F7600" stroke-opacity="0.66" stroke-width="1.19208" stroke-linecap="round"/>
<path d="M1797.07 107.706L1798.21 109.427" stroke="#1F7600" stroke-opacity="0.66" stroke-width="1.19208" stroke-linecap="round"/>
<path d="M1791.9 118.319L1793.57 120.823" stroke="#1F7600" stroke-opacity="0.66" stroke-width="1.19208" stroke-linecap="round"/>
<path d="M1787.31 119.18L1788.46 120.901" stroke="#1F7600" stroke-opacity="0.66" stroke-width="1.19208" stroke-linecap="round"/>
<path d="M1785.59 126.353L1786.74 128.074" stroke="#1F7600" stroke-opacity="0.66" stroke-width="1.19208" stroke-linecap="round"/>
<path d="M1715.02 82.4609L1716.2 84.236" stroke="#1F7600" stroke-opacity="0.66" stroke-width="0.845255" stroke-linecap="round"/>
<path d="M1711.29 90.2676L1712.48 92.0426" stroke="#1F7600" stroke-opacity="0.66" stroke-width="0.845255" stroke-linecap="round"/>
<path d="M1711.29 82.1738L1712.48 83.9489" stroke="#1F7600" stroke-opacity="0.66" stroke-width="0.845255" stroke-linecap="round"/>
<path d="M1763.5 144.425L1765.17 146.928" stroke="#1F7600" stroke-opacity="0.66" stroke-width="1.19208" stroke-linecap="round"/>
<path d="M1767.81 139.262L1768.95 140.983" stroke="#1F7600" stroke-opacity="0.66" stroke-width="1.19208" stroke-linecap="round"/>
<path d="M1766.66 144.713L1768.33 147.216" stroke="#1F7600" stroke-opacity="0.66" stroke-width="1.19208" stroke-linecap="round"/>
<path d="M1786.17 129.795L1787.31 131.516" stroke="#1F7600" stroke-opacity="0.66" stroke-width="1.19208" stroke-linecap="round"/>
<path d="M1754.9 139.835L1756.04 141.556" stroke="#1F7600" stroke-opacity="0.66" stroke-width="1.19208" stroke-linecap="round"/>
<path d="M1740.55 142.13L1741.74 143.905" stroke="#1F7600" stroke-opacity="0.66" stroke-width="0.845255" stroke-linecap="round"/>
<path d="M1759.49 147.582L1760.67 149.357" stroke="#1F7600" stroke-opacity="0.66" stroke-width="0.845255" stroke-linecap="round"/>
<path d="M1736.82 141.843L1738.01 143.618" stroke="#1F7600" stroke-opacity="0.66" stroke-width="0.845255" stroke-linecap="round"/>
<path d="M1715.59 103.402L1716.78 105.177" stroke="#1F7600" stroke-opacity="0.66" stroke-width="0.845255" stroke-linecap="round"/>
<path d="M1759.2 142.13L1760.87 144.633" stroke="#1F7600" stroke-opacity="0.66" stroke-width="1.19208" stroke-linecap="round"/>
<path d="M1734.24 136.209L1735.91 138.712" stroke="#1F7600" stroke-opacity="0.66" stroke-width="1.19208" stroke-linecap="round"/>
<path d="M1714.73 90.7803L1715.92 92.5553" stroke="#1F7600" stroke-opacity="0.66" stroke-width="0.845255" stroke-linecap="round"/>
<path d="M1721.05 110.001L1722.23 111.776" stroke="#1F7600" stroke-opacity="0.66" stroke-width="0.845255" stroke-linecap="round"/>
<path d="M1713.01 96.5176L1714.2 98.2926" stroke="#1F7600" stroke-opacity="0.66" stroke-width="0.845255" stroke-linecap="round"/>
<path d="M1739.98 137.827L1741.65 140.331" stroke="#1F7600" stroke-opacity="0.66" stroke-width="1.19208" stroke-linecap="round"/>
<path d="M1744.28 145.86L1745.95 148.364" stroke="#1F7600" stroke-opacity="0.66" stroke-width="1.19208" stroke-linecap="round"/>
<path d="M1723.05 115.45L1724.24 117.225" stroke="#1F7600" stroke-opacity="0.66" stroke-width="0.845255" stroke-linecap="round"/>
</g>
<g filter="url(#filter4_d_217_608)">
<path d="M1684.68 155.254C1640.64 151.102 1634.54 79.4634 1636.76 44.1878C1636.76 43.335 1637.45 43.335 1638.88 43.335H1638.88C1640.81 43.335 1645.76 43.335 1648.24 44.2375C1650.73 45.1401 1648.92 55.8639 1650.41 71.4791C1652.11 89.389 1656.17 110.569 1665.76 128.62C1675.35 146.672 1690.49 144.256 1693.9 143.119C1704.14 139.707 1712.67 128.62 1722.05 103.887C1729.25 84.8876 1728.71 58.6933 1729.72 47.5992C1729.72 47.0062 1730.46 46.038 1731.43 45.8935C1734.04 45.5036 1738.8 46.1345 1739.96 46.3811C1741.66 46.7464 1741.6 47.6012 1741.66 48.4521C1744.22 85.1247 1728.73 159.406 1684.68 155.254Z" fill="#FFD16D"/>
<g filter="url(#filter5_i_217_608)">
<path d="M1637.58 78.5215C1640.16 79.1282 1646.84 78.7339 1646.84 85.6499C1646.84 94.2949 1641.53 100.21 1646.84 104.76C1652.14 109.31 1650.02 107.793 1654.72 113.253C1659.42 118.713 1655.94 129.33 1661.7 130.847C1667.46 132.363 1669.48 130.623 1671.41 132.818C1674.59 136.458 1669.43 139.188 1673.83 140.705C1678.23 142.222 1674.44 146.772 1685.81 140.705C1697.19 134.638 1699.16 144.952 1706.59 138.885C1714.02 132.818 1710.84 134.183 1711.9 127.662C1712.96 121.14 1714.18 115.225 1721.46 113.253C1728.74 111.282 1732.22 105.215 1730.71 100.817C1729.19 96.4182 1729.49 94.9016 1732.38 91.2616C1735.26 87.6216 1737.68 85.0432 1736.47 81.0999C1735.26 77.1565 1737.84 71.5449 1739.81 70.7865C1740.79 70.4104 1741.19 70.248 1741.32 70.191C1741.32 70.1873 1741.32 70.1836 1741.32 70.1799C1741.38 70.1606 1741.4 70.156 1741.32 70.191C1740.97 78.2357 1739.11 97.1515 1734.5 108.552C1728.74 122.808 1721.91 136.003 1719.03 138.885C1716.15 141.767 1704.92 155.265 1695.37 155.72C1685.81 156.175 1676.56 157.085 1665.64 148.895C1654.72 140.705 1655.07 138.031 1647.75 124.477C1641.68 113.253 1638.18 85.2526 1637.58 81.0999C1637.28 78.9765 1636.98 78.3699 1637.58 78.5215Z" fill="#FFB3AE"/>
</g>
<path d="M1695.52 141.918L1697.29 144.565" stroke="#FF9393" stroke-opacity="0.66" stroke-width="1.26048" stroke-linecap="round"/>
<path d="M1704.01 147.53L1705.78 150.177" stroke="#FF9393" stroke-opacity="0.66" stroke-width="1.26048" stroke-linecap="round"/>
<path d="M1736.47 91.8682L1738.24 94.5152" stroke="#FF9393" stroke-opacity="0.66" stroke-width="1.26048" stroke-linecap="round"/>
<path d="M1651.23 123.358L1653 126.005" stroke="#FF9393" stroke-opacity="0.66" stroke-width="1.26048" stroke-linecap="round"/>
<path d="M1709.06 143.119L1710.82 145.766" stroke="#FF9393" stroke-opacity="0.66" stroke-width="1.26048" stroke-linecap="round"/>
<path d="M1714.93 124.627L1715.54 125.84" stroke="#FF9393" stroke-opacity="0.66" stroke-width="1.26048" stroke-linecap="round"/>
<path d="M1714.33 134.941L1714.93 136.155" stroke="#FF9393" stroke-opacity="0.66" stroke-width="1.26048" stroke-linecap="round"/>
<path d="M1666.4 134.335L1668.17 136.982" stroke="#FF9393" stroke-opacity="0.66" stroke-width="1.26048" stroke-linecap="round"/>
<path d="M1686.42 150.107L1688.19 152.754" stroke="#FF9393" stroke-opacity="0.66" stroke-width="1.26048" stroke-linecap="round"/>
<path d="M1713.09 138.581L1714.85 141.228" stroke="#FF9393" stroke-opacity="0.66" stroke-width="1.26048" stroke-linecap="round"/>
<path d="M1733.13 97.6309L1734.9 100.278" stroke="#FF9393" stroke-opacity="0.66" stroke-width="1.26048" stroke-linecap="round"/>
<path d="M1647.29 116.437L1649.06 119.084" stroke="#FF9393" stroke-opacity="0.66" stroke-width="1.26048" stroke-linecap="round"/>
<path d="M1660.94 134.335L1662.71 136.982" stroke="#FF9393" stroke-opacity="0.66" stroke-width="1.26048" stroke-linecap="round"/>
<path d="M1678.53 147.378L1680.3 150.025" stroke="#FF9393" stroke-opacity="0.66" stroke-width="1.26048" stroke-linecap="round"/>
<path d="M1652.12 128.653L1653.88 131.3" stroke="#FF9393" stroke-opacity="0.66" stroke-width="1.26048" stroke-linecap="round"/>
<path d="M1656.65 133.064L1658.42 135.711" stroke="#FF9393" stroke-opacity="0.66" stroke-width="1.26048" stroke-linecap="round"/>
<path d="M1726.46 115.225L1728.23 117.872" stroke="#FF9393" stroke-opacity="0.66" stroke-width="1.26048" stroke-linecap="round"/>
<path d="M1731.01 109.765L1732.22 111.585" stroke="#FF9393" stroke-opacity="0.66" stroke-width="1.26048" stroke-linecap="round"/>
<path d="M1725.55 120.987L1727.32 123.634" stroke="#FF9393" stroke-opacity="0.66" stroke-width="1.26048" stroke-linecap="round"/>
<path d="M1720.7 121.898L1721.91 123.718" stroke="#FF9393" stroke-opacity="0.66" stroke-width="1.26048" stroke-linecap="round"/>
<path d="M1718.88 129.48L1720.09 131.3" stroke="#FF9393" stroke-opacity="0.66" stroke-width="1.26048" stroke-linecap="round"/>
<path d="M1644.26 83.0713L1645.51 84.9482" stroke="#FF9393" stroke-opacity="0.66" stroke-width="0.893753" stroke-linecap="round"/>
<path d="M1640.31 91.3252L1641.57 93.2021" stroke="#FF9393" stroke-opacity="0.66" stroke-width="0.893753" stroke-linecap="round"/>
<path d="M1640.31 82.7676L1641.57 84.6445" stroke="#FF9393" stroke-opacity="0.66" stroke-width="0.893753" stroke-linecap="round"/>
<path d="M1695.52 148.591L1697.29 151.238" stroke="#FF9393" stroke-opacity="0.66" stroke-width="1.26048" stroke-linecap="round"/>
<path d="M1700.07 143.131L1701.28 144.951" stroke="#FF9393" stroke-opacity="0.66" stroke-width="1.26048" stroke-linecap="round"/>
<path d="M1698.86 148.895L1700.62 151.542" stroke="#FF9393" stroke-opacity="0.66" stroke-width="1.26048" stroke-linecap="round"/>
<path d="M1719.48 133.121L1720.7 134.941" stroke="#FF9393" stroke-opacity="0.66" stroke-width="1.26048" stroke-linecap="round"/>
<path d="M1686.42 143.738L1687.63 145.558" stroke="#FF9393" stroke-opacity="0.66" stroke-width="1.26048" stroke-linecap="round"/>
<path d="M1671.25 146.165L1672.51 148.042" stroke="#FF9393" stroke-opacity="0.66" stroke-width="0.893753" stroke-linecap="round"/>
<path d="M1691.27 151.928L1692.53 153.805" stroke="#FF9393" stroke-opacity="0.66" stroke-width="0.893753" stroke-linecap="round"/>
<path d="M1667.31 145.861L1668.56 147.738" stroke="#FF9393" stroke-opacity="0.66" stroke-width="0.893753" stroke-linecap="round"/>
<path d="M1644.86 105.214L1646.12 107.091" stroke="#FF9393" stroke-opacity="0.66" stroke-width="0.893753" stroke-linecap="round"/>
<path d="M1690.97 146.165L1692.74 148.812" stroke="#FF9393" stroke-opacity="0.66" stroke-width="1.26048" stroke-linecap="round"/>
<path d="M1664.58 139.902L1666.35 142.549" stroke="#FF9393" stroke-opacity="0.66" stroke-width="1.26048" stroke-linecap="round"/>
<path d="M1643.95 91.8682L1645.2 93.745" stroke="#FF9393" stroke-opacity="0.66" stroke-width="0.893753" stroke-linecap="round"/>
<path d="M1650.63 112.191L1651.88 114.068" stroke="#FF9393" stroke-opacity="0.66" stroke-width="0.893753" stroke-linecap="round"/>
<path d="M1642.13 97.9346L1643.39 99.8115" stroke="#FF9393" stroke-opacity="0.66" stroke-width="0.893753" stroke-linecap="round"/>
<path d="M1670.65 141.614L1672.41 144.261" stroke="#FF9393" stroke-opacity="0.66" stroke-width="1.26048" stroke-linecap="round"/>
<path d="M1675.2 150.107L1676.96 152.754" stroke="#FF9393" stroke-opacity="0.66" stroke-width="1.26048" stroke-linecap="round"/>
<path d="M1652.75 117.954L1654 119.831" stroke="#FF9393" stroke-opacity="0.66" stroke-width="0.893753" stroke-linecap="round"/>
</g>
<g filter="url(#filter6_d_217_608)">
<g filter="url(#filter7_di_217_608)">
<path d="M1632.31 154.919C1588.27 150.767 1582.17 79.1284 1584.39 43.8529C1584.39 43 1585.08 43 1586.51 43H1586.51C1588.44 43 1593.39 43 1595.87 43.9026C1598.35 44.8051 1596.55 55.5289 1598.04 71.1441C1599.74 89.054 1603.8 110.234 1613.39 128.285C1622.98 146.337 1638.12 143.921 1641.53 142.784C1651.77 139.372 1660.29 128.285 1669.68 103.552C1676.88 84.5527 1676.34 58.3584 1677.35 47.2643C1677.35 46.6713 1678.09 45.703 1679.06 45.5586C1681.67 45.1686 1686.43 45.7995 1687.59 46.0462C1689.29 46.4114 1689.23 47.2662 1689.29 48.1171C1691.85 84.7897 1676.36 159.071 1632.31 154.919Z" fill="#FEC64D"/>
</g>
</g>
<defs>
<filter id="filter0_d_217_608" x="1758.3" y="45.4542" width="103.923" height="108.079" filterUnits="userSpaceOnUse" color-interpolation-filters="sRGB">
<feFlood flood-opacity="0" result="BackgroundImageFix"/>
<feColorMatrix in="SourceAlpha" type="matrix" values="0 0 0 0 0 0 0 0 0 0 0 0 0 0 0 0 0 0 127 0" result="hardAlpha"/>
<feOffset dx="4.09148"/>
<feGaussianBlur stdDeviation="0.818296"/>
<feComposite in2="hardAlpha" operator="out"/>
<feColorMatrix type="matrix" values="0 0 0 0 0.658333 0 0 0 0 0.658333 0 0 0 0 0.658333 0 0 0 0.25 0"/>
<feBlend mode="normal" in2="BackgroundImageFix" result="effect1_dropShadow_217_608"/>
<feBlend mode="normal" in="SourceGraphic" in2="effect1_dropShadow_217_608" result="shape"/>
</filter>
<filter id="filter1_i_217_608" x="1759.1" y="72.0498" width="96.8765" height="79.8467" filterUnits="userSpaceOnUse" color-interpolation-filters="sRGB">
<feFlood flood-opacity="0" result="BackgroundImageFix"/>
<feBlend mode="normal" in="SourceGraphic" in2="BackgroundImageFix" result="shape"/>
<feColorMatrix in="SourceAlpha" type="matrix" values="0 0 0 0 0 0 0 0 0 0 0 0 0 0 0 0 0 0 127 0" result="hardAlpha"/>
<feOffset dx="2.45489" dy="3.27319"/>
<feComposite in2="hardAlpha" operator="arithmetic" k2="-1" k3="1"/>
<feColorMatrix type="matrix" values="0 0 0 0 0.666667 0 0 0 0 0.445611 0 0 0 0 0.186111 0 0 0 1 0"/>
<feBlend mode="normal" in2="shape" result="effect1_innerShadow_217_608"/>
</filter>
<filter id="filter2_d_217_608" x="1707.56" y="43.8185" width="105.56" height="109.826" filterUnits="userSpaceOnUse" color-interpolation-filters="sRGB">
<feFlood flood-opacity="0" result="BackgroundImageFix"/>
<feColorMatrix in="SourceAlpha" type="matrix" values="0 0 0 0 0 0 0 0 0 0 0 0 0 0 0 0 0 0 127 0" result="hardAlpha"/>
<feOffset dx="4.09148"/>
<feGaussianBlur stdDeviation="0.818296"/>
<feComposite in2="hardAlpha" operator="out"/>
<feColorMatrix type="matrix" values="0 0 0 0 0.658333 0 0 0 0 0.658333 0 0 0 0 0.658333 0 0 0 0.25 0"/>
<feBlend mode="normal" in2="BackgroundImageFix" result="effect1_dropShadow_217_608"/>
<feBlend mode="normal" in="SourceGraphic" in2="effect1_dropShadow_217_608" result="shape"/>
</filter>
<filter id="filter3_i_217_608" x="1708.38" y="70.8301" width="98.4912" height="81.1777" filterUnits="userSpaceOnUse" color-interpolation-filters="sRGB">
<feFlood flood-opacity="0" result="BackgroundImageFix"/>
<feBlend mode="normal" in="SourceGraphic" in2="BackgroundImageFix" result="shape"/>
<feColorMatrix in="SourceAlpha" type="matrix" values="0 0 0 0 0 0 0 0 0 0 0 0 0 0 0 0 0 0 127 0" result="hardAlpha"/>
<feOffset dx="0.818296" dy="3.27319"/>
<feComposite in2="hardAlpha" operator="arithmetic" k2="-1" k3="1"/>
<feColorMatrix type="matrix" values="0 0 0 0 1 0 0 0 0 1 0 0 0 0 1 0 0 0 0.25 0"/>
<feBlend mode="normal" in2="shape" result="effect1_innerShadow_217_608"/>
</filter>
<filter id="filter4_d_217_608" x="1636.37" y="41.6984" width="111.288" height="115.938" filterUnits="userSpaceOnUse" color-interpolation-filters="sRGB">
<feFlood flood-opacity="0" result="BackgroundImageFix"/>
<feColorMatrix in="SourceAlpha" type="matrix" values="0 0 0 0 0 0 0 0 0 0 0 0 0 0 0 0 0 0 127 0" result="hardAlpha"/>
<feOffset dx="4.09148"/>
<feGaussianBlur stdDeviation="0.818296"/>
<feComposite in2="hardAlpha" operator="out"/>
<feColorMatrix type="matrix" values="0 0 0 0 0.658333 0 0 0 0 0.658333 0 0 0 0 0.658333 0 0 0 0.25 0"/>
<feBlend mode="normal" in2="BackgroundImageFix" result="effect1_dropShadow_217_608"/>
<feBlend mode="normal" in="SourceGraphic" in2="effect1_dropShadow_217_608" result="shape"/>
</filter>
<filter id="filter5_i_217_608" x="1637.23" y="70.165" width="104.143" height="85.835" filterUnits="userSpaceOnUse" color-interpolation-filters="sRGB">
<feFlood flood-opacity="0" result="BackgroundImageFix"/>
<feBlend mode="normal" in="SourceGraphic" in2="BackgroundImageFix" result="shape"/>
<feColorMatrix in="SourceAlpha" type="matrix" values="0 0 0 0 0 0 0 0 0 0 0 0 0 0 0 0 0 0 127 0" result="hardAlpha"/>
<feOffset dx="2.45489" dy="3.27319"/>
<feComposite in2="hardAlpha" operator="arithmetic" k2="-1" k3="1"/>
<feColorMatrix type="matrix" values="0 0 0 0 1 0 0 0 0 1 0 0 0 0 1 0 0 0 0.25 0"/>
<feBlend mode="normal" in2="shape" result="effect1_innerShadow_217_608"/>
</filter>
<filter id="filter6_d_217_608" x="1584" y="41.3634" width="111.288" height="115.359" filterUnits="userSpaceOnUse" color-interpolation-filters="sRGB">
<feFlood flood-opacity="0" result="BackgroundImageFix"/>
<feColorMatrix in="SourceAlpha" type="matrix" values="0 0 0 0 0 0 0 0 0 0 0 0 0 0 0 0 0 0 127 0" result="hardAlpha"/>
<feOffset dx="4.09148"/>
<feGaussianBlur stdDeviation="0.818296"/>
<feComposite in2="hardAlpha" operator="out"/>
<feColorMatrix type="matrix" values="0 0 0 0 0.658333 0 0 0 0 0.658333 0 0 0 0 0.658333 0 0 0 0.25 0"/>
<feBlend mode="normal" in2="BackgroundImageFix" result="effect1_dropShadow_217_608"/>
<feBlend mode="normal" in="SourceGraphic" in2="effect1_dropShadow_217_608" result="shape"/>
</filter>
<filter id="filter7_di_217_608" x="1580.73" y="43" width="112.106" height="118.632" filterUnits="userSpaceOnUse" color-interpolation-filters="sRGB">
<feFlood flood-opacity="0" result="BackgroundImageFix"/>
<feColorMatrix in="SourceAlpha" type="matrix" values="0 0 0 0 0 0 0 0 0 0 0 0 0 0 0 0 0 0 127 0" result="hardAlpha"/>
<feOffset dy="3.27319"/>
<feGaussianBlur stdDeviation="1.63659"/>
<feComposite in2="hardAlpha" operator="out"/>
<feColorMatrix type="matrix" values="0 0 0 0 0 0 0 0 0 0 0 0 0 0 0 0 0 0 0.25 0"/>
<feBlend mode="normal" in2="BackgroundImageFix" result="effect1_dropShadow_217_608"/>
<feBlend mode="normal" in="SourceGraphic" in2="effect1_dropShadow_217_608" result="shape"/>
<feColorMatrix in="SourceAlpha" type="matrix" values="0 0 0 0 0 0 0 0 0 0 0 0 0 0 0 0 0 0 127 0" result="hardAlpha"/>
<feOffset dx="3.27319" dy="2.45489"/>
<feGaussianBlur stdDeviation="0.409148"/>
<feComposite in2="hardAlpha" operator="arithmetic" k2="-1" k3="1"/>
<feColorMatrix type="matrix" values="0 0 0 0 1 0 0 0 0 0.723164 0 0 0 0 0.125 0 0 0 1 0"/>
<feBlend mode="normal" in2="shape" result="effect2_innerShadow_217_608"/>
</filter>
</defs>
</svg>
