<svg width="1920" height="437" viewBox="0 0 1920 437" fill="none" xmlns="http://www.w3.org/2000/svg">
<g clip-path="url(#clip0_215_61)">
<path d="M179.754 359.532C261.142 366.003 272.818 482.608 268.923 540.06C268.928 541.448 267.657 541.453 265.017 541.462L265.017 541.462C261.45 541.475 252.304 541.507 247.714 540.054C243.123 538.601 246.395 521.128 243.558 495.713C240.303 466.562 232.689 432.103 214.869 402.774C197.05 373.445 169.091 377.478 162.795 379.352C143.91 384.973 128.219 403.082 111.032 443.414C97.8294 474.398 98.9906 517.045 97.1791 535.115C97.1825 536.081 95.824 537.662 94.038 537.904C89.2182 538.556 80.41 537.56 78.2807 537.166C75.1277 536.582 75.2324 535.19 75.1178 533.805C70.1792 474.11 98.3658 353.061 179.754 359.532Z" fill="#FFD16D"/>
<path d="M267.205 484.162C262.439 483.191 250.113 483.877 250.073 472.616C250.023 458.539 259.795 448.874 249.963 441.5C240.13 434.126 244.062 436.582 235.345 427.722C226.628 418.863 233.01 401.554 222.355 399.122C211.7 396.69 206.949 400.165 204.413 395.975C201.876 391.786 208.018 385.59 199.884 383.15C191.751 380.709 198.729 373.276 177.751 383.228C156.773 393.181 153.071 376.401 139.378 386.328C125.685 396.255 131.561 394.012 129.637 404.637C127.714 415.263 125.506 424.902 112.07 428.16C98.6329 431.419 92.2241 441.319 95.0512 448.471C97.8784 455.623 97.3268 458.094 92.0246 464.04C86.7225 469.986 82.2546 474.2 84.5188 480.612C86.783 487.025 82.0526 496.179 78.4147 497.427C76.6105 498.046 75.8603 498.313 75.6174 498.407C75.6171 498.413 75.6168 498.419 75.6165 498.425C75.5102 498.456 75.4685 498.464 75.6174 498.407C76.2268 485.306 79.5549 454.494 88.0022 435.902C98.5662 412.65 111.098 391.121 116.404 386.41C121.711 381.699 142.365 359.647 160.013 358.843C177.661 358.04 194.747 356.497 214.966 369.761C235.186 383.024 234.555 387.38 248.168 409.402C259.439 427.637 266.07 473.206 267.19 479.963C267.763 483.419 268.327 484.405 267.205 484.162Z" fill="#865822"/>
<path d="M160.936 381.806L157.66 377.508" stroke="#BC893D" stroke-width="2.24487" stroke-linecap="round"/>
<path d="M145.214 372.723L141.939 368.425" stroke="#BC893D" stroke-width="2.24487" stroke-linecap="round"/>
<path d="M242.854 411.734L239.578 407.436" stroke="#BC893D" stroke-width="2.24487" stroke-linecap="round"/>
<path d="M135.925 379.939L132.65 375.641" stroke="#BC893D" stroke-width="2.24487" stroke-linecap="round"/>
<path d="M125.174 410.086L124.046 408.115" stroke="#BC893D" stroke-width="2.24487" stroke-linecap="round"/>
<path d="M126.234 393.289L125.107 391.317" stroke="#BC893D" stroke-width="2.24487" stroke-linecap="round"/>
<path d="M214.772 393.963L211.497 389.665" stroke="#BC893D" stroke-width="2.24487" stroke-linecap="round"/>
<path d="M177.698 368.411L174.423 364.113" stroke="#BC893D" stroke-width="2.24487" stroke-linecap="round"/>
<path d="M128.501 387.354L125.226 383.056" stroke="#BC893D" stroke-width="2.24487" stroke-linecap="round"/>
<path d="M250.178 422.978L246.903 418.679" stroke="#BC893D" stroke-width="2.24487" stroke-linecap="round"/>
<path d="M224.858 393.927L221.583 389.629" stroke="#BC893D" stroke-width="2.24487" stroke-linecap="round"/>
<path d="M192.283 372.805L189.008 368.506" stroke="#BC893D" stroke-width="2.24487" stroke-linecap="round"/>
<path d="M241.193 403.12L237.918 398.821" stroke="#BC893D" stroke-width="2.24487" stroke-linecap="round"/>
<path d="M232.784 395.966L229.509 391.667" stroke="#BC893D" stroke-width="2.24487" stroke-linecap="round"/>
<path d="M103.935 425.473L100.66 421.175" stroke="#BC893D" stroke-width="2.24487" stroke-linecap="round"/>
<path d="M95.561 434.394L93.3091 431.438" stroke="#BC893D" stroke-width="2.24487" stroke-linecap="round"/>
<path d="M105.583 416.083L102.307 411.785" stroke="#BC893D" stroke-width="2.24487" stroke-linecap="round"/>
<path d="M114.543 414.569L112.291 411.614" stroke="#BC893D" stroke-width="2.24487" stroke-linecap="round"/>
<path d="M117.861 402.209L115.609 399.254" stroke="#BC893D" stroke-width="2.24487" stroke-linecap="round"/>
<path d="M160.896 370.941L157.621 366.643" stroke="#BC893D" stroke-width="2.24487" stroke-linecap="round"/>
<path d="M152.523 379.861L150.272 376.905" stroke="#BC893D" stroke-width="2.24487" stroke-linecap="round"/>
<path d="M154.731 370.469L151.456 366.171" stroke="#BC893D" stroke-width="2.24487" stroke-linecap="round"/>
<path d="M116.72 396.287L114.468 393.331" stroke="#BC893D" stroke-width="2.24487" stroke-linecap="round"/>
<path d="M177.735 378.784L175.483 375.828" stroke="#BC893D" stroke-width="2.24487" stroke-linecap="round"/>
<path d="M205.738 374.733L203.416 371.685" stroke="#BC893D" stroke-width="1.59175" stroke-linecap="round"/>
<path d="M168.723 365.48L166.4 362.433" stroke="#BC893D" stroke-width="1.59175" stroke-linecap="round"/>
<path d="M213.024 375.2L210.702 372.152" stroke="#BC893D" stroke-width="1.59175" stroke-linecap="round"/>
<path d="M169.316 374.862L166.041 370.564" stroke="#BC893D" stroke-width="2.24487" stroke-linecap="round"/>
<path d="M218.102 384.885L214.826 380.587" stroke="#BC893D" stroke-width="2.24487" stroke-linecap="round"/>
<path d="M244.037 429.914L241.715 426.866" stroke="#BC893D" stroke-width="1.59175" stroke-linecap="round"/>
<path d="M206.885 382.137L203.61 377.839" stroke="#BC893D" stroke-width="2.24487" stroke-linecap="round"/>
<path d="M198.431 368.337L195.156 364.039" stroke="#BC893D" stroke-width="2.24487" stroke-linecap="round"/>
<path d="M240.082 420.544L237.76 417.496" stroke="#BC893D" stroke-width="1.59175" stroke-linecap="round"/>
<circle cx="75.5267" cy="67.1057" r="36.2619" transform="rotate(10.4414 75.5267 67.1057)" fill="#B8FBF7"/>
<circle cx="1387" cy="51" r="35" fill="#B8FBF7"/>
<circle cx="247.5" cy="260.5" r="22.5" fill="#B8FBF7"/>
<circle cx="314.5" cy="139" r="21" fill="#D88C71"/>
<circle cx="314.5" cy="139" r="21" fill="#D88C71"/>
<circle cx="314.5" cy="139" r="21" fill="#D88C71"/>
<circle cx="1798.75" cy="118.751" r="86.7512" fill="#D4FBF8"/>
<circle cx="1511.63" cy="169.628" r="31.6281" fill="#D4FBF8"/>
<circle cx="1700.65" cy="68.6512" r="12.6512" fill="#D88C71"/>
<circle cx="1700.65" cy="68.6512" r="12.6512" fill="#D88C71"/>
<circle cx="1700.65" cy="68.6512" r="12.6512" fill="#D88C71"/>
<circle cx="390.651" cy="363.651" r="12.6512" fill="#D88C71"/>
<circle cx="390.651" cy="363.651" r="12.6512" fill="#D88C71"/>
<circle cx="390.651" cy="363.651" r="12.6512" fill="#D88C71"/>
<path d="M1818.43 431.009C1728.7 422.551 1716.28 276.603 1720.8 204.737C1720.8 203 1722.2 203 1725.11 203H1725.11C1729.04 203 1739.13 203 1744.19 204.839C1749.24 206.678 1745.57 228.525 1748.6 260.337C1752.07 296.824 1760.33 339.973 1779.87 376.749C1799.41 413.525 1830.26 408.603 1837.21 406.286C1858.06 399.336 1875.43 376.749 1894.55 326.362C1909.23 287.654 1908.11 234.289 1910.18 211.687C1910.18 210.479 1911.69 208.507 1913.66 208.212C1918.98 207.418 1928.69 208.703 1931.03 209.206C1934.51 209.95 1934.39 211.691 1934.51 213.425C1939.72 288.137 1908.16 439.468 1818.43 431.009Z" fill="#FEC64D"/>
<path d="M1722.47 274.686C1727.72 275.922 1741.32 275.118 1741.32 289.208C1741.32 306.82 1730.51 318.871 1741.32 328.14C1752.13 337.41 1747.81 334.32 1757.39 345.443C1766.97 356.567 1759.86 378.196 1771.6 381.286C1783.34 384.376 1788.59 380.05 1791.38 385.303C1794.16 390.555 1787.36 398.28 1796.32 401.37C1805.28 404.46 1797.56 413.729 1820.73 401.37C1843.9 389.011 1847.92 410.022 1863.06 397.662C1878.2 385.303 1871.71 388.084 1873.87 374.797C1876.04 361.511 1878.51 349.46 1893.34 345.443C1908.17 341.427 1915.28 329.067 1912.19 320.107C1909.1 311.146 1909.72 308.056 1915.59 300.64C1921.46 293.225 1926.4 287.972 1923.93 279.938C1921.46 271.905 1926.71 260.472 1930.73 258.927C1932.72 258.161 1933.55 257.83 1933.82 257.714C1933.82 257.706 1933.82 257.699 1933.82 257.691C1933.94 257.652 1933.98 257.643 1933.82 257.714C1933.09 274.103 1929.3 312.64 1919.91 335.865C1908.17 364.91 1894.27 391.791 1888.4 397.662C1882.53 403.533 1859.66 431.033 1840.2 431.96C1820.73 432.887 1801.88 434.74 1779.63 418.055C1757.39 401.37 1758.1 395.923 1743.17 368.308C1730.81 345.443 1723.68 288.399 1722.47 279.938C1721.85 275.613 1721.24 274.377 1722.47 274.686Z" fill="#865822"/>
<path d="M1818.43 431.009C1728.7 422.551 1716.28 276.603 1720.8 204.737C1720.8 203 1722.2 203 1725.11 203H1725.11C1729.04 203 1739.13 203 1744.19 204.839C1749.24 206.678 1745.57 228.525 1748.6 260.337C1752.07 296.824 1760.33 339.973 1779.87 376.749C1799.41 413.525 1830.26 408.603 1837.21 406.286C1858.06 399.336 1875.43 376.749 1894.55 326.362C1909.23 287.654 1908.11 234.289 1910.18 211.687C1910.18 210.479 1911.69 208.507 1913.66 208.212C1918.98 207.418 1928.69 208.703 1931.03 209.206C1934.51 209.95 1934.39 211.691 1934.51 213.425C1939.72 288.137 1908.16 439.468 1818.43 431.009Z" fill="#FEC64D"/>
<path d="M1722.47 274.686C1727.72 275.922 1741.32 275.118 1741.32 289.208C1741.32 306.82 1730.51 318.871 1741.32 328.14C1752.13 337.41 1747.81 334.32 1757.39 345.443C1766.97 356.567 1759.86 378.196 1771.6 381.286C1783.34 384.376 1788.59 380.05 1791.38 385.303C1794.16 390.555 1787.36 398.28 1796.32 401.37C1805.28 404.46 1797.56 413.729 1820.73 401.37C1843.9 389.011 1847.92 410.022 1863.06 397.662C1878.2 385.303 1871.71 388.084 1873.87 374.797C1876.04 361.511 1878.51 349.46 1893.34 345.443C1908.17 341.427 1915.28 329.067 1912.19 320.107C1909.1 311.146 1909.72 308.056 1915.59 300.64C1921.46 293.225 1926.4 287.972 1923.93 279.938C1921.46 271.905 1926.71 260.472 1930.73 258.927C1932.72 258.161 1933.55 257.83 1933.82 257.714C1933.82 257.706 1933.82 257.699 1933.82 257.691C1933.94 257.652 1933.98 257.643 1933.82 257.714C1933.09 274.103 1929.3 312.64 1919.91 335.865C1908.17 364.91 1894.27 391.791 1888.4 397.662C1882.53 403.533 1859.66 431.033 1840.2 431.96C1820.73 432.887 1801.88 434.74 1779.63 418.055C1757.39 401.37 1758.1 395.923 1743.17 368.308C1730.81 345.443 1723.68 288.399 1722.47 279.938C1721.85 275.613 1721.24 274.377 1722.47 274.686Z" fill="#91B95D"/>
<path d="M1840.5 402.605L1844.1 407.998" stroke="#1F7600" stroke-opacity="0.66" stroke-width="2.56793" stroke-linecap="round"/>
<path d="M1857.81 414.041L1861.4 419.433" stroke="#1F7600" stroke-opacity="0.66" stroke-width="2.56793" stroke-linecap="round"/>
<path d="M1750.28 364.796L1753.88 370.189" stroke="#1F7600" stroke-opacity="0.66" stroke-width="2.56793" stroke-linecap="round"/>
<path d="M1868.08 405.052L1871.68 410.445" stroke="#1F7600" stroke-opacity="0.66" stroke-width="2.56793" stroke-linecap="round"/>
<path d="M1880.06 367.381L1881.29 369.853" stroke="#1F7600" stroke-opacity="0.66" stroke-width="2.56793" stroke-linecap="round"/>
<path d="M1878.82 388.392L1880.06 390.864" stroke="#1F7600" stroke-opacity="0.66" stroke-width="2.56793" stroke-linecap="round"/>
<path d="M1781.18 387.156L1784.77 392.549" stroke="#1F7600" stroke-opacity="0.66" stroke-width="2.56793" stroke-linecap="round"/>
<path d="M1821.97 419.291L1825.56 424.684" stroke="#1F7600" stroke-opacity="0.66" stroke-width="2.56793" stroke-linecap="round"/>
<path d="M1876.3 395.808L1879.89 401.2" stroke="#1F7600" stroke-opacity="0.66" stroke-width="2.56793" stroke-linecap="round"/>
<path d="M1917.13 312.381L1920.73 317.774" stroke="#1F7600" stroke-opacity="0.66" stroke-width="2.56793" stroke-linecap="round"/>
<path d="M1742.25 350.696L1745.84 356.089" stroke="#1F7600" stroke-opacity="0.66" stroke-width="2.56793" stroke-linecap="round"/>
<path d="M1770.06 387.156L1773.65 392.549" stroke="#1F7600" stroke-opacity="0.66" stroke-width="2.56793" stroke-linecap="round"/>
<path d="M1805.9 413.729L1809.49 419.121" stroke="#1F7600" stroke-opacity="0.66" stroke-width="2.56793" stroke-linecap="round"/>
<path d="M1752.08 375.582L1755.67 380.975" stroke="#1F7600" stroke-opacity="0.66" stroke-width="2.56793" stroke-linecap="round"/>
<path d="M1761.32 384.57L1764.92 389.963" stroke="#1F7600" stroke-opacity="0.66" stroke-width="2.56793" stroke-linecap="round"/>
<path d="M1903.54 348.224L1907.13 353.617" stroke="#1F7600" stroke-opacity="0.66" stroke-width="2.56793" stroke-linecap="round"/>
<path d="M1912.81 337.101L1915.28 340.808" stroke="#1F7600" stroke-opacity="0.66" stroke-width="2.56793" stroke-linecap="round"/>
<path d="M1901.68 359.965L1905.28 365.358" stroke="#1F7600" stroke-opacity="0.66" stroke-width="2.56793" stroke-linecap="round"/>
<path d="M1891.8 361.82L1894.27 365.528" stroke="#1F7600" stroke-opacity="0.66" stroke-width="2.56793" stroke-linecap="round"/>
<path d="M1888.09 377.268L1890.56 380.976" stroke="#1F7600" stroke-opacity="0.66" stroke-width="2.56793" stroke-linecap="round"/>
<path d="M1736.07 282.718L1738.62 286.542" stroke="#1F7600" stroke-opacity="0.66" stroke-width="1.82082" stroke-linecap="round"/>
<path d="M1728.03 299.537L1730.58 303.36" stroke="#1F7600" stroke-opacity="0.66" stroke-width="1.82082" stroke-linecap="round"/>
<path d="M1728.03 282.101L1730.58 285.924" stroke="#1F7600" stroke-opacity="0.66" stroke-width="1.82082" stroke-linecap="round"/>
<path d="M1840.5 416.201L1844.1 421.593" stroke="#1F7600" stroke-opacity="0.66" stroke-width="2.56793" stroke-linecap="round"/>
<path d="M1849.77 405.078L1852.25 408.786" stroke="#1F7600" stroke-opacity="0.66" stroke-width="2.56793" stroke-linecap="round"/>
<path d="M1847.3 416.819L1850.9 422.212" stroke="#1F7600" stroke-opacity="0.66" stroke-width="2.56793" stroke-linecap="round"/>
<path d="M1889.33 384.685L1891.8 388.392" stroke="#1F7600" stroke-opacity="0.66" stroke-width="2.56793" stroke-linecap="round"/>
<path d="M1821.97 406.313L1824.44 410.021" stroke="#1F7600" stroke-opacity="0.66" stroke-width="2.56793" stroke-linecap="round"/>
<path d="M1791.07 411.257L1793.62 415.081" stroke="#1F7600" stroke-opacity="0.66" stroke-width="1.82082" stroke-linecap="round"/>
<path d="M1831.85 422.999L1834.4 426.822" stroke="#1F7600" stroke-opacity="0.66" stroke-width="1.82082" stroke-linecap="round"/>
<path d="M1783.03 410.639L1785.58 414.463" stroke="#1F7600" stroke-opacity="0.66" stroke-width="1.82082" stroke-linecap="round"/>
<path d="M1737.3 327.831L1739.85 331.655" stroke="#1F7600" stroke-opacity="0.66" stroke-width="1.82082" stroke-linecap="round"/>
<path d="M1831.24 411.257L1834.83 416.65" stroke="#1F7600" stroke-opacity="0.66" stroke-width="2.56793" stroke-linecap="round"/>
<path d="M1777.47 398.499L1781.07 403.892" stroke="#1F7600" stroke-opacity="0.66" stroke-width="2.56793" stroke-linecap="round"/>
<path d="M1735.45 300.641L1738 304.464" stroke="#1F7600" stroke-opacity="0.66" stroke-width="1.82082" stroke-linecap="round"/>
<path d="M1749.04 342.044L1751.59 345.868" stroke="#1F7600" stroke-opacity="0.66" stroke-width="1.82082" stroke-linecap="round"/>
<path d="M1731.74 312.999L1734.29 316.823" stroke="#1F7600" stroke-opacity="0.66" stroke-width="1.82082" stroke-linecap="round"/>
<path d="M1789.83 401.987L1793.43 407.38" stroke="#1F7600" stroke-opacity="0.66" stroke-width="2.56793" stroke-linecap="round"/>
<path d="M1799.1 419.291L1802.7 424.684" stroke="#1F7600" stroke-opacity="0.66" stroke-width="2.56793" stroke-linecap="round"/>
<path d="M1753.37 353.786L1755.92 357.609" stroke="#1F7600" stroke-opacity="0.66" stroke-width="1.82082" stroke-linecap="round"/>
<circle cx="1933.5" cy="309.5" r="53.5" fill="#B8FBF7"/>
<circle cx="166.17" cy="417.17" r="17.1695" fill="#FFE1E1"/>
<circle cx="1828.17" cy="390.17" r="17.1695" fill="#FFE1E1"/>
<circle cx="376.5" cy="116.5" r="44.5" fill="#FFE1E1"/>
<circle cx="1731" cy="202" r="18" fill="#FFE1E1"/>
<circle cx="1560" cy="39" r="24" fill="#FFE1E1"/>
<circle cx="423.5" cy="395.5" r="20.5" fill="#FFE1E1"/>
<path d="M858.31 302.153C859.738 302.867 860.561 303.992 860.781 305.529C861.055 307.067 860.671 308.467 859.628 309.729C858.914 310.718 857.981 311.267 856.828 311.376C855.73 311.486 854.604 311.267 853.451 310.718C852.134 310.114 850.734 309.647 849.251 309.318C847.824 308.988 846.314 308.824 844.722 308.824C841.757 308.824 839.095 309.29 836.734 310.224C834.428 311.157 832.451 312.502 830.804 314.259C829.157 315.961 827.895 317.992 827.016 320.353C826.193 322.714 825.781 325.322 825.781 328.176C825.781 331.525 826.247 334.435 827.181 336.906C828.169 339.376 829.514 341.435 831.216 343.082C832.918 344.729 834.922 345.965 837.228 346.788C839.534 347.557 842.032 347.941 844.722 347.941C846.204 347.941 847.687 347.804 849.169 347.529C850.651 347.255 852.079 346.761 853.451 346.047C854.604 345.498 855.73 345.306 856.828 345.471C857.981 345.635 858.942 346.212 859.71 347.2C860.808 348.573 861.193 350 860.863 351.482C860.589 352.91 859.765 353.953 858.393 354.612C856.965 355.325 855.483 355.929 853.945 356.424C852.463 356.863 850.953 357.192 849.416 357.412C847.879 357.686 846.314 357.824 844.722 357.824C840.769 357.824 837.008 357.192 833.44 355.929C829.926 354.667 826.769 352.8 823.969 350.329C821.224 347.859 819.055 344.784 817.463 341.106C815.871 337.373 815.075 333.063 815.075 328.176C815.075 323.949 815.789 320.051 817.216 316.482C818.698 312.914 820.757 309.839 823.393 307.259C826.083 304.624 829.24 302.592 832.863 301.165C836.487 299.682 840.44 298.941 844.722 298.941C847.138 298.941 849.498 299.216 851.804 299.765C854.11 300.314 856.279 301.11 858.31 302.153ZM891.906 312.118C895.859 312.118 898.851 312.969 900.883 314.671C902.969 316.373 904.397 318.651 905.165 321.506C905.934 324.306 906.318 327.435 906.318 330.894V351.976C906.318 353.404 905.851 354.612 904.918 355.6C903.985 356.533 902.804 357 901.377 357C899.949 357 898.769 356.533 897.836 355.6C896.902 354.612 896.436 353.404 896.436 351.976V330.894C896.436 329.082 896.216 327.463 895.777 326.035C895.338 324.553 894.542 323.373 893.389 322.494C892.236 321.616 890.589 321.176 888.448 321.176C886.361 321.176 884.577 321.616 883.095 322.494C881.612 323.373 880.487 324.553 879.718 326.035C879.004 327.463 878.648 329.082 878.648 330.894V351.976C878.648 353.404 878.181 354.612 877.248 355.6C876.314 356.533 875.134 357 873.706 357C872.279 357 871.098 356.533 870.165 355.6C869.232 354.612 868.765 353.404 868.765 351.976V301.082C868.765 299.655 869.232 298.475 870.165 297.541C871.098 296.553 872.279 296.059 873.706 296.059C875.134 296.059 876.314 296.553 877.248 297.541C878.181 298.475 878.648 299.655 878.648 301.082V321.506L877.412 321.259C877.906 320.325 878.593 319.337 879.471 318.294C880.349 317.196 881.42 316.18 882.683 315.247C883.946 314.314 885.346 313.573 886.883 313.024C888.42 312.42 890.095 312.118 891.906 312.118ZM949.713 312.941C951.14 312.941 952.321 313.435 953.254 314.424C954.187 315.357 954.654 316.537 954.654 317.965V338.882C954.654 344.702 953.035 349.314 949.795 352.718C946.556 356.122 941.889 357.824 935.795 357.824C929.701 357.824 925.035 356.122 921.795 352.718C918.611 349.314 917.019 344.702 917.019 338.882V317.965C917.019 316.537 917.486 315.357 918.419 314.424C919.352 313.435 920.533 312.941 921.96 312.941C923.387 312.941 924.568 313.435 925.501 314.424C926.435 315.357 926.901 316.537 926.901 317.965V338.882C926.901 342.231 927.642 344.729 929.125 346.376C930.607 347.969 932.831 348.765 935.795 348.765C938.815 348.765 941.066 347.969 942.548 346.376C944.031 344.729 944.772 342.231 944.772 338.882V317.965C944.772 316.537 945.238 315.357 946.172 314.424C947.105 313.435 948.286 312.941 949.713 312.941ZM1006.53 302.153C1007.96 302.867 1008.78 303.992 1009 305.529C1009.27 307.067 1008.89 308.467 1007.85 309.729C1007.13 310.718 1006.2 311.267 1005.05 311.376C1003.95 311.486 1002.82 311.267 1001.67 310.718C1000.35 310.114 998.953 309.647 997.471 309.318C996.043 308.988 994.533 308.824 992.941 308.824C989.976 308.824 987.314 309.29 984.953 310.224C982.647 311.157 980.671 312.502 979.024 314.259C977.376 315.961 976.114 317.992 975.235 320.353C974.412 322.714 974 325.322 974 328.176C974 331.525 974.467 334.435 975.4 336.906C976.388 339.376 977.733 341.435 979.435 343.082C981.137 344.729 983.141 345.965 985.447 346.788C987.753 347.557 990.251 347.941 992.941 347.941C994.424 347.941 995.906 347.804 997.388 347.529C998.871 347.255 1000.3 346.761 1001.67 346.047C1002.82 345.498 1003.95 345.306 1005.05 345.471C1006.2 345.635 1007.16 346.212 1007.93 347.2C1009.03 348.573 1009.41 350 1009.08 351.482C1008.81 352.91 1007.98 353.953 1006.61 354.612C1005.18 355.325 1003.7 355.929 1002.16 356.424C1000.68 356.863 999.173 357.192 997.635 357.412C996.098 357.686 994.533 357.824 992.941 357.824C988.988 357.824 985.227 357.192 981.659 355.929C978.145 354.667 974.988 352.8 972.188 350.329C969.443 347.859 967.275 344.784 965.682 341.106C964.09 337.373 963.294 333.063 963.294 328.176C963.294 323.949 964.008 320.051 965.435 316.482C966.918 312.914 968.976 309.839 971.612 307.259C974.302 304.624 977.459 302.592 981.082 301.165C984.706 299.682 988.659 298.941 992.941 298.941C995.357 298.941 997.718 299.216 1000.02 299.765C1002.33 300.314 1004.5 301.11 1006.53 302.153ZM1040.13 312.118C1044.08 312.118 1047.07 312.969 1049.1 314.671C1051.19 316.373 1052.62 318.651 1053.38 321.506C1054.15 324.306 1054.54 327.435 1054.54 330.894V351.976C1054.54 353.404 1054.07 354.612 1053.14 355.6C1052.2 356.533 1051.02 357 1049.6 357C1048.17 357 1046.99 356.533 1046.05 355.6C1045.12 354.612 1044.65 353.404 1044.65 351.976V330.894C1044.65 329.082 1044.44 327.463 1044 326.035C1043.56 324.553 1042.76 323.373 1041.61 322.494C1040.45 321.616 1038.81 321.176 1036.67 321.176C1034.58 321.176 1032.8 321.616 1031.31 322.494C1029.83 323.373 1028.71 324.553 1027.94 326.035C1027.22 327.463 1026.87 329.082 1026.87 330.894V351.976C1026.87 353.404 1026.4 354.612 1025.47 355.6C1024.53 356.533 1023.35 357 1021.93 357C1020.5 357 1019.32 356.533 1018.38 355.6C1017.45 354.612 1016.98 353.404 1016.98 351.976V301.082C1016.98 299.655 1017.45 298.475 1018.38 297.541C1019.32 296.553 1020.5 296.059 1021.93 296.059C1023.35 296.059 1024.53 296.553 1025.47 297.541C1026.4 298.475 1026.87 299.655 1026.87 301.082V321.506L1025.63 321.259C1026.13 320.325 1026.81 319.337 1027.69 318.294C1028.57 317.196 1029.64 316.18 1030.9 315.247C1032.16 314.314 1033.56 313.573 1035.1 313.024C1036.64 312.42 1038.31 312.118 1040.13 312.118ZM1097.93 312.941C1099.36 312.941 1100.54 313.435 1101.47 314.424C1102.41 315.357 1102.87 316.537 1102.87 317.965V338.882C1102.87 344.702 1101.25 349.314 1098.01 352.718C1094.78 356.122 1090.11 357.824 1084.01 357.824C1077.92 357.824 1073.25 356.122 1070.01 352.718C1066.83 349.314 1065.24 344.702 1065.24 338.882V317.965C1065.24 316.537 1065.7 315.357 1066.64 314.424C1067.57 313.435 1068.75 312.941 1070.18 312.941C1071.61 312.941 1072.79 313.435 1073.72 314.424C1074.65 315.357 1075.12 316.537 1075.12 317.965V338.882C1075.12 342.231 1075.86 344.729 1077.34 346.376C1078.83 347.969 1081.05 348.765 1084.01 348.765C1087.03 348.765 1089.29 347.969 1090.77 346.376C1092.25 344.729 1092.99 342.231 1092.99 338.882V317.965C1092.99 316.537 1093.46 315.357 1094.39 314.424C1095.32 313.435 1096.5 312.941 1097.93 312.941Z" fill="#FFBE6B"/>
<circle cx="82" cy="238" r="24" fill="#D88C71"/>
<circle cx="82" cy="238" r="24" fill="#D88C71"/>
<circle cx="82" cy="238" r="24" fill="#D88C71"/>
<circle cx="64" cy="332" r="27" fill="#FFE1E1"/>
<circle cx="1885.5" cy="68.5" r="29.5" fill="#D88C71"/>
<circle cx="1885.5" cy="68.5" r="29.5" fill="#D88C71"/>
<circle cx="1885.5" cy="68.5" r="29.5" fill="#D88C71"/>
<circle cx="1566.5" cy="406.5" r="17.5" fill="#FFE1E1"/>
<circle cx="1405.75" cy="78.75" r="15.75" fill="#D88C71"/>
<circle cx="1405.75" cy="78.75" r="15.75" fill="#D88C71"/>
<circle cx="1405.75" cy="78.75" r="15.75" fill="#D88C71"/>
<circle cx="1541" cy="437" r="30" fill="#D4FBF8"/>
<path d="M1467.34 351.376C1530.09 355.161 1542.18 456.608 1540.72 506.812C1540.76 508.024 1539.78 508.057 1537.75 508.125L1537.75 508.125C1535.01 508.218 1527.98 508.455 1524.41 507.292C1520.84 506.129 1522.89 490.813 1520.03 468.708C1516.75 443.355 1509.98 413.47 1495.49 388.293C1481.01 363.117 1459.62 367.273 1454.83 369.052C1440.46 374.387 1428.87 390.542 1416.74 426.117C1407.41 453.445 1409.44 490.62 1408.53 506.424C1408.56 507.266 1407.56 508.677 1406.19 508.928C1402.51 509.607 1395.71 508.94 1394.06 508.644C1391.62 508.208 1391.66 506.991 1391.54 505.785C1386.15 453.826 1404.58 347.591 1467.34 351.376Z" fill="#FFD16D"/>
<path d="M1537.91 458.092C1534.21 457.354 1524.76 458.234 1524.42 448.412C1524.01 436.134 1531.27 427.48 1523.51 421.272C1515.75 415.065 1518.84 417.117 1511.9 409.588C1504.96 402.059 1509.41 386.814 1501.15 384.937C1492.89 383.059 1490.1 385.628 1487.27 382.602C1482.57 377.585 1489.76 373.461 1483.45 371.518C1477.13 369.575 1482.29 362.931 1466.43 372.092C1450.57 381.253 1447.27 366.701 1437.01 375.673C1426.74 384.645 1431.2 382.554 1430.01 391.867C1428.81 401.18 1427.37 409.638 1417.13 412.787C1406.88 415.936 1402.22 424.719 1404.58 430.893C1406.95 437.067 1406.59 439.235 1402.67 444.543C1398.76 449.85 1395.43 453.629 1397.34 459.171C1399.26 464.713 1395.86 472.806 1393.1 473.977C1391.73 474.558 1391.16 474.809 1390.98 474.896C1390.98 474.901 1390.98 474.906 1390.98 474.912C1390.89 474.942 1390.86 474.949 1390.98 474.896C1391.09 463.454 1392.83 436.501 1398.83 420.09C1406.33 399.566 1415.39 380.5 1419.35 376.269C1423.3 372.039 1438.59 352.33 1452.14 351.226C1465.69 350.122 1478.78 348.386 1494.68 359.494C1510.59 370.602 1510.22 374.416 1521.27 393.314C1530.43 408.963 1536.74 448.561 1537.78 454.43C1538.31 457.431 1538.77 458.278 1537.91 458.092Z" fill="#FFB3AE"/>
<path d="M1452.59 370.834L1449.95 367.159" stroke="#FF9393" stroke-opacity="0.66" stroke-width="1.79112" stroke-linecap="round"/>
<path d="M1440.25 363.27L1437.62 359.595" stroke="#FF9393" stroke-opacity="0.66" stroke-width="1.79112" stroke-linecap="round"/>
<path d="M1516.37 395.067L1513.74 391.393" stroke="#FF9393" stroke-opacity="0.66" stroke-width="1.79112" stroke-linecap="round"/>
<path d="M1433.31 369.777L1430.67 366.102" stroke="#FF9393" stroke-opacity="0.66" stroke-width="1.79112" stroke-linecap="round"/>
<path d="M1425.84 396.32L1424.92 394.626" stroke="#FF9393" stroke-opacity="0.66" stroke-width="1.79112" stroke-linecap="round"/>
<path d="M1426.21 381.644L1425.29 379.949" stroke="#FF9393" stroke-opacity="0.66" stroke-width="1.79112" stroke-linecap="round"/>
<path d="M1494.3 380.208L1491.67 376.533" stroke="#FF9393" stroke-opacity="0.66" stroke-width="1.79112" stroke-linecap="round"/>
<path d="M1465.12 358.767L1462.48 355.092" stroke="#FF9393" stroke-opacity="0.66" stroke-width="1.79112" stroke-linecap="round"/>
<path d="M1427.79 376.415L1425.16 372.74" stroke="#FF9393" stroke-opacity="0.66" stroke-width="1.79112" stroke-linecap="round"/>
<path d="M1401.29 435.532L1398.66 431.858" stroke="#FF9393" stroke-opacity="0.66" stroke-width="1.79112" stroke-linecap="round"/>
<path d="M1522.3 404.709L1519.67 401.034" stroke="#FF9393" stroke-opacity="0.66" stroke-width="1.79112" stroke-linecap="round"/>
<path d="M1502.06 379.946L1499.43 376.271" stroke="#FF9393" stroke-opacity="0.66" stroke-width="1.79112" stroke-linecap="round"/>
<path d="M1476.45 362.265L1473.82 358.591" stroke="#FF9393" stroke-opacity="0.66" stroke-width="1.79112" stroke-linecap="round"/>
<path d="M1514.86 387.592L1512.23 383.917" stroke="#FF9393" stroke-opacity="0.66" stroke-width="1.79112" stroke-linecap="round"/>
<path d="M1508.21 381.544L1505.57 377.869" stroke="#FF9393" stroke-opacity="0.66" stroke-width="1.79112" stroke-linecap="round"/>
<path d="M1409.92 410.226L1407.29 406.551" stroke="#FF9393" stroke-opacity="0.66" stroke-width="1.79112" stroke-linecap="round"/>
<path d="M1403.72 418.199L1401.91 415.672" stroke="#FF9393" stroke-opacity="0.66" stroke-width="1.79112" stroke-linecap="round"/>
<path d="M1410.94 401.998L1408.31 398.323" stroke="#FF9393" stroke-opacity="0.66" stroke-width="1.79112" stroke-linecap="round"/>
<path d="M1417.79 400.473L1415.98 397.946" stroke="#FF9393" stroke-opacity="0.66" stroke-width="1.79112" stroke-linecap="round"/>
<path d="M1420.01 389.616L1418.2 387.09" stroke="#FF9393" stroke-opacity="0.66" stroke-width="1.79112" stroke-linecap="round"/>
<path d="M1533.42 440.037L1531.55 437.431" stroke="#FF9393" stroke-opacity="0.66" stroke-width="1.27001" stroke-linecap="round"/>
<path d="M1452.27 361.356L1449.63 357.682" stroke="#FF9393" stroke-opacity="0.66" stroke-width="1.79112" stroke-linecap="round"/>
<path d="M1446.07 369.329L1444.26 366.803" stroke="#FF9393" stroke-opacity="0.66" stroke-width="1.79112" stroke-linecap="round"/>
<path d="M1447.51 361.086L1444.88 357.411" stroke="#FF9393" stroke-opacity="0.66" stroke-width="1.79112" stroke-linecap="round"/>
<path d="M1418.98 384.475L1417.17 381.949" stroke="#FF9393" stroke-opacity="0.66" stroke-width="1.79112" stroke-linecap="round"/>
<path d="M1465.42 367.813L1463.61 365.286" stroke="#FF9393" stroke-opacity="0.66" stroke-width="1.79112" stroke-linecap="round"/>
<path d="M1486.84 363.639L1484.98 361.034" stroke="#FF9393" stroke-opacity="0.66" stroke-width="1.27001" stroke-linecap="round"/>
<path d="M1458.14 356.414L1456.27 353.809" stroke="#FF9393" stroke-opacity="0.66" stroke-width="1.27001" stroke-linecap="round"/>
<path d="M1492.46 363.881L1490.59 361.276" stroke="#FF9393" stroke-opacity="0.66" stroke-width="1.27001" stroke-linecap="round"/>
<path d="M1526.29 420.531L1524.42 417.926" stroke="#FF9393" stroke-opacity="0.66" stroke-width="1.27001" stroke-linecap="round"/>
<path d="M1458.84 364.584L1456.21 360.91" stroke="#FF9393" stroke-opacity="0.66" stroke-width="1.79112" stroke-linecap="round"/>
<path d="M1496.62 372.214L1493.99 368.539" stroke="#FF9393" stroke-opacity="0.66" stroke-width="1.79112" stroke-linecap="round"/>
<path d="M1528.22 439.442L1526.35 436.836" stroke="#FF9393" stroke-opacity="0.66" stroke-width="1.27001" stroke-linecap="round"/>
<path d="M1517.77 410.899L1515.9 408.293" stroke="#FF9393" stroke-opacity="0.66" stroke-width="1.27001" stroke-linecap="round"/>
<path d="M1530.51 430.738L1528.65 428.133" stroke="#FF9393" stroke-opacity="0.66" stroke-width="1.27001" stroke-linecap="round"/>
<path d="M1487.92 370.073L1485.29 366.398" stroke="#FF9393" stroke-opacity="0.66" stroke-width="1.79112" stroke-linecap="round"/>
<path d="M1481.06 358.229L1478.42 354.554" stroke="#FF9393" stroke-opacity="0.66" stroke-width="1.79112" stroke-linecap="round"/>
<path d="M1514.48 402.816L1512.61 400.21" stroke="#FF9393" stroke-opacity="0.66" stroke-width="1.27001" stroke-linecap="round"/>
</g>
<defs>
<clipPath id="clip0_215_61">
<rect width="1920" height="437" fill="white"/>
</clipPath>
</defs>
</svg>
