<svg width="1920" height="882" viewBox="0 0 1920 882" fill="none" xmlns="http://www.w3.org/2000/svg">
<g clip-path="url(#clip0_213_153)">
<path d="M98.4281 179.009C8.69553 170.551 -3.72377 24.6033 0.796573 -47.2625C0.796526 -49 2.19871 -49 5.10989 -49H5.10992C9.04428 -49 19.1306 -49 24.1873 -47.1612C29.244 -45.3224 25.5667 -23.4752 28.5965 8.33712C32.0715 44.8244 40.3342 87.9732 59.8713 124.749C79.4083 161.525 110.258 156.603 117.208 154.286C138.058 147.336 155.433 124.749 174.546 74.3617C189.228 35.6539 188.114 -17.7108 190.183 -40.3126C190.183 -41.5207 191.687 -43.4932 193.658 -43.7875C198.976 -44.5819 208.686 -43.2966 211.033 -42.7941C214.508 -42.05 214.387 -40.3086 214.508 -38.5751C219.72 36.1369 188.161 187.468 98.4281 179.009Z" fill="#FEC64D"/>
<path d="M2.47188 22.6856C7.72464 23.9215 21.3201 23.1182 21.3201 37.2079C21.3201 54.8202 10.5055 66.8706 21.3201 76.1402C32.1346 85.4098 27.8088 82.3199 37.3873 93.4434C46.9659 104.567 39.8592 126.196 51.6007 129.286C63.3422 132.376 68.595 128.05 71.3758 133.303C74.1567 138.555 67.359 146.28 76.3196 149.37C85.2802 152.46 77.5556 161.729 100.73 149.37C123.904 137.011 127.92 158.022 143.061 145.662C158.201 133.303 151.712 136.084 153.875 122.797C156.038 109.511 158.51 97.4603 173.341 93.4434C188.173 89.4266 195.279 77.0672 192.189 68.1066C189.1 59.146 189.718 56.0561 195.588 48.6404C201.459 41.2248 206.403 35.972 203.931 27.9383C201.459 19.9047 206.712 8.4722 210.729 6.92727C212.721 6.16104 213.549 5.83025 213.818 5.71403C213.818 5.70646 213.818 5.69889 213.819 5.69132C213.936 5.65218 213.982 5.64279 213.818 5.71403C213.094 22.1032 209.303 60.6398 199.914 83.8649C188.173 112.91 174.268 139.791 168.398 145.662C162.527 151.533 139.662 179.033 120.196 179.96C100.73 180.887 81.8814 182.74 59.6344 166.055C37.3873 149.37 38.1008 143.923 23.174 116.308C10.8145 93.4434 3.68051 36.3986 2.47188 27.9383C1.8539 23.6125 1.23593 22.3766 2.47188 22.6856Z" fill="#865822"/>
<path d="M98.4281 179.009C8.69553 170.551 -3.72377 24.6033 0.796573 -47.2625C0.796526 -49 2.19871 -49 5.10989 -49H5.10992C9.04428 -49 19.1306 -49 24.1873 -47.1612C29.244 -45.3224 25.5667 -23.4752 28.5965 8.33712C32.0715 44.8244 40.3342 87.9732 59.8713 124.749C79.4083 161.525 110.258 156.603 117.208 154.286C138.058 147.336 155.433 124.749 174.546 74.3617C189.228 35.6539 188.114 -17.7108 190.183 -40.3126C190.183 -41.5207 191.687 -43.4932 193.658 -43.7875C198.976 -44.5819 208.686 -43.2966 211.033 -42.7941C214.508 -42.05 214.387 -40.3086 214.508 -38.5751C219.72 36.1369 188.161 187.468 98.4281 179.009Z" fill="#FEC64D"/>
<path d="M2.47188 22.6856C7.72464 23.9215 21.3201 23.1182 21.3201 37.2079C21.3201 54.8202 10.5055 66.8706 21.3201 76.1402C32.1346 85.4098 27.8088 82.3199 37.3873 93.4434C46.9659 104.567 39.8592 126.196 51.6007 129.286C63.3422 132.376 68.595 128.05 71.3758 133.303C74.1567 138.555 67.359 146.28 76.3196 149.37C85.2802 152.46 77.5556 161.729 100.73 149.37C123.904 137.011 127.92 158.022 143.061 145.662C158.201 133.303 151.712 136.084 153.875 122.797C156.038 109.511 158.51 97.4603 173.341 93.4434C188.173 89.4266 195.279 77.0672 192.189 68.1066C189.1 59.146 189.718 56.0561 195.588 48.6404C201.459 41.2248 206.403 35.972 203.931 27.9383C201.459 19.9047 206.712 8.4722 210.729 6.92727C212.721 6.16104 213.549 5.83025 213.818 5.71403C213.818 5.70646 213.818 5.69889 213.819 5.69132C213.936 5.65218 213.982 5.64279 213.818 5.71403C213.094 22.1032 209.303 60.6398 199.914 83.8649C188.173 112.91 174.268 139.791 168.398 145.662C162.527 151.533 139.662 179.033 120.196 179.96C100.73 180.887 81.8814 182.74 59.6344 166.055C37.3873 149.37 38.1008 143.923 23.174 116.308C10.8145 93.4434 3.68051 36.3986 2.47188 27.9383C1.8539 23.6125 1.23593 22.3766 2.47188 22.6856Z" fill="#91B95D"/>
<path d="M120.505 150.605L124.101 155.998" stroke="#1F7600" stroke-opacity="0.66" stroke-width="2.56793" stroke-linecap="round"/>
<path d="M137.808 162.041L141.403 167.433" stroke="#1F7600" stroke-opacity="0.66" stroke-width="2.56793" stroke-linecap="round"/>
<path d="M203.932 48.6401L207.527 54.0329" stroke="#1F7600" stroke-opacity="0.66" stroke-width="2.56793" stroke-linecap="round"/>
<path d="M30.2808 112.796L33.8759 118.189" stroke="#1F7600" stroke-opacity="0.66" stroke-width="2.56793" stroke-linecap="round"/>
<path d="M148.08 153.052L151.675 158.445" stroke="#1F7600" stroke-opacity="0.66" stroke-width="2.56793" stroke-linecap="round"/>
<path d="M160.055 115.381L161.291 117.853" stroke="#1F7600" stroke-opacity="0.66" stroke-width="2.56793" stroke-linecap="round"/>
<path d="M158.819 136.392L160.055 138.864" stroke="#1F7600" stroke-opacity="0.66" stroke-width="2.56793" stroke-linecap="round"/>
<path d="M61.1797 135.156L64.7749 140.549" stroke="#1F7600" stroke-opacity="0.66" stroke-width="2.56793" stroke-linecap="round"/>
<path d="M101.966 167.291L105.561 172.684" stroke="#1F7600" stroke-opacity="0.66" stroke-width="2.56793" stroke-linecap="round"/>
<path d="M156.297 143.808L159.893 149.2" stroke="#1F7600" stroke-opacity="0.66" stroke-width="2.56793" stroke-linecap="round"/>
<path d="M197.134 60.3813L200.729 65.7741" stroke="#1F7600" stroke-opacity="0.66" stroke-width="2.56793" stroke-linecap="round"/>
<path d="M22.2471 98.6958L25.8422 104.089" stroke="#1F7600" stroke-opacity="0.66" stroke-width="2.56793" stroke-linecap="round"/>
<path d="M50.0562 135.156L53.6513 140.549" stroke="#1F7600" stroke-opacity="0.66" stroke-width="2.56793" stroke-linecap="round"/>
<path d="M85.8989 161.729L89.4941 167.121" stroke="#1F7600" stroke-opacity="0.66" stroke-width="2.56793" stroke-linecap="round"/>
<path d="M32.0786 123.582L35.6738 128.975" stroke="#1F7600" stroke-opacity="0.66" stroke-width="2.56793" stroke-linecap="round"/>
<path d="M41.3232 132.57L44.9184 137.963" stroke="#1F7600" stroke-opacity="0.66" stroke-width="2.56793" stroke-linecap="round"/>
<path d="M183.538 96.2241L187.133 101.617" stroke="#1F7600" stroke-opacity="0.66" stroke-width="2.56793" stroke-linecap="round"/>
<path d="M192.808 85.1006L195.28 88.8085" stroke="#1F7600" stroke-opacity="0.66" stroke-width="2.56793" stroke-linecap="round"/>
<path d="M181.684 107.965L185.279 113.358" stroke="#1F7600" stroke-opacity="0.66" stroke-width="2.56793" stroke-linecap="round"/>
<path d="M171.797 109.82L174.269 113.528" stroke="#1F7600" stroke-opacity="0.66" stroke-width="2.56793" stroke-linecap="round"/>
<path d="M168.089 125.268L170.561 128.976" stroke="#1F7600" stroke-opacity="0.66" stroke-width="2.56793" stroke-linecap="round"/>
<path d="M16.0679 30.7183L18.6171 34.542" stroke="#1F7600" stroke-opacity="0.66" stroke-width="1.82082" stroke-linecap="round"/>
<path d="M8.03418 47.5366L10.5834 51.3604" stroke="#1F7600" stroke-opacity="0.66" stroke-width="1.82082" stroke-linecap="round"/>
<path d="M8.03418 30.1006L10.5834 33.9244" stroke="#1F7600" stroke-opacity="0.66" stroke-width="1.82082" stroke-linecap="round"/>
<path d="M120.505 164.201L124.101 169.593" stroke="#1F7600" stroke-opacity="0.66" stroke-width="2.56793" stroke-linecap="round"/>
<path d="M129.775 153.078L132.247 156.786" stroke="#1F7600" stroke-opacity="0.66" stroke-width="2.56793" stroke-linecap="round"/>
<path d="M127.303 164.819L130.898 170.212" stroke="#1F7600" stroke-opacity="0.66" stroke-width="2.56793" stroke-linecap="round"/>
<path d="M169.325 132.685L171.797 136.392" stroke="#1F7600" stroke-opacity="0.66" stroke-width="2.56793" stroke-linecap="round"/>
<path d="M101.966 154.313L104.438 158.021" stroke="#1F7600" stroke-opacity="0.66" stroke-width="2.56793" stroke-linecap="round"/>
<path d="M71.0669 159.257L73.6161 163.081" stroke="#1F7600" stroke-opacity="0.66" stroke-width="1.82082" stroke-linecap="round"/>
<path d="M111.854 170.999L114.403 174.822" stroke="#1F7600" stroke-opacity="0.66" stroke-width="1.82082" stroke-linecap="round"/>
<path d="M63.0337 158.639L65.5829 162.463" stroke="#1F7600" stroke-opacity="0.66" stroke-width="1.82082" stroke-linecap="round"/>
<path d="M17.3037 75.8311L19.8529 79.6548" stroke="#1F7600" stroke-opacity="0.66" stroke-width="1.82082" stroke-linecap="round"/>
<path d="M111.235 159.257L114.83 164.65" stroke="#1F7600" stroke-opacity="0.66" stroke-width="2.56793" stroke-linecap="round"/>
<path d="M57.4717 146.499L61.0668 151.892" stroke="#1F7600" stroke-opacity="0.66" stroke-width="2.56793" stroke-linecap="round"/>
<path d="M15.4502 48.6406L17.9994 52.4644" stroke="#1F7600" stroke-opacity="0.66" stroke-width="1.82082" stroke-linecap="round"/>
<path d="M29.0449 90.0439L31.5941 93.8677" stroke="#1F7600" stroke-opacity="0.66" stroke-width="1.82082" stroke-linecap="round"/>
<path d="M11.7422 60.999L14.2914 64.8228" stroke="#1F7600" stroke-opacity="0.66" stroke-width="1.82082" stroke-linecap="round"/>
<path d="M69.8315 149.987L73.4267 155.38" stroke="#1F7600" stroke-opacity="0.66" stroke-width="2.56793" stroke-linecap="round"/>
<path d="M79.1011 167.291L82.6962 172.684" stroke="#1F7600" stroke-opacity="0.66" stroke-width="2.56793" stroke-linecap="round"/>
<path d="M33.3711 101.786L35.9203 105.609" stroke="#1F7600" stroke-opacity="0.66" stroke-width="1.82082" stroke-linecap="round"/>
<path d="M1804.95 892.278C1717.48 884.032 1705.37 741.753 1709.78 671.694C1709.78 670 1711.14 670 1713.98 670H1713.98C1717.82 670 1727.65 670 1732.58 671.793C1737.51 673.585 1733.92 694.883 1736.88 725.896C1740.27 761.466 1748.32 803.53 1767.37 839.381C1786.41 875.233 1816.49 870.435 1823.26 868.176C1843.59 861.401 1860.53 839.381 1879.16 790.261C1893.47 752.526 1892.39 700.503 1894.4 678.469C1894.4 677.291 1895.87 675.368 1897.79 675.081C1902.97 674.307 1912.44 675.56 1914.73 676.05C1918.12 676.775 1918 678.473 1918.12 680.163C1923.2 752.997 1892.43 900.524 1804.95 892.278Z" fill="#FFD16D"/>
<path d="M1711.41 739.883C1716.53 741.088 1729.78 740.305 1729.78 754.04C1729.78 771.21 1719.24 782.958 1729.78 791.994C1740.33 801.031 1736.11 798.019 1745.45 808.862C1754.79 819.706 1747.86 840.792 1759.3 843.804C1770.75 846.816 1775.87 842.599 1778.58 847.72C1781.29 852.84 1774.67 860.371 1783.4 863.383C1792.14 866.395 1784.61 875.432 1807.2 863.383C1829.79 851.334 1833.7 871.817 1848.46 859.769C1863.22 847.72 1856.9 850.431 1859.01 837.478C1861.12 824.526 1863.53 812.778 1877.98 808.862C1892.44 804.947 1899.37 792.898 1896.36 784.162C1893.35 775.427 1893.95 772.415 1899.67 765.186C1905.39 757.956 1910.21 752.836 1907.8 745.004C1905.39 737.172 1910.52 726.027 1914.43 724.521C1916.37 723.774 1917.18 723.451 1917.44 723.338C1917.44 723.331 1917.44 723.323 1917.44 723.316C1917.56 723.278 1917.6 723.269 1917.44 723.338C1916.74 739.315 1913.04 776.883 1903.89 799.525C1892.44 827.839 1878.89 854.045 1873.16 859.769C1867.44 865.492 1845.15 892.3 1826.17 893.204C1807.2 894.108 1788.82 895.915 1767.14 879.649C1745.45 863.383 1746.14 858.073 1731.59 831.153C1719.54 808.862 1712.59 753.251 1711.41 745.004C1710.81 740.787 1710.2 739.582 1711.41 739.883Z" fill="#865822"/>
<path d="M1825.27 865.19L1828.78 870.448" stroke="#BC893D" stroke-width="2.50338" stroke-linecap="round"/>
<path d="M1842.14 876.338L1845.64 881.595" stroke="#BC893D" stroke-width="2.50338" stroke-linecap="round"/>
<path d="M1906.6 765.788L1910.1 771.045" stroke="#BC893D" stroke-width="2.50338" stroke-linecap="round"/>
<path d="M1737.31 828.332L1740.82 833.589" stroke="#BC893D" stroke-width="2.50338" stroke-linecap="round"/>
<path d="M1852.15 867.576L1855.66 872.833" stroke="#BC893D" stroke-width="2.50338" stroke-linecap="round"/>
<path d="M1863.83 830.851L1865.03 833.261" stroke="#BC893D" stroke-width="2.50338" stroke-linecap="round"/>
<path d="M1862.62 851.334L1863.83 853.744" stroke="#BC893D" stroke-width="2.50338" stroke-linecap="round"/>
<path d="M1767.44 850.129L1770.94 855.386" stroke="#BC893D" stroke-width="2.50338" stroke-linecap="round"/>
<path d="M1807.2 881.456L1810.7 886.713" stroke="#BC893D" stroke-width="2.50338" stroke-linecap="round"/>
<path d="M1860.16 858.564L1863.67 863.821" stroke="#BC893D" stroke-width="2.50338" stroke-linecap="round"/>
<path d="M1899.97 777.234L1903.48 782.491" stroke="#BC893D" stroke-width="2.50338" stroke-linecap="round"/>
<path d="M1729.48 814.585L1732.99 819.843" stroke="#BC893D" stroke-width="2.50338" stroke-linecap="round"/>
<path d="M1756.59 850.129L1760.1 855.386" stroke="#BC893D" stroke-width="2.50338" stroke-linecap="round"/>
<path d="M1791.53 876.034L1795.04 881.291" stroke="#BC893D" stroke-width="2.50338" stroke-linecap="round"/>
<path d="M1739.07 838.846L1742.57 844.103" stroke="#BC893D" stroke-width="2.50338" stroke-linecap="round"/>
<path d="M1748.08 847.608L1751.58 852.865" stroke="#BC893D" stroke-width="2.50338" stroke-linecap="round"/>
<path d="M1886.72 812.175L1890.22 817.432" stroke="#BC893D" stroke-width="2.50338" stroke-linecap="round"/>
<path d="M1895.76 801.332L1898.17 804.946" stroke="#BC893D" stroke-width="2.50338" stroke-linecap="round"/>
<path d="M1884.91 823.622L1888.42 828.879" stroke="#BC893D" stroke-width="2.50338" stroke-linecap="round"/>
<path d="M1875.27 825.429L1877.68 829.044" stroke="#BC893D" stroke-width="2.50338" stroke-linecap="round"/>
<path d="M1871.66 840.49L1874.07 844.105" stroke="#BC893D" stroke-width="2.50338" stroke-linecap="round"/>
<path d="M1723.46 748.317L1725.94 752.045" stroke="#BC893D" stroke-width="1.77505" stroke-linecap="round"/>
<path d="M1715.63 764.712L1718.11 768.44" stroke="#BC893D" stroke-width="1.77505" stroke-linecap="round"/>
<path d="M1715.63 747.715L1718.11 751.442" stroke="#BC893D" stroke-width="1.77505" stroke-linecap="round"/>
<path d="M1825.27 878.444L1828.78 883.701" stroke="#BC893D" stroke-width="2.50338" stroke-linecap="round"/>
<path d="M1834.31 867.6L1836.72 871.215" stroke="#BC893D" stroke-width="2.50338" stroke-linecap="round"/>
<path d="M1831.9 879.046L1835.4 884.303" stroke="#BC893D" stroke-width="2.50338" stroke-linecap="round"/>
<path d="M1872.86 847.72L1875.27 851.334" stroke="#BC893D" stroke-width="2.50338" stroke-linecap="round"/>
<path d="M1807.2 868.805L1809.61 872.419" stroke="#BC893D" stroke-width="2.50338" stroke-linecap="round"/>
<path d="M1777.08 873.624L1779.56 877.352" stroke="#BC893D" stroke-width="1.77505" stroke-linecap="round"/>
<path d="M1769.24 873.022L1771.73 876.75" stroke="#BC893D" stroke-width="1.77505" stroke-linecap="round"/>
<path d="M1724.66 792.295L1727.15 796.023" stroke="#BC893D" stroke-width="1.77505" stroke-linecap="round"/>
<path d="M1816.23 873.624L1819.74 878.881" stroke="#BC893D" stroke-width="2.50338" stroke-linecap="round"/>
<path d="M1763.82 861.188L1767.33 866.445" stroke="#BC893D" stroke-width="2.50338" stroke-linecap="round"/>
<path d="M1722.86 765.788L1725.34 769.515" stroke="#BC893D" stroke-width="1.77505" stroke-linecap="round"/>
<path d="M1736.11 806.151L1738.6 809.879" stroke="#BC893D" stroke-width="1.77505" stroke-linecap="round"/>
<path d="M1719.24 777.836L1721.73 781.564" stroke="#BC893D" stroke-width="1.77505" stroke-linecap="round"/>
<path d="M1775.87 864.587L1779.38 869.844" stroke="#BC893D" stroke-width="2.50338" stroke-linecap="round"/>
<path d="M1784.91 881.456L1788.41 886.713" stroke="#BC893D" stroke-width="2.50338" stroke-linecap="round"/>
<path d="M1740.33 817.597L1742.81 821.325" stroke="#BC893D" stroke-width="1.77505" stroke-linecap="round"/>
<path d="M1248.25 111.232C1166.88 104.472 1155.62 -12.1739 1159.72 -69.6113C1159.72 -71 1160.99 -71 1163.63 -71H1163.63C1167.2 -71 1176.35 -71 1180.93 -69.5304C1185.52 -68.0608 1182.18 -50.5998 1184.93 -25.1743C1188.08 3.98747 1195.57 38.4734 1213.29 67.8657C1231 97.258 1258.98 93.3244 1265.28 91.4729C1284.18 85.9182 1299.94 67.8657 1317.27 27.5946C1330.58 -3.34184 1329.57 -45.9927 1331.45 -64.0567C1331.45 -65.0223 1332.81 -66.5988 1334.6 -66.834C1339.42 -67.4689 1348.23 -66.4417 1350.35 -66.0401C1353.5 -65.4454 1353.39 -64.0536 1353.5 -62.6681C1358.23 -2.95581 1329.61 117.992 1248.25 111.232Z" fill="#FFD16D"/>
<path d="M1161.24 -13.7075C1166 -12.7197 1178.33 -13.3617 1178.33 -2.10073C1178.33 11.9755 1168.53 21.6066 1178.33 29.0152C1188.14 36.4238 1184.22 33.9542 1192.9 42.8445C1201.59 51.7348 1195.14 69.0214 1205.79 71.4909C1216.44 73.9604 1221.2 70.5031 1223.72 74.7013C1226.24 78.8995 1220.08 85.0733 1228.2 87.5428C1236.33 90.0123 1229.32 97.4209 1250.34 87.5428C1271.35 77.6647 1274.99 94.4575 1288.72 84.5794C1302.45 74.7013 1296.56 76.9239 1298.53 66.3049C1300.49 55.686 1302.73 46.0549 1316.18 42.8445C1329.62 39.6341 1336.07 29.7561 1333.27 22.5945C1330.47 15.4328 1331.03 12.9633 1336.35 7.03648C1341.67 1.10964 1346.16 -3.08855 1343.91 -9.5093C1341.67 -15.93 1346.44 -25.0673 1350.08 -26.302C1351.88 -26.9144 1352.64 -27.1788 1352.88 -27.2717C1352.88 -27.2777 1352.88 -27.2838 1352.88 -27.2898C1352.99 -27.3211 1353.03 -27.3286 1352.88 -27.2717C1352.22 -14.1729 1348.78 16.6268 1340.27 35.189C1329.62 58.4025 1317.02 79.8873 1311.69 84.5794C1306.37 89.2715 1285.64 111.25 1267.99 111.991C1250.34 112.732 1233.25 114.214 1213.07 100.878C1192.9 87.5428 1193.55 83.1894 1180.01 61.1189C1168.81 42.8445 1162.34 -2.74758 1161.24 -9.5093C1160.68 -12.9666 1160.12 -13.9544 1161.24 -13.7075Z" fill="#865822"/>
<path d="M1267.15 89.0249L1270.41 93.3349" stroke="#BC893D" stroke-width="2.24487" stroke-linecap="round"/>
<path d="M1282.84 98.1641L1286.1 102.474" stroke="#BC893D" stroke-width="2.24487" stroke-linecap="round"/>
<path d="M1342.79 7.53027L1346.05 11.8403" stroke="#BC893D" stroke-width="2.24487" stroke-linecap="round"/>
<path d="M1185.34 58.8062L1188.6 63.1161" stroke="#BC893D" stroke-width="2.24487" stroke-linecap="round"/>
<path d="M1292.15 90.9805L1295.41 95.2904" stroke="#BC893D" stroke-width="2.24487" stroke-linecap="round"/>
<path d="M1303.01 60.8721L1304.13 62.8477" stroke="#BC893D" stroke-width="2.24487" stroke-linecap="round"/>
<path d="M1301.89 77.6655L1303.01 79.6411" stroke="#BC893D" stroke-width="2.24487" stroke-linecap="round"/>
<path d="M1213.35 76.6768L1216.61 80.9867" stroke="#BC893D" stroke-width="2.24487" stroke-linecap="round"/>
<path d="M1250.34 102.36L1253.6 106.67" stroke="#BC893D" stroke-width="2.24487" stroke-linecap="round"/>
<path d="M1299.6 83.5923L1302.86 87.9023" stroke="#BC893D" stroke-width="2.24487" stroke-linecap="round"/>
<path d="M1336.63 16.9146L1339.89 21.2245" stroke="#BC893D" stroke-width="2.24487" stroke-linecap="round"/>
<path d="M1178.05 47.5366L1181.31 51.8466" stroke="#BC893D" stroke-width="2.24487" stroke-linecap="round"/>
<path d="M1203.27 76.6768L1206.53 80.9867" stroke="#BC893D" stroke-width="2.24487" stroke-linecap="round"/>
<path d="M1235.77 97.915L1239.03 102.225" stroke="#BC893D" stroke-width="2.24487" stroke-linecap="round"/>
<path d="M1186.97 67.4263L1190.23 71.7362" stroke="#BC893D" stroke-width="2.24487" stroke-linecap="round"/>
<path d="M1195.35 74.6099L1198.61 78.9198" stroke="#BC893D" stroke-width="2.24487" stroke-linecap="round"/>
<path d="M1324.3 45.561L1327.56 49.871" stroke="#BC893D" stroke-width="2.24487" stroke-linecap="round"/>
<path d="M1332.71 36.6704L1334.95 39.6338" stroke="#BC893D" stroke-width="2.24487" stroke-linecap="round"/>
<path d="M1322.62 54.9453L1325.88 59.2553" stroke="#BC893D" stroke-width="2.24487" stroke-linecap="round"/>
<path d="M1313.66 56.4268L1315.9 59.3902" stroke="#BC893D" stroke-width="2.24487" stroke-linecap="round"/>
<path d="M1310.29 68.7749L1312.53 71.7383" stroke="#BC893D" stroke-width="2.24487" stroke-linecap="round"/>
<path d="M1165.16 6.64893L1167.48 9.70496" stroke="#BC893D" stroke-width="1.59175" stroke-linecap="round"/>
<path d="M1267.15 99.8906L1270.41 104.201" stroke="#BC893D" stroke-width="2.24487" stroke-linecap="round"/>
<path d="M1275.55 91.0005L1277.79 93.9639" stroke="#BC893D" stroke-width="2.24487" stroke-linecap="round"/>
<path d="M1273.31 100.384L1276.57 104.694" stroke="#BC893D" stroke-width="2.24487" stroke-linecap="round"/>
<path d="M1311.41 74.7017L1313.65 77.6651" stroke="#BC893D" stroke-width="2.24487" stroke-linecap="round"/>
<path d="M1250.34 91.9878L1252.58 94.9512" stroke="#BC893D" stroke-width="2.24487" stroke-linecap="round"/>
<path d="M1222.32 95.939L1224.63 98.995" stroke="#BC893D" stroke-width="1.59175" stroke-linecap="round"/>
<path d="M1259.3 105.323L1261.61 108.379" stroke="#BC893D" stroke-width="1.59175" stroke-linecap="round"/>
<path d="M1215.03 95.4458L1217.35 98.5018" stroke="#BC893D" stroke-width="1.59175" stroke-linecap="round"/>
<path d="M1173.57 29.2617L1175.88 32.3178" stroke="#BC893D" stroke-width="1.59175" stroke-linecap="round"/>
<path d="M1258.74 95.939L1262 100.249" stroke="#BC893D" stroke-width="2.24487" stroke-linecap="round"/>
<path d="M1209.99 85.7427L1213.25 90.0527" stroke="#BC893D" stroke-width="2.24487" stroke-linecap="round"/>
<path d="M1171.89 7.53027L1174.2 10.5863" stroke="#BC893D" stroke-width="1.59175" stroke-linecap="round"/>
<path d="M1184.22 40.6221L1186.53 43.6781" stroke="#BC893D" stroke-width="1.59175" stroke-linecap="round"/>
<path d="M1168.53 17.4082L1170.84 20.4642" stroke="#BC893D" stroke-width="1.59175" stroke-linecap="round"/>
<path d="M1221.2 88.5308L1224.46 92.8407" stroke="#BC893D" stroke-width="2.24487" stroke-linecap="round"/>
<path d="M1229.6 102.36L1232.86 106.67" stroke="#BC893D" stroke-width="2.24487" stroke-linecap="round"/>
<path d="M1188.14 50.0063L1190.45 53.0624" stroke="#BC893D" stroke-width="1.59175" stroke-linecap="round"/>
<circle cx="837.477" cy="875.499" r="78.1467" transform="rotate(10.4414 837.477 875.499)" fill="#B8FBF7"/>
<circle cx="172.399" cy="373.399" r="54.4352" transform="rotate(10.4414 172.399 373.399)" fill="#B8FBF7"/>
<path d="M1177.86 943.457C1112.35 937.282 1103.28 830.734 1106.58 778.268C1106.58 777 1107.61 777 1109.73 777H1109.73C1112.6 777 1119.97 777 1123.66 778.342C1127.35 779.685 1124.66 795.634 1126.88 818.859C1129.41 845.496 1135.45 876.997 1149.71 903.845C1163.97 930.693 1186.49 927.1 1191.57 925.409C1206.79 920.335 1219.47 903.845 1233.43 867.06C1244.15 838.801 1243.33 799.843 1244.84 783.342C1244.84 782.46 1245.94 781.02 1247.38 780.805C1251.26 780.225 1258.35 781.164 1260.06 781.531C1262.6 782.074 1262.51 783.345 1262.6 784.611C1266.41 839.154 1243.37 949.633 1177.86 943.457Z" fill="#FEC64D"/>
<path d="M1107.8 829.334C1111.64 830.236 1121.56 829.65 1121.56 839.936C1121.56 852.794 1113.67 861.591 1121.56 868.358C1129.46 875.126 1126.3 872.87 1133.29 880.991C1140.29 889.111 1135.1 904.901 1143.67 907.157C1152.24 909.413 1156.08 906.255 1158.11 910.09C1160.14 913.924 1155.18 919.564 1161.72 921.82C1168.26 924.075 1162.62 930.843 1179.54 921.82C1196.46 912.797 1199.39 928.136 1210.44 919.113C1221.49 910.09 1216.76 912.12 1218.34 902.42C1219.92 892.72 1221.72 883.923 1232.55 880.991C1243.38 878.058 1248.56 869.035 1246.31 862.493C1244.05 855.952 1244.5 853.696 1248.79 848.282C1253.07 842.868 1256.68 839.034 1254.88 833.169C1253.07 827.304 1256.91 818.957 1259.84 817.83C1261.3 817.27 1261.9 817.029 1262.1 816.944C1262.1 816.938 1262.1 816.933 1262.1 816.927C1262.18 816.899 1262.22 816.892 1262.1 816.944C1261.57 828.909 1258.8 857.042 1251.95 873.998C1243.38 895.202 1233.22 914.827 1228.94 919.113C1224.65 923.399 1207.96 943.475 1193.75 944.151C1179.54 944.828 1165.78 946.182 1149.54 934.001C1133.29 921.82 1133.82 917.843 1122.92 897.683C1113.9 880.991 1108.69 839.345 1107.8 833.169C1107.35 830.011 1106.9 829.108 1107.8 829.334Z" fill="#865822"/>
<path d="M1177.86 943.457C1112.35 937.282 1103.28 830.734 1106.58 778.268C1106.58 777 1107.61 777 1109.73 777H1109.73C1112.6 777 1119.97 777 1123.66 778.342C1127.35 779.685 1124.66 795.634 1126.88 818.859C1129.41 845.496 1135.45 876.997 1149.71 903.845C1163.97 930.693 1186.49 927.1 1191.57 925.409C1206.79 920.335 1219.47 903.845 1233.43 867.06C1244.15 838.801 1243.33 799.843 1244.84 783.342C1244.84 782.46 1245.94 781.02 1247.38 780.805C1251.26 780.225 1258.35 781.164 1260.06 781.531C1262.6 782.074 1262.51 783.345 1262.6 784.611C1266.41 839.154 1243.37 949.633 1177.86 943.457Z" fill="#FEC64D"/>
<path d="M1107.8 829.334C1111.64 830.236 1121.56 829.65 1121.56 839.936C1121.56 852.794 1113.67 861.591 1121.56 868.358C1129.46 875.126 1126.3 872.87 1133.29 880.991C1140.29 889.111 1135.1 904.901 1143.67 907.157C1152.24 909.413 1156.08 906.255 1158.11 910.09C1160.14 913.924 1155.18 919.564 1161.72 921.82C1168.26 924.075 1162.62 930.843 1179.54 921.82C1196.46 912.797 1199.39 928.136 1210.44 919.113C1221.49 910.09 1216.76 912.12 1218.34 902.42C1219.92 892.72 1221.72 883.923 1232.55 880.991C1243.38 878.058 1248.56 869.035 1246.31 862.493C1244.05 855.952 1244.5 853.696 1248.79 848.282C1253.07 842.868 1256.68 839.034 1254.88 833.169C1253.07 827.304 1256.91 818.957 1259.84 817.83C1261.3 817.27 1261.9 817.029 1262.1 816.944C1262.1 816.938 1262.1 816.933 1262.1 816.927C1262.18 816.899 1262.22 816.892 1262.1 816.944C1261.57 828.909 1258.8 857.042 1251.95 873.998C1243.38 895.202 1233.22 914.827 1228.94 919.113C1224.65 923.399 1207.96 943.475 1193.75 944.151C1179.54 944.828 1165.78 946.182 1149.54 934.001C1133.29 921.82 1133.82 917.843 1122.92 897.683C1113.9 880.991 1108.69 839.345 1107.8 833.169C1107.35 830.011 1106.9 829.108 1107.8 829.334Z" fill="#91B95D"/>
<path d="M1254.88 848.282L1257.5 852.219" stroke="#1F7600" stroke-opacity="0.66" stroke-width="1.87471" stroke-linecap="round"/>
<path d="M1249.92 856.854L1252.54 860.79" stroke="#1F7600" stroke-opacity="0.66" stroke-width="1.87471" stroke-linecap="round"/>
<path d="M1239.99 883.021L1242.62 886.957" stroke="#1F7600" stroke-opacity="0.66" stroke-width="1.87471" stroke-linecap="round"/>
<path d="M1246.76 874.9L1248.56 877.607" stroke="#1F7600" stroke-opacity="0.66" stroke-width="1.87471" stroke-linecap="round"/>
<path d="M1117.73 835.198L1119.59 837.99" stroke="#1F7600" stroke-opacity="0.66" stroke-width="1.32928" stroke-linecap="round"/>
<path d="M1111.87 847.477L1113.73 850.268" stroke="#1F7600" stroke-opacity="0.66" stroke-width="1.32928" stroke-linecap="round"/>
<path d="M1111.87 834.748L1113.73 837.539" stroke="#1F7600" stroke-opacity="0.66" stroke-width="1.32928" stroke-linecap="round"/>
<path d="M1118.63 868.133L1120.49 870.924" stroke="#1F7600" stroke-opacity="0.66" stroke-width="1.32928" stroke-linecap="round"/>
<path d="M1117.28 848.282L1119.14 851.074" stroke="#1F7600" stroke-opacity="0.66" stroke-width="1.32928" stroke-linecap="round"/>
<path d="M1127.2 878.509L1129.07 881.3" stroke="#1F7600" stroke-opacity="0.66" stroke-width="1.32928" stroke-linecap="round"/>
<path d="M1114.57 857.305L1116.43 860.096" stroke="#1F7600" stroke-opacity="0.66" stroke-width="1.32928" stroke-linecap="round"/>
<circle cx="962" cy="3" r="35" fill="#B8FBF7"/>
<circle cx="575.5" cy="12.5" r="53.5" fill="#B8FBF7"/>
<path d="M1705 -5.2488C1705 6.14353 1707.24 17.4243 1711.6 27.9495C1715.96 38.4746 1722.35 48.038 1730.41 56.0936C1738.46 64.1492 1748.03 70.5392 1758.55 74.8989C1769.08 79.2586 1780.36 81.5024 1791.75 81.5024C1803.14 81.5024 1814.42 79.2586 1824.95 74.8989C1835.47 70.5392 1845.04 64.1492 1853.09 56.0936C1861.15 48.038 1867.54 38.4746 1871.9 27.9495C1876.26 17.4243 1878.5 6.14353 1878.5 -5.24881L1791.75 -5.2488H1705Z" fill="#FFE1E1"/>
<circle cx="2" cy="209" r="11" fill="#FFE1E1"/>
<path d="M1333.79 113.132C1277.46 107.823 1269.66 16.2043 1272.5 -28.9093C1272.5 -30 1273.38 -30 1275.21 -30H1275.21C1277.68 -30 1284.01 -30 1287.18 -28.8457C1290.36 -27.6914 1288.05 -13.9769 1289.95 5.99326C1292.13 28.8981 1297.32 55.9846 1309.58 79.0705C1321.85 102.156 1341.21 99.0667 1345.58 97.6124C1358.67 93.2496 1369.57 79.0705 1381.57 47.44C1390.79 23.1413 1390.09 -10.3583 1391.39 -24.5465C1391.39 -25.3049 1392.33 -26.5431 1393.57 -26.7279C1396.91 -27.2266 1403 -26.4197 1404.48 -26.1043C1406.66 -25.6372 1406.58 -24.544 1406.66 -23.4558C1409.93 23.4445 1390.12 118.442 1333.79 113.132Z" fill="#FFD16D"/>
<path d="M1273.55 15.0005C1276.85 15.7764 1285.38 15.2721 1285.38 24.1169C1285.38 35.173 1278.59 42.7376 1285.38 48.5566C1292.17 54.3755 1289.46 52.4359 1295.47 59.4186C1301.48 66.4014 1297.02 79.979 1304.39 81.9186C1311.76 83.8583 1314.35 81.6323 1316.81 84.4402C1320.88 89.0954 1314.28 92.5867 1319.91 94.5264C1325.53 96.4661 1320.68 102.285 1335.23 94.5264C1349.78 86.7678 1352.3 99.9574 1361.81 92.1988C1371.31 84.4402 1367.24 86.1859 1368.59 77.8454C1369.95 69.5048 1371.5 61.9402 1380.81 59.4186C1390.12 56.8971 1394.59 49.1385 1392.65 43.5135C1390.71 37.8885 1391.09 35.9488 1394.78 31.2936C1398.46 26.6385 1401.57 23.3411 1400.02 18.2979C1398.46 13.2548 1401.76 6.07812 1404.28 5.10829C1405.53 4.62728 1406.05 4.41963 1406.22 4.34668C1406.22 4.34193 1406.22 4.33718 1406.22 4.33243C1406.3 4.30786 1406.33 4.30196 1406.22 4.34668C1405.77 14.635 1403.39 38.8262 1397.49 53.4057C1390.12 71.6385 1381.4 88.5135 1377.71 92.1988C1374.03 95.8841 1359.67 113.147 1347.45 113.729C1335.23 114.311 1323.4 115.475 1309.43 105.001C1295.47 94.5264 1295.92 91.107 1286.55 73.7721C1278.79 59.4186 1274.31 23.6089 1273.55 18.2979C1273.16 15.5824 1272.78 14.8066 1273.55 15.0005Z" fill="#FFB3AE"/>
<path d="M1347.65 96.0781L1349.9 99.4633" stroke="#FF9393" stroke-opacity="0.66" stroke-width="1.61201" stroke-linecap="round"/>
<path d="M1358.51 103.256L1360.77 106.642" stroke="#FF9393" stroke-opacity="0.66" stroke-width="1.61201" stroke-linecap="round"/>
<path d="M1400.02 32.0698L1402.27 35.455" stroke="#FF9393" stroke-opacity="0.66" stroke-width="1.61201" stroke-linecap="round"/>
<path d="M1291.01 72.3438L1293.27 75.729" stroke="#FF9393" stroke-opacity="0.66" stroke-width="1.61201" stroke-linecap="round"/>
<path d="M1364.96 97.6143L1367.21 100.999" stroke="#FF9393" stroke-opacity="0.66" stroke-width="1.61201" stroke-linecap="round"/>
<path d="M1372.47 73.9658L1373.25 75.5175" stroke="#FF9393" stroke-opacity="0.66" stroke-width="1.61201" stroke-linecap="round"/>
<path d="M1371.7 87.1558L1372.47 88.7075" stroke="#FF9393" stroke-opacity="0.66" stroke-width="1.61201" stroke-linecap="round"/>
<path d="M1310.41 86.3799L1312.66 89.7651" stroke="#FF9393" stroke-opacity="0.66" stroke-width="1.61201" stroke-linecap="round"/>
<path d="M1336.01 106.553L1338.27 109.938" stroke="#FF9393" stroke-opacity="0.66" stroke-width="1.61201" stroke-linecap="round"/>
<path d="M1370.12 91.811L1372.37 95.1963" stroke="#FF9393" stroke-opacity="0.66" stroke-width="1.61201" stroke-linecap="round"/>
<path d="M1395.75 39.4404L1398.01 42.8257" stroke="#FF9393" stroke-opacity="0.66" stroke-width="1.61201" stroke-linecap="round"/>
<path d="M1285.97 63.4917L1288.22 66.8769" stroke="#FF9393" stroke-opacity="0.66" stroke-width="1.61201" stroke-linecap="round"/>
<path d="M1303.42 86.3799L1305.68 89.7651" stroke="#FF9393" stroke-opacity="0.66" stroke-width="1.61201" stroke-linecap="round"/>
<path d="M1325.92 103.061L1328.18 106.446" stroke="#FF9393" stroke-opacity="0.66" stroke-width="1.61201" stroke-linecap="round"/>
<path d="M1292.14 79.1138L1294.39 82.499" stroke="#FF9393" stroke-opacity="0.66" stroke-width="1.61201" stroke-linecap="round"/>
<path d="M1297.94 84.7559L1300.2 88.1411" stroke="#FF9393" stroke-opacity="0.66" stroke-width="1.61201" stroke-linecap="round"/>
<path d="M1387.22 61.9399L1389.47 65.3252" stroke="#FF9393" stroke-opacity="0.66" stroke-width="1.61201" stroke-linecap="round"/>
<path d="M1393.04 54.9575L1394.59 57.2851" stroke="#FF9393" stroke-opacity="0.66" stroke-width="1.61201" stroke-linecap="round"/>
<path d="M1386.05 69.3115L1388.31 72.6967" stroke="#FF9393" stroke-opacity="0.66" stroke-width="1.61201" stroke-linecap="round"/>
<path d="M1379.84 70.4756L1381.4 72.8032" stroke="#FF9393" stroke-opacity="0.66" stroke-width="1.61201" stroke-linecap="round"/>
<path d="M1377.52 80.1733L1379.07 82.5009" stroke="#FF9393" stroke-opacity="0.66" stroke-width="1.61201" stroke-linecap="round"/>
<path d="M1282.09 20.8198L1283.69 23.2202" stroke="#FF9393" stroke-opacity="0.66" stroke-width="1.14301" stroke-linecap="round"/>
<path d="M1277.04 31.3765L1278.64 33.7768" stroke="#FF9393" stroke-opacity="0.66" stroke-width="1.14301" stroke-linecap="round"/>
<path d="M1277.04 20.4316L1278.64 22.832" stroke="#FF9393" stroke-opacity="0.66" stroke-width="1.14301" stroke-linecap="round"/>
<path d="M1347.65 104.613L1349.9 107.998" stroke="#FF9393" stroke-opacity="0.66" stroke-width="1.61201" stroke-linecap="round"/>
<path d="M1353.47 97.6299L1355.02 99.9575" stroke="#FF9393" stroke-opacity="0.66" stroke-width="1.61201" stroke-linecap="round"/>
<path d="M1351.91 105.001L1354.17 108.386" stroke="#FF9393" stroke-opacity="0.66" stroke-width="1.61201" stroke-linecap="round"/>
<path d="M1378.29 84.8286L1379.84 87.1562" stroke="#FF9393" stroke-opacity="0.66" stroke-width="1.61201" stroke-linecap="round"/>
<path d="M1336.01 98.4058L1337.56 100.733" stroke="#FF9393" stroke-opacity="0.66" stroke-width="1.61201" stroke-linecap="round"/>
<path d="M1316.61 101.51L1318.21 103.91" stroke="#FF9393" stroke-opacity="0.66" stroke-width="1.14301" stroke-linecap="round"/>
<path d="M1342.22 108.88L1343.82 111.281" stroke="#FF9393" stroke-opacity="0.66" stroke-width="1.14301" stroke-linecap="round"/>
<path d="M1311.57 101.122L1313.17 103.522" stroke="#FF9393" stroke-opacity="0.66" stroke-width="1.14301" stroke-linecap="round"/>
<path d="M1282.86 49.1387L1284.46 51.539" stroke="#FF9393" stroke-opacity="0.66" stroke-width="1.14301" stroke-linecap="round"/>
<path d="M1341.83 101.51L1344.08 104.895" stroke="#FF9393" stroke-opacity="0.66" stroke-width="1.61201" stroke-linecap="round"/>
<path d="M1308.08 93.5005L1310.33 96.8857" stroke="#FF9393" stroke-opacity="0.66" stroke-width="1.61201" stroke-linecap="round"/>
<path d="M1281.7 32.0698L1283.3 34.4702" stroke="#FF9393" stroke-opacity="0.66" stroke-width="1.14301" stroke-linecap="round"/>
<path d="M1290.23 58.061L1291.83 60.4614" stroke="#FF9393" stroke-opacity="0.66" stroke-width="1.14301" stroke-linecap="round"/>
<path d="M1279.37 39.8286L1280.97 42.2289" stroke="#FF9393" stroke-opacity="0.66" stroke-width="1.14301" stroke-linecap="round"/>
<path d="M1315.84 95.6899L1318.09 99.0752" stroke="#FF9393" stroke-opacity="0.66" stroke-width="1.61201" stroke-linecap="round"/>
<path d="M1321.66 106.553L1323.91 109.938" stroke="#FF9393" stroke-opacity="0.66" stroke-width="1.61201" stroke-linecap="round"/>
<path d="M1292.95 65.4316L1294.55 67.832" stroke="#FF9393" stroke-opacity="0.66" stroke-width="1.14301" stroke-linecap="round"/>
<circle cx="278" cy="880" r="30" fill="#D4FBF8"/>
<circle cx="640.459" cy="748.695" r="14.4585" fill="#D88C71"/>
<circle cx="640.459" cy="748.695" r="14.4585" fill="#D88C71"/>
<circle cx="640.459" cy="748.695" r="14.4585" fill="#B8FBF7"/>
<path d="M164.593 936.866C62.3235 927.226 48.169 760.887 53.321 678.98C53.3209 677 54.919 677 58.2369 677H58.237C62.721 677 74.2166 677 79.9798 679.096C85.7429 681.191 81.5519 706.091 85.005 742.348C88.9655 783.933 98.3827 833.111 120.649 875.025C142.916 916.938 178.077 911.329 185.997 908.689C209.76 900.768 229.563 875.025 251.346 817.597C268.079 773.482 266.81 712.661 269.168 686.901C269.168 685.524 270.882 683.276 273.128 682.941C279.189 682.035 290.256 683.5 292.931 684.073C296.891 684.921 296.753 686.906 296.891 688.881C302.832 774.032 266.863 946.506 164.593 936.866Z" fill="#FEC64D"/>
<circle cx="31.5" cy="797.5" r="66.5" fill="#D88C71"/>
<circle cx="31.5" cy="797.5" r="66.5" fill="#D88C71"/>
<circle cx="31.5" cy="797.5" r="66.5" fill="#D88C71"/>
<circle cx="314.5" cy="139" r="21" fill="#D88C71"/>
<circle cx="314.5" cy="139" r="21" fill="#D88C71"/>
<circle cx="314.5" cy="139" r="21" fill="#D88C71"/>
<circle cx="1751.75" cy="131.751" r="86.7512" fill="#D4FBF8"/>
<circle cx="1475.63" cy="164.628" r="31.6281" fill="#D4FBF8"/>
<circle cx="1645.63" cy="408.628" r="31.6281" fill="#D4FBF8"/>
<path d="M1838.43 182.009C1748.7 173.551 1736.28 27.6033 1740.8 -44.2625C1740.8 -46 1742.2 -46 1745.11 -46H1745.11C1749.04 -46 1759.13 -46 1764.19 -44.1612C1769.24 -42.3224 1765.57 -20.4752 1768.6 11.3371C1772.07 47.8244 1780.33 90.9732 1799.87 127.749C1819.41 164.525 1850.26 159.603 1857.21 157.286C1878.06 150.336 1895.43 127.749 1914.55 77.3617C1929.23 38.6539 1928.11 -14.7108 1930.18 -37.3126C1930.18 -38.5207 1931.69 -40.4932 1933.66 -40.7875C1938.98 -41.5819 1948.69 -40.2966 1951.03 -39.7941C1954.51 -39.05 1954.39 -37.3086 1954.51 -35.5751C1959.72 39.1369 1928.16 190.468 1838.43 182.009Z" fill="#FEC64D"/>
<path d="M1742.47 25.6856C1747.72 26.9215 1761.32 26.1182 1761.32 40.2079C1761.32 57.8202 1750.51 69.8706 1761.32 79.1402C1772.13 88.4098 1767.81 85.3199 1777.39 96.4434C1786.97 107.567 1779.86 129.196 1791.6 132.286C1803.34 135.376 1808.59 131.05 1811.38 136.303C1814.16 141.555 1807.36 149.28 1816.32 152.37C1825.28 155.46 1817.56 164.729 1840.73 152.37C1863.9 140.011 1867.92 161.022 1883.06 148.662C1898.2 136.303 1891.71 139.084 1893.88 125.797C1896.04 112.511 1898.51 100.46 1913.34 96.4434C1928.17 92.4266 1935.28 80.0672 1932.19 71.1066C1929.1 62.146 1929.72 59.0561 1935.59 51.6404C1941.46 44.2248 1946.4 38.972 1943.93 30.9383C1941.46 22.9047 1946.71 11.4722 1950.73 9.92727C1952.72 9.16104 1953.55 8.83025 1953.82 8.71403C1953.82 8.70646 1953.82 8.69889 1953.82 8.69132C1953.94 8.65218 1953.98 8.64279 1953.82 8.71403C1953.09 25.1032 1949.3 63.6398 1939.91 86.8649C1928.17 115.91 1914.27 142.791 1908.4 148.662C1902.53 154.533 1879.66 182.033 1860.2 182.96C1840.73 183.887 1821.88 185.74 1799.63 169.055C1777.39 152.37 1778.1 146.923 1763.17 119.308C1750.81 96.4434 1743.68 39.3986 1742.47 30.9383C1741.85 26.6125 1741.24 25.3766 1742.47 25.6856Z" fill="#865822"/>
<path d="M1838.43 182.009C1748.7 173.551 1736.28 27.6033 1740.8 -44.2625C1740.8 -46 1742.2 -46 1745.11 -46H1745.11C1749.04 -46 1759.13 -46 1764.19 -44.1612C1769.24 -42.3224 1765.57 -20.4752 1768.6 11.3371C1772.07 47.8244 1780.33 90.9732 1799.87 127.749C1819.41 164.525 1850.26 159.603 1857.21 157.286C1878.06 150.336 1895.43 127.749 1914.55 77.3617C1929.23 38.6539 1928.11 -14.7108 1930.18 -37.3126C1930.18 -38.5207 1931.69 -40.4932 1933.66 -40.7875C1938.98 -41.5819 1948.69 -40.2966 1951.03 -39.7941C1954.51 -39.05 1954.39 -37.3086 1954.51 -35.5751C1959.72 39.1369 1928.16 190.468 1838.43 182.009Z" fill="#FEC64D"/>
<path d="M1742.47 25.6856C1747.72 26.9215 1761.32 26.1182 1761.32 40.2079C1761.32 57.8202 1750.51 69.8706 1761.32 79.1402C1772.13 88.4098 1767.81 85.3199 1777.39 96.4434C1786.97 107.567 1779.86 129.196 1791.6 132.286C1803.34 135.376 1808.59 131.05 1811.38 136.303C1814.16 141.555 1807.36 149.28 1816.32 152.37C1825.28 155.46 1817.56 164.729 1840.73 152.37C1863.9 140.011 1867.92 161.022 1883.06 148.662C1898.2 136.303 1891.71 139.084 1893.88 125.797C1896.04 112.511 1898.51 100.46 1913.34 96.4434C1928.17 92.4266 1935.28 80.0672 1932.19 71.1066C1929.1 62.146 1929.72 59.0561 1935.59 51.6404C1941.46 44.2248 1946.4 38.972 1943.93 30.9383C1941.46 22.9047 1946.71 11.4722 1950.73 9.92727C1952.72 9.16104 1953.55 8.83025 1953.82 8.71403C1953.82 8.70646 1953.82 8.69889 1953.82 8.69132C1953.94 8.65218 1953.98 8.64279 1953.82 8.71403C1953.09 25.1032 1949.3 63.6398 1939.91 86.8649C1928.17 115.91 1914.27 142.791 1908.4 148.662C1902.53 154.533 1879.66 182.033 1860.2 182.96C1840.73 183.887 1821.88 185.74 1799.63 169.055C1777.39 152.37 1778.1 146.923 1763.17 119.308C1750.81 96.4434 1743.68 39.3986 1742.47 30.9383C1741.85 26.6125 1741.24 25.3766 1742.47 25.6856Z" fill="#91B95D"/>
<path d="M1860.51 153.605L1864.1 158.998" stroke="#1F7600" stroke-opacity="0.66" stroke-width="2.56793" stroke-linecap="round"/>
<path d="M1877.81 165.041L1881.4 170.433" stroke="#1F7600" stroke-opacity="0.66" stroke-width="2.56793" stroke-linecap="round"/>
<path d="M1770.28 115.796L1773.88 121.189" stroke="#1F7600" stroke-opacity="0.66" stroke-width="2.56793" stroke-linecap="round"/>
<path d="M1888.08 156.052L1891.68 161.445" stroke="#1F7600" stroke-opacity="0.66" stroke-width="2.56793" stroke-linecap="round"/>
<path d="M1900.06 118.381L1901.29 120.853" stroke="#1F7600" stroke-opacity="0.66" stroke-width="2.56793" stroke-linecap="round"/>
<path d="M1898.82 139.392L1900.06 141.864" stroke="#1F7600" stroke-opacity="0.66" stroke-width="2.56793" stroke-linecap="round"/>
<path d="M1801.18 138.156L1804.77 143.549" stroke="#1F7600" stroke-opacity="0.66" stroke-width="2.56793" stroke-linecap="round"/>
<path d="M1841.97 170.291L1845.56 175.684" stroke="#1F7600" stroke-opacity="0.66" stroke-width="2.56793" stroke-linecap="round"/>
<path d="M1896.3 146.808L1899.89 152.2" stroke="#1F7600" stroke-opacity="0.66" stroke-width="2.56793" stroke-linecap="round"/>
<path d="M1762.25 101.696L1765.84 107.089" stroke="#1F7600" stroke-opacity="0.66" stroke-width="2.56793" stroke-linecap="round"/>
<path d="M1790.06 138.156L1793.65 143.549" stroke="#1F7600" stroke-opacity="0.66" stroke-width="2.56793" stroke-linecap="round"/>
<path d="M1825.9 164.729L1829.49 170.121" stroke="#1F7600" stroke-opacity="0.66" stroke-width="2.56793" stroke-linecap="round"/>
<path d="M1772.08 126.582L1775.67 131.975" stroke="#1F7600" stroke-opacity="0.66" stroke-width="2.56793" stroke-linecap="round"/>
<path d="M1781.32 135.57L1784.92 140.963" stroke="#1F7600" stroke-opacity="0.66" stroke-width="2.56793" stroke-linecap="round"/>
<path d="M1911.8 112.82L1914.27 116.528" stroke="#1F7600" stroke-opacity="0.66" stroke-width="2.56793" stroke-linecap="round"/>
<path d="M1908.09 128.268L1910.56 131.976" stroke="#1F7600" stroke-opacity="0.66" stroke-width="2.56793" stroke-linecap="round"/>
<path d="M1756.07 33.7183L1758.62 37.542" stroke="#1F7600" stroke-opacity="0.66" stroke-width="1.82082" stroke-linecap="round"/>
<path d="M1748.03 50.5366L1750.58 54.3604" stroke="#1F7600" stroke-opacity="0.66" stroke-width="1.82082" stroke-linecap="round"/>
<path d="M1748.03 33.1006L1750.58 36.9244" stroke="#1F7600" stroke-opacity="0.66" stroke-width="1.82082" stroke-linecap="round"/>
<path d="M1860.51 167.201L1864.1 172.593" stroke="#1F7600" stroke-opacity="0.66" stroke-width="2.56793" stroke-linecap="round"/>
<path d="M1869.77 156.078L1872.25 159.786" stroke="#1F7600" stroke-opacity="0.66" stroke-width="2.56793" stroke-linecap="round"/>
<path d="M1867.3 167.819L1870.9 173.212" stroke="#1F7600" stroke-opacity="0.66" stroke-width="2.56793" stroke-linecap="round"/>
<path d="M1909.33 135.685L1911.8 139.392" stroke="#1F7600" stroke-opacity="0.66" stroke-width="2.56793" stroke-linecap="round"/>
<path d="M1841.97 157.313L1844.44 161.021" stroke="#1F7600" stroke-opacity="0.66" stroke-width="2.56793" stroke-linecap="round"/>
<path d="M1811.07 162.257L1813.62 166.081" stroke="#1F7600" stroke-opacity="0.66" stroke-width="1.82082" stroke-linecap="round"/>
<path d="M1851.85 173.999L1854.4 177.822" stroke="#1F7600" stroke-opacity="0.66" stroke-width="1.82082" stroke-linecap="round"/>
<path d="M1803.03 161.639L1805.58 165.463" stroke="#1F7600" stroke-opacity="0.66" stroke-width="1.82082" stroke-linecap="round"/>
<path d="M1757.3 78.8311L1759.85 82.6548" stroke="#1F7600" stroke-opacity="0.66" stroke-width="1.82082" stroke-linecap="round"/>
<path d="M1851.23 162.257L1854.83 167.65" stroke="#1F7600" stroke-opacity="0.66" stroke-width="2.56793" stroke-linecap="round"/>
<path d="M1797.47 149.499L1801.07 154.892" stroke="#1F7600" stroke-opacity="0.66" stroke-width="2.56793" stroke-linecap="round"/>
<path d="M1755.45 51.6406L1758 55.4644" stroke="#1F7600" stroke-opacity="0.66" stroke-width="1.82082" stroke-linecap="round"/>
<path d="M1769.04 93.0439L1771.59 96.8677" stroke="#1F7600" stroke-opacity="0.66" stroke-width="1.82082" stroke-linecap="round"/>
<path d="M1751.74 63.999L1754.29 67.8228" stroke="#1F7600" stroke-opacity="0.66" stroke-width="1.82082" stroke-linecap="round"/>
<path d="M1809.83 152.987L1813.43 158.38" stroke="#1F7600" stroke-opacity="0.66" stroke-width="2.56793" stroke-linecap="round"/>
<path d="M1819.1 170.291L1822.7 175.684" stroke="#1F7600" stroke-opacity="0.66" stroke-width="2.56793" stroke-linecap="round"/>
<path d="M1773.37 104.786L1775.92 108.609" stroke="#1F7600" stroke-opacity="0.66" stroke-width="1.82082" stroke-linecap="round"/>
<circle cx="1594.65" cy="715.651" r="12.6512" fill="#D88C71"/>
<circle cx="1594.65" cy="715.651" r="12.6512" fill="#D88C71"/>
<circle cx="1594.65" cy="715.651" r="12.6512" fill="#D88C71"/>
<circle cx="1041.69" cy="876.651" r="12.6512" fill="#D88C71"/>
<circle cx="1041.69" cy="876.651" r="12.6512" fill="#D88C71"/>
<circle cx="1041.69" cy="876.651" r="12.6512" fill="#D88C71"/>
<circle cx="1787.65" cy="766.651" r="12.6512" fill="#D88C71"/>
<circle cx="1787.65" cy="766.651" r="12.6512" fill="#D88C71"/>
<circle cx="1787.65" cy="766.651" r="12.6512" fill="#D88C71"/>
<circle cx="1664.65" cy="63.6512" r="12.6512" fill="#D88C71"/>
<circle cx="1664.65" cy="63.6512" r="12.6512" fill="#D88C71"/>
<circle cx="1664.65" cy="63.6512" r="12.6512" fill="#D88C71"/>
<circle cx="613.651" cy="54.6512" r="12.6512" fill="#D88C71"/>
<circle cx="613.651" cy="54.6512" r="12.6512" fill="#D88C71"/>
<circle cx="613.651" cy="54.6512" r="12.6512" fill="#D88C71"/>
<circle cx="1733" cy="871" r="35" fill="#B8FBF7"/>
<circle cx="1897.5" cy="304.5" r="53.5" fill="#B8FBF7"/>
<circle cx="1902.65" cy="423.651" r="12.6512" fill="#D88C71"/>
<circle cx="1902.65" cy="423.651" r="12.6512" fill="#D88C71"/>
<circle cx="1902.65" cy="423.651" r="12.6512" fill="#D88C71"/>
<circle cx="185.17" cy="512.169" r="17.1695" fill="#FFE1E1"/>
<circle cx="1792.17" cy="385.17" r="17.1695" fill="#FFE1E1"/>
<circle cx="1736.17" cy="566.169" r="17.1695" fill="#FFE1E1"/>
<circle cx="376.5" cy="116.5" r="44.5" fill="#FFE1E1"/>
<circle cx="365" cy="670" r="33" fill="#FFE1E1"/>
<circle cx="1529.5" cy="119.5" r="44.5" fill="#FFE1E1"/>
<circle cx="1534" cy="765" r="27" fill="#FFE1E1"/>
<circle cx="944.043" cy="730" r="27" fill="#FFE1E1"/>
<path d="M10.3995 484.397C-54.6923 478.262 -63.7012 372.392 -60.4222 320.26C-60.4222 319 -59.4051 319 -57.2933 319H-57.2933C-54.4393 319 -47.1227 319 -43.4546 320.334C-39.7865 321.668 -42.454 337.516 -40.2562 360.592C-37.7354 387.06 -31.7417 418.36 -17.5695 445.037C-3.39739 471.714 18.9812 468.144 24.0227 466.463C39.1471 461.422 51.7508 445.037 65.6149 408.486C76.2654 380.408 75.4576 341.697 76.9582 325.302C76.9582 324.425 78.0495 322.995 79.4789 322.781C83.3366 322.205 90.3803 323.137 92.0826 323.502C94.6034 324.041 94.5157 325.305 94.6034 326.562C98.3845 380.758 75.4913 490.533 10.3995 484.397Z" fill="#FFD16D"/>
<path d="M-59.2075 371C-55.3971 371.896 -45.535 371.314 -45.535 381.534C-45.535 394.31 -53.3799 403.052 -45.535 409.776C-37.6902 416.5 -40.8282 414.258 -33.8799 422.327C-26.9316 430.396 -32.0868 446.086 -23.5695 448.327C-15.0523 450.569 -12.0638 447.997 -9.22471 451.241C-4.51783 456.621 -12.1385 460.655 -5.6385 462.896C0.8615 465.138 -4.74193 471.862 12.0684 462.896C28.8788 453.931 31.7926 469.172 42.7753 460.207C53.7581 451.241 49.0512 453.258 50.6201 443.621C52.1891 433.983 53.9822 425.241 64.7408 422.327C75.4994 419.414 80.6546 410.448 78.4132 403.948C76.1719 397.448 76.6201 395.207 80.8788 389.827C85.1374 384.448 88.7236 380.638 86.9305 374.81C85.1374 368.983 88.9477 360.69 91.8615 359.569C93.3067 359.013 93.9076 358.773 94.1022 358.689C94.1024 358.683 94.1026 358.678 94.1029 358.672C94.1881 358.644 94.2215 358.637 94.1022 358.689C93.5773 370.577 90.8273 398.532 84.0167 415.379C75.4994 436.448 65.4132 455.948 61.1546 460.207C56.896 464.465 40.3098 484.414 26.1891 485.086C12.0684 485.758 -1.60402 487.103 -17.742 475C-33.8799 462.896 -33.3624 458.945 -44.1902 438.914C-53.1558 422.327 -58.3307 380.947 -59.2075 374.81C-59.6558 371.672 -60.104 370.776 -59.2075 371Z" fill="#FFB3AE"/>
<path d="M26.4136 464.689L29.0214 468.601" stroke="#FF9393" stroke-opacity="0.66" stroke-width="1.86277" stroke-linecap="round"/>
<path d="M38.9653 472.984L41.5732 476.896" stroke="#FF9393" stroke-opacity="0.66" stroke-width="1.86277" stroke-linecap="round"/>
<path d="M86.9312 390.725L89.539 394.636" stroke="#FF9393" stroke-opacity="0.66" stroke-width="1.86277" stroke-linecap="round"/>
<path d="M46.4165 466.465L49.0244 470.377" stroke="#FF9393" stroke-opacity="0.66" stroke-width="1.86277" stroke-linecap="round"/>
<path d="M55.1035 439.138L56.0001 440.931" stroke="#FF9393" stroke-opacity="0.66" stroke-width="1.86277" stroke-linecap="round"/>
<path d="M54.2065 454.379L55.1031 456.172" stroke="#FF9393" stroke-opacity="0.66" stroke-width="1.86277" stroke-linecap="round"/>
<path d="M12.9653 476.793L15.5732 480.705" stroke="#FF9393" stroke-opacity="0.66" stroke-width="1.86277" stroke-linecap="round"/>
<path d="M52.3774 459.759L54.9853 463.671" stroke="#FF9393" stroke-opacity="0.66" stroke-width="1.86277" stroke-linecap="round"/>
<path d="M82.0005 399.242L84.6084 403.154" stroke="#FF9393" stroke-opacity="0.66" stroke-width="1.86277" stroke-linecap="round"/>
<path d="M1.31006 472.759L3.91793 476.671" stroke="#FF9393" stroke-opacity="0.66" stroke-width="1.86277" stroke-linecap="round"/>
<path d="M72.1382 425.242L74.7461 429.154" stroke="#FF9393" stroke-opacity="0.66" stroke-width="1.86277" stroke-linecap="round"/>
<path d="M78.8623 417.173L80.6554 419.863" stroke="#FF9393" stroke-opacity="0.66" stroke-width="1.86277" stroke-linecap="round"/>
<path d="M70.7935 433.759L73.4013 437.671" stroke="#FF9393" stroke-opacity="0.66" stroke-width="1.86277" stroke-linecap="round"/>
<path d="M63.6206 435.104L65.4137 437.793" stroke="#FF9393" stroke-opacity="0.66" stroke-width="1.86277" stroke-linecap="round"/>
<path d="M60.9302 446.31L62.7233 449" stroke="#FF9393" stroke-opacity="0.66" stroke-width="1.86277" stroke-linecap="round"/>
<path d="M26.4136 474.552L29.0214 478.464" stroke="#FF9393" stroke-opacity="0.66" stroke-width="1.86277" stroke-linecap="round"/>
<path d="M33.1382 466.482L34.9313 469.172" stroke="#FF9393" stroke-opacity="0.66" stroke-width="1.86277" stroke-linecap="round"/>
<path d="M31.3447 475L33.9526 478.912" stroke="#FF9393" stroke-opacity="0.66" stroke-width="1.86277" stroke-linecap="round"/>
<path d="M61.8271 451.69L63.6203 454.38" stroke="#FF9393" stroke-opacity="0.66" stroke-width="1.86277" stroke-linecap="round"/>
<path d="M12.9653 467.379L14.7584 470.069" stroke="#FF9393" stroke-opacity="0.66" stroke-width="1.86277" stroke-linecap="round"/>
<path d="M20.1377 479.483L21.9868 482.257" stroke="#FF9393" stroke-opacity="0.66" stroke-width="1.32081" stroke-linecap="round"/>
<path d="M19.6895 470.966L22.2973 474.878" stroke="#FF9393" stroke-opacity="0.66" stroke-width="1.86277" stroke-linecap="round"/>
<path d="M-3.62109 476.793L-1.01322 480.705" stroke="#FF9393" stroke-opacity="0.66" stroke-width="1.86277" stroke-linecap="round"/>
<circle cx="745.5" cy="877.5" r="29.5" fill="#D88C71"/>
<circle cx="745.5" cy="877.5" r="29.5" fill="#D88C71"/>
<circle cx="745.5" cy="877.5" r="29.5" fill="#D88C71"/>
<circle cx="1530" cy="378" r="20" fill="#D88C71"/>
<circle cx="1530" cy="378" r="20" fill="#D88C71"/>
<circle cx="1530" cy="378" r="20" fill="#D88C71"/>
</g>
<defs>
<clipPath id="clip0_213_153">
<rect width="1920" height="882" fill="white"/>
</clipPath>
</defs>
</svg>
