<svg width="446" height="495" viewBox="0 0 446 495" fill="none" xmlns="http://www.w3.org/2000/svg">
<path d="M79.677 24.3063C74.3004 24.3063 70.1806 25.9472 67.3178 29.229C64.4549 32.5108 63.0235 37.1543 63.0235 43.1593C63.0235 49.2342 64.5946 53.9125 67.7367 57.1944C70.9487 60.4762 75.243 62.1171 80.6196 62.1171C83.4825 62.1171 85.8915 61.7331 87.8466 60.965C89.8716 60.1969 91.7918 59.3241 93.6073 58.3465C94.7943 59.3241 95.7021 60.5111 96.3305 61.9076C97.0288 63.2343 97.3779 64.8054 97.3779 66.6209C97.3779 69.4837 95.7719 71.9277 92.5599 73.9526C89.4177 75.9077 84.5997 76.8853 78.1059 76.8853C73.4275 76.8853 69.0285 76.222 64.9088 74.8953C60.789 73.5686 57.193 71.5436 54.1206 68.8204C51.0483 66.0274 48.6044 62.536 46.7889 58.3465C45.0433 54.0871 44.1704 49.0247 44.1704 43.1593C44.1704 37.7129 45.0083 32.9298 46.6842 28.8101C48.4298 24.6205 50.769 21.0943 53.7017 18.2314C56.7042 15.3686 60.1955 13.2039 64.1756 11.7376C68.1557 10.2713 72.4151 9.53808 76.9538 9.53808C83.3778 9.53808 88.3354 10.5855 91.8267 12.6802C95.3878 14.775 97.1684 17.4633 97.1684 20.7452C97.1684 22.5606 96.7145 24.1317 95.8068 25.4584C94.8991 26.7851 93.8517 27.8325 92.6646 28.6006C90.8491 27.4135 88.894 26.4011 86.7992 25.5632C84.7743 24.7252 82.4002 24.3063 79.677 24.3063ZM156.062 74.8953C155.364 75.1047 154.247 75.3142 152.71 75.5237C151.244 75.7332 149.708 75.8379 148.102 75.8379C146.566 75.8379 145.169 75.7332 143.912 75.5237C142.725 75.3142 141.713 74.8953 140.875 74.2668C140.037 73.6384 139.374 72.8005 138.885 71.7531C138.466 70.6359 138.256 69.2044 138.256 67.4588V44.2067C138.256 41.3438 137.523 39.3538 136.057 38.2366C134.66 37.0495 132.915 36.456 130.82 36.456C129.423 36.456 128.097 36.6306 126.84 36.9797C125.583 37.3288 124.57 37.7478 123.802 38.2366V74.8953C123.104 75.1047 121.987 75.3142 120.451 75.5237C118.984 75.7332 117.448 75.8379 115.842 75.8379C114.306 75.8379 112.91 75.7332 111.653 75.5237C110.466 75.3142 109.453 74.8953 108.615 74.2668C107.777 73.6384 107.114 72.8005 106.625 71.7531C106.206 70.6359 105.997 69.2044 105.997 67.4588V6.71012C106.765 6.57047 107.882 6.3959 109.348 6.18643C110.885 5.90712 112.421 5.76747 113.957 5.76747C115.493 5.76747 116.855 5.87221 118.042 6.08168C119.299 6.29116 120.346 6.71012 121.184 7.33855C122.022 7.96699 122.65 8.83981 123.069 9.95703C123.558 11.0044 123.802 12.4009 123.802 14.1466V24.411C124.71 24.0619 126.072 23.6779 127.887 23.2589C129.773 22.7701 131.832 22.5257 134.067 22.5257C140.98 22.5257 146.356 24.2714 150.197 27.7627C154.107 31.1842 156.062 36.3164 156.062 43.1593V74.8953ZM167.056 24.83C167.754 24.6205 168.836 24.411 170.302 24.2015C171.839 23.9921 173.41 23.8873 175.016 23.8873C176.552 23.8873 177.913 23.9921 179.101 24.2015C180.357 24.411 181.405 24.83 182.243 25.4584C183.081 26.0869 183.709 26.9597 184.128 28.0769C184.617 29.1243 184.861 30.5208 184.861 32.2665V54.7854C184.861 57.6482 185.559 59.7081 186.956 60.965C188.352 62.152 190.377 62.7455 193.031 62.7455C194.637 62.7455 195.929 62.6059 196.906 62.3266C197.954 62.0473 198.757 61.768 199.315 61.4887V24.83C200.013 24.6205 201.096 24.411 202.562 24.2015C204.098 23.9921 205.669 23.8873 207.275 23.8873C208.812 23.8873 210.173 23.9921 211.36 24.2015C212.617 24.411 213.664 24.83 214.502 25.4584C215.34 26.0869 215.969 26.9597 216.388 28.0769C216.876 29.1243 217.121 30.5208 217.121 32.2665V64.1071C217.121 67.5984 215.654 70.2169 212.722 71.9626C210.278 73.4987 207.345 74.6509 203.924 75.419C200.572 76.2569 196.906 76.6758 192.926 76.6758C189.155 76.6758 185.664 76.2569 182.452 75.419C179.31 74.581 176.587 73.2893 174.283 71.5436C171.978 69.798 170.198 67.5635 168.941 64.8403C167.684 62.0473 167.056 58.6956 167.056 54.7854V24.83ZM261.743 24.3063C256.366 24.3063 252.247 25.9472 249.384 29.229C246.521 32.5108 245.089 37.1543 245.089 43.1593C245.089 49.2342 246.661 53.9125 249.803 57.1944C253.015 60.4762 257.309 62.1171 262.686 62.1171C265.548 62.1171 267.957 61.7331 269.913 60.965C271.938 60.1969 273.858 59.3241 275.673 58.3465C276.86 59.3241 277.768 60.5111 278.396 61.9076C279.095 63.2343 279.444 64.8054 279.444 66.6209C279.444 69.4837 277.838 71.9277 274.626 73.9526C271.484 75.9077 266.666 76.8853 260.172 76.8853C255.494 76.8853 251.094 76.222 246.975 74.8953C242.855 73.5686 239.259 71.5436 236.187 68.8204C233.114 66.0274 230.67 62.536 228.855 58.3465C227.109 54.0871 226.236 49.0247 226.236 43.1593C226.236 37.7129 227.074 32.9298 228.75 28.8101C230.496 24.6205 232.835 21.0943 235.768 18.2314C238.77 15.3686 242.261 13.2039 246.242 11.7376C250.222 10.2713 254.481 9.53808 259.02 9.53808C265.444 9.53808 270.401 10.5855 273.893 12.6802C277.454 14.775 279.234 17.4633 279.234 20.7452C279.234 22.5606 278.781 24.1317 277.873 25.4584C276.965 26.7851 275.918 27.8325 274.731 28.6006C272.915 27.4135 270.96 26.4011 268.865 25.5632C266.84 24.7252 264.466 24.3063 261.743 24.3063ZM338.128 74.8953C337.43 75.1047 336.313 75.3142 334.776 75.5237C333.31 75.7332 331.774 75.8379 330.168 75.8379C328.632 75.8379 327.235 75.7332 325.978 75.5237C324.791 75.3142 323.779 74.8953 322.941 74.2668C322.103 73.6384 321.44 72.8005 320.951 71.7531C320.532 70.6359 320.322 69.2044 320.322 67.4588V44.2067C320.322 41.3438 319.589 39.3538 318.123 38.2366C316.726 37.0495 314.981 36.456 312.886 36.456C311.489 36.456 310.163 36.6306 308.906 36.9797C307.649 37.3288 306.636 37.7478 305.868 38.2366V74.8953C305.17 75.1047 304.053 75.3142 302.517 75.5237C301.05 75.7332 299.514 75.8379 297.908 75.8379C296.372 75.8379 294.975 75.7332 293.719 75.5237C292.532 75.3142 291.519 74.8953 290.681 74.2668C289.843 73.6384 289.18 72.8005 288.691 71.7531C288.272 70.6359 288.063 69.2044 288.063 67.4588V6.71012C288.831 6.57047 289.948 6.3959 291.414 6.18643C292.951 5.90712 294.487 5.76747 296.023 5.76747C297.559 5.76747 298.921 5.87221 300.108 6.08168C301.365 6.29116 302.412 6.71012 303.25 7.33855C304.088 7.96699 304.716 8.83981 305.135 9.95703C305.624 11.0044 305.868 12.4009 305.868 14.1466V24.411C306.776 24.0619 308.138 23.6779 309.953 23.2589C311.838 22.7701 313.898 22.5257 316.133 22.5257C323.046 22.5257 328.422 24.2714 332.263 27.7627C336.173 31.1842 338.128 36.3164 338.128 43.1593V74.8953ZM349.122 24.83C349.82 24.6205 350.902 24.411 352.368 24.2015C353.905 23.9921 355.476 23.8873 357.082 23.8873C358.618 23.8873 359.979 23.9921 361.167 24.2015C362.423 24.411 363.471 24.83 364.309 25.4584C365.147 26.0869 365.775 26.9597 366.194 28.0769C366.683 29.1243 366.927 30.5208 366.927 32.2665V54.7854C366.927 57.6482 367.625 59.7081 369.022 60.965C370.418 62.152 372.443 62.7455 375.097 62.7455C376.703 62.7455 377.995 62.6059 378.972 62.3266C380.02 62.0473 380.823 61.768 381.381 61.4887V24.83C382.079 24.6205 383.162 24.411 384.628 24.2015C386.164 23.9921 387.735 23.8873 389.341 23.8873C390.878 23.8873 392.239 23.9921 393.426 24.2015C394.683 24.411 395.73 24.83 396.568 25.4584C397.406 26.0869 398.035 26.9597 398.454 28.0769C398.942 29.1243 399.187 30.5208 399.187 32.2665V64.1071C399.187 67.5984 397.72 70.2169 394.788 71.9626C392.344 73.4987 389.411 74.6509 385.99 75.419C382.638 76.2569 378.972 76.6758 374.992 76.6758C371.221 76.6758 367.73 76.2569 364.518 75.419C361.376 74.581 358.653 73.2893 356.349 71.5436C354.044 69.798 352.264 67.5635 351.007 64.8403C349.75 62.0473 349.122 58.6956 349.122 54.7854V24.83Z" fill="#FFBE6B"/>
<path d="M89.3022 129.286C87.8212 127.611 86.2436 126.356 84.5693 125.519C82.8951 124.681 81.0921 124.199 79.1603 124.07V114.507C86.3723 114.829 92.4253 117.373 97.3192 122.138L89.3022 129.286ZM79.1603 177.677C81.0921 177.484 82.8951 176.969 84.5693 176.132C86.3079 175.295 87.8856 174.071 89.3022 172.461L97.3192 179.513C94.8723 181.895 92.1356 183.73 89.1091 185.018C86.0826 186.306 82.7663 187.047 79.1603 187.24V177.677ZM47.865 150.825C47.865 145.094 48.5411 140.039 49.8934 135.661C51.3101 131.282 53.2419 127.579 55.6888 124.553C58.1358 121.526 61.0013 119.176 64.2854 117.502C67.6338 115.827 71.2721 114.829 75.2001 114.507V124.166C73.0751 124.488 71.0789 125.229 69.2115 126.388C67.3441 127.483 65.702 129.092 64.2854 131.217C62.8687 133.342 61.7418 136.047 60.9047 139.331C60.132 142.551 59.7134 146.382 59.649 150.825C59.7134 155.333 60.132 159.196 60.9047 162.416C61.7418 165.636 62.8687 168.34 64.2854 170.53C65.702 172.719 67.3441 174.393 69.2115 175.552C71.1433 176.711 73.1395 177.42 75.2001 177.677V187.143C71.2721 186.886 67.6338 185.92 64.2854 184.245C61.0013 182.571 58.1358 180.221 55.6888 177.194C53.2419 174.168 51.3101 170.465 49.8934 166.087C48.5411 161.643 47.865 156.556 47.865 150.825ZM113.353 111.706H125.041V186.757H113.353V111.706ZM153.921 138.269C155.016 139.363 155.853 140.651 156.433 142.132C157.076 143.549 157.527 145.062 157.785 146.672C158.107 148.217 158.3 149.795 158.364 151.405C158.429 153.015 158.461 154.592 158.461 156.138V184.825V186.757H146.677V157.104C146.677 154.914 146.58 152.821 146.387 150.825C146.194 148.829 145.743 147.058 145.035 145.513C144.327 143.967 143.361 142.776 142.137 141.939C140.914 141.037 139.207 140.587 137.018 140.587C136.116 140.587 134.893 140.748 133.347 141.07C131.866 141.327 130.418 141.778 129.001 142.422V134.984C130.739 134.083 132.607 133.31 134.603 132.666C136.664 132.022 138.66 131.7 140.592 131.7C143.489 131.7 145.936 132.312 147.933 133.536C149.929 134.695 151.925 136.272 153.921 138.269ZM183.574 161.933C183.574 164.187 183.671 166.312 183.864 168.308C184.057 170.24 184.476 171.946 185.12 173.427C185.764 174.908 186.73 176.1 188.018 177.001C189.305 177.903 191.012 178.353 193.137 178.353C193.974 178.353 195.165 178.225 196.711 177.967C198.256 177.71 199.737 177.291 201.154 176.711V183.859C199.48 184.761 197.644 185.566 195.648 186.274C193.716 186.918 191.785 187.24 189.853 187.24C188.307 187.24 186.923 187.079 185.699 186.757C184.476 186.499 183.317 186.081 182.222 185.501C181.192 184.857 180.194 184.149 179.228 183.376C178.262 182.603 177.296 181.734 176.33 180.768C175.235 179.674 174.366 178.418 173.722 177.001C173.078 175.52 172.595 174.007 172.273 172.461C172.016 170.852 171.855 169.242 171.79 167.632C171.79 166.022 171.79 164.444 171.79 162.899V132.28H183.574V161.933ZM216.898 132.28V186.757H206.37L205.114 181.155V132.28H216.898ZM274.079 129.286C272.598 127.611 271.021 126.356 269.347 125.519C267.672 124.681 265.869 124.199 263.938 124.07V114.507C271.15 114.829 277.203 117.373 282.096 122.138L274.079 129.286ZM263.938 177.677C265.869 177.484 267.672 176.969 269.347 176.132C271.085 175.295 272.663 174.071 274.079 172.461L282.096 179.513C279.65 181.895 276.913 183.73 273.886 185.018C270.86 186.306 267.544 187.047 263.938 187.24V177.677ZM232.642 150.825C232.642 145.094 233.318 140.039 234.671 135.661C236.087 131.282 238.019 127.579 240.466 124.553C242.913 121.526 245.779 119.176 249.063 117.502C252.411 115.827 256.049 114.829 259.977 114.507V124.166C257.852 124.488 255.856 125.229 253.989 126.388C252.121 127.483 250.479 129.092 249.063 131.217C247.646 133.342 246.519 136.047 245.682 139.331C244.909 142.551 244.491 146.382 244.426 150.825C244.491 155.333 244.909 159.196 245.682 162.416C246.519 165.636 247.646 168.34 249.063 170.53C250.479 172.719 252.121 174.393 253.989 175.552C255.921 176.711 257.917 177.42 259.977 177.677V187.143C256.049 186.886 252.411 185.92 249.063 184.245C245.779 182.571 242.913 180.221 240.466 177.194C238.019 174.168 236.087 170.465 234.671 166.087C233.318 161.643 232.642 156.556 232.642 150.825ZM298.13 111.706H309.818V186.757H298.13V111.706ZM338.698 138.269C339.793 139.363 340.63 140.651 341.21 142.132C341.854 143.549 342.304 145.062 342.562 146.672C342.884 148.217 343.077 149.795 343.142 151.405C343.206 153.015 343.238 154.592 343.238 156.138V184.825V186.757H331.454V157.104C331.454 154.914 331.358 152.821 331.164 150.825C330.971 148.829 330.52 147.058 329.812 145.513C329.104 143.967 328.138 142.776 326.914 141.939C325.691 141.037 323.984 140.587 321.795 140.587C320.894 140.587 319.67 140.748 318.125 141.07C316.644 141.327 315.195 141.778 313.778 142.422V134.984C315.517 134.083 317.384 133.31 319.38 132.666C321.441 132.022 323.437 131.7 325.369 131.7C328.267 131.7 330.714 132.312 332.71 133.536C334.706 134.695 336.702 136.272 338.698 138.269ZM368.352 161.933C368.352 164.187 368.448 166.312 368.641 168.308C368.835 170.24 369.253 171.946 369.897 173.427C370.541 174.908 371.507 176.1 372.795 177.001C374.083 177.903 375.789 178.353 377.914 178.353C378.751 178.353 379.942 178.225 381.488 177.967C383.033 177.71 384.514 177.291 385.931 176.711V183.859C384.257 184.761 382.422 185.566 380.425 186.274C378.494 186.918 376.562 187.24 374.63 187.24C373.085 187.24 371.7 187.079 370.477 186.757C369.253 186.499 368.094 186.081 366.999 185.501C365.969 184.857 364.971 184.149 364.005 183.376C363.039 182.603 362.073 181.734 361.107 180.768C360.013 179.674 359.143 178.418 358.499 177.001C357.855 175.52 357.373 174.007 357.051 172.461C356.793 170.852 356.632 169.242 356.568 167.632C356.568 166.022 356.568 164.444 356.568 162.899V132.28H368.352V161.933ZM401.675 132.28V186.757H391.147L389.891 181.155V132.28H401.675Z" fill="#FE9F25"/>
<path d="M75.0541 239.697C70.2749 239.697 66.6129 241.156 64.0682 244.073C61.5234 246.99 60.2511 251.117 60.2511 256.455C60.2511 261.855 61.6476 266.014 64.4406 268.931C67.2957 271.848 71.1128 273.306 75.892 273.306C78.4367 273.306 80.5781 272.965 82.3159 272.282C84.1159 271.6 85.8227 270.824 87.4365 269.955C88.4916 270.824 89.2985 271.879 89.8571 273.12C90.4778 274.299 90.7881 275.696 90.7881 277.31C90.7881 279.855 89.3606 282.027 86.5055 283.827C83.7125 285.565 79.4298 286.434 73.6576 286.434C69.4991 286.434 65.5888 285.844 61.9269 284.665C58.2649 283.485 55.0684 281.685 52.3375 279.265C49.6065 276.782 47.4342 273.679 45.8204 269.955C44.2687 266.169 43.4929 261.669 43.4929 256.455C43.4929 251.614 44.2377 247.362 45.7273 243.7C47.279 239.976 49.3583 236.842 51.9651 234.297C54.634 231.752 57.7373 229.828 61.2752 228.525C64.813 227.222 68.5991 226.57 72.6335 226.57C78.3436 226.57 82.7504 227.501 85.8538 229.363C89.0192 231.225 90.6019 233.614 90.6019 236.532C90.6019 238.145 90.1985 239.542 89.3916 240.721C88.5847 241.9 87.6537 242.831 86.5986 243.514C84.9848 242.459 83.247 241.559 81.3849 240.814C79.585 240.069 77.4747 239.697 75.0541 239.697ZM142.951 284.665C142.331 284.851 141.338 285.037 139.972 285.223C138.669 285.41 137.303 285.503 135.876 285.503C134.51 285.503 133.269 285.41 132.152 285.223C131.097 285.037 130.197 284.665 129.452 284.106C128.707 283.548 128.117 282.803 127.683 281.872C127.311 280.879 127.124 279.606 127.124 278.055V257.386C127.124 254.841 126.473 253.072 125.169 252.079C123.928 251.024 122.376 250.497 120.514 250.497C119.273 250.497 118.094 250.652 116.976 250.962C115.859 251.273 114.959 251.645 114.276 252.079V284.665C113.656 284.851 112.663 285.037 111.297 285.223C109.994 285.41 108.628 285.503 107.201 285.503C105.835 285.503 104.594 285.41 103.477 285.223C102.422 285.037 101.522 284.665 100.777 284.106C100.032 283.548 99.4424 282.803 99.0079 281.872C98.6355 280.879 98.4493 279.606 98.4493 278.055V224.056C99.132 223.932 100.125 223.777 101.429 223.591C102.794 223.342 104.159 223.218 105.525 223.218C106.89 223.218 108.101 223.311 109.156 223.497C110.273 223.684 111.204 224.056 111.949 224.615C112.694 225.173 113.252 225.949 113.625 226.942C114.059 227.873 114.276 229.115 114.276 230.666V239.79C115.083 239.48 116.294 239.138 117.907 238.766C119.583 238.332 121.414 238.114 123.4 238.114C129.545 238.114 134.324 239.666 137.738 242.769C141.214 245.811 142.951 250.373 142.951 256.455V284.665Z" fill="#FFD16D"/>
<path d="M178.354 284.875C153.985 282.879 150.612 249.656 151.84 232.702C151.84 232.292 152.221 232.292 153.011 232.292H153.011C154.333 232.292 162.82 231.142 163.967 232.292C164.87 233.198 163.144 241.094 163.967 248.599C164.91 257.207 165.886 262.573 171.192 271.249C176.498 279.925 179.54 278.137 181.428 277.591C187.09 275.951 189.857 273.363 196.742 259.601C201.2 250.691 198.889 242.84 198.889 232.896C198.889 231.666 203.705 232.314 204.217 232.314C205.813 232.292 208.298 232.429 208.935 232.548C209.879 232.723 209.694 233.393 209.727 233.802C211.142 251.427 202.724 286.87 178.354 284.875Z" fill="#FFD16D"/>
<path d="M152.295 247.996C153.721 248.287 157.414 248.098 157.414 251.422C157.414 255.577 154.477 258.42 157.414 260.607C160.351 262.793 159.176 262.064 161.777 264.689C164.378 267.313 162.448 272.416 165.637 273.144C168.826 273.873 169.945 273.037 171.008 274.092C172.77 275.842 169.917 277.154 172.35 277.883C174.784 278.612 172.686 280.798 178.979 277.883C185.273 274.967 186.364 279.924 190.476 277.008C194.587 274.092 192.825 274.748 193.413 271.614C194 268.479 194.671 265.636 198.699 264.689C202.727 263.741 204.657 260.825 203.818 258.711C202.979 256.597 203.147 255.868 204.741 254.119C206.335 252.37 207.678 251.13 207.007 249.235C206.335 247.34 207.762 244.643 208.853 244.278C209.394 244.097 209.619 244.019 209.692 243.992C209.692 243.99 209.692 243.988 209.692 243.987C209.724 243.977 209.736 243.975 209.692 243.992C209.495 247.858 208.466 256.95 205.916 262.429C202.727 269.281 198.951 275.623 197.357 277.008C195.762 278.393 189.553 284.881 184.266 285.099C178.979 285.318 173.861 285.755 167.819 281.819C161.777 277.883 161.971 276.598 157.917 270.083C154.561 264.689 152.623 251.231 152.295 249.235C152.127 248.215 151.959 247.923 152.295 247.996Z" fill="#FFB3AE"/>
<path d="M184.35 278.465L185.326 279.738" stroke="#FF9393" stroke-opacity="0.66" stroke-width="0.603927" stroke-linecap="round"/>
<path d="M189.049 281.163L190.026 282.435" stroke="#FF9393" stroke-opacity="0.66" stroke-width="0.603927" stroke-linecap="round"/>
<path d="M207.007 254.41L207.983 255.682" stroke="#FF9393" stroke-opacity="0.66" stroke-width="0.603927" stroke-linecap="round"/>
<path d="M159.847 269.546L160.824 270.818" stroke="#FF9393" stroke-opacity="0.66" stroke-width="0.603927" stroke-linecap="round"/>
<path d="M191.838 279.043L192.815 280.315" stroke="#FF9393" stroke-opacity="0.66" stroke-width="0.603927" stroke-linecap="round"/>
<path d="M195.091 270.155L195.426 270.738" stroke="#FF9393" stroke-opacity="0.66" stroke-width="0.603927" stroke-linecap="round"/>
<path d="M194.755 275.113L195.091 275.696" stroke="#FF9393" stroke-opacity="0.66" stroke-width="0.603927" stroke-linecap="round"/>
<path d="M168.238 274.821L169.215 276.093" stroke="#FF9393" stroke-opacity="0.66" stroke-width="0.603927" stroke-linecap="round"/>
<path d="M179.315 282.402L180.291 283.674" stroke="#FF9393" stroke-opacity="0.66" stroke-width="0.603927" stroke-linecap="round"/>
<path d="M194.07 276.862L195.047 278.134" stroke="#FF9393" stroke-opacity="0.66" stroke-width="0.603927" stroke-linecap="round"/>
<path d="M205.16 257.18L206.137 258.452" stroke="#FF9393" stroke-opacity="0.66" stroke-width="0.603927" stroke-linecap="round"/>
<path d="M157.666 266.219L158.642 267.491" stroke="#FF9393" stroke-opacity="0.66" stroke-width="0.603927" stroke-linecap="round"/>
<path d="M165.218 274.821L166.194 276.093" stroke="#FF9393" stroke-opacity="0.66" stroke-width="0.603927" stroke-linecap="round"/>
<path d="M174.952 281.09L175.928 282.362" stroke="#FF9393" stroke-opacity="0.66" stroke-width="0.603927" stroke-linecap="round"/>
<path d="M160.335 272.09L161.312 273.362" stroke="#FF9393" stroke-opacity="0.66" stroke-width="0.603927" stroke-linecap="round"/>
<path d="M162.846 274.21L163.823 275.483" stroke="#FF9393" stroke-opacity="0.66" stroke-width="0.603927" stroke-linecap="round"/>
<path d="M201.468 265.636L202.445 266.908" stroke="#FF9393" stroke-opacity="0.66" stroke-width="0.603927" stroke-linecap="round"/>
<path d="M203.985 263.012L204.657 263.886" stroke="#FF9393" stroke-opacity="0.66" stroke-width="0.603927" stroke-linecap="round"/>
<path d="M200.965 268.406L201.941 269.678" stroke="#FF9393" stroke-opacity="0.66" stroke-width="0.603927" stroke-linecap="round"/>
<path d="M198.279 268.844L198.951 269.718" stroke="#FF9393" stroke-opacity="0.66" stroke-width="0.603927" stroke-linecap="round"/>
<path d="M197.272 272.488L197.944 273.363" stroke="#FF9393" stroke-opacity="0.66" stroke-width="0.603927" stroke-linecap="round"/>
<path d="M155.987 250.183L156.679 251.085" stroke="#FF9393" stroke-opacity="0.66" stroke-width="0.428221" stroke-linecap="round"/>
<path d="M153.805 254.15L154.497 255.052" stroke="#FF9393" stroke-opacity="0.66" stroke-width="0.428221" stroke-linecap="round"/>
<path d="M153.805 250.037L154.497 250.939" stroke="#FF9393" stroke-opacity="0.66" stroke-width="0.428221" stroke-linecap="round"/>
<path d="M184.35 281.673L185.326 282.945" stroke="#FF9393" stroke-opacity="0.66" stroke-width="0.603927" stroke-linecap="round"/>
<path d="M186.868 279.049L187.539 279.924" stroke="#FF9393" stroke-opacity="0.66" stroke-width="0.603927" stroke-linecap="round"/>
<path d="M186.196 281.818L187.172 283.091" stroke="#FF9393" stroke-opacity="0.66" stroke-width="0.603927" stroke-linecap="round"/>
<path d="M197.608 274.238L198.28 275.113" stroke="#FF9393" stroke-opacity="0.66" stroke-width="0.603927" stroke-linecap="round"/>
<path d="M179.315 279.34L179.986 280.215" stroke="#FF9393" stroke-opacity="0.66" stroke-width="0.603927" stroke-linecap="round"/>
<path d="M170.924 280.506L171.616 281.408" stroke="#FF9393" stroke-opacity="0.66" stroke-width="0.428221" stroke-linecap="round"/>
<path d="M182 283.277L182.693 284.179" stroke="#FF9393" stroke-opacity="0.66" stroke-width="0.428221" stroke-linecap="round"/>
<path d="M168.742 280.361L169.434 281.263" stroke="#FF9393" stroke-opacity="0.66" stroke-width="0.428221" stroke-linecap="round"/>
<path d="M156.323 260.825L157.015 261.727" stroke="#FF9393" stroke-opacity="0.66" stroke-width="0.428221" stroke-linecap="round"/>
<path d="M181.833 280.506L182.809 281.779" stroke="#FF9393" stroke-opacity="0.66" stroke-width="0.603927" stroke-linecap="round"/>
<path d="M167.231 277.497L168.208 278.769" stroke="#FF9393" stroke-opacity="0.66" stroke-width="0.603927" stroke-linecap="round"/>
<path d="M155.819 254.41L156.511 255.312" stroke="#FF9393" stroke-opacity="0.66" stroke-width="0.428221" stroke-linecap="round"/>
<path d="M159.511 264.178L160.204 265.08" stroke="#FF9393" stroke-opacity="0.66" stroke-width="0.428221" stroke-linecap="round"/>
<path d="M154.812 257.326L155.504 258.228" stroke="#FF9393" stroke-opacity="0.66" stroke-width="0.428221" stroke-linecap="round"/>
<path d="M170.588 278.32L171.564 279.592" stroke="#FF9393" stroke-opacity="0.66" stroke-width="0.603927" stroke-linecap="round"/>
<path d="M173.105 282.402L174.082 283.674" stroke="#FF9393" stroke-opacity="0.66" stroke-width="0.603927" stroke-linecap="round"/>
<path d="M160.686 266.948L161.378 267.85" stroke="#FF9393" stroke-opacity="0.66" stroke-width="0.428221" stroke-linecap="round"/>
<path d="M252.073 239.932C247.293 239.932 243.631 241.391 241.087 244.308C238.542 247.225 237.27 251.353 237.27 256.691C237.27 262.09 238.666 266.249 241.459 269.166C244.314 272.083 248.131 273.542 252.911 273.542C255.455 273.542 257.597 273.2 259.335 272.518C261.134 271.835 262.841 271.059 264.455 270.19C265.51 271.059 266.317 272.114 266.876 273.356C267.496 274.535 267.807 275.931 267.807 277.545C267.807 280.09 266.379 282.262 263.524 284.062C260.731 285.8 256.448 286.669 250.676 286.669C246.518 286.669 242.607 286.079 238.945 284.9C235.283 283.721 232.087 281.921 229.356 279.5C226.625 277.018 224.453 273.914 222.839 270.19C221.287 266.404 220.511 261.904 220.511 256.691C220.511 251.849 221.256 247.598 222.746 243.936C224.298 240.212 226.377 237.077 228.984 234.533C231.653 231.988 234.756 230.064 238.294 228.76C241.832 227.457 245.618 226.805 249.652 226.805C255.362 226.805 259.769 227.736 262.872 229.598C266.038 231.46 267.62 233.85 267.62 236.767C267.62 238.381 267.217 239.777 266.41 240.956C265.603 242.136 264.672 243.067 263.617 243.749C262.003 242.694 260.266 241.794 258.403 241.05C256.604 240.305 254.493 239.932 252.073 239.932ZM319.97 284.9C319.349 285.086 318.356 285.272 316.991 285.459C315.687 285.645 314.322 285.738 312.894 285.738C311.529 285.738 310.288 285.645 309.17 285.459C308.115 285.272 307.215 284.9 306.47 284.341C305.726 283.783 305.136 283.038 304.702 282.107C304.329 281.114 304.143 279.842 304.143 278.29V257.622C304.143 255.077 303.491 253.308 302.188 252.315C300.946 251.26 299.395 250.732 297.533 250.732C296.291 250.732 295.112 250.887 293.995 251.198C292.878 251.508 291.978 251.88 291.295 252.315V284.9C290.674 285.086 289.681 285.272 288.316 285.459C287.012 285.645 285.647 285.738 284.219 285.738C282.854 285.738 281.613 285.645 280.495 285.459C279.44 285.272 278.54 284.9 277.795 284.341C277.051 283.783 276.461 283.038 276.026 282.107C275.654 281.114 275.468 279.842 275.468 278.29V224.291C276.151 224.167 277.144 224.012 278.447 223.826C279.813 223.578 281.178 223.454 282.544 223.454C283.909 223.454 285.119 223.547 286.174 223.733C287.292 223.919 288.223 224.291 288.967 224.85C289.712 225.409 290.271 226.184 290.643 227.178C291.078 228.109 291.295 229.35 291.295 230.902V240.025C292.102 239.715 293.312 239.374 294.926 239.001C296.602 238.567 298.433 238.35 300.419 238.35C306.564 238.35 311.343 239.901 314.756 243.005C318.232 246.046 319.97 250.608 319.97 256.691V284.9Z" fill="#FFD16D"/>
<path d="M355.373 284.904C331.004 282.913 327.631 249.759 328.858 232.84C328.858 232.431 329.239 232.431 330.03 232.431H330.03C331.352 232.431 339.839 231.284 340.985 232.431C341.888 233.335 340.162 241.215 340.985 248.705C341.929 257.295 342.905 262.649 348.21 271.307C353.516 279.964 356.559 278.18 358.446 277.635C364.109 275.999 366.876 273.416 373.761 259.684C378.218 250.792 375.907 242.957 375.907 233.034C375.907 231.807 380.724 232.453 381.235 232.453C382.831 232.431 385.317 232.569 385.954 232.687C386.898 232.862 386.712 233.53 386.745 233.938C388.161 251.527 379.742 286.895 355.373 284.904Z" fill="#FFD16D"/>
<path d="M329.313 248.102C330.739 248.393 334.432 248.204 334.432 251.521C334.432 255.667 331.495 258.504 334.432 260.686C337.369 262.869 336.194 262.141 338.795 264.76C341.397 267.379 339.467 272.471 342.655 273.198C345.844 273.925 346.963 273.091 348.026 274.144C349.788 275.889 346.935 277.199 349.368 277.926C351.802 278.654 349.704 280.836 355.998 277.926C362.291 275.017 363.382 279.963 367.494 277.053C371.606 274.144 369.843 274.798 370.431 271.67C371.018 268.543 371.689 265.706 375.717 264.76C379.745 263.814 381.675 260.905 380.836 258.795C379.997 256.686 380.165 255.958 381.759 254.212C383.353 252.467 384.696 251.23 384.025 249.339C383.353 247.447 384.78 244.756 385.871 244.392C386.412 244.212 386.637 244.134 386.71 244.107C386.71 244.105 386.71 244.103 386.71 244.101C386.742 244.092 386.754 244.09 386.71 244.107C386.513 247.965 385.484 257.037 382.934 262.505C379.745 269.343 375.969 275.671 374.375 277.053C372.78 278.435 366.571 284.909 361.284 285.128C355.998 285.346 350.879 285.782 344.837 281.854C338.795 277.926 338.989 276.644 334.935 270.143C331.579 264.76 329.641 251.33 329.313 249.339C329.145 248.32 328.977 248.029 329.313 248.102Z" fill="#FFB3AE"/>
<path d="M361.368 278.508L362.345 279.777" stroke="#FF9393" stroke-opacity="0.66" stroke-width="0.603927" stroke-linecap="round"/>
<path d="M366.067 281.2L367.044 282.469" stroke="#FF9393" stroke-opacity="0.66" stroke-width="0.603927" stroke-linecap="round"/>
<path d="M384.025 254.503L385.001 255.773" stroke="#FF9393" stroke-opacity="0.66" stroke-width="0.603927" stroke-linecap="round"/>
<path d="M336.866 269.607L337.842 270.876" stroke="#FF9393" stroke-opacity="0.66" stroke-width="0.603927" stroke-linecap="round"/>
<path d="M368.857 279.084L369.833 280.354" stroke="#FF9393" stroke-opacity="0.66" stroke-width="0.603927" stroke-linecap="round"/>
<path d="M372.109 270.215L372.445 270.797" stroke="#FF9393" stroke-opacity="0.66" stroke-width="0.603927" stroke-linecap="round"/>
<path d="M371.773 275.162L372.109 275.744" stroke="#FF9393" stroke-opacity="0.66" stroke-width="0.603927" stroke-linecap="round"/>
<path d="M345.257 274.871L346.233 276.141" stroke="#FF9393" stroke-opacity="0.66" stroke-width="0.603927" stroke-linecap="round"/>
<path d="M356.333 282.436L357.31 283.706" stroke="#FF9393" stroke-opacity="0.66" stroke-width="0.603927" stroke-linecap="round"/>
<path d="M371.089 276.908L372.065 278.177" stroke="#FF9393" stroke-opacity="0.66" stroke-width="0.603927" stroke-linecap="round"/>
<path d="M382.179 257.268L383.156 258.537" stroke="#FF9393" stroke-opacity="0.66" stroke-width="0.603927" stroke-linecap="round"/>
<path d="M334.684 266.287L335.66 267.557" stroke="#FF9393" stroke-opacity="0.66" stroke-width="0.603927" stroke-linecap="round"/>
<path d="M342.236 274.871L343.212 276.141" stroke="#FF9393" stroke-opacity="0.66" stroke-width="0.603927" stroke-linecap="round"/>
<path d="M351.97 281.127L352.947 282.396" stroke="#FF9393" stroke-opacity="0.66" stroke-width="0.603927" stroke-linecap="round"/>
<path d="M337.354 272.146L338.33 273.416" stroke="#FF9393" stroke-opacity="0.66" stroke-width="0.603927" stroke-linecap="round"/>
<path d="M339.864 274.262L340.841 275.532" stroke="#FF9393" stroke-opacity="0.66" stroke-width="0.603927" stroke-linecap="round"/>
<path d="M378.487 265.706L379.463 266.975" stroke="#FF9393" stroke-opacity="0.66" stroke-width="0.603927" stroke-linecap="round"/>
<path d="M381.004 263.087L381.676 263.96" stroke="#FF9393" stroke-opacity="0.66" stroke-width="0.603927" stroke-linecap="round"/>
<path d="M377.983 268.47L378.96 269.739" stroke="#FF9393" stroke-opacity="0.66" stroke-width="0.603927" stroke-linecap="round"/>
<path d="M375.298 268.906L375.969 269.779" stroke="#FF9393" stroke-opacity="0.66" stroke-width="0.603927" stroke-linecap="round"/>
<path d="M374.291 272.543L374.962 273.416" stroke="#FF9393" stroke-opacity="0.66" stroke-width="0.603927" stroke-linecap="round"/>
<path d="M333.005 250.284L333.698 251.184" stroke="#FF9393" stroke-opacity="0.66" stroke-width="0.428221" stroke-linecap="round"/>
<path d="M330.824 254.243L331.516 255.143" stroke="#FF9393" stroke-opacity="0.66" stroke-width="0.428221" stroke-linecap="round"/>
<path d="M330.824 250.139L331.516 251.039" stroke="#FF9393" stroke-opacity="0.66" stroke-width="0.428221" stroke-linecap="round"/>
<path d="M361.368 281.709L362.345 282.979" stroke="#FF9393" stroke-opacity="0.66" stroke-width="0.603927" stroke-linecap="round"/>
<path d="M363.886 279.09L364.557 279.963" stroke="#FF9393" stroke-opacity="0.66" stroke-width="0.603927" stroke-linecap="round"/>
<path d="M363.214 281.854L364.191 283.124" stroke="#FF9393" stroke-opacity="0.66" stroke-width="0.603927" stroke-linecap="round"/>
<path d="M374.626 274.289L375.298 275.162" stroke="#FF9393" stroke-opacity="0.66" stroke-width="0.603927" stroke-linecap="round"/>
<path d="M356.333 279.381L357.005 280.254" stroke="#FF9393" stroke-opacity="0.66" stroke-width="0.603927" stroke-linecap="round"/>
<path d="M347.942 280.545L348.635 281.445" stroke="#FF9393" stroke-opacity="0.66" stroke-width="0.428221" stroke-linecap="round"/>
<path d="M359.019 283.309L359.711 284.209" stroke="#FF9393" stroke-opacity="0.66" stroke-width="0.428221" stroke-linecap="round"/>
<path d="M345.76 280.399L346.453 281.3" stroke="#FF9393" stroke-opacity="0.66" stroke-width="0.428221" stroke-linecap="round"/>
<path d="M333.341 260.905L334.034 261.805" stroke="#FF9393" stroke-opacity="0.66" stroke-width="0.428221" stroke-linecap="round"/>
<path d="M358.851 280.545L359.827 281.814" stroke="#FF9393" stroke-opacity="0.66" stroke-width="0.603927" stroke-linecap="round"/>
<path d="M344.25 277.542L345.226 278.811" stroke="#FF9393" stroke-opacity="0.66" stroke-width="0.603927" stroke-linecap="round"/>
<path d="M332.837 254.503L333.53 255.404" stroke="#FF9393" stroke-opacity="0.66" stroke-width="0.428221" stroke-linecap="round"/>
<path d="M336.53 264.25L337.222 265.151" stroke="#FF9393" stroke-opacity="0.66" stroke-width="0.428221" stroke-linecap="round"/>
<path d="M331.831 257.413L332.523 258.313" stroke="#FF9393" stroke-opacity="0.66" stroke-width="0.428221" stroke-linecap="round"/>
<path d="M347.606 278.363L348.583 279.632" stroke="#FF9393" stroke-opacity="0.66" stroke-width="0.603927" stroke-linecap="round"/>
<path d="M350.124 282.436L351.1 283.706" stroke="#FF9393" stroke-opacity="0.66" stroke-width="0.603927" stroke-linecap="round"/>
<path d="M337.705 267.015L338.397 267.915" stroke="#FF9393" stroke-opacity="0.66" stroke-width="0.428221" stroke-linecap="round"/>
<path d="M75.6289 346.358C70.7709 346.358 67.0484 347.841 64.4617 350.806C61.8749 353.771 60.5815 357.967 60.5815 363.393C60.5815 368.882 62.0011 373.109 64.8402 376.074C67.7425 379.039 71.6226 380.522 76.4807 380.522C79.0675 380.522 81.2441 380.175 83.0107 379.481C84.8404 378.787 86.5754 377.998 88.2158 377.115C89.2883 377.998 90.1085 379.071 90.6764 380.333C91.3073 381.532 91.6228 382.951 91.6228 384.592C91.6228 387.178 90.1716 389.387 87.2694 391.216C84.4303 392.983 80.0769 393.866 74.2094 393.866C69.9822 393.866 66.0074 393.267 62.285 392.068C58.5626 390.869 55.3133 389.04 52.5373 386.579C49.7613 384.055 47.553 380.901 45.9126 377.115C44.3354 373.267 43.5467 368.692 43.5467 363.393C43.5467 358.472 44.3038 354.15 45.818 350.427C47.3953 346.642 49.5089 343.456 52.1587 340.869C54.8717 338.282 58.0263 336.326 61.6225 335.001C65.2188 333.676 69.0674 333.014 73.1684 333.014C78.9728 333.014 83.4523 333.96 86.6069 335.853C89.8246 337.746 91.4335 340.175 91.4335 343.14C91.4335 344.781 91.0234 346.2 90.2032 347.399C89.383 348.598 88.4366 349.544 87.364 350.238C85.7237 349.165 83.9571 348.251 82.0643 347.494C80.2347 346.736 78.0895 346.358 75.6289 346.358ZM144.647 392.068C144.016 392.257 143.007 392.447 141.619 392.636C140.294 392.825 138.906 392.92 137.455 392.92C136.067 392.92 134.805 392.825 133.669 392.636C132.597 392.447 131.682 392.068 130.925 391.5C130.168 390.932 129.568 390.175 129.127 389.229C128.748 388.219 128.559 386.926 128.559 385.349V364.339C128.559 361.752 127.896 359.954 126.571 358.945C125.31 357.872 123.732 357.336 121.84 357.336C120.578 357.336 119.379 357.494 118.243 357.809C117.108 358.125 116.193 358.503 115.499 358.945V392.068C114.868 392.257 113.858 392.447 112.47 392.636C111.146 392.825 109.757 392.92 108.306 392.92C106.918 392.92 105.657 392.825 104.521 392.636C103.448 392.447 102.533 392.068 101.776 391.5C101.019 390.932 100.42 390.175 99.9782 389.229C99.5997 388.219 99.4104 386.926 99.4104 385.349V330.459C100.104 330.333 101.114 330.175 102.439 329.986C103.827 329.733 105.215 329.607 106.603 329.607C107.991 329.607 109.221 329.702 110.294 329.891C111.429 330.08 112.376 330.459 113.133 331.027C113.89 331.594 114.458 332.383 114.836 333.392C115.278 334.339 115.499 335.601 115.499 337.178V346.452C116.319 346.137 117.549 345.79 119.19 345.411C120.893 344.97 122.754 344.749 124.773 344.749C131.019 344.749 135.878 346.326 139.348 349.481C142.881 352.572 144.647 357.21 144.647 363.393V392.068Z" fill="#FFD16D"/>
<path d="M180.635 392.899C155.863 390.871 152.434 357.099 153.682 339.865C153.682 339.448 154.069 339.448 154.873 339.448H154.873C156.217 339.448 164.844 338.279 166.009 339.448C166.927 340.369 165.173 348.396 166.009 356.025C166.969 364.775 167.96 370.229 173.354 379.048C178.747 387.868 181.84 386.05 183.759 385.495C189.514 383.828 192.327 381.197 199.326 367.209C203.857 358.151 201.508 350.17 201.508 340.062C201.508 338.812 206.404 339.47 206.924 339.47C208.546 339.448 211.073 339.588 211.72 339.709C212.68 339.887 212.491 340.567 212.525 340.983C213.964 358.9 205.406 394.928 180.635 392.899Z" fill="#FFD16D"/>
<path d="M154.145 355.411C155.595 355.708 159.348 355.515 159.348 358.894C159.348 363.117 156.363 366.007 159.348 368.23C162.333 370.453 161.139 369.712 163.784 372.38C166.428 375.047 164.466 380.234 167.707 380.975C170.949 381.716 172.086 380.866 173.166 381.938C174.958 383.717 172.058 385.05 174.531 385.791C177.005 386.532 174.872 388.755 181.27 385.791C187.667 382.828 188.776 387.866 192.956 384.902C197.136 381.938 195.344 382.605 195.941 379.419C196.538 376.233 197.221 373.343 201.315 372.38C205.41 371.416 207.371 368.453 206.518 366.304C205.665 364.155 205.836 363.414 207.457 361.635C209.077 359.857 210.442 358.597 209.76 356.671C209.077 354.744 210.528 352.003 211.636 351.632C212.186 351.448 212.415 351.369 212.489 351.341C212.489 351.339 212.489 351.338 212.489 351.336C212.522 351.326 212.535 351.324 212.489 351.341C212.289 355.272 211.243 364.513 208.651 370.083C205.41 377.048 201.571 383.494 199.95 384.902C198.33 386.31 192.018 392.905 186.644 393.127C181.27 393.349 176.067 393.794 169.925 389.793C163.784 385.791 163.981 384.485 159.86 377.863C156.448 372.38 154.478 358.7 154.145 356.671C153.974 355.634 153.804 355.337 154.145 355.411Z" fill="#FFB3AE"/>
<path d="M186.729 386.384L187.722 387.677" stroke="#FF9393" stroke-opacity="0.66" stroke-width="0.613898" stroke-linecap="round"/>
<path d="M191.506 389.126L192.499 390.419" stroke="#FF9393" stroke-opacity="0.66" stroke-width="0.613898" stroke-linecap="round"/>
<path d="M209.76 361.932L210.753 363.225" stroke="#FF9393" stroke-opacity="0.66" stroke-width="0.613898" stroke-linecap="round"/>
<path d="M161.822 377.317L162.814 378.61" stroke="#FF9393" stroke-opacity="0.66" stroke-width="0.613898" stroke-linecap="round"/>
<path d="M194.342 386.971L195.334 388.264" stroke="#FF9393" stroke-opacity="0.66" stroke-width="0.613898" stroke-linecap="round"/>
<path d="M197.648 377.937L197.989 378.529" stroke="#FF9393" stroke-opacity="0.66" stroke-width="0.613898" stroke-linecap="round"/>
<path d="M197.307 382.975L197.648 383.568" stroke="#FF9393" stroke-opacity="0.66" stroke-width="0.613898" stroke-linecap="round"/>
<path d="M170.352 382.679L171.345 383.972" stroke="#FF9393" stroke-opacity="0.66" stroke-width="0.613898" stroke-linecap="round"/>
<path d="M181.611 390.385L182.604 391.678" stroke="#FF9393" stroke-opacity="0.66" stroke-width="0.613898" stroke-linecap="round"/>
<path d="M196.61 384.754L197.603 386.047" stroke="#FF9393" stroke-opacity="0.66" stroke-width="0.613898" stroke-linecap="round"/>
<path d="M207.884 364.747L208.876 366.04" stroke="#FF9393" stroke-opacity="0.66" stroke-width="0.613898" stroke-linecap="round"/>
<path d="M159.604 373.936L160.597 375.229" stroke="#FF9393" stroke-opacity="0.66" stroke-width="0.613898" stroke-linecap="round"/>
<path d="M167.281 382.679L168.274 383.972" stroke="#FF9393" stroke-opacity="0.66" stroke-width="0.613898" stroke-linecap="round"/>
<path d="M177.176 389.051L178.168 390.344" stroke="#FF9393" stroke-opacity="0.66" stroke-width="0.613898" stroke-linecap="round"/>
<path d="M162.318 379.903L163.311 381.197" stroke="#FF9393" stroke-opacity="0.66" stroke-width="0.613898" stroke-linecap="round"/>
<path d="M164.871 382.059L165.863 383.352" stroke="#FF9393" stroke-opacity="0.66" stroke-width="0.613898" stroke-linecap="round"/>
<path d="M204.13 373.343L205.123 374.636" stroke="#FF9393" stroke-opacity="0.66" stroke-width="0.613898" stroke-linecap="round"/>
<path d="M206.689 370.675L207.372 371.564" stroke="#FF9393" stroke-opacity="0.66" stroke-width="0.613898" stroke-linecap="round"/>
<path d="M203.619 376.158L204.611 377.451" stroke="#FF9393" stroke-opacity="0.66" stroke-width="0.613898" stroke-linecap="round"/>
<path d="M200.889 376.603L201.572 377.492" stroke="#FF9393" stroke-opacity="0.66" stroke-width="0.613898" stroke-linecap="round"/>
<path d="M199.865 380.308L200.548 381.197" stroke="#FF9393" stroke-opacity="0.66" stroke-width="0.613898" stroke-linecap="round"/>
<path d="M157.898 357.634L158.602 358.551" stroke="#FF9393" stroke-opacity="0.66" stroke-width="0.435291" stroke-linecap="round"/>
<path d="M155.681 361.667L156.384 362.584" stroke="#FF9393" stroke-opacity="0.66" stroke-width="0.435291" stroke-linecap="round"/>
<path d="M155.681 357.486L156.384 358.403" stroke="#FF9393" stroke-opacity="0.66" stroke-width="0.435291" stroke-linecap="round"/>
<path d="M186.729 389.645L187.722 390.938" stroke="#FF9393" stroke-opacity="0.66" stroke-width="0.613898" stroke-linecap="round"/>
<path d="M189.289 386.977L189.971 387.866" stroke="#FF9393" stroke-opacity="0.66" stroke-width="0.613898" stroke-linecap="round"/>
<path d="M188.606 389.792L189.598 391.086" stroke="#FF9393" stroke-opacity="0.66" stroke-width="0.613898" stroke-linecap="round"/>
<path d="M200.207 382.086L200.889 382.976" stroke="#FF9393" stroke-opacity="0.66" stroke-width="0.613898" stroke-linecap="round"/>
<path d="M181.611 387.273L182.294 388.162" stroke="#FF9393" stroke-opacity="0.66" stroke-width="0.613898" stroke-linecap="round"/>
<path d="M173.082 388.458L173.785 389.375" stroke="#FF9393" stroke-opacity="0.66" stroke-width="0.435291" stroke-linecap="round"/>
<path d="M184.341 391.274L185.045 392.191" stroke="#FF9393" stroke-opacity="0.66" stroke-width="0.435291" stroke-linecap="round"/>
<path d="M170.864 388.31L171.567 389.227" stroke="#FF9393" stroke-opacity="0.66" stroke-width="0.435291" stroke-linecap="round"/>
<path d="M158.239 368.452L158.943 369.369" stroke="#FF9393" stroke-opacity="0.66" stroke-width="0.435291" stroke-linecap="round"/>
<path d="M184.17 388.458L185.163 389.752" stroke="#FF9393" stroke-opacity="0.66" stroke-width="0.613898" stroke-linecap="round"/>
<path d="M169.328 385.399L170.321 386.693" stroke="#FF9393" stroke-opacity="0.66" stroke-width="0.613898" stroke-linecap="round"/>
<path d="M157.728 361.932L158.431 362.849" stroke="#FF9393" stroke-opacity="0.66" stroke-width="0.435291" stroke-linecap="round"/>
<path d="M161.481 371.861L162.185 372.778" stroke="#FF9393" stroke-opacity="0.66" stroke-width="0.435291" stroke-linecap="round"/>
<path d="M156.704 364.896L157.408 365.812" stroke="#FF9393" stroke-opacity="0.66" stroke-width="0.435291" stroke-linecap="round"/>
<path d="M172.74 386.235L173.733 387.529" stroke="#FF9393" stroke-opacity="0.66" stroke-width="0.613898" stroke-linecap="round"/>
<path d="M175.299 390.385L176.292 391.678" stroke="#FF9393" stroke-opacity="0.66" stroke-width="0.613898" stroke-linecap="round"/>
<path d="M162.675 374.676L163.379 375.593" stroke="#FF9393" stroke-opacity="0.66" stroke-width="0.435291" stroke-linecap="round"/>
<path d="M199.874 439.679C195.016 439.679 191.294 441.162 188.707 444.127C186.12 447.092 184.827 451.288 184.827 456.714C184.827 462.203 186.246 466.43 189.085 469.395C191.988 472.361 195.868 473.843 200.726 473.843C203.313 473.843 205.489 473.496 207.256 472.802C209.085 472.108 210.821 471.32 212.461 470.436C213.533 471.32 214.354 472.392 214.921 473.654C215.552 474.853 215.868 476.272 215.868 477.913C215.868 480.5 214.417 482.708 211.515 484.538C208.675 486.304 204.322 487.187 198.454 487.187C194.227 487.187 190.253 486.588 186.53 485.389C182.808 484.191 179.558 482.361 176.782 479.9C174.006 477.377 171.798 474.222 170.158 470.436C168.58 466.588 167.792 462.014 167.792 456.714C167.792 451.793 168.549 447.471 170.063 443.749C171.64 439.963 173.754 436.777 176.404 434.19C179.117 431.603 182.271 429.648 185.868 428.323C189.464 426.998 193.313 426.335 197.413 426.335C203.218 426.335 207.697 427.282 210.852 429.174C214.07 431.067 215.679 433.496 215.679 436.461C215.679 438.102 215.268 439.521 214.448 440.72C213.628 441.919 212.682 442.865 211.609 443.559C209.969 442.487 208.202 441.572 206.309 440.815C204.48 440.058 202.335 439.679 199.874 439.679ZM268.892 485.389C268.262 485.579 267.252 485.768 265.864 485.957C264.539 486.146 263.151 486.241 261.7 486.241C260.312 486.241 259.05 486.146 257.914 485.957C256.842 485.768 255.927 485.389 255.17 484.821C254.413 484.254 253.813 483.496 253.372 482.55C252.993 481.541 252.804 480.247 252.804 478.67V457.66C252.804 455.074 252.142 453.275 250.817 452.266C249.555 451.193 247.977 450.657 246.085 450.657C244.823 450.657 243.624 450.815 242.488 451.13C241.353 451.446 240.438 451.824 239.744 452.266V485.389C239.113 485.579 238.104 485.768 236.716 485.957C235.391 486.146 234.003 486.241 232.551 486.241C231.163 486.241 229.902 486.146 228.766 485.957C227.693 485.768 226.779 485.389 226.021 484.821C225.264 484.254 224.665 483.496 224.223 482.55C223.845 481.541 223.656 480.247 223.656 478.67V423.78C224.35 423.654 225.359 423.496 226.684 423.307C228.072 423.054 229.46 422.928 230.848 422.928C232.236 422.928 233.466 423.023 234.539 423.212C235.675 423.401 236.621 423.78 237.378 424.348C238.135 424.916 238.703 425.704 239.082 426.714C239.523 427.66 239.744 428.922 239.744 430.499V439.774C240.564 439.458 241.794 439.111 243.435 438.733C245.138 438.291 247 438.07 249.018 438.07C255.265 438.07 260.123 439.648 263.593 442.802C267.126 445.894 268.892 450.531 268.892 456.714V485.389Z" fill="#FFD16D"/>
<path d="M304.88 486.221C280.108 484.192 276.68 450.42 277.927 433.186C277.927 432.77 278.314 432.77 279.118 432.77H279.118C280.462 432.769 289.089 431.601 290.254 432.77C291.172 433.69 289.418 441.717 290.254 449.346C291.214 458.096 292.206 463.55 297.599 472.37C302.992 481.189 306.085 479.372 308.004 478.816C313.76 477.149 316.572 474.518 323.571 460.53C328.102 451.473 325.753 443.492 325.753 433.383C325.753 432.133 330.649 432.792 331.169 432.792C332.791 432.769 335.318 432.909 335.966 433.03C336.925 433.208 336.736 433.889 336.77 434.304C338.209 452.221 329.651 488.249 304.88 486.221Z" fill="#FFD16D"/>
<path d="M278.39 448.733C279.84 449.029 283.593 448.836 283.593 452.215C283.593 456.439 280.608 459.329 283.593 461.552C286.579 463.774 285.384 463.033 288.029 465.701C290.673 468.369 288.711 473.555 291.952 474.296C295.194 475.037 296.331 474.187 297.412 475.26C299.203 477.038 296.303 478.372 298.776 479.113C301.25 479.854 299.118 482.077 305.515 479.113C311.912 476.149 313.021 481.188 317.201 478.224C321.381 475.26 319.589 475.927 320.186 472.74C320.784 469.554 321.466 466.664 325.56 465.701C329.655 464.738 331.617 461.774 330.764 459.625C329.911 457.476 330.081 456.735 331.702 454.957C333.323 453.178 334.687 451.919 334.005 449.992C333.323 448.066 334.773 445.324 335.882 444.954C336.432 444.77 336.66 444.69 336.734 444.663C336.734 444.661 336.734 444.659 336.735 444.657C336.767 444.648 336.78 444.646 336.734 444.663C336.535 448.593 335.488 457.834 332.896 463.404C329.655 470.369 325.816 476.816 324.196 478.224C322.575 479.631 316.263 486.226 310.889 486.448C305.515 486.671 300.312 487.115 294.17 483.114C288.029 479.113 288.226 477.807 284.105 471.184C280.693 465.701 278.724 452.021 278.39 449.992C278.219 448.955 278.049 448.658 278.39 448.733Z" fill="#FFB3AE"/>
<path d="M310.974 479.705L311.967 480.998" stroke="#FF9393" stroke-opacity="0.66" stroke-width="0.613898" stroke-linecap="round"/>
<path d="M315.751 482.448L316.743 483.741" stroke="#FF9393" stroke-opacity="0.66" stroke-width="0.613898" stroke-linecap="round"/>
<path d="M334.005 455.253L334.997 456.546" stroke="#FF9393" stroke-opacity="0.66" stroke-width="0.613898" stroke-linecap="round"/>
<path d="M286.067 470.638L287.059 471.931" stroke="#FF9393" stroke-opacity="0.66" stroke-width="0.613898" stroke-linecap="round"/>
<path d="M318.587 480.292L319.579 481.585" stroke="#FF9393" stroke-opacity="0.66" stroke-width="0.613898" stroke-linecap="round"/>
<path d="M321.893 471.258L322.234 471.851" stroke="#FF9393" stroke-opacity="0.66" stroke-width="0.613898" stroke-linecap="round"/>
<path d="M321.551 476.297L321.892 476.89" stroke="#FF9393" stroke-opacity="0.66" stroke-width="0.613898" stroke-linecap="round"/>
<path d="M294.597 476L295.589 477.294" stroke="#FF9393" stroke-opacity="0.66" stroke-width="0.613898" stroke-linecap="round"/>
<path d="M305.856 483.707L306.849 485" stroke="#FF9393" stroke-opacity="0.66" stroke-width="0.613898" stroke-linecap="round"/>
<path d="M320.855 478.075L321.848 479.368" stroke="#FF9393" stroke-opacity="0.66" stroke-width="0.613898" stroke-linecap="round"/>
<path d="M332.128 458.069L333.121 459.362" stroke="#FF9393" stroke-opacity="0.66" stroke-width="0.613898" stroke-linecap="round"/>
<path d="M283.849 467.257L284.842 468.55" stroke="#FF9393" stroke-opacity="0.66" stroke-width="0.613898" stroke-linecap="round"/>
<path d="M291.526 476L292.518 477.294" stroke="#FF9393" stroke-opacity="0.66" stroke-width="0.613898" stroke-linecap="round"/>
<path d="M301.421 482.373L302.413 483.666" stroke="#FF9393" stroke-opacity="0.66" stroke-width="0.613898" stroke-linecap="round"/>
<path d="M286.563 473.225L287.555 474.518" stroke="#FF9393" stroke-opacity="0.66" stroke-width="0.613898" stroke-linecap="round"/>
<path d="M289.115 475.38L290.108 476.674" stroke="#FF9393" stroke-opacity="0.66" stroke-width="0.613898" stroke-linecap="round"/>
<path d="M328.375 466.664L329.368 467.957" stroke="#FF9393" stroke-opacity="0.66" stroke-width="0.613898" stroke-linecap="round"/>
<path d="M330.934 463.997L331.616 464.886" stroke="#FF9393" stroke-opacity="0.66" stroke-width="0.613898" stroke-linecap="round"/>
<path d="M327.863 469.48L328.856 470.773" stroke="#FF9393" stroke-opacity="0.66" stroke-width="0.613898" stroke-linecap="round"/>
<path d="M325.134 469.925L325.816 470.814" stroke="#FF9393" stroke-opacity="0.66" stroke-width="0.613898" stroke-linecap="round"/>
<path d="M324.11 473.629L324.793 474.519" stroke="#FF9393" stroke-opacity="0.66" stroke-width="0.613898" stroke-linecap="round"/>
<path d="M282.143 450.956L282.847 451.873" stroke="#FF9393" stroke-opacity="0.66" stroke-width="0.435291" stroke-linecap="round"/>
<path d="M279.925 454.989L280.629 455.906" stroke="#FF9393" stroke-opacity="0.66" stroke-width="0.435291" stroke-linecap="round"/>
<path d="M279.925 450.807L280.629 451.724" stroke="#FF9393" stroke-opacity="0.66" stroke-width="0.435291" stroke-linecap="round"/>
<path d="M310.974 482.966L311.967 484.259" stroke="#FF9393" stroke-opacity="0.66" stroke-width="0.613898" stroke-linecap="round"/>
<path d="M313.533 480.298L314.216 481.188" stroke="#FF9393" stroke-opacity="0.66" stroke-width="0.613898" stroke-linecap="round"/>
<path d="M312.851 483.114L313.843 484.407" stroke="#FF9393" stroke-opacity="0.66" stroke-width="0.613898" stroke-linecap="round"/>
<path d="M324.452 475.408L325.134 476.297" stroke="#FF9393" stroke-opacity="0.66" stroke-width="0.613898" stroke-linecap="round"/>
<path d="M305.856 480.595L306.539 481.484" stroke="#FF9393" stroke-opacity="0.66" stroke-width="0.613898" stroke-linecap="round"/>
<path d="M297.326 481.78L298.03 482.697" stroke="#FF9393" stroke-opacity="0.66" stroke-width="0.435291" stroke-linecap="round"/>
<path d="M308.586 484.596L309.29 485.513" stroke="#FF9393" stroke-opacity="0.66" stroke-width="0.435291" stroke-linecap="round"/>
<path d="M295.109 481.632L295.813 482.549" stroke="#FF9393" stroke-opacity="0.66" stroke-width="0.435291" stroke-linecap="round"/>
<path d="M282.484 461.773L283.188 462.69" stroke="#FF9393" stroke-opacity="0.66" stroke-width="0.435291" stroke-linecap="round"/>
<path d="M308.416 481.78L309.408 483.073" stroke="#FF9393" stroke-opacity="0.66" stroke-width="0.613898" stroke-linecap="round"/>
<path d="M293.573 478.721L294.566 480.014" stroke="#FF9393" stroke-opacity="0.66" stroke-width="0.613898" stroke-linecap="round"/>
<path d="M281.973 455.253L282.676 456.17" stroke="#FF9393" stroke-opacity="0.66" stroke-width="0.435291" stroke-linecap="round"/>
<path d="M285.726 465.183L286.429 466.1" stroke="#FF9393" stroke-opacity="0.66" stroke-width="0.435291" stroke-linecap="round"/>
<path d="M280.949 458.217L281.652 459.134" stroke="#FF9393" stroke-opacity="0.66" stroke-width="0.435291" stroke-linecap="round"/>
<path d="M296.985 479.557L297.978 480.85" stroke="#FF9393" stroke-opacity="0.66" stroke-width="0.613898" stroke-linecap="round"/>
<path d="M299.544 483.707L300.536 485" stroke="#FF9393" stroke-opacity="0.66" stroke-width="0.613898" stroke-linecap="round"/>
<path d="M286.92 467.998L287.624 468.915" stroke="#FF9393" stroke-opacity="0.66" stroke-width="0.435291" stroke-linecap="round"/>
</svg>
