<svg width="1920" height="261" viewBox="0 0 1920 261" fill="none" xmlns="http://www.w3.org/2000/svg">
<g clip-path="url(#clip0_226_1190)">
<circle cx="63.1402" cy="69.7422" r="28.0324" transform="rotate(10.4414 63.1402 69.7422)" fill="#B8FBF7"/>
<circle cx="1387" cy="51" r="35" fill="#B8FBF7"/>
<circle cx="832.5" cy="216.5" r="22.5" fill="#B8FBF7"/>
<circle cx="314.5" cy="139" r="21" fill="#D88C71"/>
<circle cx="314.5" cy="139" r="21" fill="#D88C71"/>
<circle cx="314.5" cy="139" r="21" fill="#D88C71"/>
<circle cx="1798.75" cy="138.751" r="86.7512" fill="#D4FBF8"/>
<circle cx="1511.63" cy="169.628" r="31.6281" fill="#D4FBF8"/>
<circle cx="1700.65" cy="68.6512" r="12.6512" fill="#D88C71"/>
<circle cx="1700.65" cy="68.6512" r="12.6512" fill="#D88C71"/>
<circle cx="1700.65" cy="68.6512" r="12.6512" fill="#D88C71"/>
<circle cx="1933.5" cy="309.5" r="53.5" fill="#B8FBF7"/>
<circle cx="1011.5" cy="38.5" r="23.5" fill="#B8FBF7"/>
<circle cx="902.5" cy="162.17" r="7.5" fill="#FFE1E1"/>
<circle cx="376.5" cy="116.5" r="44.5" fill="#FFE1E1"/>
<circle r="43.5" transform="matrix(1 0 0 -1 968.5 264.5)" fill="#FFE1E1"/>
<circle cx="1731" cy="202" r="18" fill="#FFE1E1"/>
<circle cx="1560" cy="39" r="24" fill="#FFE1E1"/>
<circle cx="667" cy="194" r="24" fill="#D88C71"/>
<circle cx="667" cy="194" r="24" fill="#D88C71"/>
<circle cx="667" cy="194" r="24" fill="#D88C71"/>
<circle cx="293.5" cy="50.5" r="23.5" fill="#D88C71"/>
<circle cx="293.5" cy="50.5" r="23.5" fill="#D88C71"/>
<circle cx="293.5" cy="50.5" r="23.5" fill="#D88C71"/>
<circle cx="1885.5" cy="68.5" r="29.5" fill="#D88C71"/>
<circle cx="1885.5" cy="68.5" r="29.5" fill="#D88C71"/>
<circle cx="1885.5" cy="68.5" r="29.5" fill="#D88C71"/>
<circle cx="-15" cy="268" r="57" fill="#D4FBF8"/>
<circle cx="217" cy="188" r="18" fill="#FFE1E1"/>
<circle cx="1405.75" cy="78.75" r="15.75" fill="#D88C71"/>
<circle cx="1405.75" cy="78.75" r="15.75" fill="#D88C71"/>
<circle cx="1405.75" cy="78.75" r="15.75" fill="#D88C71"/>
<circle cx="1298.31" cy="242.308" r="31.6281" transform="rotate(-170.734 1298.31 242.308)" fill="#D4FBF8"/>
<circle cx="1178.55" cy="156.551" r="24" transform="rotate(-170.734 1178.55 156.551)" fill="#FFE1E1"/>
<circle cx="1028.76" cy="64.7604" r="13.6372" transform="rotate(89.4801 1028.76 64.7604)" fill="#D88C71"/>
<circle cx="1028.76" cy="64.7604" r="13.6372" transform="rotate(89.4801 1028.76 64.7604)" fill="#D88C71"/>
<circle cx="1028.76" cy="64.7604" r="13.6372" transform="rotate(89.4801 1028.76 64.7604)" fill="#D88C71"/>
<circle cx="777.902" cy="80.902" r="44.5" transform="rotate(89.4801 777.902 80.902)" fill="#FFE1E1"/>
<circle cx="594.711" cy="55.6068" r="27.5" transform="rotate(89.4801 594.711 55.6068)" fill="#B8FBF7"/>
<g filter="url(#filter0_d_226_1190)">
<path d="M1703.26 294.855C1572.66 282.544 1554.58 70.1255 1561.16 -34.4712C1561.16 -37 1563.2 -37 1567.44 -37H1567.44C1573.16 -37 1587.84 -37 1595.2 -34.3238C1602.56 -31.6475 1597.21 0.149891 1601.62 46.451C1606.68 99.5562 1618.7 162.357 1647.14 215.882C1675.57 269.407 1720.48 262.244 1730.59 258.872C1760.94 248.757 1786.22 215.882 1814.04 142.546C1835.41 86.2091 1833.79 8.53964 1836.8 -24.3559C1836.8 -26.1142 1838.99 -28.9851 1841.86 -29.4135C1849.6 -30.5697 1863.73 -28.699 1867.15 -27.9677C1872.2 -26.8847 1872.03 -24.3501 1872.2 -21.8271C1879.79 86.9121 1833.86 307.165 1703.26 294.855Z" fill="#FFC13C"/>
<g filter="url(#filter1_i_226_1190)">
<path d="M1563.6 67.3357C1571.24 69.1346 1591.03 67.9654 1591.03 88.4723C1591.03 114.106 1575.29 131.645 1591.03 145.136C1606.77 158.627 1600.47 154.13 1614.41 170.32C1628.36 186.51 1618.01 217.99 1635.1 222.487C1652.19 226.984 1659.84 220.688 1663.88 228.333C1667.93 235.978 1658.04 247.221 1671.08 251.718C1684.12 256.215 1672.88 269.706 1706.61 251.718C1740.33 233.729 1746.18 264.31 1768.22 246.321C1790.25 228.333 1780.81 232.38 1783.96 213.043C1787.1 193.705 1790.7 176.166 1812.29 170.32C1833.87 164.474 1844.22 146.485 1839.72 133.444C1835.22 120.402 1836.12 115.905 1844.67 105.112C1853.21 94.3185 1860.41 86.6734 1856.81 74.9809C1853.21 63.2883 1860.86 46.649 1866.7 44.4004C1869.6 43.2852 1870.81 42.8037 1871.2 42.6346C1871.2 42.6236 1871.2 42.6126 1871.2 42.6016C1871.37 42.5446 1871.44 42.5309 1871.2 42.6346C1870.15 66.4882 1864.63 122.576 1850.96 156.379C1833.87 198.652 1813.64 237.777 1805.09 246.321C1796.55 254.866 1763.27 294.89 1734.94 296.239C1706.61 297.589 1679.17 300.287 1646.79 276.002C1614.41 251.718 1615.45 243.79 1593.73 203.599C1575.74 170.32 1565.36 87.2943 1563.6 74.9809C1562.7 68.6849 1561.8 66.886 1563.6 67.3357Z" fill="#865822"/>
</g>
<path d="M1733.59 254.415L1738.82 262.264" stroke="#BC893D" stroke-width="3.73748" stroke-linecap="round"/>
<path d="M1855.01 106.008L1860.24 113.857" stroke="#BC893D" stroke-width="3.73748" stroke-linecap="round"/>
<path d="M1602.27 199.387L1607.5 207.235" stroke="#BC893D" stroke-width="3.73748" stroke-linecap="round"/>
<path d="M1773.72 257.973L1778.96 265.821" stroke="#BC893D" stroke-width="3.73748" stroke-linecap="round"/>
<path d="M1791.15 203.147L1792.95 206.745" stroke="#BC893D" stroke-width="3.73748" stroke-linecap="round"/>
<path d="M1789.35 233.728L1791.15 237.325" stroke="#BC893D" stroke-width="3.73748" stroke-linecap="round"/>
<path d="M1647.24 231.929L1652.48 239.777" stroke="#BC893D" stroke-width="3.73748" stroke-linecap="round"/>
<path d="M1785.68 244.52L1790.91 252.368" stroke="#BC893D" stroke-width="3.73748" stroke-linecap="round"/>
<path d="M1845.12 123.098L1850.35 130.946" stroke="#BC893D" stroke-width="3.73748" stroke-linecap="round"/>
<path d="M1590.58 178.864L1595.81 186.713" stroke="#BC893D" stroke-width="3.73748" stroke-linecap="round"/>
<path d="M1631.05 231.929L1636.29 239.777" stroke="#BC893D" stroke-width="3.73748" stroke-linecap="round"/>
<path d="M1604.89 215.082L1610.12 222.931" stroke="#BC893D" stroke-width="3.73748" stroke-linecap="round"/>
<path d="M1618.34 228.165L1623.58 236.014" stroke="#BC893D" stroke-width="3.73748" stroke-linecap="round"/>
<path d="M1825.33 175.263L1830.56 183.111" stroke="#BC893D" stroke-width="3.73748" stroke-linecap="round"/>
<path d="M1838.82 159.072L1842.42 164.469" stroke="#BC893D" stroke-width="3.73748" stroke-linecap="round"/>
<path d="M1822.63 192.352L1827.86 200.2" stroke="#BC893D" stroke-width="3.73748" stroke-linecap="round"/>
<path d="M1808.24 195.054L1811.84 200.45" stroke="#BC893D" stroke-width="3.73748" stroke-linecap="round"/>
<path d="M1802.85 217.537L1806.44 222.934" stroke="#BC893D" stroke-width="3.73748" stroke-linecap="round"/>
<path d="M1581.59 79.9268L1585.3 85.492" stroke="#BC893D" stroke-width="2.6501" stroke-linecap="round"/>
<path d="M1569.9 104.402L1573.61 109.968" stroke="#BC893D" stroke-width="2.6501" stroke-linecap="round"/>
<path d="M1569.9 79.0234L1573.61 84.5886" stroke="#BC893D" stroke-width="2.6501" stroke-linecap="round"/>
<path d="M1747.08 258.011L1750.68 263.407" stroke="#BC893D" stroke-width="3.73748" stroke-linecap="round"/>
<path d="M1804.65 228.333L1808.24 233.73" stroke="#BC893D" stroke-width="3.73748" stroke-linecap="round"/>
<path d="M1706.6 259.81L1710.2 265.206" stroke="#BC893D" stroke-width="3.73748" stroke-linecap="round"/>
<path d="M1583.39 145.582L1587.1 151.147" stroke="#BC893D" stroke-width="2.6501" stroke-linecap="round"/>
<path d="M1641.85 248.436L1647.08 256.284" stroke="#BC893D" stroke-width="3.73748" stroke-linecap="round"/>
<path d="M1580.69 106.008L1584.4 111.573" stroke="#BC893D" stroke-width="2.6501" stroke-linecap="round"/>
<path d="M1600.48 166.27L1604.19 171.835" stroke="#BC893D" stroke-width="2.6501" stroke-linecap="round"/>
<path d="M1575.29 123.995L1579 129.56" stroke="#BC893D" stroke-width="2.6501" stroke-linecap="round"/>
<path d="M1659.84 253.513L1665.07 261.361" stroke="#BC893D" stroke-width="3.73748" stroke-linecap="round"/>
<path d="M1606.77 183.359L1610.48 188.925" stroke="#BC893D" stroke-width="2.6501" stroke-linecap="round"/>
</g>
<g filter="url(#filter2_d_226_1190)">
<path d="M1187.77 299.686C1037.56 285.527 1016.77 41.2115 1024.33 -79.0914C1024.33 -82 1026.68 -82 1031.55 -82H1031.55C1038.14 -82 1055.02 -82 1063.49 -78.9219C1071.95 -75.8438 1065.8 -39.2717 1070.87 13.982C1076.69 75.0615 1090.52 147.292 1123.22 208.855C1155.93 270.417 1207.57 262.178 1219.21 258.3C1254.11 246.666 1283.19 208.855 1315.19 124.507C1339.77 59.7102 1337.9 -29.6221 1341.37 -67.4573C1341.37 -69.4796 1343.88 -72.7816 1347.18 -73.2744C1356.08 -74.6041 1372.34 -72.4525 1376.27 -71.6114C1382.08 -70.3658 1381.88 -67.4507 1382.08 -64.5487C1390.81 60.5187 1337.98 313.845 1187.77 299.686Z" fill="#FFD16D"/>
<path d="M1027.14 38.0027C1035.93 40.0717 1058.69 38.7269 1058.69 62.3131C1058.69 91.7958 1040.59 111.968 1058.69 127.485C1076.79 143.003 1069.55 137.83 1085.59 156.451C1101.62 175.072 1089.72 211.279 1109.38 216.451C1129.03 221.623 1137.83 214.382 1142.48 223.175C1147.14 231.968 1135.76 244.899 1150.76 250.072C1165.76 255.244 1152.83 270.761 1191.62 250.072C1230.41 229.382 1237.14 264.554 1262.48 243.865C1287.83 223.175 1276.97 227.83 1280.59 205.589C1284.21 183.348 1288.34 163.175 1313.17 156.451C1338 149.727 1349.9 129.037 1344.72 114.037C1339.55 99.0372 1340.59 93.8648 1350.41 81.451C1360.24 69.0372 1368.52 60.2441 1364.38 46.7958C1360.24 33.3475 1369.03 14.2096 1375.76 11.6234C1379.09 10.3407 1380.48 9.787 1380.93 9.59246C1380.93 9.57978 1380.93 9.56711 1380.93 9.55445C1381.13 9.48892 1381.2 9.4732 1380.93 9.59246C1379.72 37.0279 1373.37 101.538 1357.66 140.416C1338 189.037 1314.72 234.037 1304.9 243.865C1295.07 253.692 1256.79 299.727 1224.21 301.279C1191.62 302.83 1160.07 305.934 1122.83 278.003C1085.59 250.072 1086.78 240.953 1061.79 194.727C1041.1 156.451 1029.16 60.9583 1027.14 46.7958C1026.1 39.5544 1025.07 37.4855 1027.14 38.0027Z" fill="#865822"/>
<path d="M1187.77 299.686C1037.56 285.527 1016.77 41.2115 1024.33 -79.0914C1024.33 -82 1026.68 -82 1031.55 -82H1031.55C1038.14 -82 1055.02 -82 1063.49 -78.9219C1071.95 -75.8438 1065.8 -39.2717 1070.87 13.982C1076.69 75.0615 1090.52 147.292 1123.22 208.855C1155.93 270.417 1207.57 262.178 1219.21 258.3C1254.11 246.666 1283.19 208.855 1315.19 124.507C1339.77 59.7102 1337.9 -29.6221 1341.37 -67.4573C1341.37 -69.4796 1343.88 -72.7816 1347.18 -73.2744C1356.08 -74.6041 1372.34 -72.4525 1376.27 -71.6114C1382.08 -70.3658 1381.88 -67.4507 1382.08 -64.5487C1390.81 60.5187 1337.98 313.845 1187.77 299.686Z" fill="#FFD16D"/>
<g filter="url(#filter3_i_226_1190)">
<path d="M1027.14 38.0027C1035.93 40.0717 1058.69 38.7269 1058.69 62.3131C1058.69 91.7958 1040.59 111.968 1058.69 127.485C1076.79 143.003 1069.55 137.83 1085.59 156.451C1101.62 175.072 1089.72 211.279 1109.38 216.451C1129.03 221.623 1137.83 214.382 1142.48 223.175C1147.14 231.968 1135.76 244.899 1150.76 250.072C1165.76 255.244 1152.83 270.761 1191.62 250.072C1230.41 229.382 1237.14 264.554 1262.48 243.865C1287.83 223.175 1276.97 227.83 1280.59 205.589C1284.21 183.348 1288.34 163.175 1313.17 156.451C1338 149.727 1349.9 129.037 1344.72 114.037C1339.55 99.0372 1340.59 93.8648 1350.41 81.451C1360.24 69.0372 1368.52 60.2441 1364.38 46.7958C1360.24 33.3475 1369.03 14.2096 1375.76 11.6234C1379.09 10.3407 1380.48 9.787 1380.93 9.59246C1380.93 9.57978 1380.93 9.56711 1380.93 9.55445C1381.13 9.48892 1381.2 9.4732 1380.93 9.59246C1379.72 37.0279 1373.37 101.538 1357.66 140.416C1338 189.037 1314.72 234.037 1304.9 243.865C1295.07 253.692 1256.79 299.727 1224.21 301.279C1191.62 302.83 1160.07 305.934 1122.83 278.003C1085.59 250.072 1086.78 240.953 1061.79 194.727C1041.1 156.451 1029.16 60.9583 1027.14 46.7958C1026.1 39.5544 1025.07 37.4855 1027.14 38.0027Z" fill="#91B95D"/>
</g>
<path d="M1224.72 252.13L1230.74 261.157" stroke="#1F7600" stroke-opacity="0.66" stroke-width="4.2987" stroke-linecap="round"/>
<path d="M1364.38 81.4414L1370.4 90.4688" stroke="#1F7600" stroke-opacity="0.66" stroke-width="4.2987" stroke-linecap="round"/>
<path d="M1073.69 188.837L1079.71 197.864" stroke="#1F7600" stroke-opacity="0.66" stroke-width="4.2987" stroke-linecap="round"/>
<path d="M1270.88 256.229L1276.9 265.256" stroke="#1F7600" stroke-opacity="0.66" stroke-width="4.2987" stroke-linecap="round"/>
<path d="M1290.93 193.169L1293 197.307" stroke="#1F7600" stroke-opacity="0.66" stroke-width="4.2987" stroke-linecap="round"/>
<path d="M1288.86 228.342L1290.93 232.48" stroke="#1F7600" stroke-opacity="0.66" stroke-width="4.2987" stroke-linecap="round"/>
<path d="M1125.41 226.271L1131.43 235.299" stroke="#1F7600" stroke-opacity="0.66" stroke-width="4.2987" stroke-linecap="round"/>
<path d="M1284.64 240.756L1290.66 249.783" stroke="#1F7600" stroke-opacity="0.66" stroke-width="4.2987" stroke-linecap="round"/>
<path d="M1353 101.102L1359.02 110.129" stroke="#1F7600" stroke-opacity="0.66" stroke-width="4.2987" stroke-linecap="round"/>
<path d="M1060.24 165.235L1066.26 174.263" stroke="#1F7600" stroke-opacity="0.66" stroke-width="4.2987" stroke-linecap="round"/>
<path d="M1106.79 226.271L1112.81 235.299" stroke="#1F7600" stroke-opacity="0.66" stroke-width="4.2987" stroke-linecap="round"/>
<path d="M1076.7 206.899L1082.72 215.927" stroke="#1F7600" stroke-opacity="0.66" stroke-width="4.2987" stroke-linecap="round"/>
<path d="M1092.17 221.943L1098.19 230.971" stroke="#1F7600" stroke-opacity="0.66" stroke-width="4.2987" stroke-linecap="round"/>
<path d="M1330.24 161.098L1336.26 170.125" stroke="#1F7600" stroke-opacity="0.66" stroke-width="4.2987" stroke-linecap="round"/>
<path d="M1345.76 142.48L1349.9 148.687" stroke="#1F7600" stroke-opacity="0.66" stroke-width="4.2987" stroke-linecap="round"/>
<path d="M1327.14 180.752L1333.16 189.779" stroke="#1F7600" stroke-opacity="0.66" stroke-width="4.2987" stroke-linecap="round"/>
<path d="M1310.59 183.854L1314.72 190.062" stroke="#1F7600" stroke-opacity="0.66" stroke-width="4.2987" stroke-linecap="round"/>
<path d="M1304.38 209.72L1308.52 215.927" stroke="#1F7600" stroke-opacity="0.66" stroke-width="4.2987" stroke-linecap="round"/>
<path d="M1049.9 51.4443L1054.16 57.8453" stroke="#1F7600" stroke-opacity="0.66" stroke-width="3.04803" stroke-linecap="round"/>
<path d="M1036.45 79.5957L1040.72 85.9967" stroke="#1F7600" stroke-opacity="0.66" stroke-width="3.04803" stroke-linecap="round"/>
<path d="M1036.45 50.4092L1040.72 56.8102" stroke="#1F7600" stroke-opacity="0.66" stroke-width="3.04803" stroke-linecap="round"/>
<path d="M1240.24 256.271L1244.38 262.479" stroke="#1F7600" stroke-opacity="0.66" stroke-width="4.2987" stroke-linecap="round"/>
<path d="M1306.45 222.134L1310.59 228.341" stroke="#1F7600" stroke-opacity="0.66" stroke-width="4.2987" stroke-linecap="round"/>
<path d="M1193.69 258.338L1197.83 264.545" stroke="#1F7600" stroke-opacity="0.66" stroke-width="4.2987" stroke-linecap="round"/>
<path d="M1051.96 126.961L1056.23 133.362" stroke="#1F7600" stroke-opacity="0.66" stroke-width="3.04803" stroke-linecap="round"/>
<path d="M1119.21 245.263L1125.23 254.29" stroke="#1F7600" stroke-opacity="0.66" stroke-width="4.2987" stroke-linecap="round"/>
<path d="M1048.86 81.4443L1053.13 87.8453" stroke="#1F7600" stroke-opacity="0.66" stroke-width="3.04803" stroke-linecap="round"/>
<path d="M1071.62 150.756L1075.89 157.157" stroke="#1F7600" stroke-opacity="0.66" stroke-width="3.04803" stroke-linecap="round"/>
<path d="M1042.66 102.133L1046.93 108.534" stroke="#1F7600" stroke-opacity="0.66" stroke-width="3.04803" stroke-linecap="round"/>
<path d="M1139.9 251.098L1145.92 260.125" stroke="#1F7600" stroke-opacity="0.66" stroke-width="4.2987" stroke-linecap="round"/>
<path d="M1078.86 170.405L1083.13 176.806" stroke="#1F7600" stroke-opacity="0.66" stroke-width="3.04803" stroke-linecap="round"/>
</g>
<g filter="url(#filter4_d_226_1190)">
<path d="M637.226 314.746C486.597 300.548 465.749 55.5537 473.337 -65.0834C473.337 -68 475.691 -68 480.578 -68H480.578C487.182 -68 504.114 -68 512.602 -64.9133C521.09 -61.8267 514.917 -25.153 520.003 28.2486C525.837 89.4977 539.707 161.929 572.503 223.662C605.298 285.396 657.085 277.134 668.751 273.245C703.751 261.579 732.917 223.662 765 139.08C789.646 74.1038 787.777 -15.4766 791.249 -53.4169C791.249 -55.4449 793.775 -58.756 797.083 -59.2501C806.01 -60.5836 822.31 -58.426 826.249 -57.5825C832.082 -56.3335 831.879 -53.4102 832.082 -50.5003C840.832 74.9146 787.855 328.945 637.226 314.746Z" fill="#FFD16D"/>
<g filter="url(#filter5_i_226_1190)">
<path d="M476.147 52.3328C484.965 54.4075 507.786 53.059 507.786 76.7107C507.786 106.275 489.633 126.504 507.786 142.064C525.94 157.625 518.679 152.438 534.758 171.11C550.837 189.783 538.907 226.09 558.617 231.277C578.327 236.464 585.242 230.511 591.812 238.02C602.704 250.468 585.069 259.804 600.111 264.991C615.153 270.178 602.186 285.738 641.087 264.991C679.988 244.244 686.73 279.514 712.146 258.767C737.561 238.02 726.669 242.688 730.299 220.385C733.93 198.081 738.08 177.853 762.976 171.11C787.873 164.367 799.802 143.62 794.615 128.579C789.429 113.537 790.466 108.35 800.321 95.9018C810.176 83.4536 818.475 74.636 814.325 61.1504C810.176 47.6648 818.993 28.4737 825.736 25.8803C829.08 24.594 830.471 24.0388 830.921 23.8437C830.922 23.831 830.922 23.8183 830.923 23.8056C831.12 23.7399 831.197 23.7241 830.921 23.8437C829.707 51.3553 823.343 116.045 807.582 155.031C787.873 203.787 764.532 248.912 754.677 258.767C744.822 268.622 706.44 314.784 673.763 316.34C641.087 317.896 609.447 321.008 572.103 292.999C534.758 264.991 535.955 255.847 510.899 209.492C490.151 171.11 478.176 75.3522 476.147 61.1504C475.11 53.8889 474.072 51.8142 476.147 52.3328Z" fill="#FFB3AE"/>
</g>
<path d="M814.329 97.9775L820.364 107.03" stroke="#FF9393" stroke-opacity="0.66" stroke-width="4.31064" stroke-linecap="round"/>
<path d="M522.831 205.669L528.866 214.721" stroke="#FF9393" stroke-opacity="0.66" stroke-width="4.31064" stroke-linecap="round"/>
<path d="M740.676 210.007L742.75 214.156" stroke="#FF9393" stroke-opacity="0.66" stroke-width="4.31064" stroke-linecap="round"/>
<path d="M738.602 245.281L740.676 249.431" stroke="#FF9393" stroke-opacity="0.66" stroke-width="4.31064" stroke-linecap="round"/>
<path d="M574.699 243.207L580.734 252.259" stroke="#FF9393" stroke-opacity="0.66" stroke-width="4.31064" stroke-linecap="round"/>
<path d="M734.37 257.729L740.405 266.781" stroke="#FF9393" stroke-opacity="0.66" stroke-width="4.31064" stroke-linecap="round"/>
<path d="M802.918 117.685L808.953 126.737" stroke="#FF9393" stroke-opacity="0.66" stroke-width="4.31064" stroke-linecap="round"/>
<path d="M509.345 181.997L515.38 191.049" stroke="#FF9393" stroke-opacity="0.66" stroke-width="4.31064" stroke-linecap="round"/>
<path d="M556.027 243.207L562.062 252.259" stroke="#FF9393" stroke-opacity="0.66" stroke-width="4.31064" stroke-linecap="round"/>
<path d="M525.85 223.776L531.884 232.829" stroke="#FF9393" stroke-opacity="0.66" stroke-width="4.31064" stroke-linecap="round"/>
<path d="M541.369 238.862L547.404 247.915" stroke="#FF9393" stroke-opacity="0.66" stroke-width="4.31064" stroke-linecap="round"/>
<path d="M780.098 177.853L786.133 186.905" stroke="#FF9393" stroke-opacity="0.66" stroke-width="4.31064" stroke-linecap="round"/>
<path d="M795.657 159.181L799.807 165.405" stroke="#FF9393" stroke-opacity="0.66" stroke-width="4.31064" stroke-linecap="round"/>
<path d="M776.985 197.561L783.02 206.613" stroke="#FF9393" stroke-opacity="0.66" stroke-width="4.31064" stroke-linecap="round"/>
<path d="M760.387 200.676L764.536 206.9" stroke="#FF9393" stroke-opacity="0.66" stroke-width="4.31064" stroke-linecap="round"/>
<path d="M754.161 226.605L758.311 232.83" stroke="#FF9393" stroke-opacity="0.66" stroke-width="4.31064" stroke-linecap="round"/>
<path d="M498.972 67.8936L503.251 74.3122" stroke="#FF9393" stroke-opacity="0.66" stroke-width="3.0565" stroke-linecap="round"/>
<path d="M485.486 96.1201L489.765 102.539" stroke="#FF9393" stroke-opacity="0.66" stroke-width="3.0565" stroke-linecap="round"/>
<path d="M485.486 66.8545L489.765 73.2731" stroke="#FF9393" stroke-opacity="0.66" stroke-width="3.0565" stroke-linecap="round"/>
<path d="M756.235 239.056L760.385 245.28" stroke="#FF9393" stroke-opacity="0.66" stroke-width="4.31064" stroke-linecap="round"/>
<path d="M501.046 143.617L505.325 150.036" stroke="#FF9393" stroke-opacity="0.66" stroke-width="3.0565" stroke-linecap="round"/>
<path d="M568.475 262.247L574.509 271.299" stroke="#FF9393" stroke-opacity="0.66" stroke-width="4.31064" stroke-linecap="round"/>
<path d="M497.934 97.9775L502.213 104.396" stroke="#FF9393" stroke-opacity="0.66" stroke-width="3.0565" stroke-linecap="round"/>
<path d="M520.757 167.479L525.036 173.898" stroke="#FF9393" stroke-opacity="0.66" stroke-width="3.0565" stroke-linecap="round"/>
<path d="M491.712 118.724L495.991 125.142" stroke="#FF9393" stroke-opacity="0.66" stroke-width="3.0565" stroke-linecap="round"/>
<path d="M528.018 187.188L532.297 193.606" stroke="#FF9393" stroke-opacity="0.66" stroke-width="3.0565" stroke-linecap="round"/>
</g>
<g filter="url(#filter6_di_226_1190)">
<path d="M154.784 307.24C14.5858 294.025 -4.818 65.9974 2.24456 -46.2853C2.24449 -49 4.43526 -49 8.98367 -49H8.98372C15.1307 -49 30.8896 -49 38.7901 -46.1271C46.6906 -43.2542 40.9453 -9.12024 45.679 40.5832C51.1083 97.5907 64.0179 165.006 94.5425 222.464C125.067 279.922 173.267 272.233 184.126 268.613C216.701 257.755 243.848 222.464 273.709 143.74C296.648 83.2628 294.909 -0.113998 298.141 -35.4268C298.141 -37.3143 300.491 -40.3962 303.57 -40.8561C311.879 -42.0972 327.05 -40.089 330.716 -39.3039C336.146 -38.1414 335.957 -35.4206 336.146 -32.7121C344.29 84.0175 294.981 320.456 154.784 307.24Z" fill="#FFC13C"/>
</g>
</g>
<defs>
<filter id="filter0_d_226_1190" x="1560" y="-42.2167" width="331.258" height="344.503" filterUnits="userSpaceOnUse" color-interpolation-filters="sRGB">
<feFlood flood-opacity="0" result="BackgroundImageFix"/>
<feColorMatrix in="SourceAlpha" type="matrix" values="0 0 0 0 0 0 0 0 0 0 0 0 0 0 0 0 0 0 127 0" result="hardAlpha"/>
<feOffset dx="13.0417"/>
<feGaussianBlur stdDeviation="2.60833"/>
<feComposite in2="hardAlpha" operator="out"/>
<feColorMatrix type="matrix" values="0 0 0 0 0.658333 0 0 0 0 0.658333 0 0 0 0 0.658333 0 0 0 0.25 0"/>
<feBlend mode="normal" in2="BackgroundImageFix" result="effect1_dropShadow_226_1190"/>
<feBlend mode="normal" in="SourceGraphic" in2="effect1_dropShadow_226_1190" result="shape"/>
</filter>
<filter id="filter1_i_226_1190" x="1562.56" y="42.5576" width="308.796" height="254.512" filterUnits="userSpaceOnUse" color-interpolation-filters="sRGB">
<feFlood flood-opacity="0" result="BackgroundImageFix"/>
<feBlend mode="normal" in="SourceGraphic" in2="BackgroundImageFix" result="shape"/>
<feColorMatrix in="SourceAlpha" type="matrix" values="0 0 0 0 0 0 0 0 0 0 0 0 0 0 0 0 0 0 127 0" result="hardAlpha"/>
<feOffset dx="7.825" dy="10.4333"/>
<feComposite in2="hardAlpha" operator="arithmetic" k2="-1" k3="1"/>
<feColorMatrix type="matrix" values="0 0 0 0 0.666667 0 0 0 0 0.445611 0 0 0 0 0.186111 0 0 0 1 0"/>
<feBlend mode="normal" in2="shape" result="effect1_innerShadow_226_1190"/>
</filter>
<filter id="filter2_d_226_1190" x="1023" y="-87.9016" width="380.656" height="396.037" filterUnits="userSpaceOnUse" color-interpolation-filters="sRGB">
<feFlood flood-opacity="0" result="BackgroundImageFix"/>
<feColorMatrix in="SourceAlpha" type="matrix" values="0 0 0 0 0 0 0 0 0 0 0 0 0 0 0 0 0 0 127 0" result="hardAlpha"/>
<feOffset dx="14.7541"/>
<feGaussianBlur stdDeviation="2.95082"/>
<feComposite in2="hardAlpha" operator="out"/>
<feColorMatrix type="matrix" values="0 0 0 0 0.658333 0 0 0 0 0.658333 0 0 0 0 0.658333 0 0 0 0.25 0"/>
<feBlend mode="normal" in2="BackgroundImageFix" result="effect1_dropShadow_226_1190"/>
<feBlend mode="normal" in="SourceGraphic" in2="effect1_dropShadow_226_1190" result="shape"/>
</filter>
<filter id="filter3_i_226_1190" x="1025.94" y="9.50391" width="355.165" height="292.729" filterUnits="userSpaceOnUse" color-interpolation-filters="sRGB">
<feFlood flood-opacity="0" result="BackgroundImageFix"/>
<feBlend mode="normal" in="SourceGraphic" in2="BackgroundImageFix" result="shape"/>
<feColorMatrix in="SourceAlpha" type="matrix" values="0 0 0 0 0 0 0 0 0 0 0 0 0 0 0 0 0 0 127 0" result="hardAlpha"/>
<feOffset dx="2.95082" dy="11.8033"/>
<feComposite in2="hardAlpha" operator="arithmetic" k2="-1" k3="1"/>
<feColorMatrix type="matrix" values="0 0 0 0 1 0 0 0 0 1 0 0 0 0 1 0 0 0 0.25 0"/>
<feBlend mode="normal" in2="shape" result="effect1_innerShadow_226_1190"/>
</filter>
<filter id="filter4_d_226_1190" x="472" y="-73.5969" width="380.589" height="396.492" filterUnits="userSpaceOnUse" color-interpolation-filters="sRGB">
<feFlood flood-opacity="0" result="BackgroundImageFix"/>
<feColorMatrix in="SourceAlpha" type="matrix" values="0 0 0 0 0 0 0 0 0 0 0 0 0 0 0 0 0 0 127 0" result="hardAlpha"/>
<feOffset dx="13.9922"/>
<feGaussianBlur stdDeviation="2.79845"/>
<feComposite in2="hardAlpha" operator="out"/>
<feColorMatrix type="matrix" values="0 0 0 0 0.658333 0 0 0 0 0.658333 0 0 0 0 0.658333 0 0 0 0.25 0"/>
<feBlend mode="normal" in2="BackgroundImageFix" result="effect1_dropShadow_226_1190"/>
<feBlend mode="normal" in="SourceGraphic" in2="effect1_dropShadow_226_1190" result="shape"/>
</filter>
<filter id="filter5_i_226_1190" x="474.949" y="23.7549" width="356.151" height="293.543" filterUnits="userSpaceOnUse" color-interpolation-filters="sRGB">
<feFlood flood-opacity="0" result="BackgroundImageFix"/>
<feBlend mode="normal" in="SourceGraphic" in2="BackgroundImageFix" result="shape"/>
<feColorMatrix in="SourceAlpha" type="matrix" values="0 0 0 0 0 0 0 0 0 0 0 0 0 0 0 0 0 0 127 0" result="hardAlpha"/>
<feOffset dx="8.39535" dy="11.1938"/>
<feComposite in2="hardAlpha" operator="arithmetic" k2="-1" k3="1"/>
<feColorMatrix type="matrix" values="0 0 0 0 1 0 0 0 0 1 0 0 0 0 1 0 0 0 0.25 0"/>
<feBlend mode="normal" in2="shape" result="effect1_innerShadow_226_1190"/>
</filter>
<filter id="filter6_di_226_1190" x="-9.4186" y="-49" width="356.837" height="377.609" filterUnits="userSpaceOnUse" color-interpolation-filters="sRGB">
<feFlood flood-opacity="0" result="BackgroundImageFix"/>
<feColorMatrix in="SourceAlpha" type="matrix" values="0 0 0 0 0 0 0 0 0 0 0 0 0 0 0 0 0 0 127 0" result="hardAlpha"/>
<feOffset dy="10.4186"/>
<feGaussianBlur stdDeviation="5.2093"/>
<feComposite in2="hardAlpha" operator="out"/>
<feColorMatrix type="matrix" values="0 0 0 0 0 0 0 0 0 0 0 0 0 0 0 0 0 0 0.25 0"/>
<feBlend mode="normal" in2="BackgroundImageFix" result="effect1_dropShadow_226_1190"/>
<feBlend mode="normal" in="SourceGraphic" in2="effect1_dropShadow_226_1190" result="shape"/>
<feColorMatrix in="SourceAlpha" type="matrix" values="0 0 0 0 0 0 0 0 0 0 0 0 0 0 0 0 0 0 127 0" result="hardAlpha"/>
<feOffset dx="10.4186" dy="7.81395"/>
<feGaussianBlur stdDeviation="1.30233"/>
<feComposite in2="hardAlpha" operator="arithmetic" k2="-1" k3="1"/>
<feColorMatrix type="matrix" values="0 0 0 0 1 0 0 0 0 0.723164 0 0 0 0 0.125 0 0 0 1 0"/>
<feBlend mode="normal" in2="shape" result="effect2_innerShadow_226_1190"/>
</filter>
<clipPath id="clip0_226_1190">
<rect width="1920" height="261" fill="white"/>
</clipPath>
</defs>
</svg>
