<svg width="341" height="499" viewBox="0 0 341 499" fill="none" xmlns="http://www.w3.org/2000/svg">
<path d="M220.198 175.812C220.198 176.695 220.548 177.542 221.172 178.166C221.796 178.79 222.641 179.141 223.523 179.141C224.405 179.141 225.251 178.79 225.875 178.166C226.499 177.542 226.849 176.695 226.849 175.812C226.849 174.929 226.499 174.082 225.875 173.458C225.251 172.833 224.405 172.483 223.523 172.483C222.641 172.483 221.796 172.833 221.172 173.458C220.548 174.082 220.198 174.929 220.198 175.812ZM234.055 175.812C234.055 176.695 234.405 177.542 235.029 178.166C235.652 178.79 236.498 179.141 237.38 179.141C238.262 179.141 239.108 178.79 239.732 178.166C240.355 177.542 240.706 176.695 240.706 175.812C240.706 174.929 240.355 174.082 239.732 173.458C239.108 172.833 238.262 172.483 237.38 172.483C236.498 172.483 235.652 172.833 235.029 173.458C234.405 174.082 234.055 174.929 234.055 175.812ZM206.341 175.812C206.341 176.695 206.691 177.542 207.315 178.166C207.939 178.79 208.785 179.141 209.667 179.141C210.549 179.141 211.395 178.79 212.018 178.166C212.642 177.542 212.992 176.695 212.992 175.812C212.992 174.929 212.642 174.082 212.018 173.458C211.395 172.833 210.549 172.483 209.667 172.483C208.785 172.483 207.939 172.833 207.315 173.458C206.691 174.082 206.341 174.929 206.341 175.812ZM252.152 163.771C250.586 160.046 248.341 156.703 245.48 153.832C242.638 150.977 239.265 148.708 235.551 147.152C231.741 145.55 227.694 144.739 223.523 144.739H223.385C219.186 144.76 215.119 145.592 211.295 147.229C207.613 148.8 204.271 151.073 201.457 153.922C198.623 156.787 196.399 160.116 194.861 163.827C193.267 167.669 192.463 171.754 192.484 175.958C192.508 180.774 193.646 185.52 195.81 189.823V200.365C195.81 201.211 196.146 202.023 196.743 202.621C197.341 203.22 198.152 203.556 198.997 203.556H209.535C213.833 205.722 218.573 206.861 223.385 206.885H223.53C227.681 206.885 231.706 206.08 235.496 204.506C239.191 202.969 242.551 200.727 245.389 197.903C248.251 195.066 250.503 191.751 252.075 188.054C253.71 184.225 254.542 180.154 254.563 175.951C254.583 171.727 253.766 167.627 252.152 163.771ZM241.683 194.151C236.826 198.964 230.383 201.614 223.523 201.614H223.406C219.228 201.593 215.078 200.552 211.413 198.597L210.831 198.284H201.075V188.519L200.764 187.936C198.81 184.267 197.771 180.112 197.75 175.93C197.722 169.015 200.362 162.523 205.205 157.633C210.041 152.743 216.505 150.038 223.413 150.01H223.53C226.995 150.01 230.355 150.683 233.521 152.015C236.611 153.312 239.383 155.177 241.766 157.563C244.142 159.942 246.013 162.724 247.309 165.817C248.653 169.022 249.325 172.42 249.311 175.93C249.269 182.838 246.56 189.309 241.683 194.151Z" fill="#85D9C9"/>
<path d="M72.7874 160.027H6.43692C4.97048 160.027 3.56411 160.569 2.52718 161.534C1.49025 162.499 0.907715 163.808 0.907715 165.173V206.346C0.907715 207.711 1.49025 209.02 2.52718 209.986C3.56411 210.951 4.97048 211.493 6.43692 211.493H72.7874C74.2538 211.493 75.6602 210.951 76.6971 209.986C77.7341 209.02 78.3166 207.711 78.3166 206.346V165.173C78.3166 163.808 77.7341 162.499 76.6971 161.534C75.6602 160.569 74.2538 160.027 72.7874 160.027V160.027ZM66.7053 165.173L39.6122 182.62L12.519 165.173H66.7053ZM6.43692 206.346V167.515L38.0363 187.87C38.4991 188.169 39.0489 188.329 39.6122 188.329C40.1754 188.329 40.7252 188.169 41.188 187.87L72.7874 167.515V206.346H6.43692Z" fill="#85D9C9"/>
<path d="M141.612 167.384C148.098 167.384 153.357 162.12 153.357 155.626C153.357 149.133 148.098 143.869 141.612 143.869C135.125 143.869 129.867 149.133 129.867 155.626C129.867 162.12 135.125 167.384 141.612 167.384Z" stroke="#85D9C9" stroke-width="5.21465" stroke-linecap="round" stroke-linejoin="round"/>
<path d="M108.056 206.016C108.056 191.174 121.577 179.142 138.257 179.142" stroke="#85D9C9" stroke-width="5.21465" stroke-linecap="round" stroke-linejoin="round"/>
<path d="M153.357 207.695L170.135 190.899L163.424 184.18L146.646 200.977V207.695H153.357Z" stroke="#85D9C9" stroke-width="5.21465" stroke-linecap="round" stroke-linejoin="round"/>
<path d="M304.12 210.77C295.681 201.574 276.912 179.288 276.912 166.77C276.912 151.582 290.808 139.27 307.951 139.27C325.088 139.27 338.991 151.582 338.991 166.77C338.991 179.288 320.076 201.574 311.783 210.77C309.794 212.961 306.108 212.961 304.12 210.77ZM307.951 175.936C313.658 175.936 318.298 171.826 318.298 166.77C318.298 161.714 313.658 157.603 307.951 157.603C302.244 157.603 297.605 161.714 297.605 166.77C297.605 171.826 302.244 175.936 307.951 175.936Z" fill="#85D9C9"/>
<path d="M121.627 82.466C89.2084 79.4067 84.7216 26.6207 86.3547 0.628415C86.3547 0 86.8613 0 87.913 0C89.3344 -1.96059e-06 92.9785 0 94.8054 0.665048C96.6322 1.3301 95.3037 9.23175 96.3983 20.7376C97.6538 33.9342 100.639 49.5402 107.697 62.8412C114.756 76.1422 125.901 74.3621 128.412 73.5242C135.945 71.0105 142.222 62.8412 149.127 44.6172C154.432 30.6175 154.029 11.3166 154.777 3.14206C154.777 2.70511 155.32 1.9917 156.032 1.88524C157.954 1.59793 161.462 2.06279 162.31 2.24454C163.565 2.51365 163.521 3.14349 163.565 3.77047C165.448 30.7922 154.046 85.5252 121.627 82.466Z" fill="#FFD16D"/>
<path d="M86.96 25.9264C88.8577 26.3734 93.7695 26.0829 93.7695 31.1788C93.7695 37.5488 89.8624 41.9072 93.7695 45.2598C97.6766 48.6124 96.1137 47.4949 99.5743 51.518C103.035 55.5411 100.467 63.3639 104.709 64.4814C108.951 65.599 110.44 64.3165 111.854 65.9342C114.198 68.6163 110.403 70.6279 113.64 71.7454C116.877 72.863 114.086 76.2156 122.459 71.7454C130.831 67.2753 132.282 74.8745 137.752 70.4044C143.222 65.9342 140.878 66.94 141.659 62.1346C142.441 57.3292 143.334 52.9708 148.692 51.518C154.051 50.0652 156.618 45.5951 155.502 42.3542C154.385 39.1133 154.609 37.9958 156.73 35.3137C158.851 32.6316 160.637 30.7318 159.744 27.8262C158.851 24.9206 160.748 20.7857 162.2 20.227C162.919 19.9498 163.219 19.8302 163.316 19.7882C163.316 19.7854 163.316 19.7827 163.316 19.78C163.358 19.7658 163.375 19.7624 163.316 19.7882C163.054 25.7158 161.685 39.6536 158.293 48.0536C154.051 58.5585 149.027 68.2811 146.906 70.4044C144.785 72.5277 136.524 82.4738 129.492 82.809C122.459 83.1443 115.649 83.8148 107.612 77.7801C99.5743 71.7454 99.8321 69.7753 94.4393 59.7878C89.974 51.518 87.3966 30.8861 86.96 27.8262C86.7367 26.2617 86.5134 25.8147 86.96 25.9264Z" fill="#FFB3AE"/>
<path d="M129.604 72.6392L130.902 74.5896" stroke="#FF9393" stroke-opacity="0.66" stroke-width="0.927749" stroke-linecap="round"/>
<path d="M135.855 76.7749L137.154 78.7253" stroke="#FF9393" stroke-opacity="0.66" stroke-width="0.927749" stroke-linecap="round"/>
<path d="M159.744 35.7607L161.043 37.7111" stroke="#FF9393" stroke-opacity="0.66" stroke-width="0.927749" stroke-linecap="round"/>
<path d="M97.0073 58.9648L98.3062 60.9152" stroke="#FF9393" stroke-opacity="0.66" stroke-width="0.927749" stroke-linecap="round"/>
<path d="M139.565 73.5239L140.864 75.4743" stroke="#FF9393" stroke-opacity="0.66" stroke-width="0.927749" stroke-linecap="round"/>
<path d="M143.892 59.8999L144.339 60.793" stroke="#FF9393" stroke-opacity="0.66" stroke-width="0.927749" stroke-linecap="round"/>
<path d="M143.446 67.4985L143.893 68.3916" stroke="#FF9393" stroke-opacity="0.66" stroke-width="0.927749" stroke-linecap="round"/>
<path d="M108.17 67.0518L109.469 69.0022" stroke="#FF9393" stroke-opacity="0.66" stroke-width="0.927749" stroke-linecap="round"/>
<path d="M122.906 78.6738L124.205 80.6242" stroke="#FF9393" stroke-opacity="0.66" stroke-width="0.927749" stroke-linecap="round"/>
<path d="M142.535 70.1807L143.834 72.1311" stroke="#FF9393" stroke-opacity="0.66" stroke-width="0.927749" stroke-linecap="round"/>
<path d="M157.288 40.0073L158.587 41.9577" stroke="#FF9393" stroke-opacity="0.66" stroke-width="0.927749" stroke-linecap="round"/>
<path d="M94.1045 53.8647L95.4033 55.8151" stroke="#FF9393" stroke-opacity="0.66" stroke-width="0.927749" stroke-linecap="round"/>
<path d="M104.151 67.0518L105.45 69.0022" stroke="#FF9393" stroke-opacity="0.66" stroke-width="0.927749" stroke-linecap="round"/>
<path d="M117.101 76.6626L118.399 78.613" stroke="#FF9393" stroke-opacity="0.66" stroke-width="0.927749" stroke-linecap="round"/>
<path d="M97.6567 62.8657L98.9556 64.8161" stroke="#FF9393" stroke-opacity="0.66" stroke-width="0.927749" stroke-linecap="round"/>
<path d="M100.996 66.1162L102.295 68.0666" stroke="#FF9393" stroke-opacity="0.66" stroke-width="0.927749" stroke-linecap="round"/>
<path d="M152.376 52.9707L153.675 54.9211" stroke="#FF9393" stroke-opacity="0.66" stroke-width="0.927749" stroke-linecap="round"/>
<path d="M155.725 48.9478L156.618 50.2888" stroke="#FF9393" stroke-opacity="0.66" stroke-width="0.927749" stroke-linecap="round"/>
<path d="M151.706 57.2178L153.005 59.1682" stroke="#FF9393" stroke-opacity="0.66" stroke-width="0.927749" stroke-linecap="round"/>
<path d="M148.134 57.8877L149.027 59.2287" stroke="#FF9393" stroke-opacity="0.66" stroke-width="0.927749" stroke-linecap="round"/>
<path d="M146.794 63.4761L147.687 64.8171" stroke="#FF9393" stroke-opacity="0.66" stroke-width="0.927749" stroke-linecap="round"/>
<path d="M91.8721 29.2788L92.793 30.6618" stroke="#FF9393" stroke-opacity="0.66" stroke-width="0.65783" stroke-linecap="round"/>
<path d="M88.9697 35.3623L89.8907 36.7453" stroke="#FF9393" stroke-opacity="0.66" stroke-width="0.65783" stroke-linecap="round"/>
<path d="M88.9697 29.0557L89.8907 30.4386" stroke="#FF9393" stroke-opacity="0.66" stroke-width="0.65783" stroke-linecap="round"/>
<path d="M129.604 77.5562L130.902 79.5066" stroke="#FF9393" stroke-opacity="0.66" stroke-width="0.927749" stroke-linecap="round"/>
<path d="M132.953 73.5332L133.846 74.8742" stroke="#FF9393" stroke-opacity="0.66" stroke-width="0.927749" stroke-linecap="round"/>
<path d="M132.06 77.7798L133.358 79.7302" stroke="#FF9393" stroke-opacity="0.66" stroke-width="0.927749" stroke-linecap="round"/>
<path d="M147.241 66.1577L148.134 67.4988" stroke="#FF9393" stroke-opacity="0.66" stroke-width="0.927749" stroke-linecap="round"/>
<path d="M122.906 73.98L123.799 75.321" stroke="#FF9393" stroke-opacity="0.66" stroke-width="0.927749" stroke-linecap="round"/>
<path d="M111.742 75.7686L112.663 77.1515" stroke="#FF9393" stroke-opacity="0.66" stroke-width="0.65783" stroke-linecap="round"/>
<path d="M126.478 80.0151L127.399 81.3981" stroke="#FF9393" stroke-opacity="0.66" stroke-width="0.65783" stroke-linecap="round"/>
<path d="M108.84 75.5449L109.761 76.9279" stroke="#FF9393" stroke-opacity="0.66" stroke-width="0.65783" stroke-linecap="round"/>
<path d="M92.3184 45.5952L93.2393 46.9782" stroke="#FF9393" stroke-opacity="0.66" stroke-width="0.65783" stroke-linecap="round"/>
<path d="M126.254 75.7686L127.553 77.719" stroke="#FF9393" stroke-opacity="0.66" stroke-width="0.927749" stroke-linecap="round"/>
<path d="M106.83 71.1543L108.129 73.1047" stroke="#FF9393" stroke-opacity="0.66" stroke-width="0.927749" stroke-linecap="round"/>
<path d="M91.6489 35.7607L92.5699 37.1437" stroke="#FF9393" stroke-opacity="0.66" stroke-width="0.65783" stroke-linecap="round"/>
<path d="M96.5605 50.7358L97.4815 52.1188" stroke="#FF9393" stroke-opacity="0.66" stroke-width="0.65783" stroke-linecap="round"/>
<path d="M90.3091 40.231L91.23 41.6139" stroke="#FF9393" stroke-opacity="0.66" stroke-width="0.65783" stroke-linecap="round"/>
<path d="M111.295 72.416L112.594 74.3664" stroke="#FF9393" stroke-opacity="0.66" stroke-width="0.927749" stroke-linecap="round"/>
<path d="M114.645 78.6738L115.943 80.6242" stroke="#FF9393" stroke-opacity="0.66" stroke-width="0.927749" stroke-linecap="round"/>
<path d="M98.123 54.9824L99.044 56.3654" stroke="#FF9393" stroke-opacity="0.66" stroke-width="0.65783" stroke-linecap="round"/>
<path d="M208.024 82.466C175.605 79.4067 171.119 26.6207 172.752 0.628415C172.752 0 173.258 0 174.31 0C175.731 -1.96059e-06 179.375 0 181.202 0.665048C183.029 1.3301 181.701 9.23175 182.795 20.7376C184.051 33.9342 187.036 49.5402 194.094 62.8412C201.153 76.1422 212.298 74.3621 214.809 73.5242C222.342 71.0105 228.619 62.8412 235.524 44.6172C240.829 30.6175 240.426 11.3166 241.174 3.14206C241.174 2.70511 241.717 1.9917 242.429 1.88524C244.351 1.59793 247.859 2.06279 248.706 2.24454C249.962 2.51365 249.918 3.14349 249.962 3.77047C251.845 30.7922 240.443 85.5252 208.024 82.466Z" fill="#FFD16D"/>
<path d="M173.356 25.9264C175.254 26.3734 180.166 26.0829 180.166 31.1788C180.166 37.5488 176.259 41.9072 180.166 45.2598C184.073 48.6124 182.51 47.4949 185.971 51.518C189.431 55.5411 186.864 63.3639 191.106 64.4814C195.348 65.599 197.246 64.0344 198.25 65.9342C199.255 67.834 196.799 70.6279 200.036 71.7454C203.274 72.863 200.483 76.2156 208.855 71.7454C217.228 67.2753 218.679 74.8745 224.149 70.4044C229.619 65.9342 227.275 66.94 228.056 62.1346C228.837 57.3292 229.73 52.9708 235.089 51.518C240.447 50.0652 243.015 45.5951 241.898 42.3542C240.782 39.1133 241.005 37.9958 243.126 35.3137C245.247 32.6316 247.033 30.7318 246.14 27.8262C245.247 24.9206 247.145 20.7857 248.596 20.227C249.316 19.9498 249.615 19.8302 249.712 19.7882C249.712 19.7854 249.712 19.7827 249.712 19.78C249.755 19.7658 249.772 19.7624 249.712 19.7882C249.451 25.7158 248.081 39.6536 244.689 48.0536C240.447 58.5585 235.424 68.2811 233.303 70.4044C231.182 72.5277 222.921 82.4738 215.888 82.809C208.855 83.1443 202.046 83.8148 194.008 77.7801C185.971 71.7454 186.229 69.7753 180.836 59.7878C176.37 51.518 173.793 30.8861 173.356 27.8262C173.133 26.2617 172.91 25.8147 173.356 25.9264Z" fill="#865822"/>
<path d="M215.554 72.416L216.853 74.3664" stroke="#BC893D" stroke-width="0.927749" stroke-linecap="round"/>
<path d="M221.805 76.5513L223.104 78.5017" stroke="#BC893D" stroke-width="0.927749" stroke-linecap="round"/>
<path d="M245.694 35.5371L246.993 37.4875" stroke="#BC893D" stroke-width="0.927749" stroke-linecap="round"/>
<path d="M182.958 58.7407L184.256 60.6911" stroke="#BC893D" stroke-width="0.927749" stroke-linecap="round"/>
<path d="M225.516 73.3008L226.814 75.2512" stroke="#BC893D" stroke-width="0.927749" stroke-linecap="round"/>
<path d="M229.842 59.6763L230.289 60.5693" stroke="#BC893D" stroke-width="0.927749" stroke-linecap="round"/>
<path d="M229.396 67.2749L229.843 68.168" stroke="#BC893D" stroke-width="0.927749" stroke-linecap="round"/>
<path d="M194.12 66.8276L195.419 68.778" stroke="#BC893D" stroke-width="0.927749" stroke-linecap="round"/>
<path d="M208.855 78.4502L210.154 80.4006" stroke="#BC893D" stroke-width="0.927749" stroke-linecap="round"/>
<path d="M228.485 69.957L229.784 71.9074" stroke="#BC893D" stroke-width="0.927749" stroke-linecap="round"/>
<path d="M243.238 39.7837L244.537 41.7341" stroke="#BC893D" stroke-width="0.927749" stroke-linecap="round"/>
<path d="M180.055 53.6416L181.354 55.592" stroke="#BC893D" stroke-width="0.927749" stroke-linecap="round"/>
<path d="M190.102 66.8276L191.4 68.778" stroke="#BC893D" stroke-width="0.927749" stroke-linecap="round"/>
<path d="M203.051 76.439L204.35 78.3894" stroke="#BC893D" stroke-width="0.927749" stroke-linecap="round"/>
<path d="M183.607 62.6421L184.906 64.5925" stroke="#BC893D" stroke-width="0.927749" stroke-linecap="round"/>
<path d="M186.947 65.8926L188.246 67.843" stroke="#BC893D" stroke-width="0.927749" stroke-linecap="round"/>
<path d="M238.326 52.7476L239.625 54.698" stroke="#BC893D" stroke-width="0.927749" stroke-linecap="round"/>
<path d="M241.675 48.7246L242.568 50.0657" stroke="#BC893D" stroke-width="0.927749" stroke-linecap="round"/>
<path d="M237.656 56.9941L238.955 58.9445" stroke="#BC893D" stroke-width="0.927749" stroke-linecap="round"/>
<path d="M234.085 57.665L234.978 59.0061" stroke="#BC893D" stroke-width="0.927749" stroke-linecap="round"/>
<path d="M232.745 63.2524L233.638 64.5935" stroke="#BC893D" stroke-width="0.927749" stroke-linecap="round"/>
<path d="M177.822 29.0557L178.743 30.4386" stroke="#BC893D" stroke-width="0.65783" stroke-linecap="round"/>
<path d="M174.92 35.1387L175.841 36.5216" stroke="#BC893D" stroke-width="0.65783" stroke-linecap="round"/>
<path d="M174.92 28.8315L175.841 30.2145" stroke="#BC893D" stroke-width="0.65783" stroke-linecap="round"/>
<path d="M215.554 77.333L216.853 79.2834" stroke="#BC893D" stroke-width="0.927749" stroke-linecap="round"/>
<path d="M218.903 73.3101L219.796 74.6511" stroke="#BC893D" stroke-width="0.927749" stroke-linecap="round"/>
<path d="M218.009 77.5562L219.308 79.5066" stroke="#BC893D" stroke-width="0.927749" stroke-linecap="round"/>
<path d="M233.191 65.9336L234.084 67.2746" stroke="#BC893D" stroke-width="0.927749" stroke-linecap="round"/>
<path d="M208.855 73.7568L209.749 75.0979" stroke="#BC893D" stroke-width="0.927749" stroke-linecap="round"/>
<path d="M197.692 75.5449L198.613 76.9279" stroke="#BC893D" stroke-width="0.65783" stroke-linecap="round"/>
<path d="M212.428 79.7915L213.349 81.1745" stroke="#BC893D" stroke-width="0.65783" stroke-linecap="round"/>
<path d="M194.791 75.3213L195.711 76.7042" stroke="#BC893D" stroke-width="0.65783" stroke-linecap="round"/>
<path d="M178.269 45.3716L179.19 46.7545" stroke="#BC893D" stroke-width="0.65783" stroke-linecap="round"/>
<path d="M212.205 75.5449L213.503 77.4953" stroke="#BC893D" stroke-width="0.927749" stroke-linecap="round"/>
<path d="M192.78 70.9312L194.079 72.8816" stroke="#BC893D" stroke-width="0.927749" stroke-linecap="round"/>
<path d="M177.599 35.5371L178.52 36.9201" stroke="#BC893D" stroke-width="0.65783" stroke-linecap="round"/>
<path d="M182.511 50.5127L183.432 51.8956" stroke="#BC893D" stroke-width="0.65783" stroke-linecap="round"/>
<path d="M176.259 40.0073L177.18 41.3903" stroke="#BC893D" stroke-width="0.65783" stroke-linecap="round"/>
<path d="M197.246 72.1919L198.544 74.1423" stroke="#BC893D" stroke-width="0.927749" stroke-linecap="round"/>
<path d="M200.595 78.4502L201.894 80.4006" stroke="#BC893D" stroke-width="0.927749" stroke-linecap="round"/>
<path d="M184.074 54.7588L184.995 56.1417" stroke="#BC893D" stroke-width="0.65783" stroke-linecap="round"/>
<path d="M35.9141 81.3704C4.00031 78.3589 -0.416658 26.3954 1.19102 0.808077C1.191 0.189453 1.6897 0.189453 2.72508 0.189453C4.12435 0.189451 7.7116 0.189453 9.51002 0.844138C11.3084 1.49882 10.0006 9.27736 11.0782 20.6039C12.3141 33.5949 15.2527 48.9577 22.2012 62.0515C29.1496 75.1452 40.1216 73.3928 42.5933 72.568C50.0087 70.0935 56.1881 62.0515 62.9855 44.1115C68.2073 30.3299 67.8113 11.3297 68.547 3.28255C68.547 2.85242 69.082 2.15012 69.7829 2.04531C71.6742 1.76248 75.1277 2.22011 75.9623 2.39902C77.1982 2.66393 77.1552 3.28396 77.1982 3.90117C79.052 30.5018 67.8278 84.382 35.9141 81.3704Z" fill="#FFD16D"/>
<path d="M295.406 85.3031C261.872 82.1386 257.23 27.5366 258.92 0.650035C258.92 0 259.444 0 260.532 0C262.002 -2.02804e-06 265.771 0 267.661 0.687928C269.551 1.37586 268.177 9.54936 269.309 21.451C270.608 35.1017 273.695 51.2446 280.997 65.0032C288.298 78.7617 299.827 76.9204 302.424 76.0537C310.216 73.4536 316.709 65.0032 323.852 46.1522C329.339 31.6708 328.923 11.7059 329.696 3.25016C329.696 2.79818 330.258 2.06022 330.994 1.95009C332.982 1.6529 336.611 2.13376 337.488 2.32176C338.786 2.60013 338.741 3.25164 338.786 3.90019C340.734 31.8515 328.94 88.4676 295.406 85.3031Z" fill="#FEC64D"/>
<path d="M259.545 26.8184C261.509 27.2808 266.589 26.9803 266.589 32.2516C266.589 38.8407 262.548 43.349 266.589 46.8169C270.631 50.2849 269.014 49.1289 272.594 53.2905C276.173 57.452 273.518 65.5439 277.906 66.6999C282.293 67.8559 284.257 66.2375 285.296 68.2027C286.335 70.1678 283.795 73.0578 287.143 74.2138C290.492 75.3698 287.605 78.8377 296.266 74.2138C304.926 69.5898 306.427 77.4505 312.085 72.8266C317.743 68.2027 315.319 69.243 316.127 64.2723C316.935 59.3016 317.859 54.7932 323.402 53.2905C328.944 51.7877 331.6 47.1637 330.445 43.8114C329.291 40.459 329.522 39.3031 331.716 36.5287C333.91 33.7543 335.757 31.7892 334.833 28.7836C333.91 25.778 335.873 21.5009 337.374 20.9229C338.118 20.6362 338.428 20.5125 338.528 20.469C338.528 20.4662 338.528 20.4633 338.528 20.4605C338.572 20.4459 338.59 20.4424 338.528 20.469C338.258 26.6006 336.841 41.0179 333.332 49.7069C328.944 60.5732 323.748 70.6302 321.554 72.8266C319.36 75.0229 310.815 85.3112 303.54 85.658C296.266 86.0048 289.222 86.6984 280.908 80.4561C272.594 74.2138 272.86 72.1759 267.282 61.8447C262.663 53.2905 259.997 31.9488 259.545 28.7836C259.315 27.1652 259.084 26.7028 259.545 26.8184Z" fill="#865822"/>
<path d="M295.406 85.3031C261.872 82.1386 257.23 27.5366 258.92 0.650035C258.92 0 259.444 0 260.532 0C262.002 -2.02804e-06 265.771 0 267.661 0.687928C269.551 1.37586 268.177 9.54936 269.309 21.451C270.608 35.1017 273.695 51.2446 280.997 65.0032C288.298 78.7617 299.827 76.9204 302.424 76.0537C310.216 73.4536 316.709 65.0032 323.852 46.1522C329.339 31.6708 328.923 11.7059 329.696 3.25016C329.696 2.79818 330.258 2.06022 330.994 1.95009C332.982 1.6529 336.611 2.13376 337.488 2.32176C338.786 2.60013 338.741 3.25164 338.786 3.90019C340.734 31.8515 328.94 88.4676 295.406 85.3031Z" fill="#FFD16D"/>
<path d="M259.545 26.8184C261.509 27.2808 266.589 26.9803 266.589 32.2516C266.589 38.8407 262.548 43.349 266.589 46.8169C270.631 50.2849 269.014 49.1289 272.594 53.2905C276.173 57.452 273.518 65.5439 277.906 66.6999C282.293 67.8559 284.257 66.2375 285.296 68.2027C286.335 70.1678 283.795 73.0578 287.143 74.2138C290.492 75.3698 287.605 78.8377 296.266 74.2138C304.926 69.5898 306.427 77.4505 312.085 72.8266C317.743 68.2027 315.319 69.243 316.127 64.2723C316.935 59.3016 317.859 54.7932 323.402 53.2905C328.944 51.7877 331.6 47.1637 330.445 43.8114C329.291 40.459 329.522 39.3031 331.716 36.5287C333.91 33.7543 335.757 31.7892 334.833 28.7836C333.91 25.778 335.873 21.5009 337.374 20.9229C338.118 20.6362 338.428 20.5125 338.528 20.469C338.528 20.4662 338.528 20.4633 338.528 20.4605C338.572 20.4459 338.59 20.4424 338.528 20.469C338.258 26.6006 336.841 41.0179 333.332 49.7069C328.944 60.5732 323.748 70.6302 321.554 72.8266C319.36 75.0229 310.815 85.3112 303.54 85.658C296.266 86.0048 289.222 86.6984 280.908 80.4561C272.594 74.2138 272.86 72.1759 267.282 61.8447C262.663 53.2905 259.997 31.9488 259.545 28.7836C259.315 27.1652 259.084 26.7028 259.545 26.8184Z" fill="#91B95D"/>
<path d="M303.656 74.6763L305 76.6938" stroke="#1F7600" stroke-opacity="0.66" stroke-width="0.959667" stroke-linecap="round"/>
<path d="M310.123 78.9546L311.466 80.9721" stroke="#1F7600" stroke-opacity="0.66" stroke-width="0.959667" stroke-linecap="round"/>
<path d="M334.834 36.5288L336.178 38.5463" stroke="#1F7600" stroke-opacity="0.66" stroke-width="0.959667" stroke-linecap="round"/>
<path d="M269.939 60.5308L271.282 62.5483" stroke="#1F7600" stroke-opacity="0.66" stroke-width="0.959667" stroke-linecap="round"/>
<path d="M313.961 75.5913L315.305 77.6088" stroke="#1F7600" stroke-opacity="0.66" stroke-width="0.959667" stroke-linecap="round"/>
<path d="M318.437 61.498L318.898 62.4228" stroke="#1F7600" stroke-opacity="0.66" stroke-width="0.959667" stroke-linecap="round"/>
<path d="M317.975 69.3584L318.437 70.2832" stroke="#1F7600" stroke-opacity="0.66" stroke-width="0.959667" stroke-linecap="round"/>
<path d="M281.486 68.8965L282.829 70.914" stroke="#1F7600" stroke-opacity="0.66" stroke-width="0.959667" stroke-linecap="round"/>
<path d="M296.729 80.9185L298.072 82.936" stroke="#1F7600" stroke-opacity="0.66" stroke-width="0.959667" stroke-linecap="round"/>
<path d="M317.032 72.1323L318.376 74.1498" stroke="#1F7600" stroke-opacity="0.66" stroke-width="0.959667" stroke-linecap="round"/>
<path d="M332.293 40.9219L333.637 42.9394" stroke="#1F7600" stroke-opacity="0.66" stroke-width="0.959667" stroke-linecap="round"/>
<path d="M266.936 55.2554L268.28 57.2729" stroke="#1F7600" stroke-opacity="0.66" stroke-width="0.959667" stroke-linecap="round"/>
<path d="M277.329 68.8965L278.672 70.914" stroke="#1F7600" stroke-opacity="0.66" stroke-width="0.959667" stroke-linecap="round"/>
<path d="M290.724 78.8374L292.067 80.8549" stroke="#1F7600" stroke-opacity="0.66" stroke-width="0.959667" stroke-linecap="round"/>
<path d="M270.61 64.5659L271.954 66.5834" stroke="#1F7600" stroke-opacity="0.66" stroke-width="0.959667" stroke-linecap="round"/>
<path d="M274.065 67.9287L275.408 69.9462" stroke="#1F7600" stroke-opacity="0.66" stroke-width="0.959667" stroke-linecap="round"/>
<path d="M327.213 54.3311L328.556 56.3486" stroke="#1F7600" stroke-opacity="0.66" stroke-width="0.959667" stroke-linecap="round"/>
<path d="M330.677 50.1694L331.601 51.5566" stroke="#1F7600" stroke-opacity="0.66" stroke-width="0.959667" stroke-linecap="round"/>
<path d="M326.52 58.7236L327.864 60.7411" stroke="#1F7600" stroke-opacity="0.66" stroke-width="0.959667" stroke-linecap="round"/>
<path d="M322.825 59.4175L323.749 60.8047" stroke="#1F7600" stroke-opacity="0.66" stroke-width="0.959667" stroke-linecap="round"/>
<path d="M321.439 65.1973L322.363 66.5844" stroke="#1F7600" stroke-opacity="0.66" stroke-width="0.959667" stroke-linecap="round"/>
<path d="M264.627 29.8232L265.58 31.2538" stroke="#1F7600" stroke-opacity="0.66" stroke-width="0.680462" stroke-linecap="round"/>
<path d="M261.625 36.1162L262.577 37.5467" stroke="#1F7600" stroke-opacity="0.66" stroke-width="0.680462" stroke-linecap="round"/>
<path d="M261.625 29.5928L262.577 31.0233" stroke="#1F7600" stroke-opacity="0.66" stroke-width="0.680462" stroke-linecap="round"/>
<path d="M303.656 79.7622L305 81.7797" stroke="#1F7600" stroke-opacity="0.66" stroke-width="0.959667" stroke-linecap="round"/>
<path d="M307.121 75.6011L308.044 76.9883" stroke="#1F7600" stroke-opacity="0.66" stroke-width="0.959667" stroke-linecap="round"/>
<path d="M306.197 79.9937L307.54 82.0112" stroke="#1F7600" stroke-opacity="0.66" stroke-width="0.959667" stroke-linecap="round"/>
<path d="M321.901 67.9717L322.825 69.3589" stroke="#1F7600" stroke-opacity="0.66" stroke-width="0.959667" stroke-linecap="round"/>
<path d="M296.729 76.0635L297.652 77.4507" stroke="#1F7600" stroke-opacity="0.66" stroke-width="0.959667" stroke-linecap="round"/>
<path d="M285.181 77.9126L286.133 79.3431" stroke="#1F7600" stroke-opacity="0.66" stroke-width="0.680462" stroke-linecap="round"/>
<path d="M300.423 82.3052L301.376 83.7357" stroke="#1F7600" stroke-opacity="0.66" stroke-width="0.680462" stroke-linecap="round"/>
<path d="M282.179 77.6821L283.131 79.1127" stroke="#1F7600" stroke-opacity="0.66" stroke-width="0.680462" stroke-linecap="round"/>
<path d="M265.089 46.7012L266.042 48.1317" stroke="#1F7600" stroke-opacity="0.66" stroke-width="0.680462" stroke-linecap="round"/>
<path d="M300.192 77.9126L301.536 79.9301" stroke="#1F7600" stroke-opacity="0.66" stroke-width="0.959667" stroke-linecap="round"/>
<path d="M280.1 73.1396L281.444 75.1572" stroke="#1F7600" stroke-opacity="0.66" stroke-width="0.959667" stroke-linecap="round"/>
<path d="M264.396 36.5288L265.349 37.9593" stroke="#1F7600" stroke-opacity="0.66" stroke-width="0.680462" stroke-linecap="round"/>
<path d="M269.477 52.019L270.429 53.4496" stroke="#1F7600" stroke-opacity="0.66" stroke-width="0.680462" stroke-linecap="round"/>
<path d="M263.01 41.1528L263.963 42.5834" stroke="#1F7600" stroke-opacity="0.66" stroke-width="0.680462" stroke-linecap="round"/>
<path d="M284.719 74.4453L286.062 76.4628" stroke="#1F7600" stroke-opacity="0.66" stroke-width="0.959667" stroke-linecap="round"/>
<path d="M288.183 80.9185L289.527 82.936" stroke="#1F7600" stroke-opacity="0.66" stroke-width="0.959667" stroke-linecap="round"/>
<path d="M271.093 56.4121L272.046 57.8426" stroke="#1F7600" stroke-opacity="0.66" stroke-width="0.680462" stroke-linecap="round"/>
<g filter="url(#filter0_d_217_803)">
<ellipse cx="311.107" cy="293.944" rx="27.9857" ry="28.0163" fill="#F09626"/>
<ellipse cx="240.769" cy="293.944" rx="27.9857" ry="28.0163" fill="#FAE57C"/>
<ellipse cx="170.543" cy="293.944" rx="27.9857" ry="28.0163" fill="#F6BBA9"/>
<ellipse cx="100.281" cy="293.944" rx="27.9857" ry="28.0163" fill="#85D9C9"/>
<ellipse cx="29.9433" cy="293.944" rx="27.9857" ry="28.0163" fill="#4EBFEB"/>
<ellipse cx="311.107" cy="466.524" rx="27.9857" ry="28.0163" fill="#F09626"/>
<ellipse cx="240.769" cy="465.403" rx="27.9857" ry="28.0163" fill="#FFAF02"/>
<ellipse cx="100.281" cy="465.403" rx="27.9857" ry="28.0163" fill="#EFEEEC"/>
<ellipse cx="29.9433" cy="380.234" rx="27.9857" ry="28.0163" fill="#D9EBFF"/>
<ellipse cx="29.9433" cy="465.403" rx="27.9857" ry="28.0163" fill="#B6D9FF"/>
<ellipse cx="311.107" cy="380.234" rx="27.9857" ry="28.0163" fill="#EDA31E"/>
<ellipse cx="240.769" cy="380.234" rx="27.9857" ry="28.0163" fill="#FEC820"/>
<ellipse cx="100.281" cy="380.234" rx="27.9857" ry="28.0163" fill="#F1F3F2"/>
<ellipse cx="170.618" cy="378.366" rx="27.9857" ry="28.0163" fill="#E5D1C8"/>
<ellipse cx="170.432" cy="465.403" rx="27.9857" ry="28.0163" fill="#B4947B"/>
</g>
<defs>
<filter id="filter0_d_217_803" x="0.120112" y="265.927" width="340.81" height="232.813" filterUnits="userSpaceOnUse" color-interpolation-filters="sRGB">
<feFlood flood-opacity="0" result="BackgroundImageFix"/>
<feColorMatrix in="SourceAlpha" type="matrix" values="0 0 0 0 0 0 0 0 0 0 0 0 0 0 0 0 0 0 127 0" result="hardAlpha"/>
<feOffset dy="2.36238"/>
<feGaussianBlur stdDeviation="0.918704"/>
<feComposite in2="hardAlpha" operator="out"/>
<feColorMatrix type="matrix" values="0 0 0 0 0.254167 0 0 0 0 0.252049 0 0 0 0 0.252049 0 0 0 0.25 0"/>
<feBlend mode="normal" in2="BackgroundImageFix" result="effect1_dropShadow_217_803"/>
<feBlend mode="normal" in="SourceGraphic" in2="effect1_dropShadow_217_803" result="shape"/>
</filter>
</defs>
</svg>
