<svg width="337" height="371" viewBox="0 0 337 371" fill="none" xmlns="http://www.w3.org/2000/svg">
<path d="M22.9721 315.628C25.5126 315.628 27.5721 313.569 27.5721 311.028C27.5721 308.488 25.5126 306.428 22.9721 306.428C20.4316 306.428 18.3721 308.488 18.3721 311.028C18.3721 313.569 20.4316 315.628 22.9721 315.628Z" fill="#FEE7E1"/>
<path d="M44.0484 315.62C44.946 314.736 45.5662 313.611 45.833 312.38C46.0998 311.149 46.0016 309.868 45.5504 308.692C45.0992 307.516 44.3147 306.498 43.293 305.762C42.2714 305.026 41.0571 304.604 39.7991 304.548C39.7043 304.544 39.6126 304.513 39.5348 304.458C39.457 304.404 39.3965 304.328 39.3602 304.24C39.3243 304.152 39.3142 304.056 39.3312 303.962C39.3481 303.869 39.3915 303.782 39.4561 303.712C40.2983 302.781 40.8528 301.626 41.0527 300.387C41.2525 299.147 41.0891 297.876 40.5822 296.728C40.0754 295.579 39.2467 294.602 38.1963 293.914C37.146 293.226 35.9189 292.857 34.6634 292.852H34.6395C33.0283 292.851 31.4757 293.456 30.2886 294.545C30.2188 294.61 30.1319 294.653 30.0381 294.67C29.9444 294.687 29.8478 294.677 29.7596 294.641C29.6719 294.604 29.5963 294.544 29.5417 294.466C29.487 294.388 29.4556 294.297 29.451 294.202C29.3778 292.532 28.6631 290.956 27.456 289.8C26.2488 288.645 24.6422 288 22.9713 288C21.3003 288 19.6937 288.645 18.4865 289.8C17.2794 290.956 16.5647 292.532 16.4915 294.202C16.4873 294.297 16.4562 294.388 16.4017 294.466C16.3472 294.544 16.2716 294.604 16.1838 294.641C16.0957 294.677 15.9991 294.687 15.9053 294.67C15.8116 294.653 15.7247 294.61 15.6548 294.545C14.4672 293.454 12.9129 292.849 11.3002 292.85H11.28C10.0259 292.858 8.80096 293.229 7.75268 293.918C6.70439 294.606 5.87739 295.583 5.37117 296.731C4.86495 297.878 4.70109 299.148 4.89929 300.386C5.09749 301.624 5.64931 302.779 6.48836 303.711C6.55295 303.781 6.59628 303.868 6.61326 303.961C6.63023 304.055 6.62015 304.151 6.58419 304.239C6.54795 304.327 6.48737 304.403 6.40962 304.457C6.33186 304.512 6.24014 304.543 6.14528 304.547C4.48613 304.635 2.92394 305.356 1.78063 306.562C0.637322 307.767 0 309.365 0 311.027C0 312.688 0.637322 314.286 1.78063 315.492C2.92394 316.698 4.48613 317.419 6.14528 317.507C6.24027 317.511 6.33198 317.543 6.4097 317.598C6.48742 317.652 6.54794 317.728 6.58419 317.816C6.62023 317.904 6.63036 318.001 6.61338 318.095C6.5964 318.188 6.55303 318.275 6.48836 318.345C5.64344 319.274 5.0867 320.428 4.88597 321.667C4.68523 322.906 4.84916 324.177 5.35778 325.324C5.8664 326.472 6.69776 327.447 7.75063 328.131C8.80349 328.814 10.0324 329.177 11.2877 329.174H11.3117C12.9157 329.179 14.4639 328.586 15.6548 327.512C15.7246 327.447 15.8113 327.404 15.9049 327.387C15.9984 327.37 16.0949 327.38 16.1829 327.416C16.2706 327.452 16.3462 327.513 16.4007 327.59C16.4552 327.668 16.4864 327.76 16.4905 327.855C16.5785 329.514 17.2995 331.076 18.5051 332.219C19.7106 333.363 21.3088 334 22.9703 334C24.6318 334 26.2299 333.363 27.4355 332.219C28.641 331.076 29.3621 329.514 29.4501 327.855C29.4546 327.76 29.4861 327.668 29.5407 327.59C29.5953 327.513 29.6709 327.452 29.7587 327.416C29.8467 327.38 29.9431 327.37 30.0367 327.387C30.1302 327.404 30.2169 327.447 30.2867 327.512C31.4759 328.588 33.0231 329.183 34.627 329.181H34.651C35.9074 329.186 37.138 328.825 38.1925 328.142C39.247 327.459 40.0796 326.483 40.5887 325.334C41.0978 324.186 41.2612 322.914 41.059 321.674C40.8569 320.434 40.2979 319.279 39.4503 318.352C39.3856 318.282 39.3423 318.195 39.3253 318.101C39.3083 318.008 39.3184 317.911 39.3545 317.823C39.3909 317.735 39.4515 317.66 39.5292 317.605C39.6069 317.55 39.6985 317.519 39.7934 317.514C41.3982 317.435 42.9155 316.759 44.0484 315.62ZM22.9717 318.695C21.4554 318.695 19.9731 318.245 18.7123 317.403C17.4516 316.56 16.4689 315.363 15.8886 313.962C15.3084 312.561 15.1565 311.02 15.4524 309.533C15.7482 308.045 16.4784 306.679 17.5506 305.607C18.6228 304.535 19.9888 303.805 21.476 303.509C22.9632 303.213 24.5047 303.365 25.9056 303.945C27.3065 304.525 28.5039 305.508 29.3463 306.769C30.1888 308.03 30.6384 309.512 30.6384 311.028C30.6361 313.061 29.8277 315.01 28.3904 316.447C26.9531 317.884 25.0044 318.693 22.9717 318.695Z" fill="#FEE7E1"/>
<path d="M289.985 134.833C292.085 134.833 293.787 133.131 293.787 131.032C293.787 128.932 292.085 127.23 289.985 127.23C287.886 127.23 286.184 128.932 286.184 131.032C286.184 133.131 287.886 134.833 289.985 134.833Z" fill="#FEE7E1"/>
<path d="M307.404 134.826C308.146 134.096 308.658 133.166 308.879 132.149C309.099 131.132 309.018 130.072 308.645 129.101C308.272 128.129 307.624 127.288 306.779 126.679C305.935 126.071 304.932 125.722 303.892 125.676C303.814 125.673 303.738 125.647 303.673 125.602C303.609 125.557 303.559 125.494 303.529 125.422C303.499 125.349 303.491 125.269 303.505 125.192C303.519 125.115 303.555 125.043 303.608 124.985C304.304 124.216 304.763 123.261 304.928 122.237C305.093 121.212 304.958 120.162 304.539 119.213C304.12 118.264 303.435 117.456 302.567 116.887C301.699 116.319 300.685 116.014 299.648 116.01H299.628C298.296 116.009 297.013 116.509 296.032 117.409C295.974 117.463 295.902 117.498 295.825 117.512C295.747 117.527 295.668 117.518 295.595 117.488C295.522 117.458 295.46 117.408 295.415 117.344C295.37 117.28 295.344 117.204 295.34 117.125C295.279 115.746 294.689 114.443 293.691 113.488C292.693 112.533 291.366 112 289.985 112C288.604 112 287.276 112.533 286.278 113.488C285.281 114.443 284.69 115.746 284.629 117.125C284.626 117.204 284.6 117.28 284.555 117.344C284.51 117.408 284.448 117.458 284.375 117.488C284.302 117.518 284.222 117.527 284.145 117.512C284.067 117.498 283.996 117.463 283.938 117.409C282.956 116.507 281.672 116.007 280.339 116.008H280.322C279.286 116.015 278.274 116.322 277.407 116.891C276.541 117.46 275.857 118.267 275.439 119.215C275.021 120.164 274.885 121.213 275.049 122.236C275.213 123.26 275.669 124.214 276.362 124.985C276.416 125.042 276.451 125.114 276.466 125.191C276.48 125.269 276.471 125.348 276.441 125.421C276.412 125.494 276.361 125.556 276.297 125.601C276.233 125.646 276.157 125.672 276.079 125.675C274.708 125.748 273.416 126.344 272.472 127.34C271.527 128.337 271 129.657 271 131.03C271 132.404 271.527 133.724 272.472 134.721C273.416 135.717 274.708 136.313 276.079 136.386C276.157 136.39 276.233 136.416 276.297 136.461C276.362 136.506 276.412 136.569 276.441 136.642C276.471 136.714 276.48 136.794 276.466 136.872C276.452 136.949 276.416 137.021 276.362 137.079C275.664 137.846 275.204 138.8 275.038 139.824C274.872 140.848 275.008 141.898 275.428 142.847C275.848 143.795 276.535 144.601 277.405 145.166C278.276 145.731 279.291 146.03 280.329 146.028H280.349C281.674 146.032 282.954 145.542 283.938 144.654C283.996 144.601 284.067 144.565 284.145 144.551C284.222 144.537 284.302 144.545 284.374 144.575C284.447 144.605 284.509 144.655 284.554 144.719C284.599 144.784 284.625 144.859 284.629 144.938C284.701 146.309 285.297 147.6 286.294 148.545C287.29 149.49 288.611 150.017 289.984 150.017C291.357 150.017 292.678 149.49 293.674 148.545C294.67 147.6 295.266 146.309 295.339 144.938C295.343 144.859 295.369 144.784 295.414 144.72C295.459 144.655 295.521 144.605 295.594 144.575C295.667 144.545 295.746 144.537 295.824 144.551C295.901 144.565 295.973 144.601 296.03 144.654C297.013 145.544 298.292 146.036 299.617 146.034H299.637C300.676 146.038 301.693 145.74 302.564 145.175C303.436 144.611 304.124 143.804 304.544 142.855C304.965 141.906 305.1 140.854 304.933 139.83C304.766 138.805 304.304 137.851 303.604 137.084C303.55 137.026 303.514 136.955 303.5 136.877C303.486 136.8 303.495 136.72 303.524 136.647C303.555 136.575 303.605 136.512 303.669 136.467C303.733 136.422 303.809 136.396 303.887 136.392C305.213 136.326 306.467 135.768 307.404 134.826ZM289.985 137.368C288.732 137.368 287.507 136.996 286.465 136.3C285.423 135.604 284.611 134.614 284.131 133.456C283.652 132.299 283.526 131.025 283.771 129.796C284.015 128.566 284.619 127.437 285.505 126.551C286.391 125.665 287.52 125.062 288.749 124.817C289.978 124.573 291.252 124.698 292.41 125.178C293.567 125.657 294.557 126.47 295.253 127.512C295.949 128.553 296.321 129.779 296.321 131.032C296.319 132.712 295.651 134.322 294.463 135.51C293.275 136.698 291.665 137.366 289.985 137.368Z" fill="#FEE7E1"/>
<path d="M286.973 42.0613C290.841 42.0613 293.976 38.926 293.976 35.0583C293.976 31.1906 290.841 28.0552 286.973 28.0552C283.105 28.0552 279.97 31.1906 279.97 35.0583C279.97 38.926 283.105 42.0613 286.973 42.0613Z" fill="#FDE2E7"/>
<path d="M319.06 42.0483C320.426 40.7038 321.37 38.9896 321.776 37.1161C322.183 35.2426 322.033 33.2913 321.346 31.5015C320.659 29.7118 319.465 28.1615 317.91 27.0408C316.354 25.9202 314.506 25.2779 312.59 25.1928C312.446 25.1865 312.306 25.1391 312.188 25.0561C312.07 24.9731 311.977 24.8581 311.922 24.7245C311.867 24.5905 311.852 24.4436 311.878 24.3012C311.904 24.1588 311.97 24.0268 312.068 23.9206C313.35 22.503 314.195 20.7444 314.499 18.8574C314.803 16.9703 314.554 15.0356 313.783 13.2868C313.011 11.5381 311.749 10.0503 310.15 9.00313C308.551 7.95598 306.683 7.3943 304.772 7.38599H304.735C302.282 7.38558 299.919 8.30555 298.112 9.964C298.005 10.0626 297.873 10.1287 297.73 10.1546C297.587 10.1804 297.44 10.1649 297.306 10.1099C297.173 10.0545 297.058 9.96225 296.974 9.84395C296.891 9.72564 296.843 9.58614 296.836 9.44169C296.725 6.9002 295.637 4.49978 293.799 2.7408C291.961 0.981819 289.515 0 286.972 0C284.428 0 281.982 0.981819 280.144 2.7408C278.306 4.49978 277.218 6.9002 277.107 9.44169C277.1 9.58611 277.053 9.72573 276.97 9.84412C276.887 9.9625 276.772 10.0547 276.638 10.1099C276.504 10.1649 276.357 10.1804 276.214 10.1546C276.072 10.1287 275.939 10.0626 275.833 9.964C274.025 8.30288 271.659 7.38171 269.203 7.38307H269.173C267.263 7.39643 265.399 7.96121 263.803 9.00945C262.207 10.0577 260.948 11.5447 260.177 13.2917C259.406 15.0387 259.157 16.9711 259.459 18.8565C259.76 20.7419 260.601 22.4999 261.878 23.9191C261.976 24.0253 262.042 24.1574 262.068 24.2998C262.094 24.4422 262.079 24.589 262.024 24.723C261.969 24.8566 261.876 24.9717 261.758 25.0546C261.64 25.1376 261.5 25.185 261.356 25.1913C258.83 25.3253 256.451 26.423 254.711 28.2583C252.97 30.0937 252 32.5267 252 35.0562C252 37.5856 252.97 40.0187 254.711 41.854C256.451 43.6894 258.83 44.7871 261.356 44.921C261.5 44.9281 261.64 44.9762 261.758 45.0596C261.876 45.1431 261.969 45.2584 262.024 45.3923C262.079 45.5265 262.094 45.6736 262.068 45.8162C262.042 45.9589 261.976 46.0912 261.878 46.1976C260.592 47.611 259.744 49.3679 259.438 51.2544C259.133 53.1409 259.382 55.0756 260.157 56.8228C260.931 58.5699 262.197 60.0543 263.8 61.0949C265.402 62.1356 267.273 62.6877 269.184 62.6841H269.221C271.663 62.6908 274.02 61.7885 275.833 60.1527C275.939 60.0544 276.071 59.9884 276.214 59.9626C276.356 59.9368 276.503 59.9521 276.637 60.0068C276.771 60.062 276.886 60.1542 276.969 60.2726C277.052 60.391 277.099 60.5306 277.105 60.6751C277.239 63.2009 278.337 65.5792 280.172 67.3198C282.008 69.0604 284.441 70.0307 286.97 70.0307C289.5 70.0307 291.933 69.0604 293.768 67.3198C295.603 65.5792 296.701 63.2009 296.835 60.6751C296.842 60.5306 296.89 60.3911 296.973 60.2728C297.056 60.1545 297.171 60.0623 297.305 60.0068C297.439 59.9521 297.586 59.9368 297.728 59.9626C297.87 59.9884 298.002 60.0544 298.109 60.1527C299.919 61.7912 302.275 62.6971 304.716 62.6943H304.753C306.666 62.7018 308.539 62.152 310.144 61.112C311.75 60.0721 313.017 58.587 313.792 56.8382C314.567 55.0895 314.816 53.1529 314.509 51.265C314.201 49.3772 313.35 47.6199 312.059 46.2079C311.961 46.1014 311.895 45.9691 311.869 45.8264C311.843 45.6838 311.859 45.5367 311.913 45.4025C311.969 45.2689 312.061 45.1538 312.179 45.0707C312.298 44.9875 312.437 44.9397 312.582 44.9327C315.025 44.8116 317.335 43.783 319.06 42.0483ZM286.972 46.7302C284.664 46.7302 282.407 46.0456 280.488 44.7631C278.568 43.4806 277.072 41.6577 276.189 39.525C275.306 37.3922 275.074 35.0454 275.525 32.7813C275.975 30.5172 277.087 28.4375 278.719 26.8052C280.351 25.1728 282.431 24.0612 284.695 23.6108C286.959 23.1605 289.306 23.3916 291.439 24.275C293.572 25.1584 295.395 26.6544 296.677 28.5739C297.96 30.4933 298.644 32.7499 298.644 35.0584C298.641 38.1529 297.41 41.1196 295.222 43.3077C293.034 45.4959 290.067 46.7267 286.972 46.7302Z" fill="#FDE2E7"/>
<path d="M25.9853 56.8333C28.0849 56.8333 29.7869 55.1313 29.7869 53.0317C29.7869 50.932 28.0849 49.23 25.9853 49.23C23.8857 49.23 22.1836 50.932 22.1836 53.0317C22.1836 55.1313 23.8857 56.8333 25.9853 56.8333Z" fill="#E7D4E7"/>
<path d="M43.4037 56.8262C44.1455 56.0963 44.6581 55.1658 44.8786 54.1487C45.0991 53.1317 45.018 52.0724 44.6451 51.1008C44.2722 50.1293 43.6238 49.2877 42.7795 48.6793C41.9351 48.0709 40.9316 47.7223 39.8919 47.6761C39.8135 47.6727 39.7378 47.6469 39.6735 47.6019C39.6092 47.5568 39.5592 47.4944 39.5292 47.4218C39.4995 47.3491 39.4912 47.2694 39.5052 47.1921C39.5192 47.1148 39.555 47.0431 39.6084 46.9854C40.3045 46.2159 40.7627 45.2613 40.9279 44.2369C41.0931 43.2125 40.958 42.1622 40.5391 41.2129C40.1202 40.2635 39.4354 39.4559 38.5673 38.8874C37.6993 38.319 36.6852 38.0141 35.6475 38.0095H35.6277C34.2962 38.0093 33.013 38.5087 32.032 39.409C31.9743 39.4626 31.9024 39.4985 31.825 39.5125C31.7475 39.5265 31.6676 39.5181 31.5948 39.4882C31.5223 39.4581 31.4598 39.4081 31.4147 39.3439C31.3695 39.2796 31.3435 39.2039 31.3398 39.1255C31.2793 37.7458 30.6886 36.4427 29.6909 35.4879C28.6933 34.533 27.3656 34 25.9846 34C24.6036 34 23.2759 34.533 22.2782 35.4879C21.2805 36.4427 20.6899 37.7458 20.6294 39.1255C20.6259 39.2039 20.6002 39.2797 20.5552 39.3439C20.5101 39.4082 20.4476 39.4583 20.3751 39.4882C20.3023 39.5181 20.2224 39.5265 20.1449 39.5125C20.0675 39.4985 19.9956 39.4626 19.9379 39.409C18.9564 38.5073 17.6719 38.0072 16.339 38.008H16.3224C15.2859 38.0152 14.2735 38.3218 13.4072 38.8908C12.5408 39.4599 11.8574 40.2671 11.439 41.2155C11.0206 42.1638 10.8852 43.2129 11.049 44.2364C11.2128 45.2599 11.6689 46.2142 12.3623 46.9847C12.4157 47.0423 12.4515 47.114 12.4655 47.1913C12.4795 47.2686 12.4712 47.3483 12.4415 47.4211C12.4115 47.4936 12.3615 47.5561 12.2972 47.6011C12.233 47.6461 12.1572 47.6719 12.0788 47.6753C10.7076 47.748 9.41649 48.3439 8.4716 49.3402C7.52671 50.3366 7 51.6574 7 53.0305C7 54.4036 7.52671 55.7244 8.4716 56.7208C9.41649 57.7171 10.7076 58.313 12.0788 58.3857C12.1573 58.3895 12.2331 58.4156 12.2973 58.4609C12.3615 58.5062 12.4115 58.5689 12.4415 58.6415C12.4713 58.7144 12.4796 58.7942 12.4656 58.8717C12.4516 58.9491 12.4157 59.0209 12.3623 59.0787C11.664 59.846 11.2039 60.7997 11.038 61.8238C10.8721 62.8479 11.0076 63.8982 11.4279 64.8466C11.8483 65.7951 12.5354 66.6009 13.4055 67.1658C14.2756 67.7308 15.2913 68.0305 16.3287 68.0285H16.3485C17.6741 68.0321 18.9536 67.5423 19.9379 66.6543C19.9956 66.601 20.0673 66.5652 20.1446 66.5511C20.2219 66.5371 20.3016 66.5454 20.3743 66.5751C20.4469 66.6051 20.5093 66.6552 20.5544 66.7194C20.5994 66.7837 20.6251 66.8595 20.6286 66.9379C20.7013 68.3091 21.2972 69.6002 22.2935 70.545C23.2898 71.4899 24.6106 72.0166 25.9838 72.0166C27.3569 72.0166 28.6777 71.4899 29.674 70.545C30.6703 69.6002 31.2663 68.3091 31.339 66.9379C31.3427 66.8595 31.3687 66.7837 31.4139 66.7195C31.459 66.6553 31.5215 66.6052 31.594 66.5751C31.6667 66.5454 31.7464 66.5371 31.8238 66.5511C31.9011 66.5652 31.9728 66.601 32.0304 66.6543C33.0132 67.5438 34.2919 68.0356 35.6174 68.034H35.6372C36.6756 68.0381 37.6927 67.7397 38.5641 67.1751C39.4356 66.6105 40.1238 65.8043 40.5445 64.855C40.9652 63.9057 41.1003 62.8544 40.9332 61.8296C40.7661 60.8048 40.3041 59.8508 39.6037 59.0843C39.5502 59.0265 39.5144 58.9547 39.5003 58.8772C39.4863 58.7998 39.4947 58.7199 39.5245 58.6471C39.5545 58.5746 39.6046 58.5121 39.6688 58.4669C39.7331 58.4218 39.8088 58.3958 39.8872 58.392C41.2135 58.3263 42.4675 57.7679 43.4037 56.8262ZM25.985 59.3678C24.7318 59.3678 23.5068 58.9962 22.4648 58.3C21.4228 57.6038 20.6107 56.6142 20.1311 55.4564C19.6516 54.2986 19.5261 53.0247 19.7706 51.7956C20.0151 50.5665 20.6185 49.4375 21.5046 48.5514C22.3908 47.6652 23.5198 47.0618 24.7488 46.8173C25.9779 46.5728 27.2519 46.6983 28.4097 47.1779C29.5675 47.6574 30.557 48.4696 31.2533 49.5115C31.9495 50.5535 32.3211 51.7785 32.3211 53.0317C32.3192 54.7115 31.651 56.3221 30.4632 57.5099C29.2753 58.6978 27.6648 59.3659 25.985 59.3678Z" fill="#E7D4E7"/>
<path d="M306.985 272.833C309.085 272.833 310.787 271.131 310.787 269.032C310.787 266.932 309.085 265.23 306.985 265.23C304.886 265.23 303.184 266.932 303.184 269.032C303.184 271.131 304.886 272.833 306.985 272.833Z" fill="#E7D4E7"/>
<path d="M324.404 272.826C325.146 272.096 325.658 271.166 325.879 270.149C326.099 269.132 326.018 268.072 325.645 267.101C325.272 266.129 324.624 265.288 323.779 264.679C322.935 264.071 321.932 263.722 320.892 263.676C320.814 263.673 320.738 263.647 320.673 263.602C320.609 263.557 320.559 263.494 320.529 263.422C320.499 263.349 320.491 263.269 320.505 263.192C320.519 263.115 320.555 263.043 320.608 262.985C321.304 262.216 321.763 261.261 321.928 260.237C322.093 259.212 321.958 258.162 321.539 257.213C321.12 256.264 320.435 255.456 319.567 254.887C318.699 254.319 317.685 254.014 316.648 254.01H316.628C315.296 254.009 314.013 254.509 313.032 255.409C312.974 255.463 312.902 255.498 312.825 255.512C312.747 255.527 312.668 255.518 312.595 255.488C312.522 255.458 312.46 255.408 312.415 255.344C312.37 255.28 312.344 255.204 312.34 255.125C312.279 253.746 311.689 252.443 310.691 251.488C309.693 250.533 308.366 250 306.985 250C305.604 250 304.276 250.533 303.278 251.488C302.281 252.443 301.69 253.746 301.629 255.125C301.626 255.204 301.6 255.28 301.555 255.344C301.51 255.408 301.448 255.458 301.375 255.488C301.302 255.518 301.222 255.527 301.145 255.512C301.067 255.498 300.996 255.463 300.938 255.409C299.956 254.507 298.672 254.007 297.339 254.008H297.322C296.286 254.015 295.274 254.322 294.407 254.891C293.541 255.46 292.857 256.267 292.439 257.215C292.021 258.164 291.885 259.213 292.049 260.236C292.213 261.26 292.669 262.214 293.362 262.985C293.416 263.042 293.451 263.114 293.466 263.191C293.48 263.269 293.471 263.348 293.441 263.421C293.412 263.494 293.361 263.556 293.297 263.601C293.233 263.646 293.157 263.672 293.079 263.675C291.708 263.748 290.416 264.344 289.472 265.34C288.527 266.337 288 267.657 288 269.03C288 270.404 288.527 271.724 289.472 272.721C290.416 273.717 291.708 274.313 293.079 274.386C293.157 274.39 293.233 274.416 293.297 274.461C293.362 274.506 293.412 274.569 293.441 274.642C293.471 274.714 293.48 274.794 293.466 274.872C293.452 274.949 293.416 275.021 293.362 275.079C292.664 275.846 292.204 276.8 292.038 277.824C291.872 278.848 292.008 279.898 292.428 280.847C292.848 281.795 293.535 282.601 294.405 283.166C295.276 283.731 296.291 284.03 297.329 284.028H297.349C298.674 284.032 299.954 283.542 300.938 282.654C300.996 282.601 301.067 282.565 301.145 282.551C301.222 282.537 301.302 282.545 301.374 282.575C301.447 282.605 301.509 282.655 301.554 282.719C301.599 282.784 301.625 282.859 301.629 282.938C301.701 284.309 302.297 285.6 303.294 286.545C304.29 287.49 305.611 288.017 306.984 288.017C308.357 288.017 309.678 287.49 310.674 286.545C311.67 285.6 312.266 284.309 312.339 282.938C312.343 282.859 312.369 282.784 312.414 282.72C312.459 282.655 312.521 282.605 312.594 282.575C312.667 282.545 312.746 282.537 312.824 282.551C312.901 282.565 312.973 282.601 313.03 282.654C314.013 283.544 315.292 284.036 316.617 284.034H316.637C317.676 284.038 318.693 283.74 319.564 283.175C320.436 282.611 321.124 281.804 321.544 280.855C321.965 279.906 322.1 278.854 321.933 277.83C321.766 276.805 321.304 275.851 320.604 275.084C320.55 275.026 320.514 274.955 320.5 274.877C320.486 274.8 320.495 274.72 320.524 274.647C320.555 274.575 320.605 274.512 320.669 274.467C320.733 274.422 320.809 274.396 320.887 274.392C322.213 274.326 323.467 273.768 324.404 272.826ZM306.985 275.368C305.732 275.368 304.507 274.996 303.465 274.3C302.423 273.604 301.611 272.614 301.131 271.456C300.652 270.299 300.526 269.025 300.771 267.796C301.015 266.566 301.619 265.437 302.505 264.551C303.391 263.665 304.52 263.062 305.749 262.817C306.978 262.573 308.252 262.698 309.41 263.178C310.567 263.657 311.557 264.47 312.253 265.512C312.949 266.553 313.321 267.779 313.321 269.032C313.319 270.712 312.651 272.322 311.463 273.51C310.275 274.698 308.665 275.366 306.985 275.368Z" fill="#E7D4E7"/>
<path d="M187.487 48.8139C188.757 48.8139 189.787 47.7841 189.787 46.5139C189.787 45.2436 188.757 44.2139 187.487 44.2139C186.216 44.2139 185.187 45.2436 185.187 46.5139C185.187 47.7841 186.216 48.8139 187.487 48.8139Z" fill="#E7D4E7"/>
<path d="M198.024 48.8098C198.473 48.3682 198.783 47.8053 198.917 47.1899C199.05 46.5746 199.001 45.9338 198.775 45.346C198.55 44.7582 198.157 44.249 197.647 43.8809C197.136 43.5129 196.529 43.3019 195.9 43.274C195.852 43.2719 195.806 43.2564 195.767 43.2291C195.729 43.2019 195.698 43.1641 195.68 43.1202C195.662 43.0762 195.657 43.028 195.666 42.9812C195.674 42.9344 195.696 42.891 195.728 42.8562C196.149 42.3906 196.426 41.813 196.526 41.1933C196.626 40.5735 196.545 39.9381 196.291 39.3638C196.038 38.7894 195.623 38.3008 195.098 37.9569C194.573 37.613 193.959 37.4285 193.332 37.4258H193.32C192.514 37.4256 191.738 37.7278 191.144 38.2725C191.109 38.3048 191.066 38.3266 191.019 38.335C190.972 38.3435 190.924 38.3384 190.88 38.3204C190.836 38.3022 190.798 38.2719 190.771 38.233C190.744 38.1942 190.728 38.1484 190.726 38.1009C190.689 37.2662 190.332 36.4779 189.728 35.9002C189.124 35.3225 188.321 35 187.486 35C186.65 35 185.847 35.3225 185.243 35.9002C184.64 36.4779 184.282 37.2662 184.246 38.1009C184.244 38.1483 184.228 38.1942 184.201 38.2331C184.174 38.272 184.136 38.3022 184.092 38.3204C184.048 38.3384 184 38.3435 183.953 38.335C183.906 38.3266 183.862 38.3048 183.827 38.2725C183.234 37.7269 182.456 37.4244 181.65 37.4248H181.64C181.013 37.4292 180.4 37.6147 179.876 37.959C179.352 38.3032 178.939 38.7916 178.686 39.3654C178.432 39.9391 178.351 40.5738 178.45 41.193C178.549 41.8122 178.825 42.3896 179.244 42.8557C179.276 42.8906 179.298 42.9339 179.307 42.9807C179.315 43.0275 179.31 43.0757 179.292 43.1197C179.274 43.1636 179.244 43.2014 179.205 43.2286C179.166 43.2559 179.12 43.2715 179.073 43.2735C178.243 43.3175 177.462 43.678 176.89 44.2808C176.319 44.8836 176 45.6827 176 46.5134C176 47.3442 176.319 48.1432 176.89 48.746C177.462 49.3488 178.243 49.7093 179.073 49.7533C179.12 49.7556 179.166 49.7714 179.205 49.7988C179.244 49.8262 179.274 49.8641 179.292 49.9081C179.31 49.9522 179.315 50.0005 179.307 50.0473C179.298 50.0942 179.277 50.1376 179.244 50.1726C178.822 50.6368 178.543 51.2138 178.443 51.8334C178.343 52.4529 178.425 53.0883 178.679 53.6622C178.933 54.236 179.349 54.7235 179.875 55.0653C180.402 55.407 181.016 55.5884 181.644 55.5872H181.656C182.458 55.5894 183.232 55.293 183.827 54.7558C183.862 54.7235 183.906 54.7019 183.952 54.6934C183.999 54.6849 184.047 54.6899 184.091 54.7079C184.135 54.726 184.173 54.7563 184.2 54.7952C184.228 54.8341 184.243 54.8799 184.245 54.9274C184.289 55.7569 184.65 56.538 185.253 57.1097C185.855 57.6813 186.654 58 187.485 58C188.316 58 189.115 57.6813 189.718 57.1097C190.321 56.538 190.681 55.7569 190.725 54.9274C190.727 54.8799 190.743 54.8341 190.77 54.7952C190.798 54.7564 190.835 54.7261 190.879 54.7079C190.923 54.6899 190.972 54.6849 191.018 54.6934C191.065 54.7019 191.108 54.7235 191.143 54.7558C191.738 55.2939 192.512 55.5915 193.314 55.5905H193.325C193.954 55.593 194.569 55.4124 195.096 55.0709C195.623 54.7293 196.04 54.2416 196.294 53.6672C196.549 53.0929 196.631 52.4569 196.53 51.8368C196.428 51.2168 196.149 50.6397 195.725 50.1759C195.693 50.141 195.671 50.0975 195.663 50.0507C195.654 50.0038 195.659 49.9555 195.677 49.9114C195.695 49.8676 195.726 49.8298 195.765 49.8024C195.803 49.7751 195.849 49.7594 195.897 49.7571C196.699 49.7174 197.458 49.3795 198.024 48.8098ZM187.486 50.3475C186.728 50.3475 185.987 50.1227 185.356 49.7014C184.726 49.2802 184.234 48.6815 183.944 47.9811C183.654 47.2806 183.578 46.5099 183.726 45.7663C183.874 45.0227 184.239 44.3397 184.775 43.8036C185.311 43.2675 185.994 42.9024 186.738 42.7544C187.482 42.6065 188.252 42.6825 188.953 42.9726C189.653 43.2627 190.252 43.7541 190.673 44.3844C191.094 45.0148 191.319 45.756 191.319 46.5141C191.318 47.5304 190.914 48.5048 190.195 49.2235C189.477 49.9421 188.502 50.3463 187.486 50.3475Z" fill="#E7D4E7"/>
<path d="M48.9815 215.019C50.6383 215.019 51.9815 213.675 51.9815 212.019C51.9815 210.362 50.6383 209.019 48.9815 209.019C47.3246 209.019 45.9814 210.362 45.9814 212.019C45.9814 213.675 47.3246 215.019 48.9815 215.019Z" fill="#FDE2E7"/>
<path d="M62.7272 215.013C63.3126 214.437 63.7171 213.703 63.8911 212.9C64.0651 212.097 64.001 211.261 63.7068 210.495C63.4125 209.728 62.9009 209.064 62.2346 208.584C61.5683 208.104 60.7764 207.829 59.956 207.792C59.8941 207.789 59.8343 207.769 59.7836 207.734C59.7329 207.698 59.6934 207.649 59.6697 207.592C59.6463 207.534 59.6397 207.471 59.6508 207.41C59.6618 207.349 59.6901 207.293 59.7322 207.247C60.2815 206.64 60.6431 205.887 60.7735 205.078C60.9038 204.27 60.7973 203.441 60.4667 202.692C60.1361 201.943 59.5957 201.305 58.9107 200.857C58.2256 200.408 57.4254 200.168 56.6066 200.164H56.591C55.5402 200.164 54.5276 200.558 53.7534 201.268C53.7079 201.311 53.6512 201.339 53.5901 201.35C53.5289 201.361 53.4659 201.354 53.4084 201.331C53.3512 201.307 53.3019 201.268 53.2663 201.217C53.2307 201.166 53.2102 201.107 53.2072 201.045C53.1594 199.956 52.6933 198.928 51.9061 198.174C51.1188 197.421 50.071 197 48.9813 197C47.8915 197 46.8437 197.421 46.0564 198.174C45.2692 198.928 44.8031 199.956 44.7553 201.045C44.7526 201.107 44.7323 201.166 44.6968 201.217C44.6612 201.268 44.6119 201.307 44.5547 201.331C44.4972 201.354 44.4342 201.361 44.373 201.35C44.3119 201.339 44.2552 201.311 44.2097 201.268C43.4351 200.557 42.4215 200.162 41.3697 200.163H41.3565C40.5386 200.169 39.7398 200.41 39.0561 200.86C38.3724 201.309 37.8331 201.946 37.5029 202.694C37.1728 203.442 37.0659 204.27 37.1952 205.078C37.3244 205.885 37.6843 206.639 38.2315 207.247C38.2737 207.292 38.3019 207.349 38.313 207.41C38.3241 207.471 38.3175 207.534 38.294 207.591C38.2704 207.648 38.2309 207.697 38.1802 207.733C38.1295 207.769 38.0697 207.789 38.0078 207.792C36.9257 207.849 35.9069 208.319 35.1613 209.105C34.4156 209.892 34 210.934 34 212.018C34 213.101 34.4156 214.143 35.1613 214.93C35.9069 215.716 36.9257 216.186 38.0078 216.243C38.0697 216.246 38.1296 216.267 38.1802 216.303C38.2309 216.339 38.2704 216.388 38.294 216.445C38.3175 216.503 38.3241 216.566 38.3131 216.627C38.302 216.688 38.2737 216.745 38.2315 216.79C37.6805 217.396 37.3174 218.148 37.1865 218.957C37.0556 219.765 37.1625 220.593 37.4942 221.342C37.8259 222.09 38.3681 222.726 39.0548 223.172C39.7414 223.618 40.5429 223.854 41.3615 223.853H41.3772C42.4233 223.856 43.433 223.469 44.2097 222.768C44.2552 222.726 44.3117 222.698 44.3728 222.687C44.4338 222.676 44.4967 222.683 44.5541 222.706C44.6113 222.73 44.6606 222.769 44.6961 222.82C44.7317 222.871 44.752 222.93 44.7547 222.992C44.8121 224.074 45.2823 225.093 46.0685 225.839C46.8548 226.584 47.8971 227 48.9806 227C50.0642 227 51.1065 226.584 51.8927 225.839C52.6789 225.093 53.1492 224.074 53.2066 222.992C53.2095 222.93 53.23 222.871 53.2657 222.82C53.3013 222.769 53.3506 222.73 53.4078 222.706C53.4652 222.683 53.5281 222.676 53.5891 222.687C53.6501 222.698 53.7067 222.726 53.7522 222.768C54.5278 223.47 55.5368 223.858 56.5828 223.857H56.5985C57.4178 223.86 58.2204 223.625 58.9081 223.179C59.5959 222.734 60.1389 222.098 60.4709 221.349C60.8029 220.599 60.9095 219.77 60.7776 218.961C60.6458 218.152 60.2812 217.4 59.7285 216.795C59.6863 216.749 59.658 216.692 59.6469 216.631C59.6359 216.57 59.6425 216.507 59.666 216.45C59.6897 216.392 59.7292 216.343 59.7799 216.308C59.8306 216.272 59.8903 216.251 59.9522 216.248C60.9988 216.197 61.9884 215.756 62.7272 215.013ZM48.9816 217.018C47.9927 217.018 47.026 216.725 46.2037 216.176C45.3815 215.626 44.7406 214.845 44.3622 213.932C43.9837 213.018 43.8847 212.013 44.0776 211.043C44.2706 210.073 44.7468 209.182 45.446 208.483C46.1453 207.784 47.0362 207.307 48.0061 207.115C48.976 206.922 49.9814 207.021 50.895 207.399C51.8086 207.777 52.5895 208.418 53.1389 209.241C53.6883 210.063 53.9816 211.03 53.9816 212.018C53.9801 213.344 53.4528 214.615 52.5155 215.552C51.5781 216.49 50.3072 217.017 48.9816 217.018Z" fill="#FDE2E7"/>
<path d="M78.9853 134.833C81.0849 134.833 82.7869 133.131 82.7869 131.032C82.7869 128.932 81.0849 127.23 78.9853 127.23C76.8857 127.23 75.1836 128.932 75.1836 131.032C75.1836 133.131 76.8857 134.833 78.9853 134.833Z" fill="#B07DAD"/>
<path d="M96.4037 134.826C97.1455 134.096 97.6581 133.166 97.8786 132.149C98.0991 131.132 98.018 130.072 97.6451 129.101C97.2722 128.129 96.6238 127.288 95.7795 126.679C94.9351 126.071 93.9316 125.722 92.8919 125.676C92.8135 125.673 92.7378 125.647 92.6735 125.602C92.6092 125.557 92.5592 125.494 92.5292 125.422C92.4995 125.349 92.4912 125.269 92.5052 125.192C92.5192 125.115 92.555 125.043 92.6084 124.985C93.3045 124.216 93.7627 123.261 93.9279 122.237C94.0931 121.212 93.958 120.162 93.5391 119.213C93.1202 118.264 92.4354 117.456 91.5673 116.887C90.6993 116.319 89.6852 116.014 88.6475 116.01H88.6277C87.2962 116.009 86.013 116.509 85.032 117.409C84.9743 117.463 84.9024 117.498 84.825 117.512C84.7475 117.527 84.6676 117.518 84.5948 117.488C84.5223 117.458 84.4598 117.408 84.4147 117.344C84.3695 117.28 84.3435 117.204 84.3398 117.125C84.2793 115.746 83.6886 114.443 82.6909 113.488C81.6933 112.533 80.3656 112 78.9846 112C77.6036 112 76.2759 112.533 75.2782 113.488C74.2805 114.443 73.6899 115.746 73.6294 117.125C73.6259 117.204 73.6002 117.28 73.5552 117.344C73.5101 117.408 73.4476 117.458 73.3751 117.488C73.3023 117.518 73.2224 117.527 73.1449 117.512C73.0675 117.498 72.9956 117.463 72.9379 117.409C71.9564 116.507 70.6719 116.007 69.339 116.008H69.3224C68.2859 116.015 67.2735 116.322 66.4072 116.891C65.5408 117.46 64.8574 118.267 64.439 119.215C64.0206 120.164 63.8852 121.213 64.049 122.236C64.2128 123.26 64.6689 124.214 65.3623 124.985C65.4157 125.042 65.4515 125.114 65.4655 125.191C65.4795 125.269 65.4712 125.348 65.4415 125.421C65.4115 125.494 65.3615 125.556 65.2972 125.601C65.233 125.646 65.1572 125.672 65.0788 125.675C63.7076 125.748 62.4165 126.344 61.4716 127.34C60.5267 128.337 60 129.657 60 131.03C60 132.404 60.5267 133.724 61.4716 134.721C62.4165 135.717 63.7076 136.313 65.0788 136.386C65.1573 136.39 65.2331 136.416 65.2973 136.461C65.3615 136.506 65.4115 136.569 65.4415 136.642C65.4713 136.714 65.4796 136.794 65.4656 136.872C65.4516 136.949 65.4157 137.021 65.3623 137.079C64.664 137.846 64.2039 138.8 64.038 139.824C63.8721 140.848 64.0076 141.898 64.4279 142.847C64.8483 143.795 65.5354 144.601 66.4055 145.166C67.2756 145.731 68.2913 146.03 69.3287 146.028H69.3485C70.6741 146.032 71.9536 145.542 72.9379 144.654C72.9956 144.601 73.0673 144.565 73.1446 144.551C73.2219 144.537 73.3016 144.545 73.3743 144.575C73.4469 144.605 73.5093 144.655 73.5544 144.719C73.5994 144.784 73.6251 144.859 73.6286 144.938C73.7013 146.309 74.2972 147.6 75.2935 148.545C76.2898 149.49 77.6106 150.017 78.9838 150.017C80.3569 150.017 81.6777 149.49 82.674 148.545C83.6703 147.6 84.2663 146.309 84.339 144.938C84.3427 144.859 84.3687 144.784 84.4139 144.72C84.459 144.655 84.5215 144.605 84.594 144.575C84.6667 144.545 84.7464 144.537 84.8238 144.551C84.9011 144.565 84.9728 144.601 85.0304 144.654C86.0132 145.544 87.2919 146.036 88.6174 146.034H88.6372C89.6756 146.038 90.6927 145.74 91.5641 145.175C92.4356 144.611 93.1238 143.804 93.5445 142.855C93.9652 141.906 94.1003 140.854 93.9332 139.83C93.7661 138.805 93.3041 137.851 92.6037 137.084C92.5502 137.026 92.5144 136.955 92.5003 136.877C92.4863 136.8 92.4947 136.72 92.5245 136.647C92.5545 136.575 92.6046 136.512 92.6688 136.467C92.7331 136.422 92.8088 136.396 92.8872 136.392C94.2135 136.326 95.4675 135.768 96.4037 134.826ZM78.985 137.368C77.7318 137.368 76.5068 136.996 75.4648 136.3C74.4228 135.604 73.6107 134.614 73.1311 133.456C72.6516 132.299 72.5261 131.025 72.7706 129.796C73.0151 128.566 73.6185 127.437 74.5046 126.551C75.3908 125.665 76.5198 125.062 77.7488 124.817C78.9779 124.573 80.2519 124.698 81.4097 125.178C82.5675 125.657 83.557 126.47 84.2533 127.512C84.9495 128.553 85.3211 129.779 85.3211 131.032C85.3192 132.712 84.651 134.322 83.4632 135.51C82.2753 136.698 80.6648 137.366 78.985 137.368Z" fill="#B07DAD"/>
<path d="M238.985 310.833C241.085 310.833 242.787 309.131 242.787 307.032C242.787 304.932 241.085 303.23 238.985 303.23C236.886 303.23 235.184 304.932 235.184 307.032C235.184 309.131 236.886 310.833 238.985 310.833Z" fill="#B07DAD"/>
<path d="M256.404 310.826C257.146 310.096 257.658 309.166 257.879 308.149C258.099 307.132 258.018 306.072 257.645 305.101C257.272 304.129 256.624 303.288 255.779 302.679C254.935 302.071 253.932 301.722 252.892 301.676C252.814 301.673 252.738 301.647 252.673 301.602C252.609 301.557 252.559 301.494 252.529 301.422C252.499 301.349 252.491 301.269 252.505 301.192C252.519 301.115 252.555 301.043 252.608 300.985C253.304 300.216 253.763 299.261 253.928 298.237C254.093 297.212 253.958 296.162 253.539 295.213C253.12 294.264 252.435 293.456 251.567 292.887C250.699 292.319 249.685 292.014 248.648 292.01H248.628C247.296 292.009 246.013 292.509 245.032 293.409C244.974 293.463 244.902 293.498 244.825 293.512C244.747 293.527 244.668 293.518 244.595 293.488C244.522 293.458 244.46 293.408 244.415 293.344C244.37 293.28 244.344 293.204 244.34 293.125C244.279 291.746 243.689 290.443 242.691 289.488C241.693 288.533 240.366 288 238.985 288C237.604 288 236.276 288.533 235.278 289.488C234.281 290.443 233.69 291.746 233.629 293.125C233.626 293.204 233.6 293.28 233.555 293.344C233.51 293.408 233.448 293.458 233.375 293.488C233.302 293.518 233.222 293.527 233.145 293.512C233.067 293.498 232.996 293.463 232.938 293.409C231.956 292.507 230.672 292.007 229.339 292.008H229.322C228.286 292.015 227.274 292.322 226.407 292.891C225.541 293.46 224.857 294.267 224.439 295.215C224.021 296.164 223.885 297.213 224.049 298.236C224.213 299.26 224.669 300.214 225.362 300.985C225.416 301.042 225.451 301.114 225.466 301.191C225.48 301.269 225.471 301.348 225.441 301.421C225.412 301.494 225.361 301.556 225.297 301.601C225.233 301.646 225.157 301.672 225.079 301.675C223.708 301.748 222.416 302.344 221.472 303.34C220.527 304.337 220 305.657 220 307.03C220 308.404 220.527 309.724 221.472 310.721C222.416 311.717 223.708 312.313 225.079 312.386C225.157 312.39 225.233 312.416 225.297 312.461C225.362 312.506 225.412 312.569 225.441 312.642C225.471 312.714 225.48 312.794 225.466 312.872C225.452 312.949 225.416 313.021 225.362 313.079C224.664 313.846 224.204 314.8 224.038 315.824C223.872 316.848 224.008 317.898 224.428 318.847C224.848 319.795 225.535 320.601 226.405 321.166C227.276 321.731 228.291 322.03 229.329 322.028H229.349C230.674 322.032 231.954 321.542 232.938 320.654C232.996 320.601 233.067 320.565 233.145 320.551C233.222 320.537 233.302 320.545 233.374 320.575C233.447 320.605 233.509 320.655 233.554 320.719C233.599 320.784 233.625 320.859 233.629 320.938C233.701 322.309 234.297 323.6 235.294 324.545C236.29 325.49 237.611 326.017 238.984 326.017C240.357 326.017 241.678 325.49 242.674 324.545C243.67 323.6 244.266 322.309 244.339 320.938C244.343 320.859 244.369 320.784 244.414 320.72C244.459 320.655 244.521 320.605 244.594 320.575C244.667 320.545 244.746 320.537 244.824 320.551C244.901 320.565 244.973 320.601 245.03 320.654C246.013 321.544 247.292 322.036 248.617 322.034H248.637C249.676 322.038 250.693 321.74 251.564 321.175C252.436 320.611 253.124 319.804 253.544 318.855C253.965 317.906 254.1 316.854 253.933 315.83C253.766 314.805 253.304 313.851 252.604 313.084C252.55 313.026 252.514 312.955 252.5 312.877C252.486 312.8 252.495 312.72 252.524 312.647C252.555 312.575 252.605 312.512 252.669 312.467C252.733 312.422 252.809 312.396 252.887 312.392C254.213 312.326 255.467 311.768 256.404 310.826ZM238.985 313.368C237.732 313.368 236.507 312.996 235.465 312.3C234.423 311.604 233.611 310.614 233.131 309.456C232.652 308.299 232.526 307.025 232.771 305.796C233.015 304.566 233.619 303.437 234.505 302.551C235.391 301.665 236.52 301.062 237.749 300.817C238.978 300.573 240.252 300.698 241.41 301.178C242.567 301.657 243.557 302.47 244.253 303.512C244.949 304.553 245.321 305.779 245.321 307.032C245.319 308.712 244.651 310.322 243.463 311.51C242.275 312.698 240.665 313.366 238.985 313.368Z" fill="#FEE7E1"/>
<path d="M94.7806 234.085C93.9974 240.09 90.7574 244.291 87.6745 246.856C86.8281 247.56 87.3721 249.585 88.4732 249.585H98.1213C98.5213 249.585 98.8813 249.347 99.0461 248.983C101.637 243.254 108.796 231.28 116.33 226.851C117.02 226.445 117.102 225.413 116.443 224.959C109.525 220.189 98.8867 211.094 92.8056 201.708C92.1597 200.712 90.2194 201.326 90.4515 202.491C92.4476 212.509 95.6555 227.377 94.7806 234.085Z" fill="#9D500C"/>
<path d="M83.2806 136.585C90.5 96.5001 114.78 69.5849 150.78 68.5849C173.5 64.5001 189.5 67.9015 207 78.9989C246.5 104.047 252.719 142.912 250.72 183.912C251.171 186.048 251.269 188.072 251.062 189.943C253.16 228.588 252.087 243.951 250.901 248.214C250.713 248.891 250.127 248.758 249.953 248.077C246.238 233.599 232.605 226.388 218.845 221.617C218.135 221.371 217.926 220.462 218.461 219.934C222.889 215.562 230.323 207.658 232.925 202.797C233.145 202.384 233.608 202.158 234.069 202.237C242.946 203.761 250.125 198.413 251.062 189.943C250.956 187.993 250.842 185.983 250.72 183.912C248.5 173.412 253.307 165.505 224.5 168.999C208.719 170.912 163.28 172.585 137.28 139.085C123.28 171.085 83.2806 171.585 83.2806 170.085C83.2806 168.885 80.3992 157.585 83.2806 136.585Z" fill="#9D500C"/>
<path d="M150.78 68.5849C114.78 69.5849 90.5 96.5001 83.2806 136.585C80.3992 157.585 83.2806 168.885 83.2806 170.085C83.2806 171.585 123.28 171.085 137.28 139.085M150.78 68.5849C153.28 100.085 138.374 136.585 137.28 139.085M150.78 68.5849C173.5 64.5001 189.5 67.9015 207 78.9989C246.5 104.047 252.719 142.912 250.72 183.912M137.28 139.085C163.28 172.585 208.719 170.912 224.5 168.999C253.307 165.505 248.5 173.412 250.72 183.912M250.72 183.912C253.214 195.715 244.907 204.098 234.069 202.237C233.608 202.158 233.145 202.384 232.925 202.797C230.323 207.658 222.889 215.562 218.461 219.934C217.926 220.462 218.135 221.371 218.845 221.617C232.605 226.388 246.238 233.599 249.953 248.077C250.127 248.758 250.713 248.891 250.901 248.214C252.147 243.736 253.268 227.009 250.72 183.912ZM94.7806 234.085C93.9974 240.09 90.7574 244.291 87.6745 246.856C86.8281 247.56 87.3721 249.585 88.4732 249.585H98.1213C98.5213 249.585 98.8813 249.347 99.0461 248.983C101.637 243.254 108.796 231.28 116.33 226.851C117.02 226.445 117.102 225.413 116.443 224.959C109.525 220.189 98.8867 211.094 92.8056 201.708C92.1597 200.712 90.2194 201.326 90.4515 202.491C92.4476 212.509 95.6555 227.377 94.7806 234.085Z" stroke="black" stroke-width="4"/>
<path d="M142.861 47.0312C145.259 41.899 149.127 33.1525 158.074 35.4336C159.858 35.8884 160.82 37.8109 160.124 39.5149C156.858 47.5025 148.34 47.5358 142.861 47.0312C134.292 59.0157 125.259 54.732 124.676 54.4253C123.509 53.8117 121.195 50.9521 126.627 47.2037C131.232 44.0259 139.558 45.3964 142.861 47.0312Z" fill="#A2DD57"/>
<path d="M150.065 70.1182C149.52 64.3853 147.318 51.7418 142.861 47.0312M142.861 47.0312C145.259 41.899 149.127 33.1525 158.074 35.4336C159.858 35.8884 160.82 37.8109 160.124 39.5149C156.858 47.5025 148.34 47.5358 142.861 47.0312ZM142.861 47.0312C139.558 45.3964 131.232 44.0259 126.627 47.2037C121.195 50.9521 123.509 53.8117 124.676 54.4253C125.259 54.732 134.292 59.0157 142.861 47.0312Z" stroke="black" stroke-width="4"/>
<path d="M90.8016 200.874C72.0101 197.063 70.9488 176.463 82.505 169.275C82.802 169.091 83.1499 169 83.4996 168.999C100.097 168.958 116.275 166.906 135.028 143.187C135.835 142.165 136.648 141.104 137.465 140C143.965 151 163.466 176 238.466 167.5C241.966 167.167 249.566 169.3 251.966 180.5C254.799 193.721 243.202 206.941 233.481 201.635C232.498 201.099 231.241 201.229 230.636 202.17C224.941 211.015 211.324 237.012 164.785 236C119.265 235.01 106.237 216.884 91.9191 201.486C91.6248 201.17 91.2252 200.96 90.8016 200.874Z" fill="#FFF2D9"/>
<path d="M137.465 140C117.668 166.725 100.812 168.957 83.4996 168.999C83.1499 169 82.802 169.091 82.505 169.275C70.9488 176.463 72.0101 197.063 90.8016 200.874C91.2252 200.96 91.6248 201.17 91.9191 201.486C106.237 216.884 119.265 235.01 164.785 236C211.324 237.012 224.941 211.015 230.636 202.17C231.241 201.229 232.498 201.099 233.481 201.635C243.202 206.941 254.799 193.721 251.966 180.5C249.566 169.3 241.966 167.167 238.466 167.5C163.466 176 143.965 151 137.465 140ZM137.465 140C130 154 97 149.5 106 121.5" stroke="black" stroke-width="4" stroke-linecap="round"/>
<path d="M164.5 188L158.342 210.739C158.169 211.374 158.648 212 159.307 212H169.5" stroke="black" stroke-width="4" stroke-linecap="round"/>
<path d="M138.966 230.858C120.676 228.131 106.312 214.299 101.358 208.944C100.916 208.467 101.063 207.703 101.65 207.424C120.908 198.279 140.675 212.752 140.062 229.957C140.042 230.525 139.528 230.942 138.966 230.858Z" fill="#FFB1C0"/>
<path d="M188.087 231.791C210.63 227.274 220.571 213.376 225.305 206.938C225.67 206.442 225.498 205.735 224.94 205.473C205.977 196.553 186.401 214.491 186.934 230.904C186.953 231.493 187.51 231.907 188.087 231.791Z" fill="#FFB1C0"/>
<path d="M117.168 226.086C107.496 228.738 100.653 242.461 98.1017 248.823C98.0332 248.994 98.0165 249.175 98.0488 249.356C107.79 303.925 192.042 342.306 234.245 355.123C234.885 355.317 235.419 354.84 235.167 354.22C231.69 345.642 202.776 310.81 235.086 294.704C235.339 294.577 235.663 294.566 235.926 294.671C296.165 318.469 331.168 205.981 315 227C310.087 233.386 296.004 229.154 295.987 222.839C295.987 222.62 295.922 222.373 295.79 222.198C289.351 213.616 279.757 262.418 249.897 249.257C249.651 249.149 249.447 248.931 249.354 248.679C243.41 232.549 234.998 227.543 218.442 223.038C218.188 222.968 217.908 223.005 217.678 223.135C170.729 249.608 129.646 231.418 117.796 226.132C117.593 226.041 117.383 226.027 117.168 226.086Z" fill="#E7D4E7" stroke="black" stroke-width="4"/>
<path d="M286.178 189.162C279.725 193.062 292.569 210.024 293.632 220.676C293.842 222.78 294.235 225.019 295.934 226.278C299.266 228.746 304.829 230.999 311.853 230.35C312.877 230.256 313.863 229.876 314.692 229.267C318.925 226.164 316.779 225.646 327.443 213.239C331.905 208.046 336.522 204.392 333.5 202C331.51 200.425 322.913 206.179 329.99 196.971C337.067 187.763 329.991 187.763 329.99 187.763H329.99C323.727 187.763 318.101 200.04 320.365 193.901C322.629 187.763 326.612 181.149 323.498 179C316.976 174.5 310.405 193.901 307.997 195.55C303.698 198.493 310.033 191.938 313.006 183.984C314.359 180.363 311.138 177.734 308.485 180.545C305.69 183.507 303.629 187.395 303.405 187.763C295.39 200.904 295.17 200.654 294.604 196.971C293.66 190.832 288.664 187.659 286.178 189.162Z" fill="#FFF2D9" stroke="black" stroke-width="4"/>
<path d="M76.8886 224.461L86.066 246.611C86.6004 247.901 87.9542 248.652 89.3314 248.422L89.8181 248.341C91.7493 248.018 92.8592 245.962 92.0691 244.171L82.3466 222.127C81.3474 219.861 78.1769 219.743 77.0117 221.928C76.5939 222.711 76.5487 223.64 76.8886 224.461Z" fill="#DFDFDF" stroke="black" stroke-width="3" stroke-linecap="round"/>
<path d="M7 358L320 354" stroke="black" stroke-width="4" stroke-linecap="round"/>
<path d="M73.4999 320C68.6888 300.278 65.7297 258.344 72.6359 250.737C73.1398 250.182 73.8333 250 74.5829 250H231.036C233.231 250 235.015 251.77 235.034 253.965L235.606 320L236 365.5C236 367.055 127.027 367.792 67.9693 367.985C65.4111 367.993 63.5184 365.63 64.0651 363.131L73.4999 320Z" fill="#7DD4F3"/>
<path d="M73.4999 320C68.6888 300.278 65.7297 258.344 72.6359 250.737C73.1398 250.182 73.8333 250 74.5829 250C103.839 250 209.111 250 231.036 250C233.231 250 235.015 251.77 235.034 253.965L235.606 320M73.4999 320L64.0651 363.131C63.5184 365.63 65.4111 367.993 67.9693 367.985C127.027 367.792 236 367.055 236 365.5L235.606 320M73.4999 320H235.606" stroke="black" stroke-width="5"/>
<g filter="url(#filter0_d_438_340)">
<path d="M202.215 181.607C192.927 183.607 192.935 177.468 183.641 185.608" stroke="black" stroke-width="4" stroke-linecap="round"/>
</g>
<g filter="url(#filter1_d_438_340)">
<path d="M126 181.801C135.32 183.644 135.21 177.5 144.639 185.489" stroke="black" stroke-width="4" stroke-linecap="round"/>
</g>
<defs>
<filter id="filter0_d_438_340" x="181.641" y="178.246" width="22.5742" height="9.36182" filterUnits="userSpaceOnUse" color-interpolation-filters="sRGB">
<feFlood flood-opacity="0" result="BackgroundImageFix"/>
<feColorMatrix in="SourceAlpha" type="matrix" values="0 0 0 0 0 0 0 0 0 0 0 0 0 0 0 0 0 0 127 0" result="hardAlpha"/>
<feOffset dy="-1"/>
<feComposite in2="hardAlpha" operator="out"/>
<feColorMatrix type="matrix" values="0 0 0 0 1 0 0 0 0 0.8 0 0 0 0 0.838462 0 0 0 1 0"/>
<feBlend mode="normal" in2="BackgroundImageFix" result="effect1_dropShadow_438_340"/>
<feBlend mode="normal" in="SourceGraphic" in2="effect1_dropShadow_438_340" result="shape"/>
</filter>
<filter id="filter1_d_438_340" x="124" y="178.263" width="22.6387" height="9.22559" filterUnits="userSpaceOnUse" color-interpolation-filters="sRGB">
<feFlood flood-opacity="0" result="BackgroundImageFix"/>
<feColorMatrix in="SourceAlpha" type="matrix" values="0 0 0 0 0 0 0 0 0 0 0 0 0 0 0 0 0 0 127 0" result="hardAlpha"/>
<feOffset dy="-1"/>
<feComposite in2="hardAlpha" operator="out"/>
<feColorMatrix type="matrix" values="0 0 0 0 1 0 0 0 0 0.8 0 0 0 0 0.838462 0 0 0 1 0"/>
<feBlend mode="normal" in2="BackgroundImageFix" result="effect1_dropShadow_438_340"/>
<feBlend mode="normal" in="SourceGraphic" in2="effect1_dropShadow_438_340" result="shape"/>
</filter>
</defs>
</svg>
