<svg fill="none" height="337" viewBox="0 0 352 337" width="352" xmlns="http://www.w3.org/2000/svg"><path d="m36 136c-1.1046 0-2.0334.957-1.4571 1.899.7637 1.249 2.2539 2.101 3.9571 2.101s3.1934-.852 3.9571-2.101c.5763-.942-.3525-1.899-1.4571-1.899z" fill="#616466"/><path d="m51.5269 112.901h-.0001l-.0059.009c-.0556.09-.1113.181-.1671.271-2.2514 3.648-4.5322 7.343-5.8671 11.094-.4822 1.354-1.6312 2.225-2.8047 2.225h-8.4715c-1.1735 0-2.3225-.871-2.8047-2.225-1.3349-3.751-3.6157-7.446-5.8672-11.094-.0549-.089-.1098-.178-.1646-.267-.0705-.116-.141-.232-.2115-.347-1.6604-2.729-3.2976-5.418-4.5455-8.095-1.301-2.791-2.117-5.444-2.117-7.959 0-9.7913 8.8621-18.013 20-18.013s20 8.2217 20 18.013c0 2.5142-.8157 5.166-2.128 7.953-1.3122 2.787-3.0628 5.594-4.8451 8.435z" fill="#ffdf77" stroke="#000" stroke-width="3"/><path d="m33.477 122.54c.4388 1.388 1.661 2.46 3.1171 2.46h3.7493c1.4561 0 2.6783-1.072 3.1171-2.46.7682-2.431 2.0426-4.85 3.352-7.355 2.0625-3.881 4.1875-7.913 4.1875-11.794 0-7.3801-5.625-13.391-12.5-13.391s-12.5 6.0109-12.5 13.391c0 3.881 2.125 7.913 4.125 11.794 1.3094 2.505 2.5838 4.924 3.352 7.355z" fill="#ffc200"/><path d="m33 134c0-1.105.8954-2 2-2h7c1.1046 0 2 .895 2 2 0 1.105-.8954 2-2 2h-7c-1.1046 0-2-.895-2-2z" fill="#9f9f9f"/><path d="m32.9342 107.205c.1079.736.3237 1.472.4316 2.209.3237 1.35.5396 2.577.8633 3.927.9712 4.664 1.8344 8.591 2.5898 11.659h.6474c-.5395-3.068-1.2949-7.118-2.266-11.782-.2159-1.227-.5396-2.577-.7554-3.927-.1079-.614-.2158-1.35-.4316-1.964.8632-.245 2.9135-.982 4.9637-3.559 2.0503 2.577 4.1006 3.314 4.9638 3.559-.1079.737-.2158 1.35-.4316 1.964-.2158 1.35-.5396 2.7-.7554 3.927-.9711 4.664-1.7265 8.714-2.266 11.782h.6474c.6475-3.068 1.6186-6.995 2.5898-11.659.2158-1.227.5395-2.577.8633-3.927.1079-.737.3237-1.473.4316-2.209.8633-.123 1.6186-.369 2.1582-.982.6474-.737.9711-1.596.7553-2.578-.1079-.49-.3237-1.104-.9712-1.227-.3237-.123-.5395-.123-.8632 0s-.5396.368-.6475.491c-.5395.736-.7553 1.473-.9711 2.209l-.3238 1.105s-.8632.122-2.9135-1.473c-1.0791-.859-1.4028-1.473-1.7265-1.841.3237-.491.6474-.859.9712-1.473.1079-.368.2158-.613.3237-1.104 0-.3684 0-.8593-.2158-1.2275-.2158-.3681-.4317-.7363-.9712-.9818-.2158-.1227-.4316-.1227-.6475-.1227-.2158 0-.4316 0-.6474.1227-.4316.2455-.7554.6137-.9712.9818-.2158.3682-.2158.8591-.2158 1.2275 0 .368.1079.736.3237 1.104.2158.614.5396 1.105.9712 1.473-.3237.368-.6474.982-1.7265 1.841-1.9424 1.473-2.9135 1.473-2.9135 1.473l-.3238-1.105c-.2158-.736-.4316-1.473-.9711-2.209-.1079-.123-.3238-.368-.6475-.491s-.6474-.123-.8633 0c-.6474.246-.8632.859-.9711 1.227-.1079.982.2158 1.841.7553 2.578.6475.613 1.4028.859 2.1582.982zm12.5173-1.841c.2158-.614.4317-1.35.8633-1.719.1079-.122.2158-.122.2158-.122h.2158c.1079 0 .2158.122.3238.491.1079.491-.108 1.227-.5396 1.595-.3237.246-.7553.491-1.187.614 0-.368 0-.614.1079-.859zm-7.1219-5.8913c.2158-.2454.4316-.4909.6474-.4909.2159 0 .4317.1227.6475.4909s.1079.8593-.1079 1.3503c-.1079.368-.3237.736-.5396.982-.2158-.369-.4316-.614-.5395-.982-.2158-.368-.3237-.8594-.1079-1.3503zm-7.3378 4.2953c0-.245.108-.368.3238-.491h.2158s.1079.123.2158.123c.3237.368.6475 1.105.8633 1.718.1079.246.1079.491.2158.737-.4316-.123-.8633-.246-1.187-.614-.4316-.246-.6475-.859-.6475-1.473z" fill="#676767"/><path d="m31 128c0-.552.4477-1 1-1h13c.5523 0 1 .448 1 1 0 .552-.4477 1-1 1h-13c-.5523 0-1-.448-1-1zm1.049 4c0-.552.4477-1 1-1h10.902c.5523 0 1 .448 1 1 0 .552-.4477 1-1 1h-10.902c-.5523 0-1-.448-1-1z" fill="#000"/><path d="m32 130c0-.552.4477-1 1-1h11c.5523 0 1 .448 1 1 0 .552-.4477 1-1 1h-11c-.5523 0-1-.448-1-1z" fill="#9f9f9f"/><path d="m46 128.261c0-.632-.6048-1.09-1.2139-.918l-12.0582 3.407c-.4306.122-.7279.515-.7279.962 0 .667.639 1.146 1.2786.961l12.0332-3.495c.4077-.119.6882-.492.6882-.917zm-12.9474 7.75c0-.546.4428-.989.989-.989h8.8641c.5462 0 .989.443.989.989 0 .546-.4428.989-.989.989h-8.8641c-.5462 0-.989-.443-.989-.989z" fill="#000"/><path d="m45 132.337c0-.658-.6443-1.124-1.2697-.918l-10.067 3.326c-.3959.131-.6633.501-.6633.918 0 .658.6443 1.124 1.2697.918l10.067-3.326c.3959-.131.6633-.501.6633-.918z" fill="#000"/><path d="m124.781 201.085c-.784 6.005-4.024 10.206-7.106 12.771-.847.704-.303 2.729.798 2.729h9.648c.4 0 .76-.238.925-.603 2.591-5.728 9.75-17.702 17.284-22.131.69-.406.772-1.438.113-1.892-6.918-4.77-17.556-13.866-23.637-23.251-.646-.997-2.587-.382-2.354.783 1.996 10.018 5.204 24.886 4.329 31.594z" fill="#9d500c"/><path d="m113.281 103.585c7.219-40.085 31.499-67.0002 67.499-68.0002 22.72-4.0848 38.72-.6833 56.22 10.414 37.007 23.4676 44.802 59.0632 43.994 97.1802-.025 1.172-1.135 1.223-1.32.066-.997-6.234-4.035-9.81-25.174-7.246-15.781 1.913-61.22 3.586-87.22-29.914-14 32-53.999 32.5-53.999 31 0-1.2-2.882-12.5 0-33.5z" fill="#9d500c"/><path d="m284.12 223.698c-9.3-18.944-26.628-30.768-35.478-34.993-.645-.308-.796-1.165-.287-1.667 4.24-4.177 11.357-11.716 14.237-16.647.357-.612 1.224-.738 1.79-.312 6.239 4.698 13.933-4.503 15.899-11.58-5 18-1 38.586 0 42.586.953 3.811 10.986 14.434 5.439 22.781-.4.601-1.281.48-1.6-.168z" fill="#9d500c"/><path d="m180.78 35.5848c-36 1-60.28 27.9152-67.499 68.0002-2.882 21 0 32.3 0 33.5 0 1.5 39.999 1 53.999-31m13.5-70.5002c2.5 31.5-12.406 68.0002-13.5 70.5002m13.5-70.5002c22.72-4.0848 38.72-.6833 56.22 10.414 37.007 23.4676 44.802 59.0632 43.994 97.1802-.025 1.172-1.135 1.223-1.32.066-.997-6.234-4.035-9.81-25.174-7.246-15.781 1.913-61.22 3.586-87.22-29.914m-42.499 95c-.784 6.005-4.024 10.206-7.106 12.771-.847.704-.303 2.729.798 2.729h9.648c.4 0 .76-.238.925-.603 2.591-5.728 9.75-17.702 17.284-22.131.69-.406.772-1.438.113-1.892-6.918-4.77-17.556-13.866-23.637-23.251-.646-.997-2.587-.382-2.354.783 1.996 10.018 5.204 24.886 4.329 31.594zm155.5 0c.953 3.811 10.986 14.434 5.439 22.781-.4.601-1.281.48-1.6-.168-9.3-18.944-26.628-30.768-35.478-34.993-.645-.308-.796-1.165-.287-1.667 4.24-4.177 11.357-11.716 14.237-16.647.357-.612 1.224-.738 1.79-.311 6.239 4.697 13.933-4.504 15.899-11.581-5 18-1 38.586 0 42.586z" stroke="#000" stroke-width="4"/><path d="m172.861 14.0312c2.398-5.1322 6.266-13.878664 15.213-11.59761 1.784.4548 2.746 2.37733 2.05 4.08134-3.266 7.98757-11.784 8.02087-17.263 7.51627-8.569 11.9845-17.602 7.7008-18.185 7.3941-1.167-.6136-3.481-3.4732 1.951-7.2216 4.605-3.1778 12.931-1.8073 16.234-.1725z" fill="#a2dd57"/><path d="m180.065 37.1182c-.545-5.7329-2.747-18.3764-7.204-23.087m0 0c2.398-5.1322 6.266-13.878664 15.213-11.59761 1.784.4548 2.746 2.37733 2.05 4.08134-3.266 7.98757-11.784 8.02087-17.263 7.51627zm0 0c-3.303-1.6348-11.629-3.0053-16.234.1725-5.432 3.7484-3.118 6.608-1.951 7.2216.583.3067 9.616 4.5904 18.185-7.3941z" stroke="#000" stroke-width="4"/><path d="m120.802 167.874c-18.792-3.811-19.853-24.411-8.297-31.599.297-.184.645-.275.995-.276 17.312-.042 34.168-2.274 53.965-28.999 6.5 11 26.001 36 101.001 27.5 3.5-.333 11.1 1.8 13.5 13 2.833 13.221-8.764 26.441-18.485 21.135-.983-.536-2.239-.406-2.845.535-5.694 8.845-19.312 34.842-65.851 33.83-45.52-.99-58.548-19.116-72.866-34.514-.294-.316-.694-.526-1.117-.612z" fill="#fff2d9"/><path d="m167.465 107c-19.797 26.725-36.653 28.957-53.965 28.999-.35.001-.698.092-.995.276-11.556 7.188-10.495 27.788 8.297 31.599.423.086.823.296 1.117.612 14.318 15.398 27.346 33.524 72.866 34.514 46.539 1.012 60.157-24.985 65.851-33.83.606-.941 1.862-1.071 2.845-.535 9.721 5.306 21.318-7.914 18.485-21.135-2.4-11.2-10-13.333-13.5-13-75 8.5-94.501-16.5-101.001-27.5zm0 0c3.345 12 2.035 36-16.965 35" stroke="#000" stroke-linecap="round" stroke-width="4"/><ellipse cx="172" cy="154.5" fill="#000" rx="4" ry="4.5"/><ellipse cx="216" cy="155.5" fill="#000" rx="4" ry="4.5"/><path d="m194.5 155-6.158 22.739c-.173.635.306 1.261.965 1.261h10.193" stroke="#000" stroke-linecap="round" stroke-width="4"/><path d="m168.966 197.858c-18.29-2.727-32.654-16.559-37.608-21.914-.442-.477-.295-1.241.292-1.52 19.258-9.145 39.025 5.328 38.412 22.533-.02.568-.534.985-1.096.901z" fill="#ffb1c0"/><path d="m218.087 198.791c22.543-4.517 32.484-18.415 37.218-24.853.365-.496.193-1.203-.365-1.465-18.963-8.92-38.539 9.018-38.006 25.431.019.589.576 1.003 1.153.887z" fill="#ffb1c0"/><path d="m128.567 214.725c2.905-6.602 9.91-18.084 19.06-20.568.214-.058.425-.045.628.046 11.845 5.284 52.9 23.461 99.825-2.965.262-.148.572-.18.851-.067 16.793 6.839 46.134 36.521 35.745 77.624-.5 1.306-.967 2.492-1.401 3.583-2.393 6.014-3.79 9.133-4.257 13.307-.378 3.383-.144 7.459.668 14.331 0 12.154-6.191 18.317-10.219 20.426-.602.316-1.276-.137-1.301-.817-.215-5.773-.899-15.521-2.329-20.105-.226-.723.304-1.558 1.053-1.677 4.418-.701 7.077-4.389 12.128-12.158.467-4.174 1.864-7.293 4.257-13.307-2.334-18.429-11.558-24.74-15.73-28.368-.214-.186-.333-.454-.333-.738v-19.516c0-3.754-1.677-6.36-2.726-7.426-.167-.169-.399-.251-.637-.251h-134.378c-.706 0-1.189-.708-.904-1.354z" fill="#e7d4e7"/><path d="m279.018 285.685c-.378 3.383-.144 7.459.668 14.331 0 12.154-6.191 18.317-10.219 20.426-.602.316-1.276-.137-1.301-.817-.215-5.773-.899-15.521-2.329-20.105-.226-.723.304-1.558 1.053-1.677 4.418-.701 7.077-4.389 12.128-12.158zm0 0c.467-4.174 1.864-7.293 4.257-13.307m0 0c.434-1.091.901-2.277 1.401-3.583 10.389-41.103-18.952-70.785-35.745-77.624-.279-.113-.589-.081-.851.067-46.925 26.426-87.98 8.249-99.825 2.965-.203-.091-.414-.104-.628-.046-9.15 2.484-16.155 13.966-19.06 20.568-.285.646.198 1.354.904 1.354h134.378c.238 0 .47.082.637.251 1.049 1.066 2.726 3.672 2.726 7.426v19.516c0 .284.119.552.333.738 4.172 3.628 13.396 9.939 15.73 28.368z" stroke="#000" stroke-width="4"/><path d="m281.827 268.038c-1.974-14.607-1.689-16.94-12.256-22.767-.277-.152-.584-.279-.9-.27-2.516.066-4.792 4.273-1.027 8.037 1.88 1.88 3.265 3.407 4.235 4.633 1.312 1.659.118 2.278-1.535.96-1.709-1.363-3.588-2.76-4.698-3.593-1.334-1-4-2-6.001-1.5-4.684 1.171-7.914 6.067-9.12 13.462-.438 2.689-.61 5.709-.486 9 .049 1.305.145 2.652.288 4.038.276 2.668.789 4.98 1.483 6.962 3.077 8.79 9.713 11.078 15.017 9.038 6.5-2.5 17.5-9.5 15-28z" fill="#fff2d9"/><path d="m250.525 267c1.206-7.395 4.436-12.291 9.12-13.462 2.001-.5 4.667.5 6.001 1.5 1.11.833 2.989 2.23 4.698 3.593 1.653 1.318 2.847.699 1.535-.96-.97-1.226-2.355-2.753-4.235-4.633-3.765-3.764-1.489-7.971 1.027-8.037.316-.009.623.118.9.27 10.567 5.827 10.282 8.16 12.256 22.767 2.5 18.5-8.5 25.5-15 28-5.304 2.04-11.94-.248-15.017-9.038m-1.285-20c2.492.667 8.075 1.6 10.475 0m-10.475 0c-.438 2.689-.61 5.709-.486 9m0 0c.049 1.305.145 2.652.288 4.038.276 2.668.789 4.98 1.483 6.962m-1.771-11c2.105 1 7.245 2.4 10.961 0m-9.19 11c1.515.667 5.474 1.4 9.19-1" stroke="#000" stroke-linecap="round" stroke-width="4"/><path d="m106.889 191.461 9.177 22.15c.534 1.29 1.888 2.041 3.265 1.811l.487-.081c1.931-.323 3.041-2.379 2.251-4.17l-9.722-22.044c-1-2.266-4.17-2.384-5.335-.199-.418.783-.463 1.712-.123 2.533z" fill="#dfdfdf" stroke="#000" stroke-linecap="round" stroke-width="3"/><path d="m37 325 313-4" stroke="#000" stroke-linecap="round" stroke-width="4"/><path d="m103.5 287c-4.8112-19.722-7.7703-61.656-.864-69.263.504-.555 1.197-.737 1.947-.737h158.821c1.06 0 2.055.404 2.536 1.35 3.117 6.137 1.63 23.598.552 31.84-.252 1.925-1.909 3.26-3.847 3.378-5.413.327-10.603 2.241-12.824 13.432-1.654 8.337.358 14 1.679 20 1.499 3.572 2.314 8.34 11.017 10.388 1.964.462 3.483 2.126 3.483 4.143v30.969c0 1.555-108.973 2.292-168.0307 2.485-2.5582.008-4.4509-2.355-3.9042-4.854z" fill="#7dd4f3"/><g stroke-width="4"><path d="m103.5 287c-4.8112-19.722-7.7703-61.656-.864-69.263.504-.555 1.197-.737 1.947-.737h158.821c1.06 0 2.055.404 2.536 1.35 3.117 6.137 1.63 23.598.552 31.84-.252 1.925-1.909 3.26-3.847 3.378-5.413.327-10.603 2.241-12.824 13.432-1.654 8.337.358 14 1.679 20m-148 0-9.4349 43.131c-.5467 2.499 1.346 4.862 3.9042 4.854 59.0577-.193 168.0307-.93 168.0307-2.485v-30.969c0-2.017-1.519-3.681-3.483-4.143-8.703-2.048-9.518-6.816-11.017-10.388m-148 0h148" stroke="#000"/><path d="m38 59v11" stroke="#ffc200" stroke-linecap="round"/><path d="m17 67.5 5.3009 7.3994" stroke="#ffc200" stroke-linecap="round"/><path d="m62 67.3604-6.0005 6.9996" stroke="#ffc200" stroke-linecap="round"/><path d="m63.9989 87.9097 8.5011-4.4097" stroke="#ffc200" stroke-linecap="round"/><path d="m9.5 86.5-7.5-4.7974" stroke="#ffc200" stroke-linecap="round"/></g></svg>