<svg width="1920" height="200" viewBox="0 0 1920 200" fill="none" xmlns="http://www.w3.org/2000/svg">
<g clip-path="url(#clip0_36_14765)">
<g filter="url(#filter0_f_36_14765)">
<path d="M1690.37 110.671C1684.62 114.938 1683.97 124.129 1686.43 127.084M1698.24 114.446C1700.32 143.168 1735.86 216.5 1762.58 175.992C1778.17 152.358 1779.16 108.373 1778.17 96.2283M1778.17 96.2283C1777.3 93.6023 1776.86 87.1687 1782.11 82.442M1778.17 96.2283C1774.23 110.015 1746.17 153.507 1721.71 146.45C1702.15 140.804 1700 105.255 1701.36 88.1863M1778.17 96.2283C1784.63 108.756 1803.02 129.25 1824.95 110.999C1826.32 117.181 1833.35 126.821 1850.55 115.923M1692.66 89.8275C1691.73 94.5323 1691.55 104.5 1698.24 106.732M1698.24 88.1863C1695.13 91.797 1689.64 100.331 1692.66 105.583M1690.37 89.8275C1687.41 92.1251 1682.07 98.4929 1684.29 105.583M1794.75 84.7397C1790.7 82.7702 1781.78 79.3565 1778.5 81.4573M1797.21 72.923C1787.64 73.2512 1768.26 76.9604 1767.34 89.1711M1795.41 67.8352C1790.26 66.0846 1778.27 64.9795 1771.44 74.5642M1763.4 40.7549C1760.39 44.8579 1755.49 54.1473 1759.95 58.4801M1774.4 43.3808C1771.12 43.5996 1764.32 46.9258 1763.4 58.4801M1829.38 92.6175C1832.22 87.7486 1839.77 78.8373 1850.55 90.6481C1861.33 102.459 1880.86 124.464 1947 78.8373" stroke="#FF527D" stroke-width="2.67245" stroke-linecap="round"/>
</g>
<mask id="mask0_36_14765" style="mask-type:alpha" maskUnits="userSpaceOnUse" x="1640" y="-1" width="247" height="151">
<path d="M1793.66 87.7877C1794.13 85.6105 1796.78 76.5156 1796.98 73.0313C1797.01 72.371 1796.97 71.7274 1796.87 71.0952M1793.66 87.7877C1792.25 86.5758 1780.96 79.8453 1778.35 80.9906C1777.79 80.9898 1778.83 75.6675 1779.07 73.49C1777.3 71.8137 1774.68 69.3123 1772.22 66.9467M1793.66 87.7877C1793.66 87.7877 1795.07 88.7577 1796.24 91.4212C1797.49 94.2406 1797.68 95.8014 1797.18 96.753M1742.57 60.6133C1748.07 59.5724 1759.77 57.4917 1762.6 57.4957C1765.66 59.4359 1764.48 58.9503 1765.89 60.6462C1766.51 61.3909 1769.24 64.0682 1772.22 66.9467M1742.57 60.6133C1743.82 61.825 1745.19 69.2317 1740.64 89.1649M1742.57 60.6133C1741.93 63.0323 1738.35 68.9445 1735.24 76.574C1729.33 91.0849 1728.38 94.9553 1727.67 99.794C1726.73 101.567 1724.13 105.548 1721.3 107.287C1717.76 109.459 1711.17 107.03 1707.87 107.268M1742.57 60.6133C1734 61.4079 1716.08 63.4798 1712.87 65.4112M1740.64 89.1649C1743.69 97.6387 1746.27 109.5 1746.5 112.888C1746.71 115.957 1741.69 126.764 1740.74 133.448M1740.64 89.1649C1739.93 96.1008 1738.16 110.359 1736.84 111.906C1735.52 113.453 1730.16 117.382 1727.64 119.153M1727.64 119.153C1725.94 127.475 1726.29 134.557 1726.68 137.058C1728.09 140.448 1731.23 147.47 1732.55 148.44C1733.2 148.916 1734.18 149.023 1735.14 148.962M1727.64 119.153C1728.78 118.323 1712.75 124.903 1701.48 128.309M1679.1 124.166C1681.93 125.299 1688.29 128.051 1691.11 129.991C1692.21 130.748 1696.36 129.857 1701.48 128.309M1679.1 124.166C1678.36 123.669 1677.48 123.098 1676.51 122.49M1679.1 124.166C1681.38 126.025 1686.68 130.565 1689.69 133.861C1692.7 137.156 1698.88 135.083 1700.06 133.391C1700.06 133.391 1701.47 131.699 1701.48 128.309M1676.51 122.49C1672.14 119.739 1666.2 116.257 1665.45 115.677C1664.51 114.95 1662.94 113.173 1662.39 112.043C1664.51 111.724 1669.6 111.908 1672.99 115.204C1676.38 118.5 1676.75 121.435 1676.51 122.49ZM1662.15 111.801C1663.49 108.98 1667.96 103.678 1675.12 105.044C1684.07 106.75 1695.14 112.815 1697.02 114.512M1697.02 114.512C1697.02 115.867 1696.23 117.495 1695.84 118.14M1697.02 114.512C1699.54 112.176 1705.23 107.458 1707.87 107.268M1707.87 107.268L1700.09 106.538M1673.02 91.0055C1674.52 93.9115 1681.17 101.584 1684.31 105.057L1700.09 106.538M1673.02 91.0055C1671.14 87.3731 1662.67 78.8916 1664.08 77.6837M1673.02 91.0055C1674.2 90.3619 1676.27 88.3483 1675.15 85.4428C1671.86 78.9046 1665.5 76.4758 1664.08 77.6837M1664.08 77.6837C1665.19 76.2333 1668.71 73.3829 1673.99 73.5839C1679.26 73.7849 1687.64 84.0085 1691.16 89.0952M1691.16 89.0952C1695.56 87.8915 1705.59 86.2117 1710.48 89.1224M1691.16 89.0952C1690.46 86.513 1689.76 80.6237 1692.59 77.7239C1695.42 74.824 1705.64 75.9677 1709.88 76.7803M1710.48 89.1224C1713.07 94.6917 1713.78 94.9347 1716.83 98.8108M1710.48 89.1224C1709.63 83.3136 1708.91 70.4389 1712.87 65.4112M1712.87 65.4112C1675.92 74.2642 1649.53 53.1169 1641.14 42.0544M1673 104.824C1669.71 97.2794 1667.36 83.496 1655.14 74.5253C1645.35 67.3487 1641.97 55.2285 1641.5 50.0655L1641.14 42.0544M1641.14 42.0544L1641.2 0.301298C1648.47 -1.3345 1664.51 3.97539 1679.02 12.1266C1693.52 20.2777 1711.75 25.5626 1719.05 27.1861C1723.84 28.2415 1734.22 30.8857 1737.42 33.0197C1740.62 35.1536 1754.46 37.1574 1760.97 37.8926C1765.06 38.221 1774.4 39.9926 1779.11 44.4517C1784.99 50.0257 1788.99 56.323 1791.57 60.6824C1793.77 64.3809 1796.3 67.5574 1796.87 71.0952M1700.09 106.538C1700.33 107.665 1700.8 110.355 1700.8 111.129M1772.22 66.9467C1772.15 69.1245 1771.24 74.9793 1768.22 80.9763C1765.2 86.9733 1767.74 90.5744 1769.38 91.6253C1772.39 93.3469 1776.9 95.2737 1781.16 96.7305M1796.87 71.0952C1799.27 67.3882 1805.99 62.9774 1813.7 74.9907M1813.7 74.9907C1814.32 75.9595 1815.12 71.6049 1815.13 62.6515M1813.7 74.9907C1812.91 80.6359 1811.7 92.5077 1813.2 94.8329C1815.09 97.7393 1819.32 104.763 1820.73 106.459C1821.22 107.045 1821.76 107.717 1822.39 108.397M1830.62 112.627C1830.62 112.627 1830.14 113.006 1827.08 111.791C1825.08 110.997 1823.58 109.684 1822.39 108.397M1830.62 112.627C1830.62 112.627 1834.24 111.893 1835.55 120.757C1836.02 123.903 1841.67 127.299 1844.49 133.111C1846.18 136.404 1850.85 135.782 1852.97 135.059M1830.62 112.627C1837.92 112.637 1828.99 98.0009 1829.47 92.1939C1829.85 87.5483 1834.52 73.8101 1836.8 67.5217M1852.97 135.059C1853.21 134.172 1853.26 131.768 1851.56 129.249C1849.45 126.1 1842.85 125.773 1841.43 128.191M1852.97 135.059C1853.68 134.092 1855.28 131.577 1856.04 129.255M1856.04 129.255C1851.8 128.765 1850.86 122.956 1850.63 120.778C1850.4 118.6 1850.64 113.035 1850.65 108.437C1850.65 104.759 1849.72 99.966 1849.25 98.0295C1848.84 96.335 1848.13 92.1718 1854.94 68.7572M1856.04 129.255C1856.51 129.256 1857.12 129.541 1858.37 128.533M1859.22 43.3547C1860.49 41.2524 1862.95 39.7885 1865.82 38.7887M1865.82 38.7887C1870.61 37.121 1876.52 36.0187 1879.96 36.1244C1893.86 57.6807 1879.88 98.0726 1879.88 98.0726C1877.29 98.553 1869.99 93.219 1869.28 93.218C1868.58 93.217 1868.1 95.1522 1868.1 96.6041C1868.1 98.056 1868.09 101.202 1867.62 104.589C1866.2 107.733 1867.13 117.172 1865.24 119.831C1863.35 122.49 1864.53 120.798 1860.99 125.632C1859.96 127.039 1859.09 127.956 1858.37 128.533M1865.82 38.7887C1863.47 36.9227 1858.53 31.7384 1857.59 30.7691C1855.73 28.8535 1839.68 31.4699 1838.02 36.0653C1830.37 34.1936 1822.31 33.1694 1815.77 41.8416M1812.56 47.1607C1813.58 45.0772 1814.65 43.3187 1815.77 41.8416M1815.77 41.8416C1816.11 42.0034 1815.39 42.9058 1809.74 45.2209C1802.66 48.1147 1789.7 52.2102 1789.22 56.5653M1851.1 122.715C1851.1 120.779 1851.67 116.763 1853.94 116.185C1856.77 115.463 1859.12 116.676 1860.3 118.13C1861.47 119.583 1860.94 127.326 1858.37 128.533M1781.16 96.7305C1785.9 98.3526 1790.32 99.3921 1791.99 98.9167C1794.45 98.2191 1796.48 98.0642 1797.18 96.753M1781.16 96.7305C1781.84 95.0369 1785.99 92.6703 1797.18 96.753M1822.39 108.397C1822.04 105.029 1824.12 100.359 1830.02 103.399C1831.33 104.916 1833.66 110.97 1832.14 111.799M1740.74 133.448C1740.64 134.143 1740.58 134.792 1740.58 135.384C1740.57 140.417 1738.68 146.19 1737.74 148.447C1737.14 148.652 1736.15 148.897 1735.14 148.962M1740.74 133.448C1738.02 132.292 1733.09 133.776 1735.14 148.962" stroke="black" stroke-width="1.47942" stroke-linecap="round" stroke-linejoin="bevel"/>
</mask>
<g mask="url(#mask0_36_14765)">
<path d="M1718.68 253.546C1878.48 440.458 1861.18 548.041 1832.56 578.468L1874.88 578.506C1965.89 362.605 1743.21 260.081 1692.25 133.191C1660.29 53.6048 1738.13 -12.8517 1741.79 -12.8484L1640.45 -12.9405L1640.28 186.334C1640.28 186.334 1661.24 186.354 1718.68 253.546Z" fill="black"/>
<path d="M1833.77 578.829L1802.95 578.801C1834.47 444.242 1814.78 369.113 1722.46 220.033C1649.19 106.533 1686.07 19.5492 1713.67 -9.75494L1772.94 -9.70111C1750.56 4.12562 1702.34 92.3949 1767.6 193.401C1861.55 338.804 1856.5 553.557 1833.77 578.829Z" fill="black"/>
<path d="M1865.85 578.765L1826.54 578.729C1852.38 537.978 1849.6 344.218 1751.28 218.19C1675.86 104.127 1713.81 16.7138 1742.22 -12.7347L1803.23 -12.6793C1780.2 1.21534 1730.56 89.9204 1797.74 191.428C1894.44 337.553 1889.24 553.368 1865.85 578.765Z" fill="black"/>
<path d="M1918.88 578.765L1879.57 578.729C1905.41 537.978 1902.63 344.218 1804.31 218.19C1728.89 104.127 1766.84 16.7138 1795.25 -12.7347L1856.26 -12.6793C1833.23 1.21534 1783.6 89.9204 1850.77 191.428C1947.47 337.553 1942.28 553.368 1918.88 578.765Z" fill="black"/>
<path d="M1949.09 585.554L1915.11 585.523C1937.45 544.768 1935.06 351.01 1850.08 224.993C1784.9 110.939 1817.72 23.5216 1842.28 -5.93047L1895.02 -5.88257C1875.11 8.01494 1832.2 96.7261 1890.25 198.226C1973.83 344.338 1969.31 560.154 1949.09 585.554Z" fill="black"/>
<path d="M2024.21 593.949L1984.83 595.343C2009.32 553.877 1860.78 137.649 1856.74 134.138C1820.7 86.6955 1842.76 64.9959 1870.21 34.677L1941.23 8.04601C1918.64 22.7014 1871.95 112.722 1942.72 211.227C2044.59 353.029 2046.78 567.842 2024.21 593.949Z" fill="black"/>
</g>
</g>
<defs>
<filter id="filter0_f_36_14765" x="1681.37" y="38.3617" width="268.025" height="151.951" filterUnits="userSpaceOnUse" color-interpolation-filters="sRGB">
<feFlood flood-opacity="0" result="BackgroundImageFix"/>
<feBlend mode="normal" in="SourceGraphic" in2="BackgroundImageFix" result="shape"/>
<feGaussianBlur stdDeviation="0.528639" result="effect1_foregroundBlur_36_14765"/>
</filter>
<clipPath id="clip0_36_14765">
<rect width="1920" height="200" fill="white"/>
</clipPath>
</defs>
</svg>
