<svg width="456" height="411" viewBox="0 0 456 411" fill="none" xmlns="http://www.w3.org/2000/svg">
<g filter="url(#filter0_d_121_16156)">
<ellipse rx="123.145" ry="121.638" transform="matrix(0.637032 -0.770838 0.769446 0.638711 229.861 212.403)" fill="url(#paint0_linear_121_16156)"/>
</g>
<g filter="url(#filter1_d_121_16156)">
<path d="M187.558 215.922C262.247 259.243 275.418 317.619 244.009 341.674C225.791 352.797 198.187 350.129 175.447 341.475C143.291 329.238 108.738 282.984 121.501 275.379C129.672 270.511 151.744 298.368 166.813 297.68C181.881 296.992 190.304 276.329 181.534 256.148C167.011 228.966 145.135 238.553 142.013 243.728C138.415 249.689 140.37 260.752 150.987 261.78C155.234 262.192 156.352 258.004 156.055 253.68C159.457 255.441 164.316 261.354 156.536 270.91C138.564 279.479 128.636 263.911 125.918 255.056C118.244 230.052 138.24 193.96 187.558 215.922Z" fill="#FF527D"/>
<path d="M314.892 273.365C276.262 273.918 261.328 250.999 253.861 239.536C246.394 228.072 236.117 201.302 244.745 178.511C253.373 155.72 261.18 141.44 282.002 147.754C302.825 154.067 315.704 177.803 299.746 185.987C285.554 187.587 298.77 170.08 288.853 165.601C276.965 160.231 271.046 172.467 270.635 176.723C270.225 180.979 264.459 198.738 285.159 203.905C304.369 208.701 330.666 198.355 315.635 176.787C303.256 159.025 327.487 146.403 299.472 123.378C297.511 121.985 295.552 120.491 293.591 118.939C293.517 118.887 293.443 118.836 293.369 118.784C293.368 118.776 293.367 118.768 293.365 118.76C282.37 110.034 271.299 99.5266 259.37 94.7233C264.715 102.58 225.412 106.456 188.889 107.803C175.707 130.6 169.185 154.161 186.729 157.854C201.853 161.038 209.833 147.921 211.933 140.965L211.867 140.739C209.317 131.982 206.941 123.823 190.315 135.656C188.9 135.518 180.982 132.445 191.841 119.833C199.968 110.395 213.373 106.57 225.11 115.822C233.076 122.102 240.152 137.255 226.662 166.019C213.171 194.783 181.116 193.825 153.513 191.151L153.099 191.111C125.693 188.456 104.19 186.374 111.339 156.24C114.659 142.246 130.814 123.057 146.959 108.25C161.648 92.2189 157.647 89.4237 176.763 74.8246C176.981 74.4356 180.136 71.4722 191.015 61.8814C204.025 50.4124 195.857 36.6299 195.523 31.775C195.189 26.92 189.935 23.1959 192.856 17.8525C195.777 12.5092 212.18 0.434268 223.982 16.0456C235.784 31.6568 214.055 39.1968 213.57 60.8516C213.204 77.2104 215.291 81.4794 248.525 89.839C250.201 89.1732 252.771 88.7626 256.556 89.1293C266.09 90.0531 271.883 88.2029 279.572 83.3215C287.978 79.3133 283.338 69.2186 281.979 66.6756C280.62 64.1327 282.798 49.8758 291.871 55.5775C300.945 61.2792 292.232 68.4727 288.291 82.5587C285.454 92.6985 309.586 114.539 325.723 127.156C327.581 128.404 329.29 129.696 330.768 130.999C341.202 141.318 361.717 170.083 360.295 202.593L358.038 226.002C356.532 241.605 345.796 272.922 314.892 273.365Z" fill="#FF527D"/>
</g>
<g filter="url(#filter2_d_121_16156)">
<ellipse rx="49.5813" ry="44.53" transform="matrix(0.99908 -0.0428951 0.0427054 0.999088 227.338 325.484)" fill="#FFFFF4"/>
<ellipse rx="49.5813" ry="44.53" transform="matrix(0.99908 -0.0428951 0.0427054 0.999088 397.713 334.288)" fill="#FFFFF4"/>
<ellipse rx="49.5813" ry="44.53" transform="matrix(0.99908 -0.0428951 0.0427054 0.999088 382.958 310.265)" fill="#FFFFF4"/>
<ellipse rx="49.5813" ry="44.53" transform="matrix(0.99908 -0.0428951 0.0427054 0.999088 355.268 329.476)" fill="#FFFFF4"/>
<ellipse rx="49.5813" ry="44.53" transform="matrix(0.99908 -0.0428951 0.0427054 0.999088 281.94 343.058)" fill="#FFFFF4"/>
<ellipse rx="49.5813" ry="44.53" transform="matrix(0.99908 -0.0428951 0.0427054 0.999088 311.085 357.925)" fill="#FFFFF4"/>
<ellipse rx="49.5813" ry="44.53" transform="matrix(0.99908 -0.0428951 0.0427054 0.999088 326.248 317.441)" fill="#FFFFF4"/>
<ellipse rx="49.5813" ry="44.53" transform="matrix(0.99908 -0.0428951 0.0427054 0.999088 280.162 301.398)" fill="#FFFFF4"/>
</g>
<g filter="url(#filter3_d_121_16156)">
<ellipse rx="33.1904" ry="27.6208" transform="matrix(0.997073 -0.0764522 0.0761155 0.997099 36.225 217.57)" fill="#FFFFF4"/>
<ellipse rx="33.1904" ry="27.6208" transform="matrix(0.997073 -0.0764522 0.0761155 0.997099 150.344 218.835)" fill="#FFFFF4"/>
<ellipse rx="33.1904" ry="27.6208" transform="matrix(0.997073 -0.0764522 0.0761155 0.997099 140.034 204.308)" fill="#FFFFF4"/>
<ellipse rx="33.1904" ry="27.6208" transform="matrix(0.997073 -0.0764522 0.0761155 0.997099 121.867 216.898)" fill="#FFFFF4"/>
<ellipse rx="33.1904" ry="27.6208" transform="matrix(0.997073 -0.0764522 0.0761155 0.997099 73.0707 227.124)" fill="#FFFFF4"/>
<ellipse rx="33.1904" ry="27.6208" transform="matrix(0.997073 -0.0764522 0.0761155 0.997099 92.8461 235.624)" fill="#FFFFF4"/>
<ellipse rx="33.1904" ry="27.6208" transform="matrix(0.997073 -0.0764522 0.0761155 0.997099 102.227 210.152)" fill="#FFFFF4"/>
<ellipse rx="33.1904" ry="27.6208" transform="matrix(0.997073 -0.0764522 0.0761155 0.997099 71.1039 201.335)" fill="#FFFFF4"/>
</g>
<defs>
<filter id="filter0_d_121_16156" x="107.735" y="89.7344" width="261.405" height="249.148" filterUnits="userSpaceOnUse" color-interpolation-filters="sRGB">
<feFlood flood-opacity="0" result="BackgroundImageFix"/>
<feColorMatrix in="SourceAlpha" type="matrix" values="0 0 0 0 0 0 0 0 0 0 0 0 0 0 0 0 0 0 127 0" result="hardAlpha"/>
<feOffset dx="17.1548" dy="3.81217"/>
<feComposite in2="hardAlpha" operator="out"/>
<feColorMatrix type="matrix" values="0 0 0 0 0 0 0 0 0 0 0 0 0 0 0 0 0 0 0.25 0"/>
<feBlend mode="normal" in2="BackgroundImageFix" result="effect1_dropShadow_121_16156"/>
<feBlend mode="normal" in="SourceGraphic" in2="effect1_dropShadow_121_16156" result="shape"/>
</filter>
<filter id="filter1_d_121_16156" x="104.235" y="8.34375" width="256.13" height="342.594" filterUnits="userSpaceOnUse" color-interpolation-filters="sRGB">
<feFlood flood-opacity="0" result="BackgroundImageFix"/>
<feColorMatrix in="SourceAlpha" type="matrix" values="0 0 0 0 0 0 0 0 0 0 0 0 0 0 0 0 0 0 127 0" result="hardAlpha"/>
<feOffset dx="-5.71825" dy="1.90609"/>
<feComposite in2="hardAlpha" operator="out"/>
<feColorMatrix type="matrix" values="0 0 0 0 1 0 0 0 0 0.816667 0 0 0 0 0.862235 0 0 0 1 0"/>
<feBlend mode="normal" in2="BackgroundImageFix" result="effect1_dropShadow_121_16156"/>
<feBlend mode="normal" in="SourceGraphic" in2="effect1_dropShadow_121_16156" result="shape"/>
</filter>
<filter id="filter2_d_121_16156" x="177.765" y="256.855" width="277.246" height="153.335" filterUnits="userSpaceOnUse" color-interpolation-filters="sRGB">
<feFlood flood-opacity="0" result="BackgroundImageFix"/>
<feColorMatrix in="SourceAlpha" type="matrix" values="0 0 0 0 0 0 0 0 0 0 0 0 0 0 0 0 0 0 127 0" result="hardAlpha"/>
<feOffset dx="7.7257" dy="7.7257"/>
<feComposite in2="hardAlpha" operator="out"/>
<feColorMatrix type="matrix" values="0 0 0 0 0 0 0 0 0 0 0 0 0 0 0 0 0 0 0.25 0"/>
<feBlend mode="normal" in2="BackgroundImageFix" result="effect1_dropShadow_121_16156"/>
<feBlend mode="normal" in="SourceGraphic" in2="effect1_dropShadow_121_16156" result="shape"/>
</filter>
<filter id="filter3_d_121_16156" x="3.06396" y="173.676" width="188.167" height="97.3351" filterUnits="userSpaceOnUse" color-interpolation-filters="sRGB">
<feFlood flood-opacity="0" result="BackgroundImageFix"/>
<feColorMatrix in="SourceAlpha" type="matrix" values="0 0 0 0 0 0 0 0 0 0 0 0 0 0 0 0 0 0 127 0" result="hardAlpha"/>
<feOffset dx="7.7257" dy="7.7257"/>
<feComposite in2="hardAlpha" operator="out"/>
<feColorMatrix type="matrix" values="0 0 0 0 0 0 0 0 0 0 0 0 0 0 0 0 0 0 0.25 0"/>
<feBlend mode="normal" in2="BackgroundImageFix" result="effect1_dropShadow_121_16156"/>
<feBlend mode="normal" in="SourceGraphic" in2="effect1_dropShadow_121_16156" result="shape"/>
</filter>
<linearGradient id="paint0_linear_121_16156" x1="172.814" y1="29.5735" x2="70.5525" y2="223.379" gradientUnits="userSpaceOnUse">
<stop stop-color="#FF527D"/>
<stop offset="1" stop-color="#FFC4D2"/>
</linearGradient>
</defs>
</svg>
