<svg width="450" height="385" viewBox="0 0 450 385" fill="none" xmlns="http://www.w3.org/2000/svg">
<g filter="url(#filter0_d_121_16177)">
<ellipse rx="63.256" ry="48.7521" transform="matrix(0.95546 -0.295121 0.307431 0.95157 155.429 282.364)" fill="#FFFFF4"/>
<ellipse rx="63.256" ry="48.7521" transform="matrix(0.95546 -0.295121 0.307431 0.95157 367.877 235.196)" fill="#FFFFF4"/>
<ellipse rx="63.256" ry="48.7521" transform="matrix(0.95546 -0.295121 0.307431 0.95157 342.873 214.696)" fill="#FFFFF4"/>
<ellipse rx="63.256" ry="48.7521" transform="matrix(0.95546 -0.295121 0.307431 0.95157 314.213 244.172)" fill="#FFFFF4"/>
<ellipse rx="63.256" ry="48.7521" transform="matrix(0.95546 -0.295121 0.307431 0.95157 227.707 282.836)" fill="#FFFFF4"/>
<ellipse rx="63.256" ry="48.7521" transform="matrix(0.95546 -0.295121 0.307431 0.95157 267.845 288.887)" fill="#FFFFF4"/>
<ellipse rx="63.256" ry="48.7521" transform="matrix(0.95546 -0.295121 0.307431 0.95157 275.021 241.082)" fill="#FFFFF4"/>
<ellipse rx="63.256" ry="48.7521" transform="matrix(0.95546 -0.295121 0.307431 0.95157 213.672 239.403)" fill="#FFFFF4"/>
</g>
<g filter="url(#filter1_d_121_16177)">
<ellipse cx="187.334" cy="134.024" rx="137.07" ry="134.024" fill="url(#paint0_radial_121_16177)"/>
<path d="M128.527 91.6104C65.798 91.8186 79.7785 104.536 48.4541 104.732C16.1912 93.5824 38.4928 80.7815 58.2512 66.9757C71.308 60.7915 71.977 66.9753 71.977 66.9753C74.2427 70.3622 59.5519 80.9249 72.8725 83.5692C85.0007 85.9768 146.087 83.5321 183.16 73.4037C216.481 64.3007 233.41 33.4298 234.605 25.4477C237.694 14.7608 226.971 11.2837 228.914 5.12774C231.557 -3.24878 240.11 6.58502 265.83 0.508085C286.109 -4.28343 269.046 28.5555 256.232 41.4079C227.086 70.6414 189.296 91.4087 128.527 91.6104Z" fill="url(#paint1_linear_121_16177)"/>
<path d="M149.716 238.823C62.0199 222.884 78.3822 242.793 34.5678 234.95C-7.7296 212.329 27.7566 206.361 58.8049 193.774C78.5895 189.222 76.8472 192.645 76.8472 192.645C70.5174 191.512 56.0091 207.311 73.9611 214.14C90.3061 220.359 176.264 233.007 230.588 229.606C279.412 226.549 310.763 191.364 314.423 181.444C321.403 168.547 307.287 161.321 311.537 153.935C317.319 143.884 326.817 158.695 364.267 157.552C393.795 156.651 361.768 194.324 340.66 207.483C292.649 237.414 234.671 254.264 149.716 238.823Z" fill="url(#paint2_linear_121_16177)"/>
<path d="M142.12 123.596C54.2537 131 74.8081 141.421 30.9383 145.205C-15.1099 138.368 17.3946 126.718 44.0248 111.391C61.8464 104.043 61.0193 106.796 61.0193 106.796C54.6815 107.343 44.674 121.416 63.5371 122.386C80.7117 123.269 166.105 113.939 217.274 100.101C263.262 87.6634 284.63 56.5239 285.697 48.8378C289.21 38.3764 273.922 36.3203 276.176 30.2754C279.242 22.0499 291.973 30.367 327.543 21.665C355.589 14.8037 334.184 47.8197 317.21 61.4465C278.603 92.4412 227.24 116.423 142.12 123.596Z" fill="url(#paint3_linear_121_16177)"/>
<g filter="url(#filter2_i_121_16177)">
<path d="M107.042 67.5093C113.357 63.6099 106.378 61.3353 105.38 61.3353C104.652 61.3353 102.003 60.6596 101.839 58.9265C101.539 58.0357 101.215 57.0997 100.063 56.7859C97.9154 56.2012 96.0751 57.4358 97.0721 58.7357C98.0691 60.0355 97.0721 60.6854 95.4104 61.0103C93.7487 61.3353 91.9067 62.1793 91.242 63.8041C90.5773 64.129 91.7547 70.7588 97.4044 67.1844C103.054 63.6099 100.728 71.4087 107.042 67.5093Z" fill="url(#paint4_linear_121_16177)"/>
</g>
<g filter="url(#filter3_i_121_16177)">
<path d="M219.291 93.525C225.606 89.6255 218.627 87.3509 217.63 87.3509C216.901 87.3509 214.252 86.6752 214.088 84.9421C213.788 84.0513 213.464 83.1153 212.312 82.8016C210.164 82.2169 208.324 83.4515 209.321 84.7513C210.318 86.0511 209.321 86.701 207.659 87.0259C205.998 87.3509 204.156 88.1949 203.491 89.8197C202.826 90.1446 204.004 96.7745 209.653 93.2C215.303 89.6255 212.977 97.4244 219.291 93.525Z" fill="url(#paint5_linear_121_16177)"/>
</g>
<g filter="url(#filter4_i_121_16177)">
<path d="M158.568 247.688C162.516 241.49 155.22 242.413 154.323 242.838C153.667 243.148 150.982 243.668 150.062 242.178C149.395 241.503 148.687 240.798 147.51 241.007C145.316 241.395 144.209 243.29 145.686 244.035C147.162 244.781 146.554 245.79 145.203 246.791C143.852 247.791 142.569 249.335 142.695 251.08C142.241 251.656 146.254 257.123 149.748 251.499C153.242 245.876 154.621 253.887 158.568 247.688Z" fill="url(#paint6_linear_121_16177)" fill-opacity="0.2"/>
</g>
<g filter="url(#filter5_i_121_16177)">
<path d="M148.454 156.715C158.318 159.819 155.909 150.456 155.146 149.411C154.589 148.648 153.432 145.264 155.542 143.53C156.461 142.413 157.421 141.231 156.943 139.74C156.053 136.963 153.052 136.147 152.139 138.363C151.225 140.579 149.624 140.119 147.932 138.671C146.241 137.222 143.742 136.052 141.137 136.82C140.209 136.416 132.559 143.623 141.495 146.323C150.431 149.023 138.59 153.612 148.454 156.715Z" fill="url(#paint7_linear_121_16177)"/>
</g>
<g filter="url(#filter6_i_121_16177)">
<path d="M186.771 190.479C190.822 181.153 181.068 182.654 179.935 183.303C179.107 183.777 175.556 184.598 173.98 182.388C172.925 181.391 171.808 180.35 170.247 180.681C167.338 181.297 166.235 184.146 168.41 185.235C170.585 186.325 169.972 187.843 168.344 189.359C166.716 190.875 165.299 193.203 165.846 195.809C165.351 196.676 172.001 204.776 175.558 196.318C179.114 187.86 182.719 199.804 186.771 190.479Z" fill="url(#paint8_linear_121_16177)"/>
</g>
<g filter="url(#filter7_i_121_16177)">
<path d="M287.568 191.191C288.297 180.442 279.461 186.603 278.595 187.765C277.962 188.614 274.837 191.116 272.58 189.803C271.233 189.378 269.811 188.942 268.427 190.013C265.848 192.01 265.755 195.228 268.207 195.194C270.658 195.161 270.585 196.888 269.537 199.108C268.49 201.328 267.919 204.209 269.323 206.395C269.142 207.452 278.251 211.839 278.799 202.146C279.348 192.454 286.838 201.941 287.568 191.191Z" fill="url(#paint9_linear_121_16177)"/>
</g>
<g filter="url(#filter8_i_121_16177)">
<path d="M133.23 149.123C126.404 140.666 124.068 151.029 124.222 152.459C124.334 153.504 123.729 157.408 121.154 157.912C119.864 158.48 118.509 159.088 118.216 160.79C117.67 163.961 119.807 166.411 121.603 164.78C123.4 163.149 124.529 164.479 125.273 166.813C126.017 169.146 127.568 171.659 130.108 172.362C130.699 173.265 140.465 170.553 134.23 162.999C127.994 155.446 140.056 157.58 133.23 149.123Z" fill="url(#paint10_linear_121_16177)"/>
</g>
<g filter="url(#filter9_i_121_16177)">
<path d="M212.795 34.9078C223.324 31.7348 214.282 25.865 212.862 25.4892C211.825 25.2148 208.319 23.2541 208.768 20.724C208.692 19.3423 208.601 17.8875 207.083 17.0064C204.255 15.3643 201.148 16.4288 202.055 18.6556C202.963 20.8824 201.287 21.4321 198.792 21.2686C196.298 21.105 193.342 21.6127 191.755 23.676C190.68 23.8882 189.743 33.7733 199.198 30.8125C208.653 27.8516 202.265 38.0809 212.795 34.9078Z" fill="url(#paint11_linear_121_16177)"/>
</g>
<g filter="url(#filter10_i_121_16177)">
<path d="M201.475 37.599C196.519 36.5105 197.294 40.4629 197.715 41.1071C198.559 42.399 199.202 43.0959 198.833 44.2292C198.605 44.9301 198.371 45.6702 198.955 46.3873C200.045 47.7239 201.2 47.6368 201.772 46.4924C202.334 45.3694 203.471 45.2514 204.73 46.2415C205.988 47.2316 205.742 45.0108 207.859 45.8913C210.531 46.7499 210.802 41.2414 205.532 40.9742C200.262 40.707 205.659 38.5181 201.475 37.599Z" fill="url(#paint12_linear_121_16177)"/>
</g>
</g>
<g filter="url(#filter11_d_121_16177)">
<ellipse rx="43.9488" ry="29.6001" transform="matrix(0.997214 -0.074598 0.078007 0.996953 48.1032 225.657)" fill="#FFFFF4"/>
<ellipse rx="43.9488" ry="29.6001" transform="matrix(0.997214 -0.074598 0.078007 0.996953 199.067 225.099)" fill="#FFFFF4"/>
<ellipse rx="43.9488" ry="29.6001" transform="matrix(0.997214 -0.074598 0.078007 0.996953 185.668 209.681)" fill="#FFFFF4"/>
<ellipse rx="43.9488" ry="29.6001" transform="matrix(0.997214 -0.074598 0.078007 0.996953 161.426 223.497)" fill="#FFFFF4"/>
<ellipse rx="43.9488" ry="29.6001" transform="matrix(0.997214 -0.074598 0.078007 0.996953 96.6891 235.29)" fill="#FFFFF4"/>
<ellipse rx="43.9488" ry="29.6001" transform="matrix(0.997214 -0.074598 0.078007 0.996953 122.704 244.079)" fill="#FFFFF4"/>
<ellipse rx="43.9488" ry="29.6001" transform="matrix(0.997214 -0.074598 0.078007 0.996953 135.555 216.595)" fill="#FFFFF4"/>
<ellipse rx="43.9488" ry="29.6001" transform="matrix(0.997214 -0.074598 0.078007 0.996953 94.5348 207.657)" fill="#FFFFF4"/>
</g>
<defs>
<filter id="filter0_d_121_16177" x="93.1455" y="164.676" width="346.996" height="184.212" filterUnits="userSpaceOnUse" color-interpolation-filters="sRGB">
<feFlood flood-opacity="0" result="BackgroundImageFix"/>
<feColorMatrix in="SourceAlpha" type="matrix" values="0 0 0 0 0 0 0 0 0 0 0 0 0 0 0 0 0 0 127 0" result="hardAlpha"/>
<feOffset dx="9.98181" dy="9.98181"/>
<feComposite in2="hardAlpha" operator="out"/>
<feColorMatrix type="matrix" values="0 0 0 0 0 0 0 0 0 0 0 0 0 0 0 0 0 0 0.25 0"/>
<feBlend mode="normal" in2="BackgroundImageFix" result="effect1_dropShadow_121_16177"/>
<feBlend mode="normal" in="SourceGraphic" in2="effect1_dropShadow_121_16177" result="shape"/>
</filter>
<filter id="filter1_d_121_16177" x="7.80566" y="0" width="368.388" height="280.524" filterUnits="userSpaceOnUse" color-interpolation-filters="sRGB">
<feFlood flood-opacity="0" result="BackgroundImageFix"/>
<feColorMatrix in="SourceAlpha" type="matrix" values="0 0 0 0 0 0 0 0 0 0 0 0 0 0 0 0 0 0 127 0" result="hardAlpha"/>
<feOffset dy="12.4773"/>
<feComposite in2="hardAlpha" operator="out"/>
<feColorMatrix type="matrix" values="0 0 0 0 0 0 0 0 0 0 0 0 0 0 0 0 0 0 0.25 0"/>
<feBlend mode="normal" in2="BackgroundImageFix" result="effect1_dropShadow_121_16177"/>
<feBlend mode="normal" in="SourceGraphic" in2="effect1_dropShadow_121_16177" result="shape"/>
</filter>
<filter id="filter2_i_121_16177" x="91.0752" y="56.6367" width="18.582" height="20.931" filterUnits="userSpaceOnUse" color-interpolation-filters="sRGB">
<feFlood flood-opacity="0" result="BackgroundImageFix"/>
<feBlend mode="normal" in="SourceGraphic" in2="BackgroundImageFix" result="shape"/>
<feColorMatrix in="SourceAlpha" type="matrix" values="0 0 0 0 0 0 0 0 0 0 0 0 0 0 0 0 0 0 127 0" result="hardAlpha"/>
<feOffset dy="8.93494"/>
<feGaussianBlur stdDeviation="4.46747"/>
<feComposite in2="hardAlpha" operator="arithmetic" k2="-1" k3="1"/>
<feColorMatrix type="matrix" values="0 0 0 0 0 0 0 0 0 0 0 0 0 0 0 0 0 0 0.1 0"/>
<feBlend mode="normal" in2="shape" result="effect1_innerShadow_121_16177"/>
</filter>
<filter id="filter3_i_121_16177" x="203.324" y="82.6523" width="18.582" height="20.931" filterUnits="userSpaceOnUse" color-interpolation-filters="sRGB">
<feFlood flood-opacity="0" result="BackgroundImageFix"/>
<feBlend mode="normal" in="SourceGraphic" in2="BackgroundImageFix" result="shape"/>
<feColorMatrix in="SourceAlpha" type="matrix" values="0 0 0 0 0 0 0 0 0 0 0 0 0 0 0 0 0 0 127 0" result="hardAlpha"/>
<feOffset dy="8.93494"/>
<feGaussianBlur stdDeviation="4.46747"/>
<feComposite in2="hardAlpha" operator="arithmetic" k2="-1" k3="1"/>
<feColorMatrix type="matrix" values="0 0 0 0 0 0 0 0 0 0 0 0 0 0 0 0 0 0 0.1 0"/>
<feBlend mode="normal" in2="shape" result="effect1_innerShadow_121_16177"/>
</filter>
<filter id="filter4_i_121_16177" x="142.659" y="240.969" width="17.0723" height="21.9857" filterUnits="userSpaceOnUse" color-interpolation-filters="sRGB">
<feFlood flood-opacity="0" result="BackgroundImageFix"/>
<feBlend mode="normal" in="SourceGraphic" in2="BackgroundImageFix" result="shape"/>
<feColorMatrix in="SourceAlpha" type="matrix" values="0 0 0 0 0 0 0 0 0 0 0 0 0 0 0 0 0 0 127 0" result="hardAlpha"/>
<feOffset dy="8.93494"/>
<feGaussianBlur stdDeviation="4.46747"/>
<feComposite in2="hardAlpha" operator="arithmetic" k2="-1" k3="1"/>
<feColorMatrix type="matrix" values="0 0 0 0 0 0 0 0 0 0 0 0 0 0 0 0 0 0 0.1 0"/>
<feBlend mode="normal" in2="shape" result="effect1_innerShadow_121_16177"/>
</filter>
<filter id="filter5_i_121_16177" x="137.205" y="136.578" width="19.8652" height="29.7006" filterUnits="userSpaceOnUse" color-interpolation-filters="sRGB">
<feFlood flood-opacity="0" result="BackgroundImageFix"/>
<feBlend mode="normal" in="SourceGraphic" in2="BackgroundImageFix" result="shape"/>
<feColorMatrix in="SourceAlpha" type="matrix" values="0 0 0 0 0 0 0 0 0 0 0 0 0 0 0 0 0 0 127 0" result="hardAlpha"/>
<feOffset dy="8.93494"/>
<feGaussianBlur stdDeviation="4.46747"/>
<feComposite in2="hardAlpha" operator="arithmetic" k2="-1" k3="1"/>
<feColorMatrix type="matrix" values="0 0 0 0 0 0 0 0 0 0 0 0 0 0 0 0 0 0 0.1 0"/>
<feBlend mode="normal" in2="shape" result="effect1_innerShadow_121_16177"/>
</filter>
<filter id="filter6_i_121_16177" x="165.727" y="180.617" width="22.0234" height="28.4545" filterUnits="userSpaceOnUse" color-interpolation-filters="sRGB">
<feFlood flood-opacity="0" result="BackgroundImageFix"/>
<feBlend mode="normal" in="SourceGraphic" in2="BackgroundImageFix" result="shape"/>
<feColorMatrix in="SourceAlpha" type="matrix" values="0 0 0 0 0 0 0 0 0 0 0 0 0 0 0 0 0 0 127 0" result="hardAlpha"/>
<feOffset dy="8.93494"/>
<feGaussianBlur stdDeviation="4.46747"/>
<feComposite in2="hardAlpha" operator="arithmetic" k2="-1" k3="1"/>
<feColorMatrix type="matrix" values="0 0 0 0 0 0 0 0 0 0 0 0 0 0 0 0 0 0 0.1 0"/>
<feBlend mode="normal" in2="shape" result="effect1_innerShadow_121_16177"/>
</filter>
<filter id="filter7_i_121_16177" x="266.429" y="184.957" width="21.1816" height="36.5257" filterUnits="userSpaceOnUse" color-interpolation-filters="sRGB">
<feFlood flood-opacity="0" result="BackgroundImageFix"/>
<feBlend mode="normal" in="SourceGraphic" in2="BackgroundImageFix" result="shape"/>
<feColorMatrix in="SourceAlpha" type="matrix" values="0 0 0 0 0 0 0 0 0 0 0 0 0 0 0 0 0 0 127 0" result="hardAlpha"/>
<feOffset dy="13.1819"/>
<feGaussianBlur stdDeviation="6.59097"/>
<feComposite in2="hardAlpha" operator="arithmetic" k2="-1" k3="1"/>
<feColorMatrix type="matrix" values="0 0 0 0 0 0 0 0 0 0 0 0 0 0 0 0 0 0 0.1 0"/>
<feBlend mode="normal" in2="shape" result="effect1_innerShadow_121_16177"/>
</filter>
<filter id="filter8_i_121_16177" x="118.129" y="145.836" width="18.1738" height="39.8733" filterUnits="userSpaceOnUse" color-interpolation-filters="sRGB">
<feFlood flood-opacity="0" result="BackgroundImageFix"/>
<feBlend mode="normal" in="SourceGraphic" in2="BackgroundImageFix" result="shape"/>
<feColorMatrix in="SourceAlpha" type="matrix" values="0 0 0 0 0 0 0 0 0 0 0 0 0 0 0 0 0 0 127 0" result="hardAlpha"/>
<feOffset dy="13.1819"/>
<feGaussianBlur stdDeviation="6.59097"/>
<feComposite in2="hardAlpha" operator="arithmetic" k2="-1" k3="1"/>
<feColorMatrix type="matrix" values="0 0 0 0 0 0 0 0 0 0 0 0 0 0 0 0 0 0 0.1 0"/>
<feBlend mode="normal" in2="shape" result="effect1_innerShadow_121_16177"/>
</filter>
<filter id="filter9_i_121_16177" x="191.101" y="16.2109" width="26.7256" height="32.4983" filterUnits="userSpaceOnUse" color-interpolation-filters="sRGB">
<feFlood flood-opacity="0" result="BackgroundImageFix"/>
<feBlend mode="normal" in="SourceGraphic" in2="BackgroundImageFix" result="shape"/>
<feColorMatrix in="SourceAlpha" type="matrix" values="0 0 0 0 0 0 0 0 0 0 0 0 0 0 0 0 0 0 127 0" result="hardAlpha"/>
<feOffset dy="13.1819"/>
<feGaussianBlur stdDeviation="6.59097"/>
<feComposite in2="hardAlpha" operator="arithmetic" k2="-1" k3="1"/>
<feColorMatrix type="matrix" values="0 0 0 0 0 0 0 0 0 0 0 0 0 0 0 0 0 0 0.1 0"/>
<feBlend mode="normal" in2="shape" result="effect1_innerShadow_121_16177"/>
</filter>
<filter id="filter10_i_121_16177" x="197.4" y="37.4102" width="12.3242" height="16.9679" filterUnits="userSpaceOnUse" color-interpolation-filters="sRGB">
<feFlood flood-opacity="0" result="BackgroundImageFix"/>
<feBlend mode="normal" in="SourceGraphic" in2="BackgroundImageFix" result="shape"/>
<feColorMatrix in="SourceAlpha" type="matrix" values="0 0 0 0 0 0 0 0 0 0 0 0 0 0 0 0 0 0 127 0" result="hardAlpha"/>
<feOffset dy="7.00693"/>
<feGaussianBlur stdDeviation="3.50346"/>
<feComposite in2="hardAlpha" operator="arithmetic" k2="-1" k3="1"/>
<feColorMatrix type="matrix" values="0 0 0 0 0 0 0 0 0 0 0 0 0 0 0 0 0 0 0.1 0"/>
<feBlend mode="normal" in2="shape" result="effect1_innerShadow_121_16177"/>
</filter>
<filter id="filter11_d_121_16177" x="4.21484" y="177.965" width="248.722" height="105.79" filterUnits="userSpaceOnUse" color-interpolation-filters="sRGB">
<feFlood flood-opacity="0" result="BackgroundImageFix"/>
<feColorMatrix in="SourceAlpha" type="matrix" values="0 0 0 0 0 0 0 0 0 0 0 0 0 0 0 0 0 0 127 0" result="hardAlpha"/>
<feOffset dx="9.98181" dy="9.98181"/>
<feComposite in2="hardAlpha" operator="out"/>
<feColorMatrix type="matrix" values="0 0 0 0 0 0 0 0 0 0 0 0 0 0 0 0 0 0 0.25 0"/>
<feBlend mode="normal" in2="BackgroundImageFix" result="effect1_dropShadow_121_16177"/>
<feBlend mode="normal" in="SourceGraphic" in2="effect1_dropShadow_121_16177" result="shape"/>
</filter>
<radialGradient id="paint0_radial_121_16177" cx="0" cy="0" r="1" gradientUnits="userSpaceOnUse" gradientTransform="translate(264.906 207.439) rotate(-110.092) scale(167.189 611.341)">
<stop stop-color="#FF527D"/>
<stop offset="1" stop-color="#FF527D" stop-opacity="0.62"/>
</radialGradient>
<linearGradient id="paint1_linear_121_16177" x1="118.708" y1="23.5418" x2="153.595" y2="103.229" gradientUnits="userSpaceOnUse">
<stop stop-color="#D9D9D9" stop-opacity="0.8"/>
<stop offset="1" stop-color="#FFFFF4"/>
</linearGradient>
<linearGradient id="paint2_linear_121_16177" x1="166.775" y1="211.094" x2="173.099" y2="263.947" gradientUnits="userSpaceOnUse">
<stop stop-color="#FFFFF4"/>
<stop offset="1" stop-color="#D9D9D9" stop-opacity="0.8"/>
</linearGradient>
<linearGradient id="paint3_linear_121_16177" x1="158.662" y1="90.5908" x2="175.081" y2="147.455" gradientUnits="userSpaceOnUse">
<stop offset="0.0001" stop-color="#FFFFF4"/>
<stop offset="1" stop-color="#D9D9D9" stop-opacity="0.8"/>
</linearGradient>
<linearGradient id="paint4_linear_121_16177" x1="100.366" y1="56.6367" x2="100.366" y2="68.6319" gradientUnits="userSpaceOnUse">
<stop stop-color="#5A5995"/>
<stop offset="1" stop-color="#FF527D" stop-opacity="0"/>
</linearGradient>
<linearGradient id="paint5_linear_121_16177" x1="211.893" y1="77.6954" x2="212.583" y2="94.6489" gradientUnits="userSpaceOnUse">
<stop stop-color="#FF527D" stop-opacity="0"/>
<stop offset="1" stop-color="#5A5995"/>
</linearGradient>
<linearGradient id="paint6_linear_121_16177" x1="147.716" y1="240.743" x2="152.866" y2="251.632" gradientUnits="userSpaceOnUse">
<stop stop-color="#FF527D"/>
<stop offset="1" stop-color="#FF527D" stop-opacity="0"/>
</linearGradient>
<linearGradient id="paint7_linear_121_16177" x1="157.368" y1="139.923" x2="142.132" y2="151.055" gradientUnits="userSpaceOnUse">
<stop stop-color="#5A5995"/>
<stop offset="1" stop-color="#E75D7F" stop-opacity="0"/>
</linearGradient>
<linearGradient id="paint8_linear_121_16177" x1="170.471" y1="180.284" x2="179.765" y2="196.508" gradientUnits="userSpaceOnUse">
<stop stop-color="#5A5995"/>
<stop offset="1" stop-color="#FF527D" stop-opacity="0"/>
</linearGradient>
<linearGradient id="paint9_linear_121_16177" x1="268.508" y1="189.531" x2="282.908" y2="200.259" gradientUnits="userSpaceOnUse">
<stop stop-color="#5A5995"/>
<stop offset="1" stop-color="#FF527D" stop-opacity="0"/>
</linearGradient>
<linearGradient id="paint10_linear_121_16177" x1="135.744" y1="160.246" x2="109.257" y2="160.246" gradientUnits="userSpaceOnUse">
<stop stop-color="#5A5995"/>
<stop offset="1" stop-color="#FF527D" stop-opacity="0"/>
</linearGradient>
<linearGradient id="paint11_linear_121_16177" x1="207.574" y1="16.9081" x2="203.039" y2="34.0416" gradientUnits="userSpaceOnUse">
<stop stop-color="#5A5995"/>
<stop offset="1" stop-color="#FF527D" stop-opacity="0"/>
</linearGradient>
<linearGradient id="paint12_linear_121_16177" x1="198.693" y1="46.3477" x2="204.166" y2="38.6085" gradientUnits="userSpaceOnUse">
<stop stop-color="#FF527D"/>
<stop offset="1" stop-color="#FF527D" stop-opacity="0"/>
</linearGradient>
</defs>
</svg>
