<svg width="1920" height="323" viewBox="0 0 1920 323" fill="none" xmlns="http://www.w3.org/2000/svg">
<g clip-path="url(#clip0_226_976)">
<circle cx="75.5272" cy="67.1057" r="36.2619" transform="rotate(10.4414 75.5272 67.1057)" fill="#B8FBF7"/>
<circle cx="1387" cy="51" r="35" fill="#B8FBF7"/>
<circle cx="832.5" cy="216.5" r="22.5" fill="#B8FBF7"/>
<circle cx="314.5" cy="139" r="21" fill="#D88C71"/>
<circle cx="314.5" cy="139" r="21" fill="#D88C71"/>
<circle cx="314.5" cy="139" r="21" fill="#D88C71"/>
<circle cx="1798.75" cy="138.751" r="86.7512" fill="#D4FBF8"/>
<circle cx="1511.63" cy="169.628" r="31.6281" fill="#D4FBF8"/>
<circle cx="1700.65" cy="68.6512" r="12.6512" fill="#D88C71"/>
<circle cx="1700.65" cy="68.6512" r="12.6512" fill="#D88C71"/>
<circle cx="1700.65" cy="68.6512" r="12.6512" fill="#D88C71"/>
<circle cx="975.651" cy="319.651" r="12.6512" fill="#D88C71"/>
<circle cx="975.651" cy="319.651" r="12.6512" fill="#D88C71"/>
<circle cx="975.651" cy="319.651" r="12.6512" fill="#D88C71"/>
<circle cx="1933.5" cy="309.5" r="53.5" fill="#B8FBF7"/>
<circle cx="1011.5" cy="38.5" r="23.5" fill="#B8FBF7"/>
<circle cx="902.5" cy="162.169" r="7.5" fill="#FFE1E1"/>
<circle cx="376.5" cy="116.5" r="44.5" fill="#FFE1E1"/>
<circle cx="1731" cy="202" r="18" fill="#FFE1E1"/>
<circle cx="1560" cy="39" r="24" fill="#FFE1E1"/>
<circle cx="1022.5" cy="316.5" r="20.5" fill="#FFE1E1"/>
<circle cx="667" cy="194" r="24" fill="#D88C71"/>
<circle cx="667" cy="194" r="24" fill="#D88C71"/>
<circle cx="667" cy="194" r="24" fill="#D88C71"/>
<circle cx="649" cy="288" r="27" fill="#FFE1E1"/>
<circle cx="1885.5" cy="68.5" r="29.5" fill="#D88C71"/>
<circle cx="1885.5" cy="68.5" r="29.5" fill="#D88C71"/>
<circle cx="1885.5" cy="68.5" r="29.5" fill="#D88C71"/>
<circle cx="-4.24876" cy="322.751" r="86.7512" fill="#D4FBF8"/>
<circle cx="393.5" cy="295.5" r="27.5" fill="#B8FBF7"/>
<circle cx="217" cy="188" r="18" fill="#FFE1E1"/>
<circle cx="148" cy="325" r="21" fill="#D88C71"/>
<circle cx="148" cy="325" r="21" fill="#D88C71"/>
<circle cx="148" cy="325" r="21" fill="#D88C71"/>
<circle cx="1405.75" cy="78.75" r="15.75" fill="#D88C71"/>
<circle cx="1405.75" cy="78.75" r="15.75" fill="#D88C71"/>
<circle cx="1405.75" cy="78.75" r="15.75" fill="#D88C71"/>
<circle cx="1298.31" cy="242.308" r="31.6281" transform="rotate(-170.734 1298.31 242.308)" fill="#D4FBF8"/>
<circle cx="1178.55" cy="156.551" r="24" transform="rotate(-170.734 1178.55 156.551)" fill="#FFE1E1"/>
<circle cx="1028.76" cy="64.7604" r="13.6372" transform="rotate(89.4801 1028.76 64.7604)" fill="#D88C71"/>
<circle cx="1028.76" cy="64.7604" r="13.6372" transform="rotate(89.4801 1028.76 64.7604)" fill="#D88C71"/>
<circle cx="1028.76" cy="64.7604" r="13.6372" transform="rotate(89.4801 1028.76 64.7604)" fill="#D88C71"/>
<circle cx="777.902" cy="80.902" r="44.5" transform="rotate(89.4801 777.902 80.902)" fill="#FFE1E1"/>
<circle cx="594.711" cy="55.6068" r="27.5" transform="rotate(89.4801 594.711 55.6068)" fill="#B8FBF7"/>
<circle cx="1542.5" cy="319.5" r="17.5" fill="#FFE1E1"/>
</g>
<defs>
<clipPath id="clip0_226_976">
<rect width="1920" height="323" fill="white"/>
</clipPath>
</defs>
</svg>
