<svg width="1920" height="106" viewBox="0 0 1920 106" fill="none" xmlns="http://www.w3.org/2000/svg">
<g clip-path="url(#clip0_226_4026)">
<circle cx="63.1402" cy="69.7422" r="28.0324" transform="rotate(10.4414 63.1402 69.7422)" fill="#B8FBF7"/>
<circle cx="1387" cy="51" r="35" fill="#B8FBF7"/>
<circle cx="1804.25" cy="38.2512" r="23.2512" fill="#D4FBF8"/>
<circle cx="1700.65" cy="68.6512" r="12.6512" fill="#D88C71"/>
<circle cx="1700.65" cy="68.6512" r="12.6512" fill="#D88C71"/>
<circle cx="1700.65" cy="68.6512" r="12.6512" fill="#D88C71"/>
<circle cx="1011.5" cy="38.5" r="23.5" fill="#B8FBF7"/>
<circle cx="376.5" cy="84" r="12" fill="#FFE1E1"/>
<circle cx="1560" cy="39" r="24" fill="#FFE1E1"/>
<circle cx="1502" cy="76" r="10" fill="#FFE1E1"/>
<circle cx="198.5" cy="26" r="10" fill="#D88C71"/>
<circle cx="198.5" cy="26" r="10" fill="#D88C71"/>
<circle cx="198.5" cy="26" r="10" fill="#D88C71"/>
<circle cx="1840.5" cy="52.5" r="29.5" fill="#D88C71"/>
<circle cx="1840.5" cy="52.5" r="29.5" fill="#D88C71"/>
<circle cx="1840.5" cy="52.5" r="29.5" fill="#D88C71"/>
<circle cx="301" cy="62" r="28" fill="#D4FBF8"/>
<circle cx="728" cy="44" r="21" fill="#B8FBF7"/>
<circle cx="479" cy="58" r="21" fill="#D88C71"/>
<circle cx="479" cy="58" r="21" fill="#D88C71"/>
<circle cx="479" cy="58" r="21" fill="#D88C71"/>
<circle cx="1405.75" cy="78.75" r="15.75" fill="#D88C71"/>
<circle cx="1405.75" cy="78.75" r="15.75" fill="#D88C71"/>
<circle cx="1405.75" cy="78.75" r="15.75" fill="#D88C71"/>
<circle cx="1028.76" cy="64.7604" r="13.6372" transform="rotate(89.4801 1028.76 64.7604)" fill="#D88C71"/>
<circle cx="1028.76" cy="64.7604" r="13.6372" transform="rotate(89.4801 1028.76 64.7604)" fill="#D88C71"/>
<circle cx="1028.76" cy="64.7604" r="13.6372" transform="rotate(89.4801 1028.76 64.7604)" fill="#D88C71"/>
<circle cx="675.784" cy="71.7843" r="26.5446" transform="rotate(89.4801 675.784 71.7843)" fill="#FFE1E1"/>
<circle cx="507.248" cy="76.2481" r="20.0669" transform="rotate(89.4801 507.248 76.2481)" fill="#B8FBF7"/>
<circle cx="1172.49" cy="75.1426" r="17.548" transform="rotate(-22.4728 1172.49 75.1426)" fill="#D4FBF8"/>
<circle cx="1265.55" cy="37.5517" r="7.31221" transform="rotate(-22.4728 1265.55 37.5517)" fill="#D88C71"/>
<circle cx="1265.55" cy="37.5517" r="7.31221" transform="rotate(-22.4728 1265.55 37.5517)" fill="#D88C71"/>
<circle cx="1265.55" cy="37.5517" r="7.31221" transform="rotate(-22.4728 1265.55 37.5517)" fill="#FFE1E1"/>
<circle cx="1295.35" cy="33.9856" r="12.5762" transform="rotate(67.0073 1295.35 33.9856)" fill="#B8FBF7"/>
</g>
<defs>
<clipPath id="clip0_226_4026">
<rect width="1920" height="106" fill="white"/>
</clipPath>
</defs>
</svg>
