<svg width="409" height="482" viewBox="0 0 409 482" fill="none" xmlns="http://www.w3.org/2000/svg">
<ellipse rx="23.673" ry="23.1601" transform="matrix(-0.971658 -0.236392 0.247696 -0.968838 322.719 376)" fill="#DEE8F2"/>
<path d="M308.586 365.858C311.386 361.693 319.763 355.095 330.873 362.027" stroke="white" stroke-opacity="0.82" stroke-width="5.45654" stroke-linecap="round"/>
<path d="M340.734 376.978C341.179 375.027 341.124 370.247 337.347 366.731" stroke="white" stroke-opacity="0.82" stroke-width="5.45654" stroke-linecap="round"/>
<rect width="48.4051" height="72.4389" transform="matrix(-1 0 0 1 242.5 218.643)" fill="#FFE7CB"/>
<rect width="48.4051" height="29.3671" transform="matrix(-1 0 0 1 242.5 218.643)" fill="#FFE7CB"/>
<path d="M222.549 270.877C231.649 264.671 236.307 260.947 242.156 248.534V241.441H201.426C201.642 245.579 201.426 256.655 201.426 260.769V279.211C205.542 277.497 218.196 273.847 222.549 270.877Z" fill="#FDD7BC"/>
<path d="M287.921 414.495C292.708 414.495 296.984 322.668 296.984 313.283C296.984 306.037 259.208 290.804 241.018 282.09C240.818 281.994 240.621 281.899 240.426 281.805C240.374 281.805 240.329 281.806 240.289 281.807L194.779 282.492C176.9 289.283 138.375 305.197 138.375 310.694C138.375 328.777 147.399 327.818 159.284 414.495H214.86H287.921Z" fill="#ECB790"/>
<path d="M287.921 414.495C292.708 414.495 296.984 322.668 296.984 313.283C296.984 306.037 259.208 290.804 241.018 282.09C240.818 281.994 240.621 281.899 240.426 281.805C240.374 281.805 240.329 281.806 240.289 281.807L194.779 282.492C176.9 289.283 138.375 305.197 138.375 310.694C138.375 328.777 147.399 327.818 159.284 414.495H214.86H287.921Z" fill="#FFE7CB"/>
<g filter="url(#filter0_i_448_1164)">
<path fill-rule="evenodd" clip-rule="evenodd" d="M147.394 288.814C149.004 290.068 150.597 291.427 152.155 292.884C165.985 305.827 171.802 321.676 165.147 328.286C158.737 334.652 143.094 330.123 129.592 318.215C129.472 318.144 129.358 318.06 129.253 317.961L83.4887 275.135C82.7282 274.424 82.7112 273.251 83.4506 272.517L104.684 251.429C105.424 250.694 106.64 250.676 107.4 251.387L147.394 288.814Z" fill="#FFE7CB"/>
</g>
<path d="M253.943 157.717C242.997 140.825 223.721 135.373 200.158 147.385C184.19 158.452 176.667 176.831 179.032 196.978C179.989 205.127 182.208 213.381 183.536 220.185C187.86 242.354 211.255 250.446 222.697 250.446C235.272 250.446 254.684 237.961 257.887 217.256C260.291 201.722 261.185 204.111 261.371 196.978C261.556 189.846 264.889 174.609 253.943 157.717Z" fill="#FFE7CB"/>
<g filter="url(#filter1_d_448_1164)">
<path d="M171.241 180.678C170.288 150.671 187.652 134.835 196.453 130.667C201.913 128.18 211.581 125.395 228.018 125.627C248.565 125.918 259.678 140.55 265.737 152.28C277.152 174.378 266.187 219.93 272.685 234.468C285.986 264.222 283.803 268.874 281.817 278.372C278.475 294.364 259.186 297.465 257.697 308.32C256.506 317.004 263.312 323.445 266.72 324.899C257.985 323.833 248.168 314.329 246.58 312.003C244.595 309.096 230.846 298.832 236.058 286.223C241.915 272.054 228.722 263.041 240.426 241.058C241.525 238.994 257.322 224.061 259.186 209.366C263.63 174.319 240.525 140.068 221.268 140.068C200.821 140.068 238.843 191.007 186.474 194.965L203.799 241.058C209.191 262.722 208.406 265.661 206.03 273.042C200.448 290.383 206.534 287.433 204.309 300.47C203.374 305.945 195.184 321.792 172.255 334.392C174.107 331.71 180.157 324.601 179.283 316.848C178.191 307.156 166.08 292.038 161.414 284.284C156.749 276.531 155.58 261.729 161.414 242.9C167.271 224.001 172.432 218.185 171.241 180.678Z" fill="url(#paint0_radial_448_1164)"/>
<path d="M171.241 180.678C170.288 150.671 187.652 134.835 196.453 130.667C201.913 128.18 211.581 125.395 228.018 125.627C248.565 125.918 259.678 140.55 265.737 152.28C277.152 174.378 266.187 219.93 272.685 234.468C285.986 264.222 283.803 268.874 281.817 278.372C278.475 294.364 259.186 297.465 257.697 308.32C256.506 317.004 263.312 323.445 266.72 324.899C257.985 323.833 248.168 314.329 246.58 312.003C244.595 309.096 230.846 298.832 236.058 286.223C241.915 272.054 228.722 263.041 240.426 241.058C241.525 238.994 257.322 224.061 259.186 209.366C263.63 174.319 240.525 140.068 221.268 140.068C200.821 140.068 238.843 191.007 186.474 194.965L203.799 241.058C209.191 262.722 208.406 265.661 206.03 273.042C200.448 290.383 206.534 287.433 204.309 300.47C203.374 305.945 195.184 321.792 172.255 334.392C174.107 331.71 180.157 324.601 179.283 316.848C178.191 307.156 166.08 292.038 161.414 284.284C156.749 276.531 155.58 261.729 161.414 242.9C167.271 224.001 172.432 218.185 171.241 180.678Z" stroke="black" stroke-width="0.48963"/>
</g>
<g filter="url(#filter2_d_448_1164)">
<path d="M190.933 155.958C187.653 156.003 178.098 162.064 173.731 165.089L168.603 168.098C165.564 170.062 158.03 175.509 152.201 181.584C144.916 189.179 146.078 192.142 147.586 195.275C149.683 199.633 159.925 201.588 160.45 201.614C160.974 201.641 170.295 199.481 171.494 198.933C177.635 196.12 185.375 191.206 186.359 190.779C187.343 190.351 196.175 188.07 197.347 188.183C198.519 188.296 207.11 186.797 208.368 185.977C209.627 185.157 210.907 183.63 210.471 182.971C210.035 182.312 208.519 181.686 209.287 181.23C210.055 180.774 212.916 180.317 213.341 179.322C213.766 178.327 211.295 176.422 210.77 176.245C210.35 176.103 202.881 175.427 198.706 174.973L187.978 174.921L197.538 170.891C202.135 170.762 207.105 170.535 209.251 170.666C211.934 170.829 214.727 168.947 216.259 167.584C217.791 166.221 215.131 164.945 213.959 164.832C212.787 164.719 200.612 164.947 198.608 164.96C197.005 164.97 189.173 166.203 185.457 166.818C186.427 165.86 188.581 163.821 189.441 163.334C190.516 162.726 195.723 161.839 196.266 161.747C197.299 161.572 203.609 161.44 207.576 159.971C211.543 158.502 208.449 156.868 207.954 156.631C207.459 156.393 195.032 155.901 190.933 155.958Z" fill="#FFE7CB"/>
</g>
<g filter="url(#filter3_d_448_1164)">
<path d="M167.401 197.383L101.812 275.993L90.7336 266.148L79.6547 256.303L150.729 184.504L167.401 197.383Z" fill="#FFE7CB"/>
</g>
<ellipse rx="18.706" ry="18.6465" transform="matrix(0.772363 0.635182 0.653874 -0.756604 97.3278 264.536)" fill="#FFE7CB"/>
<g filter="url(#filter4_i_448_1164)">
<path fill-rule="evenodd" clip-rule="evenodd" d="M297.021 283.738C295.297 284.776 293.576 285.92 291.876 287.166C276.739 298.259 268.967 313.239 274.515 320.627C279.862 327.746 295.628 325.216 310.312 315.096C310.435 315.042 310.554 314.974 310.666 314.891L360.724 278.208C361.565 277.592 361.739 276.417 361.113 275.584L343.443 252.057C342.817 251.224 341.629 251.048 340.788 251.664L297.021 283.738Z" fill="#FFE5C7"/>
</g>
<g filter="url(#filter5_d_448_1164)">
<path d="M265.086 137.414C268.198 138.153 275.911 146.087 279.379 149.962L283.574 153.983C286.019 156.542 291.949 163.449 296.112 170.608C301.316 179.556 299.533 182.199 297.383 184.934C294.392 188.737 285.456 188.32 284.95 188.235C284.445 188.15 274.804 184.221 273.788 183.432C268.583 179.388 262.335 172.956 261.496 172.331C260.657 171.706 252.77 167.61 251.628 167.471C250.486 167.333 242.649 164.051 241.639 162.985C240.628 161.919 239.757 160.158 240.323 159.608C240.888 159.058 242.473 158.769 241.847 158.162C241.22 157.555 238.6 156.502 238.423 155.442C238.245 154.382 241.032 153.049 241.572 152.987C242.004 152.938 249.269 153.862 253.347 154.304L263.572 156.528L255.39 150.572C251.043 149.472 246.364 148.198 244.291 147.87C241.699 147.46 239.47 145.033 238.322 143.38C237.175 141.726 239.998 141.046 241.14 141.185C242.281 141.323 253.82 144.126 255.725 144.563C257.249 144.913 264.424 147.775 267.821 149.162C267.116 148.023 265.53 145.578 264.823 144.922C263.938 144.101 259.184 142.132 258.687 141.927C257.744 141.538 251.767 140.071 248.325 137.799C244.884 135.526 248.202 134.589 248.727 134.462C249.253 134.335 261.195 136.49 265.086 137.414Z" fill="#FFE7CB"/>
</g>
<g filter="url(#filter6_d_448_1164)">
<path d="M284.466 188.413L347.133 276.037L357.274 268.058L363.378 254.956L299.764 178.313L284.466 188.413Z" fill="#FFE7CB"/>
</g>
<ellipse rx="18.5027" ry="18.4029" transform="matrix(-0.842635 0.538486 -0.537697 -0.843138 348.764 265.95)" fill="#FFE5C7"/>
<ellipse rx="30.4479" ry="30.4677" transform="matrix(-0.706578 0.707635 -0.724937 -0.688815 178.965 395.825)" fill="#DEE8F2"/>
<path d="M158.027 404.674C155.064 398.877 152.953 385.373 168.214 377.736" stroke="white" stroke-opacity="0.82" stroke-width="5.45654" stroke-linecap="round"/>
<path d="M191.895 376.721C189.939 374.956 184.397 371.885 177.873 373.721" stroke="white" stroke-opacity="0.82" stroke-width="5.45654" stroke-linecap="round"/>
<ellipse rx="23.2044" ry="23.0435" transform="matrix(-0.807222 0.590247 -0.609299 -0.79294 145.553 373.51)" fill="#DEE8F2"/>
<path d="M128.785 377.749C127.26 373.061 127.303 362.69 139.67 358.71" stroke="white" stroke-opacity="0.82" stroke-width="5.45654" stroke-linecap="round"/>
<path d="M157.547 360.662C156.293 359.114 152.505 356.175 147.391 356.805" stroke="white" stroke-opacity="0.82" stroke-width="5.45654" stroke-linecap="round"/>
<ellipse rx="32.9332" ry="32.3743" transform="matrix(-0.922701 -0.385516 0.402023 -0.91563 285.178 375.447)" fill="#DEE8F2"/>
<path d="M268.035 358.419C272.84 353.294 285.876 346.03 299.589 357.983" stroke="white" stroke-opacity="0.82" stroke-width="5.45654" stroke-linecap="round"/>
<path d="M309.754 380.703C310.811 378.114 311.826 371.522 307.429 365.862" stroke="white" stroke-opacity="0.82" stroke-width="5.45654" stroke-linecap="round"/>
<ellipse rx="39.8229" ry="44.081" transform="matrix(-0.999038 -0.0438497 0.0460757 -0.998938 237.914 376.59)" fill="#DEE8F2"/>
<path d="M211.246 363.01C214.484 354.181 226.115 338.704 246.731 347.437" stroke="white" stroke-opacity="0.82" stroke-width="5.45654" stroke-linecap="round"/>
<path d="M267.941 371.604C268.029 367.797 266.355 358.898 258.963 353.766" stroke="white" stroke-opacity="0.82" stroke-width="5.45654" stroke-linecap="round"/>
<ellipse rx="23.673" ry="23.1601" transform="matrix(-0.971658 -0.236392 0.247696 -0.968838 225.332 113.989)" fill="#DEE8F2"/>
<path d="M211.199 103.847C213.999 99.6816 222.376 93.0842 233.487 100.016" stroke="white" stroke-opacity="0.82" stroke-width="5.45654" stroke-linecap="round"/>
<path d="M243.348 114.966C243.792 113.016 243.737 108.236 239.961 104.72" stroke="white" stroke-opacity="0.82" stroke-width="5.45654" stroke-linecap="round"/>
<ellipse rx="8.74161" ry="8.55223" transform="matrix(-0.971658 -0.236392 0.247696 -0.968838 175.285 162.267)" fill="#DEE8F2"/>
<path d="M170.062 158.522C171.096 156.984 174.19 154.548 178.292 157.108" stroke="white" stroke-opacity="0.82" stroke-width="2.01491" stroke-linecap="round"/>
<path d="M181.934 162.628C182.098 161.908 182.077 160.143 180.683 158.845" stroke="white" stroke-opacity="0.82" stroke-width="2.01491" stroke-linecap="round"/>
<ellipse rx="23.673" ry="23.1601" transform="matrix(-0.971658 -0.236392 0.247696 -0.968838 210.281 363.21)" fill="#DEE8F2"/>
<path d="M196.148 353.068C198.948 348.903 207.326 342.305 218.436 349.237" stroke="white" stroke-opacity="0.82" stroke-width="5.45654" stroke-linecap="round"/>
<path d="M228.297 364.188C228.741 362.237 228.686 357.457 224.91 353.941" stroke="white" stroke-opacity="0.82" stroke-width="5.45654" stroke-linecap="round"/>
<ellipse rx="23.673" ry="23.1601" transform="matrix(-0.971658 -0.236392 0.247696 -0.968838 134.992 316.206)" fill="#DEE8F2"/>
<path d="M120.859 306.063C123.659 301.898 132.037 295.301 143.147 302.232" stroke="white" stroke-opacity="0.82" stroke-width="5.45654" stroke-linecap="round"/>
<path d="M153.008 317.184C153.452 315.233 153.397 310.453 149.621 306.937" stroke="white" stroke-opacity="0.82" stroke-width="5.45654" stroke-linecap="round"/>
<ellipse rx="23.673" ry="23.1601" transform="matrix(-0.971658 -0.236392 0.247696 -0.968838 270.52 376.001)" fill="#DEE8F2"/>
<path d="M256.387 365.858C259.187 361.693 267.564 355.096 278.674 362.027" stroke="white" stroke-opacity="0.82" stroke-width="5.45654" stroke-linecap="round"/>
<path d="M288.535 376.978C288.98 375.027 288.925 370.247 285.148 366.731" stroke="white" stroke-opacity="0.82" stroke-width="5.45654" stroke-linecap="round"/>
<ellipse rx="17.228" ry="17.5639" transform="matrix(-0.34032 -0.94031 0.945496 -0.325632 254.212 129.417)" fill="#DEE8F2"/>
<path d="M254.867 116.718C258.66 116.706 266.283 119.07 266.428 128.626" stroke="white" stroke-opacity="0.82" stroke-width="5.45654" stroke-linecap="round"/>
<path d="M260.969 140.709C262.39 140.179 265.405 138.188 266.093 134.465" stroke="white" stroke-opacity="0.82" stroke-width="5.45654" stroke-linecap="round"/>
<ellipse rx="8.42495" ry="8.30439" transform="matrix(-0.999349 -0.104821 0.109014 -0.989013 313.326 349.641)" fill="#C7D8E8"/>
<path d="M308.734 344.483C310.171 342.857 314.385 342.135 316.5 344.322" stroke="white" stroke-opacity="0.82" stroke-width="3.01061" stroke-linecap="round"/>
<path d="M318.988 347.319C318.907 346.77 318.553 346.1 318.032 345.651" stroke="white" stroke-opacity="0.82" stroke-width="3.01061" stroke-linecap="round"/>
<ellipse rx="7.86157" ry="7.85821" transform="matrix(0.392307 0.910123 -0.933385 0.382858 205.828 104.255)" fill="#C7D8E8"/>
<path d="M203.57 110.283C201.546 109.87 199.021 106.818 199.903 104.127" stroke="white" stroke-opacity="0.82" stroke-width="3.01061" stroke-linecap="round"/>
<path d="M201.297 100.772C200.871 101.088 200.467 101.676 200.325 102.298" stroke="white" stroke-opacity="0.82" stroke-width="3.01061" stroke-linecap="round"/>
<ellipse cx="219.693" cy="40.0585" rx="52.2007" ry="17.8715" fill="#D9D9D9"/>
<ellipse cx="220.442" cy="40.3029" rx="47.9343" ry="15.6682" fill="black"/>
<path d="M217.253 9.56797C219.09 17.6562 213.842 22.2116 212.168 22.6764H228.732C220.914 22.6764 222.139 7.89455 226.754 0.643066H213.588C216.371 6.77894 216.429 5.94223 217.253 9.56797Z" fill="url(#paint1_linear_448_1164)"/>
<ellipse rx="26.7791" ry="26.8942" transform="matrix(-0.6524 0.757875 -0.773587 -0.63369 175.15 376.116)" fill="#DEE8F2"/>
<path d="M157.34 385.219C154.35 380.312 151.596 368.58 164.499 360.902" stroke="white" stroke-opacity="0.82" stroke-width="5.45654" stroke-linecap="round"/>
<path d="M185.242 358.51C183.406 357.083 178.332 354.735 172.722 356.762" stroke="white" stroke-opacity="0.82" stroke-width="5.45654" stroke-linecap="round"/>
<ellipse cx="191.333" cy="42.7514" rx="1.25482" ry="0.48963" fill="#D9D9D9"/>
<ellipse cx="195.349" cy="41.7723" rx="1.25482" ry="0.48963" fill="#D9D9D9"/>
<ellipse cx="197.86" cy="45.444" rx="1.25482" ry="0.244815" fill="#D9D9D9"/>
<ellipse cx="201.876" cy="43.2406" rx="1.25482" ry="0.48963" fill="#D9D9D9"/>
<ellipse cx="205.892" cy="41.7723" rx="1.25482" ry="0.48963" fill="#D9D9D9"/>
<ellipse cx="208.399" cy="45.444" rx="1.25482" ry="0.244815" fill="#D9D9D9"/>
<ellipse cx="201.876" cy="54.1273" rx="1.25482" ry="0.48963" fill="#D9D9D9"/>
<ellipse cx="183.806" cy="42.2621" rx="1.25482" ry="0.48963" fill="#D9D9D9"/>
<ellipse cx="189.325" cy="47.1586" rx="1.25482" ry="0.48963" fill="#D9D9D9"/>
<ellipse cx="193.841" cy="38.0997" rx="1.25482" ry="0.734445" fill="#D9D9D9"/>
<ellipse cx="195.852" cy="54.3723" rx="1.25482" ry="0.244815" fill="#D9D9D9"/>
<ellipse cx="213.423" cy="42.7514" rx="1.25482" ry="0.48963" fill="#D9D9D9"/>
<ellipse cx="217.435" cy="41.2831" rx="1.25482" ry="0.48963" fill="#D9D9D9"/>
<ellipse cx="219.942" cy="44.9558" rx="1.25482" ry="0.244815" fill="#D9D9D9"/>
<ellipse cx="223.958" cy="42.7514" rx="1.25482" ry="0.48963" fill="#D9D9D9"/>
<ellipse cx="227.977" cy="41.2831" rx="1.25482" ry="0.48963" fill="#D9D9D9"/>
<ellipse cx="230.485" cy="44.9558" rx="1.25482" ry="0.244815" fill="#D9D9D9"/>
<ellipse cx="248.556" cy="44.2211" rx="1.25482" ry="0.48963" fill="#D9D9D9"/>
<ellipse cx="233.993" cy="41.5275" rx="1.25482" ry="0.244815" fill="#D9D9D9"/>
<ellipse cx="199.868" cy="39.3241" rx="1.25482" ry="0.48963" fill="#D9D9D9"/>
<ellipse cx="208.399" cy="37.8549" rx="1.25482" ry="0.48963" fill="#D9D9D9"/>
<ellipse cx="203.38" cy="36.8764" rx="1.25482" ry="0.48963" fill="#D9D9D9"/>
<ellipse cx="211.411" cy="37.3656" rx="1.25482" ry="0.48963" fill="#D9D9D9"/>
<ellipse cx="216.927" cy="37.3656" rx="1.25482" ry="0.48963" fill="#D9D9D9"/>
<ellipse cx="222.454" cy="37.6101" rx="1.25482" ry="0.244815" fill="#D9D9D9"/>
<ellipse cx="230.485" cy="37.6101" rx="1.25482" ry="0.244815" fill="#D9D9D9"/>
<ellipse cx="242.024" cy="39.5695" rx="1.25482" ry="0.244815" fill="#D9D9D9"/>
<ellipse cx="202.876" cy="47.403" rx="1.25482" ry="0.244815" fill="#D9D9D9"/>
<ellipse cx="208.899" cy="56.3312" rx="1.25482" ry="0.244815" fill="#D9D9D9"/>
<ellipse cx="212.919" cy="54.6171" rx="1.25482" ry="0.48963" fill="#D9D9D9"/>
<ellipse cx="215.435" cy="58.2897" rx="1.25482" ry="0.244815" fill="#D9D9D9"/>
<ellipse cx="213.423" cy="47.403" rx="1.25482" ry="0.244815" fill="#D9D9D9"/>
<ellipse cx="219.442" cy="56.3312" rx="1.25482" ry="0.244815" fill="#D9D9D9"/>
<ellipse cx="223.458" cy="54.6171" rx="1.25482" ry="0.48963" fill="#D9D9D9"/>
<ellipse cx="225.966" cy="58.2897" rx="1.25482" ry="0.244815" fill="#D9D9D9"/>
<ellipse cx="183.306" cy="45.6889" rx="1.25482" ry="0.48963" fill="#D9D9D9"/>
<ellipse cx="187.817" cy="39.8143" rx="1.25482" ry="0.48963" fill="#D9D9D9"/>
<ellipse cx="203.38" cy="57.0658" rx="1.25482" ry="0.48963" fill="#D9D9D9"/>
<ellipse cx="221.45" cy="58.5346" rx="1.25482" ry="0.48963" fill="#D9D9D9"/>
<ellipse cx="224.966" cy="47.1586" rx="1.25482" ry="0.48963" fill="#D9D9D9"/>
<ellipse cx="230.989" cy="56.0858" rx="1.25482" ry="0.48963" fill="#D9D9D9"/>
<ellipse cx="235.009" cy="54.6171" rx="1.25482" ry="0.48963" fill="#D9D9D9"/>
<ellipse cx="253.571" cy="43.486" rx="1.25482" ry="0.244815" fill="#D9D9D9"/>
<ellipse cx="235.501" cy="47.1586" rx="1.25482" ry="0.48963" fill="#D9D9D9"/>
<ellipse cx="242.024" cy="36.8764" rx="1.25482" ry="0.48963" fill="#D9D9D9"/>
<ellipse cx="235.009" cy="58.2897" rx="1.25482" ry="0.244815" fill="#D9D9D9"/>
<ellipse cx="239.017" cy="56.5761" rx="1.25482" ry="0.48963" fill="#D9D9D9"/>
<ellipse cx="243.036" cy="54.6171" rx="1.25482" ry="0.48963" fill="#D9D9D9"/>
<ellipse cx="257.591" cy="41.5275" rx="1.25482" ry="0.244815" fill="#D9D9D9"/>
<ellipse cx="242.532" cy="46.6688" rx="1.25482" ry="0.48963" fill="#D9D9D9"/>
<ellipse cx="248.556" cy="55.5966" rx="1.25482" ry="0.48963" fill="#D9D9D9"/>
<ellipse cx="236.509" cy="38.3446" rx="1.25482" ry="0.48963" fill="#D9D9D9"/>
<ellipse cx="209.903" cy="58.5346" rx="1.25482" ry="0.48963" fill="#D9D9D9"/>
<ellipse cx="238.013" cy="43.7308" rx="1.25482" ry="0.48963" fill="#D9D9D9"/>
<ellipse cx="242.024" cy="42.2621" rx="1.25482" ry="0.48963" fill="#D9D9D9"/>
<ellipse cx="253.571" cy="41.5275" rx="1.25482" ry="0.244815" fill="#D9D9D9"/>
<ellipse cx="247.548" cy="38.8348" rx="1.25482" ry="0.48963" fill="#D9D9D9"/>
<ellipse cx="258.091" cy="45.444" rx="1.25482" ry="0.244815" fill="#D9D9D9"/>
<ellipse cx="248.052" cy="41.2831" rx="1.25482" ry="0.48963" fill="#D9D9D9"/>
<ellipse cx="247.548" cy="46.6688" rx="1.25482" ry="0.48963" fill="#D9D9D9"/>
<ellipse cx="253.071" cy="46.6688" rx="1.25482" ry="0.48963" fill="#D9D9D9"/>
<ellipse rx="20.2801" ry="20.7532" transform="matrix(-0.192264 0.981343 -0.983061 -0.183278 24.332 160.508)" fill="#DEE8F2"/>
<path d="M15.9258 173.065C12.0543 170.878 5.73016 164.05 11.4054 154.232" stroke="white" stroke-opacity="0.82" stroke-width="4.78084" stroke-linecap="round"/>
<path d="M24.3359 145.088C22.565 144.804 18.2809 145.083 15.3116 148.477" stroke="white" stroke-opacity="0.82" stroke-width="4.78084" stroke-linecap="round"/>
<ellipse rx="10.4719" ry="10.6117" transform="matrix(-0.0525034 0.992815 -1.00434 -0.0505419 389.234 131.534)" fill="#C7D8E8"/>
<path d="M382.902 137.53C380.704 135.88 379.477 130.758 382.151 128.009" stroke="white" stroke-opacity="0.82" stroke-width="3.79419" stroke-linecap="round"/>
<path d="M385.84 124.75C385.137 124.889 384.298 125.37 383.755 126.041" stroke="white" stroke-opacity="0.82" stroke-width="3.79419" stroke-linecap="round"/>
<ellipse rx="10.4719" ry="10.6117" transform="matrix(-0.0525034 0.992815 -1.00434 -0.0505419 384.535 126.844)" fill="#C7D8E8"/>
<path d="M378.199 132.839C376.001 131.189 374.774 126.068 377.447 123.318" stroke="white" stroke-opacity="0.82" stroke-width="3.79419" stroke-linecap="round"/>
<path d="M381.137 120.061C380.434 120.199 379.595 120.68 379.052 121.351" stroke="white" stroke-opacity="0.82" stroke-width="3.79419" stroke-linecap="round"/>
<ellipse rx="9.89398" ry="9.91719" transform="matrix(0.911018 -0.433253 0.443097 0.886615 389.494 182.302)" fill="#C7D8E8"/>
<path d="M397.434 184.654C397.042 187.168 393.283 190.481 389.75 189.587" stroke="white" stroke-opacity="0.82" stroke-width="3.79419" stroke-linecap="round"/>
<path d="M385.32 188.107C385.757 188.608 386.544 189.062 387.356 189.193" stroke="white" stroke-opacity="0.82" stroke-width="3.79419" stroke-linecap="round"/>
<ellipse rx="7.58829" ry="7.46301" transform="matrix(0.862892 0.500689 -0.521882 0.855878 356.774 175.951)" fill="#C7D8E8"/>
<path d="M358.543 181.848C356.743 182.653 353.019 181.704 352.129 179.142" stroke="white" stroke-opacity="0.82" stroke-width="3.79419" stroke-linecap="round"/>
<path d="M351.254 175.784C351.11 176.263 351.142 176.94 351.395 177.498" stroke="white" stroke-opacity="0.82" stroke-width="3.79419" stroke-linecap="round"/>
<ellipse rx="4.59583" ry="4.52481" transform="matrix(0.989196 0.17059 -0.17762 0.980102 178.5 172.735)" fill="#C7D8E8"/>
<path d="M180.797 175.707C179.954 176.539 177.634 176.78 176.567 175.514" stroke="white" stroke-opacity="0.82" stroke-width="2.29915" stroke-linecap="round"/>
<path d="M175.336 173.795C175.359 174.097 175.527 174.474 175.793 174.737" stroke="white" stroke-opacity="0.82" stroke-width="2.29916" stroke-linecap="round"/>
<ellipse rx="29.5941" ry="28.953" transform="matrix(-0.971658 -0.236392 0.247696 -0.968838 61.5021 177.794)" fill="#DEE8F2"/>
<path d="M43.8281 165.115C47.3283 159.908 57.8011 151.661 71.6902 160.326" stroke="white" stroke-opacity="0.82" stroke-width="6.82133" stroke-linecap="round"/>
<path d="M84.0234 179.016C84.5792 176.578 84.5105 170.602 79.7893 166.206" stroke="white" stroke-opacity="0.82" stroke-width="6.82133" stroke-linecap="round"/>
<ellipse rx="13.5325" ry="13.2393" transform="matrix(-0.971658 -0.236392 0.247696 -0.968838 200.833 128.519)" fill="#DFEFFF"/>
<path d="M192.754 122.721C194.354 120.34 199.143 116.569 205.494 120.531" stroke="white" stroke-opacity="0.82" stroke-width="3.11919" stroke-linecap="round"/>
<path d="M211.129 129.078C211.383 127.963 211.352 125.231 209.193 123.221" stroke="white" stroke-opacity="0.82" stroke-width="3.11919" stroke-linecap="round"/>
<ellipse rx="5.13471" ry="5.06123" transform="matrix(-0.999349 -0.104821 0.109014 -0.989013 186.26 158.3)" fill="#C7D8E8"/>
<path d="M183.461 155.156C184.337 154.165 186.905 153.725 188.194 155.058" stroke="white" stroke-opacity="0.82" stroke-width="1.83486" stroke-linecap="round"/>
<path d="M189.711 156.885C189.661 156.55 189.446 156.142 189.128 155.868" stroke="white" stroke-opacity="0.82" stroke-width="1.83486" stroke-linecap="round"/>
<ellipse rx="11.2483" ry="11.1144" transform="matrix(-1.00631 0.00310694 -0.00322334 -0.993481 166.274 309.335)" fill="#C7D8E8"/>
<path d="M159.395 303.141C161.058 300.774 166.548 299.21 169.688 301.812" stroke="white" stroke-opacity="0.82" stroke-width="5.63716" stroke-linecap="round"/>
<path d="M173.441 305.437C173.25 304.719 172.679 303.88 171.92 303.358" stroke="white" stroke-opacity="0.82" stroke-width="5.63716" stroke-linecap="round"/>
<g filter="url(#filter7_d_448_1164)">
<ellipse rx="28.795" ry="28.1509" transform="matrix(0.947837 0.318756 0.318756 -0.947837 83.6256 404.503)" fill="#DEE8F2"/>
<path d="M104.836 403.282C104.722 397.204 100.5 385.024 84.5174 384.918" stroke="white" stroke-opacity="0.82" stroke-width="3.48481" stroke-linecap="round"/>
<path d="M64.5039 393.828C65.3395 391.543 68.5607 386.686 74.7614 385.535" stroke="white" stroke-opacity="0.82" stroke-width="3.48481" stroke-linecap="round"/>
</g>
<g filter="url(#filter8_d_448_1164)">
<ellipse rx="26.3657" ry="25.7759" transform="matrix(0.947837 0.318756 0.318756 -0.947837 122.101 414.058)" fill="#DEE8F2"/>
<path d="M141.523 412.941C141.419 407.377 137.553 396.224 122.919 396.127" stroke="white" stroke-opacity="0.82" stroke-width="3.19082" stroke-linecap="round"/>
<path d="M104.594 404.285C105.359 402.193 108.308 397.746 113.986 396.692" stroke="white" stroke-opacity="0.82" stroke-width="3.19082" stroke-linecap="round"/>
</g>
<g filter="url(#filter9_d_448_1164)">
<circle r="16.1539" transform="matrix(0.323214 0.946326 0.946326 -0.323214 117.692 381.102)" fill="#DEE8F2"/>
<path d="M125.566 390.102C128.304 387.954 132.413 381.877 126.948 374.743" stroke="white" stroke-opacity="0.82" stroke-width="3.32597" stroke-linecap="round"/>
<path d="M115.973 368.93C117.305 368.513 120.635 368.267 123.3 370.624" stroke="white" stroke-opacity="0.82" stroke-width="3.32597" stroke-linecap="round"/>
</g>
<g filter="url(#filter10_d_448_1164)">
<ellipse cx="171.08" cy="418.542" rx="35.2184" ry="34.4306" transform="rotate(-11.8721 171.08 418.542)" fill="#DEE8F2"/>
<path d="M196.672 423.057C195.665 430.423 188.793 444.615 169.365 442.457" stroke="white" stroke-opacity="0.82" stroke-width="4.26218" stroke-linecap="round"/>
<path d="M146.328 428.771C147.016 431.666 150.234 438.026 157.602 440.311" stroke="white" stroke-opacity="0.82" stroke-width="4.26218" stroke-linecap="round"/>
</g>
<g filter="url(#filter11_d_448_1164)">
<circle cx="211.472" cy="414.471" r="12.5382" transform="rotate(-144.832 211.472 414.471)" fill="#DEE8F2"/>
<path d="M206.484 406.645C208.681 405.073 214.104 403.337 218.227 408.963" stroke="white" stroke-opacity="0.82" stroke-width="2.95839" stroke-linecap="round"/>
<path d="M220.164 418.405C220.765 417.504 221.674 415.077 220.499 412.578" stroke="white" stroke-opacity="0.82" stroke-width="2.95839" stroke-linecap="round"/>
</g>
<g filter="url(#filter12_d_448_1164)">
<circle cx="149.1" cy="378.755" r="16.1539" transform="rotate(151.185 149.1 378.755)" fill="#DEE8F2"/>
<path d="M137.219 380.105C136.641 376.674 137.696 369.414 146.54 367.82" stroke="white" stroke-opacity="0.82" stroke-width="3.32597" stroke-linecap="round"/>
<path d="M158.57 370.913C157.866 369.708 155.569 367.284 152.013 367.232" stroke="white" stroke-opacity="0.82" stroke-width="3.32596" stroke-linecap="round"/>
</g>
<g filter="url(#filter13_d_448_1164)">
<ellipse cx="347.751" cy="422.442" rx="20.475" ry="20.017" transform="rotate(170.402 347.751 422.442)" fill="#DEE8F2"/>
<path d="M332.988 419.228C333.743 414.972 338.062 406.886 349.299 408.588" stroke="white" stroke-opacity="0.82" stroke-width="2.47792" stroke-linecap="round"/>
<path d="M362.367 417.069C362.034 415.372 360.311 411.603 356.084 410.105" stroke="white" stroke-opacity="0.82" stroke-width="2.47792" stroke-linecap="round"/>
</g>
<g filter="url(#filter14_d_448_1164)">
<ellipse cx="319.666" cy="424.878" rx="18.7476" ry="18.3282" transform="rotate(170.402 319.666 424.878)" fill="#DEE8F2"/>
<path d="M306.148 421.936C306.84 418.039 310.795 410.635 321.083 412.193" stroke="white" stroke-opacity="0.82" stroke-width="2.26886" stroke-linecap="round"/>
<path d="M333.051 419.959C332.746 418.405 331.168 414.954 327.298 413.583" stroke="white" stroke-opacity="0.82" stroke-width="2.26886" stroke-linecap="round"/>
</g>
<g filter="url(#filter15_d_448_1164)">
<circle cx="326.428" cy="402.222" r="11.4864" transform="rotate(117.847 326.428 402.222)" fill="#DEE8F2"/>
<path d="M319.898 407.667C318.214 405.855 316.004 401.13 320.635 396.727" stroke="white" stroke-opacity="0.82" stroke-width="2.36496" stroke-linecap="round"/>
<path d="M328.988 393.864C328.099 393.423 325.787 392.881 323.654 394.24" stroke="white" stroke-opacity="0.82" stroke-width="2.36496" stroke-linecap="round"/>
</g>
<g filter="url(#filter16_d_448_1164)">
<ellipse rx="25.0424" ry="24.4822" transform="matrix(0.967044 -0.254609 -0.254609 -0.967044 284.769 422.586)" fill="#DEE8F2"/>
<path d="M299.598 411.561C296.61 407.2 287.72 400.368 276.058 407.93" stroke="white" stroke-opacity="0.82" stroke-width="3.03067" stroke-linecap="round"/>
<path d="M265.773 423.97C265.289 421.911 265.308 416.843 269.263 413.043" stroke="white" stroke-opacity="0.82" stroke-width="3.03067" stroke-linecap="round"/>
</g>
<g filter="url(#filter17_d_448_1164)">
<circle r="8.91539" transform="matrix(0.897428 -0.441161 -0.441161 -0.897428 253.978 417.711)" fill="#DEE8F2"/>
<path d="M258.352 412.769C256.984 411.421 253.368 409.599 249.847 413.092" stroke="white" stroke-opacity="0.82" stroke-width="2.1036" stroke-linecap="round"/>
<path d="M247.438 419.508C247.115 418.808 246.747 417.003 247.85 415.378" stroke="white" stroke-opacity="0.82" stroke-width="2.1036" stroke-linecap="round"/>
</g>
<g filter="url(#filter18_d_448_1164)">
<circle r="11.4864" transform="matrix(0.790107 0.612969 0.612969 -0.790107 304.628 397.084)" fill="#DEE8F2"/>
<path d="M312.82 399.353C313.607 397.007 313.673 391.791 307.639 389.689" stroke="white" stroke-opacity="0.82" stroke-width="2.36496" stroke-linecap="round"/>
<path d="M298.848 390.524C299.476 389.756 301.358 388.309 303.862 388.667" stroke="white" stroke-opacity="0.82" stroke-width="2.36496" stroke-linecap="round"/>
</g>
<defs>
<filter id="filter0_i_448_1164" x="82.9062" y="250.865" width="84.9961" height="82.1909" filterUnits="userSpaceOnUse" color-interpolation-filters="sRGB">
<feFlood flood-opacity="0" result="BackgroundImageFix"/>
<feBlend mode="normal" in="SourceGraphic" in2="BackgroundImageFix" result="shape"/>
<feColorMatrix in="SourceAlpha" type="matrix" values="0 0 0 0 0 0 0 0 0 0 0 0 0 0 0 0 0 0 127 0" result="hardAlpha"/>
<feOffset dy="1.8862"/>
<feGaussianBlur stdDeviation="0.943102"/>
<feComposite in2="hardAlpha" operator="arithmetic" k2="-1" k3="1"/>
<feColorMatrix type="matrix" values="0 0 0 0 0.529167 0 0 0 0 0.524757 0 0 0 0 0.524757 0 0 0 0.25 0"/>
<feBlend mode="normal" in2="shape" result="effect1_innerShadow_448_1164"/>
</filter>
<filter id="filter1_d_448_1164" x="157.219" y="125.369" width="126.336" height="214.133" filterUnits="userSpaceOnUse" color-interpolation-filters="sRGB">
<feFlood flood-opacity="0" result="BackgroundImageFix"/>
<feColorMatrix in="SourceAlpha" type="matrix" values="0 0 0 0 0 0 0 0 0 0 0 0 0 0 0 0 0 0 127 0" result="hardAlpha"/>
<feOffset dy="4.8963"/>
<feComposite in2="hardAlpha" operator="out"/>
<feColorMatrix type="matrix" values="0 0 0 0 0 0 0 0 0 0 0 0 0 0 0 0 0 0 0.25 0"/>
<feBlend mode="normal" in2="BackgroundImageFix" result="effect1_dropShadow_448_1164"/>
<feBlend mode="normal" in="SourceGraphic" in2="effect1_dropShadow_448_1164" result="shape"/>
</filter>
<filter id="filter2_d_448_1164" x="144.502" y="155.953" width="74.1788" height="49.5787" filterUnits="userSpaceOnUse" color-interpolation-filters="sRGB">
<feFlood flood-opacity="0" result="BackgroundImageFix"/>
<feColorMatrix in="SourceAlpha" type="matrix" values="0 0 0 0 0 0 0 0 0 0 0 0 0 0 0 0 0 0 127 0" result="hardAlpha"/>
<feOffset dy="1.95852"/>
<feGaussianBlur stdDeviation="0.97926"/>
<feComposite in2="hardAlpha" operator="out"/>
<feColorMatrix type="matrix" values="0 0 0 0 0 0 0 0 0 0 0 0 0 0 0 0 0 0 0.25 0"/>
<feBlend mode="normal" in2="BackgroundImageFix" result="effect1_dropShadow_448_1164"/>
<feBlend mode="normal" in="SourceGraphic" in2="effect1_dropShadow_448_1164" result="shape"/>
</filter>
<filter id="filter3_d_448_1164" x="77.6977" y="184.504" width="91.6631" height="95.4058" filterUnits="userSpaceOnUse" color-interpolation-filters="sRGB">
<feFlood flood-opacity="0" result="BackgroundImageFix"/>
<feColorMatrix in="SourceAlpha" type="matrix" values="0 0 0 0 0 0 0 0 0 0 0 0 0 0 0 0 0 0 127 0" result="hardAlpha"/>
<feOffset dy="1.95852"/>
<feGaussianBlur stdDeviation="0.97926"/>
<feComposite in2="hardAlpha" operator="out"/>
<feColorMatrix type="matrix" values="0 0 0 0 0 0 0 0 0 0 0 0 0 0 0 0 0 0 0.25 0"/>
<feBlend mode="normal" in2="BackgroundImageFix" result="effect1_dropShadow_448_1164"/>
<feBlend mode="normal" in="SourceGraphic" in2="effect1_dropShadow_448_1164" result="shape"/>
</filter>
<filter id="filter4_i_448_1164" x="272.723" y="251.296" width="88.7656" height="75.2656" filterUnits="userSpaceOnUse" color-interpolation-filters="sRGB">
<feFlood flood-opacity="0" result="BackgroundImageFix"/>
<feBlend mode="normal" in="SourceGraphic" in2="BackgroundImageFix" result="shape"/>
<feColorMatrix in="SourceAlpha" type="matrix" values="0 0 0 0 0 0 0 0 0 0 0 0 0 0 0 0 0 0 127 0" result="hardAlpha"/>
<feOffset dy="1.8862"/>
<feGaussianBlur stdDeviation="0.943102"/>
<feComposite in2="hardAlpha" operator="arithmetic" k2="-1" k3="1"/>
<feColorMatrix type="matrix" values="0 0 0 0 0.529167 0 0 0 0 0.524757 0 0 0 0 0.524757 0 0 0 0.25 0"/>
<feBlend mode="normal" in2="shape" result="effect1_innerShadow_448_1164"/>
</filter>
<filter id="filter5_d_448_1164" x="236.096" y="134.457" width="65.3702" height="57.7515" filterUnits="userSpaceOnUse" color-interpolation-filters="sRGB">
<feFlood flood-opacity="0" result="BackgroundImageFix"/>
<feColorMatrix in="SourceAlpha" type="matrix" values="0 0 0 0 0 0 0 0 0 0 0 0 0 0 0 0 0 0 127 0" result="hardAlpha"/>
<feOffset dy="1.95852"/>
<feGaussianBlur stdDeviation="0.97926"/>
<feComposite in2="hardAlpha" operator="out"/>
<feColorMatrix type="matrix" values="0 0 0 0 0 0 0 0 0 0 0 0 0 0 0 0 0 0 0.25 0"/>
<feBlend mode="normal" in2="BackgroundImageFix" result="effect1_dropShadow_448_1164"/>
<feBlend mode="normal" in="SourceGraphic" in2="effect1_dropShadow_448_1164" result="shape"/>
</filter>
<filter id="filter6_d_448_1164" x="282.506" y="178.313" width="82.8311" height="101.641" filterUnits="userSpaceOnUse" color-interpolation-filters="sRGB">
<feFlood flood-opacity="0" result="BackgroundImageFix"/>
<feColorMatrix in="SourceAlpha" type="matrix" values="0 0 0 0 0 0 0 0 0 0 0 0 0 0 0 0 0 0 127 0" result="hardAlpha"/>
<feOffset dy="1.95852"/>
<feGaussianBlur stdDeviation="0.97926"/>
<feComposite in2="hardAlpha" operator="out"/>
<feColorMatrix type="matrix" values="0 0 0 0 0 0 0 0 0 0 0 0 0 0 0 0 0 0 0.25 0"/>
<feBlend mode="normal" in2="BackgroundImageFix" result="effect1_dropShadow_448_1164"/>
<feBlend mode="normal" in="SourceGraphic" in2="effect1_dropShadow_448_1164" result="shape"/>
</filter>
<filter id="filter7_d_448_1164" x="50.1658" y="376.278" width="66.9184" height="72.86" filterUnits="userSpaceOnUse" color-interpolation-filters="sRGB">
<feFlood flood-opacity="0" result="BackgroundImageFix"/>
<feColorMatrix in="SourceAlpha" type="matrix" values="0 0 0 0 0 0 0 0 0 0 0 0 0 0 0 0 0 0 127 0" result="hardAlpha"/>
<feOffset dy="11.6899"/>
<feGaussianBlur stdDeviation="2.36045"/>
<feComposite in2="hardAlpha" operator="out"/>
<feColorMatrix type="matrix" values="0 0 0 0 1 0 0 0 0 1 0 0 0 0 1 0 0 0 0.25 0"/>
<feBlend mode="normal" in2="BackgroundImageFix" result="effect1_dropShadow_448_1164"/>
<feBlend mode="normal" in="SourceGraphic" in2="effect1_dropShadow_448_1164" result="shape"/>
</filter>
<filter id="filter8_d_448_1164" x="90.015" y="388.215" width="64.173" height="71.7586" filterUnits="userSpaceOnUse" color-interpolation-filters="sRGB">
<feFlood flood-opacity="0" result="BackgroundImageFix"/>
<feColorMatrix in="SourceAlpha" type="matrix" values="0 0 0 0 0 0 0 0 0 0 0 0 0 0 0 0 0 0 127 0" result="hardAlpha"/>
<feOffset dy="14.2976"/>
<feGaussianBlur stdDeviation="2.88701"/>
<feComposite in2="hardAlpha" operator="out"/>
<feColorMatrix type="matrix" values="0 0 0 0 1 0 0 0 0 1 0 0 0 0 1 0 0 0 0.25 0"/>
<feBlend mode="normal" in2="BackgroundImageFix" result="effect1_dropShadow_448_1164"/>
<feBlend mode="normal" in="SourceGraphic" in2="effect1_dropShadow_448_1164" result="shape"/>
</filter>
<filter id="filter9_d_448_1164" x="95.7611" y="364.944" width="43.8644" height="52.3885" filterUnits="userSpaceOnUse" color-interpolation-filters="sRGB">
<feFlood flood-opacity="0" result="BackgroundImageFix"/>
<feColorMatrix in="SourceAlpha" type="matrix" values="0 0 0 0 0 0 0 0 0 0 0 0 0 0 0 0 0 0 127 0" result="hardAlpha"/>
<feOffset dy="14.2976"/>
<feGaussianBlur stdDeviation="2.88701"/>
<feComposite in2="hardAlpha" operator="out"/>
<feColorMatrix type="matrix" values="0 0 0 0 1 0 0 0 0 1 0 0 0 0 1 0 0 0 0.25 0"/>
<feBlend mode="normal" in2="BackgroundImageFix" result="effect1_dropShadow_448_1164"/>
<feBlend mode="normal" in="SourceGraphic" in2="effect1_dropShadow_448_1164" result="shape"/>
</filter>
<filter id="filter10_d_448_1164" x="130.113" y="384.07" width="81.9347" height="89.0144" filterUnits="userSpaceOnUse" color-interpolation-filters="sRGB">
<feFlood flood-opacity="0" result="BackgroundImageFix"/>
<feColorMatrix in="SourceAlpha" type="matrix" values="0 0 0 0 0 0 0 0 0 0 0 0 0 0 0 0 0 0 127 0" result="hardAlpha"/>
<feOffset dy="14.2976"/>
<feGaussianBlur stdDeviation="2.88701"/>
<feComposite in2="hardAlpha" operator="out"/>
<feColorMatrix type="matrix" values="0 0 0 0 1 0 0 0 0 1 0 0 0 0 1 0 0 0 0.25 0"/>
<feBlend mode="normal" in2="BackgroundImageFix" result="effect1_dropShadow_448_1164"/>
<feBlend mode="normal" in="SourceGraphic" in2="effect1_dropShadow_448_1164" result="shape"/>
</filter>
<filter id="filter11_d_448_1164" x="193.16" y="401.932" width="36.6262" height="45.1497" filterUnits="userSpaceOnUse" color-interpolation-filters="sRGB">
<feFlood flood-opacity="0" result="BackgroundImageFix"/>
<feColorMatrix in="SourceAlpha" type="matrix" values="0 0 0 0 0 0 0 0 0 0 0 0 0 0 0 0 0 0 127 0" result="hardAlpha"/>
<feOffset dy="14.2976"/>
<feGaussianBlur stdDeviation="2.88701"/>
<feComposite in2="hardAlpha" operator="out"/>
<feColorMatrix type="matrix" values="0 0 0 0 1 0 0 0 0 1 0 0 0 0 1 0 0 0 0.25 0"/>
<feBlend mode="normal" in2="BackgroundImageFix" result="effect1_dropShadow_448_1164"/>
<feBlend mode="normal" in="SourceGraphic" in2="effect1_dropShadow_448_1164" result="shape"/>
</filter>
<filter id="filter12_d_448_1164" x="127.167" y="362.598" width="43.8644" height="52.3855" filterUnits="userSpaceOnUse" color-interpolation-filters="sRGB">
<feFlood flood-opacity="0" result="BackgroundImageFix"/>
<feColorMatrix in="SourceAlpha" type="matrix" values="0 0 0 0 0 0 0 0 0 0 0 0 0 0 0 0 0 0 127 0" result="hardAlpha"/>
<feOffset dy="14.2976"/>
<feGaussianBlur stdDeviation="2.88701"/>
<feComposite in2="hardAlpha" operator="out"/>
<feColorMatrix type="matrix" values="0 0 0 0 1 0 0 0 0 1 0 0 0 0 1 0 0 0 0.25 0"/>
<feBlend mode="normal" in2="BackgroundImageFix" result="effect1_dropShadow_448_1164"/>
<feBlend mode="normal" in="SourceGraphic" in2="effect1_dropShadow_448_1164" result="shape"/>
</filter>
<filter id="filter13_d_448_1164" x="323.928" y="402.409" width="47.6473" height="51.735" filterUnits="userSpaceOnUse" color-interpolation-filters="sRGB">
<feFlood flood-opacity="0" result="BackgroundImageFix"/>
<feColorMatrix in="SourceAlpha" type="matrix" values="0 0 0 0 0 0 0 0 0 0 0 0 0 0 0 0 0 0 127 0" result="hardAlpha"/>
<feOffset dy="8.3122"/>
<feGaussianBlur stdDeviation="1.67843"/>
<feComposite in2="hardAlpha" operator="out"/>
<feColorMatrix type="matrix" values="0 0 0 0 1 0 0 0 0 1 0 0 0 0 1 0 0 0 0.25 0"/>
<feBlend mode="normal" in2="BackgroundImageFix" result="effect1_dropShadow_448_1164"/>
<feBlend mode="normal" in="SourceGraphic" in2="effect1_dropShadow_448_1164" result="shape"/>
</filter>
<filter id="filter14_d_448_1164" x="296.82" y="406.535" width="45.6918" height="50.9581" filterUnits="userSpaceOnUse" color-interpolation-filters="sRGB">
<feFlood flood-opacity="0" result="BackgroundImageFix"/>
<feColorMatrix in="SourceAlpha" type="matrix" values="0 0 0 0 0 0 0 0 0 0 0 0 0 0 0 0 0 0 127 0" result="hardAlpha"/>
<feOffset dy="10.1664"/>
<feGaussianBlur stdDeviation="2.05284"/>
<feComposite in2="hardAlpha" operator="out"/>
<feColorMatrix type="matrix" values="0 0 0 0 1 0 0 0 0 1 0 0 0 0 1 0 0 0 0.25 0"/>
<feBlend mode="normal" in2="BackgroundImageFix" result="effect1_dropShadow_448_1164"/>
<feBlend mode="normal" in="SourceGraphic" in2="effect1_dropShadow_448_1164" result="shape"/>
</filter>
<filter id="filter15_d_448_1164" x="310.832" y="390.734" width="31.1918" height="37.2492" filterUnits="userSpaceOnUse" color-interpolation-filters="sRGB">
<feFlood flood-opacity="0" result="BackgroundImageFix"/>
<feColorMatrix in="SourceAlpha" type="matrix" values="0 0 0 0 0 0 0 0 0 0 0 0 0 0 0 0 0 0 127 0" result="hardAlpha"/>
<feOffset dy="10.1664"/>
<feGaussianBlur stdDeviation="2.05284"/>
<feComposite in2="hardAlpha" operator="out"/>
<feColorMatrix type="matrix" values="0 0 0 0 1 0 0 0 0 1 0 0 0 0 1 0 0 0 0.25 0"/>
<feBlend mode="normal" in2="BackgroundImageFix" result="effect1_dropShadow_448_1164"/>
<feBlend mode="normal" in="SourceGraphic" in2="effect1_dropShadow_448_1164" result="shape"/>
</filter>
<filter id="filter16_d_448_1164" x="255.652" y="398.061" width="58.2348" height="63.3224" filterUnits="userSpaceOnUse" color-interpolation-filters="sRGB">
<feFlood flood-opacity="0" result="BackgroundImageFix"/>
<feColorMatrix in="SourceAlpha" type="matrix" values="0 0 0 0 0 0 0 0 0 0 0 0 0 0 0 0 0 0 127 0" result="hardAlpha"/>
<feOffset dy="10.1664"/>
<feGaussianBlur stdDeviation="2.05284"/>
<feComposite in2="hardAlpha" operator="out"/>
<feColorMatrix type="matrix" values="0 0 0 0 1 0 0 0 0 1 0 0 0 0 1 0 0 0 0.25 0"/>
<feBlend mode="normal" in2="BackgroundImageFix" result="effect1_dropShadow_448_1164"/>
<feBlend mode="normal" in="SourceGraphic" in2="effect1_dropShadow_448_1164" result="shape"/>
</filter>
<filter id="filter17_d_448_1164" x="240.957" y="408.793" width="26.0434" height="32.1071" filterUnits="userSpaceOnUse" color-interpolation-filters="sRGB">
<feFlood flood-opacity="0" result="BackgroundImageFix"/>
<feColorMatrix in="SourceAlpha" type="matrix" values="0 0 0 0 0 0 0 0 0 0 0 0 0 0 0 0 0 0 127 0" result="hardAlpha"/>
<feOffset dy="10.1664"/>
<feGaussianBlur stdDeviation="2.05284"/>
<feComposite in2="hardAlpha" operator="out"/>
<feColorMatrix type="matrix" values="0 0 0 0 1 0 0 0 0 1 0 0 0 0 1 0 0 0 0.25 0"/>
<feBlend mode="normal" in2="BackgroundImageFix" result="effect1_dropShadow_448_1164"/>
<feBlend mode="normal" in="SourceGraphic" in2="effect1_dropShadow_448_1164" result="shape"/>
</filter>
<filter id="filter18_d_448_1164" x="289.035" y="385.597" width="31.184" height="37.2457" filterUnits="userSpaceOnUse" color-interpolation-filters="sRGB">
<feFlood flood-opacity="0" result="BackgroundImageFix"/>
<feColorMatrix in="SourceAlpha" type="matrix" values="0 0 0 0 0 0 0 0 0 0 0 0 0 0 0 0 0 0 127 0" result="hardAlpha"/>
<feOffset dy="10.1664"/>
<feGaussianBlur stdDeviation="2.05284"/>
<feComposite in2="hardAlpha" operator="out"/>
<feColorMatrix type="matrix" values="0 0 0 0 1 0 0 0 0 1 0 0 0 0 1 0 0 0 0.25 0"/>
<feBlend mode="normal" in2="BackgroundImageFix" result="effect1_dropShadow_448_1164"/>
<feBlend mode="normal" in="SourceGraphic" in2="effect1_dropShadow_448_1164" result="shape"/>
</filter>
<radialGradient id="paint0_radial_448_1164" cx="0" cy="0" r="1" gradientUnits="userSpaceOnUse" gradientTransform="translate(210.151 191.325) rotate(81.6059) scale(365.815 220.281)">
<stop/>
<stop offset="1" stop-color="#2D2828"/>
</radialGradient>
<linearGradient id="paint1_linear_448_1164" x1="219.832" y1="0.643066" x2="220.146" y2="32.3053" gradientUnits="userSpaceOnUse">
<stop stop-color="#666666"/>
<stop offset="1" stop-color="#D9D9D9" stop-opacity="0"/>
</linearGradient>
</defs>
</svg>
